<?xml version="1.0" encoding="utf-8" standalone="no"?>
<!DOCTYPE svg PUBLIC "-//W3C//DTD SVG 1.1//EN"
  "http://www.w3.org/Graphics/SVG/1.1/DTD/svg11.dtd">
<!-- Created with matplotlib (http://matplotlib.org/) -->
<svg height="504pt" version="1.1" viewBox="0 0 504 504" width="504pt" xmlns="http://www.w3.org/2000/svg" xmlns:xlink="http://www.w3.org/1999/xlink">
 <defs>
  <style type="text/css">
*{stroke-linecap:butt;stroke-linejoin:round;}
  </style>
 </defs>
 <g id="figure_1">
  <g id="patch_1">
   <path d="
M0 504
L504 504
L504 0
L0 0
z
" style="fill:#ffffff;"/>
  </g>
  <g id="axes_1">
   <g id="patch_2">
    <path d="
M63 441
L453.6 441
L453.6 50.4
L63 50.4
z
" style="fill:#ffffff;"/>
   </g>
   <g id="line2d_1">
    <defs>
     <path d="
M-3 3
L3 -3
M-3 -3
L3 3" id="m7a01b90040" style="stroke:#ff0000;stroke-width:0.5;"/>
    </defs>
    <g clip-path="url(#p41d7ee9abc)">
     <use style="fill:#ff0000;stroke:#ff0000;stroke-width:0.5;" x="423.283225414" xlink:href="#m7a01b90040" y="188.274034521"/>
     <use style="fill:#ff0000;stroke:#ff0000;stroke-width:0.5;" x="180.977747079" xlink:href="#m7a01b90040" y="198.790801144"/>
     <use style="fill:#ff0000;stroke:#ff0000;stroke-width:0.5;" x="120.304565084" xlink:href="#m7a01b90040" y="234.285434957"/>
     <use style="fill:#ff0000;stroke:#ff0000;stroke-width:0.5;" x="127.543457628" xlink:href="#m7a01b90040" y="236.867486389"/>
     <use style="fill:#ff0000;stroke:#ff0000;stroke-width:0.5;" x="360.815102269" xlink:href="#m7a01b90040" y="225.457022293"/>
     <use style="fill:#ff0000;stroke:#ff0000;stroke-width:0.5;" x="311.614831068" xlink:href="#m7a01b90040" y="273.32643643"/>
     <use style="fill:#ff0000;stroke:#ff0000;stroke-width:0.5;" x="365.142634105" xlink:href="#m7a01b90040" y="79.8431252131"/>
     <use style="fill:#ff0000;stroke:#ff0000;stroke-width:0.5;" x="411.65942639" xlink:href="#m7a01b90040" y="89.3565952607"/>
     <use style="fill:#ff0000;stroke:#ff0000;stroke-width:0.5;" x="198.936307845" xlink:href="#m7a01b90040" y="204.44200352"/>
     <use style="fill:#ff0000;stroke:#ff0000;stroke-width:0.5;" x="408.440811697" xlink:href="#m7a01b90040" y="84.456775444"/>
     <use style="fill:#ff0000;stroke:#ff0000;stroke-width:0.5;" x="311.113946594" xlink:href="#m7a01b90040" y="283.307654014"/>
     <use style="fill:#ff0000;stroke:#ff0000;stroke-width:0.5;" x="112.078851516" xlink:href="#m7a01b90040" y="225.88998312"/>
     <use style="fill:#ff0000;stroke:#ff0000;stroke-width:0.5;" x="351.555800274" xlink:href="#m7a01b90040" y="94.3886069629"/>
     <use style="fill:#ff0000;stroke:#ff0000;stroke-width:0.5;" x="167.029483715" xlink:href="#m7a01b90040" y="424.708389252"/>
     <use style="fill:#ff0000;stroke:#ff0000;stroke-width:0.5;" x="298.227128357" xlink:href="#m7a01b90040" y="204.422350941"/>
     <use style="fill:#ff0000;stroke:#ff0000;stroke-width:0.5;" x="340.857581902" xlink:href="#m7a01b90040" y="232.580018384"/>
     <use style="fill:#ff0000;stroke:#ff0000;stroke-width:0.5;" x="418.274848426" xlink:href="#m7a01b90040" y="89.4653696264"/>
     <use style="fill:#ff0000;stroke:#ff0000;stroke-width:0.5;" x="373.897789919" xlink:href="#m7a01b90040" y="90.9763501008"/>
     <use style="fill:#ff0000;stroke:#ff0000;stroke-width:0.5;" x="212.587899939" xlink:href="#m7a01b90040" y="209.420994198"/>
     <use style="fill:#ff0000;stroke:#ff0000;stroke-width:0.5;" x="414.631561437" xlink:href="#m7a01b90040" y="76.4091098508"/>
     <use style="fill:#ff0000;stroke:#ff0000;stroke-width:0.5;" x="95.4049202296" xlink:href="#m7a01b90040" y="278.575368055"/>
     <use style="fill:#ff0000;stroke:#ff0000;stroke-width:0.5;" x="309.47653661" xlink:href="#m7a01b90040" y="272.138348833"/>
     <use style="fill:#ff0000;stroke:#ff0000;stroke-width:0.5;" x="208.757541591" xlink:href="#m7a01b90040" y="151.069641786"/>
     <use style="fill:#ff0000;stroke:#ff0000;stroke-width:0.5;" x="371.892789686" xlink:href="#m7a01b90040" y="103.708692892"/>
     <use style="fill:#ff0000;stroke:#ff0000;stroke-width:0.5;" x="423.087962272" xlink:href="#m7a01b90040" y="176.520210852"/>
     <use style="fill:#ff0000;stroke:#ff0000;stroke-width:0.5;" x="189.648610531" xlink:href="#m7a01b90040" y="213.067589642"/>
     <use style="fill:#ff0000;stroke:#ff0000;stroke-width:0.5;" x="196.456178466" xlink:href="#m7a01b90040" y="202.779784249"/>
     <use style="fill:#ff0000;stroke:#ff0000;stroke-width:0.5;" x="370.937949806" xlink:href="#m7a01b90040" y="104.533075746"/>
     <use style="fill:#ff0000;stroke:#ff0000;stroke-width:0.5;" x="423.129289449" xlink:href="#m7a01b90040" y="181.914176176"/>
     <use style="fill:#ff0000;stroke:#ff0000;stroke-width:0.5;" x="205.142734721" xlink:href="#m7a01b90040" y="154.513515771"/>
     <use style="fill:#ff0000;stroke:#ff0000;stroke-width:0.5;" x="185.903312345" xlink:href="#m7a01b90040" y="206.176117833"/>
     <use style="fill:#ff0000;stroke:#ff0000;stroke-width:0.5;" x="201.635638188" xlink:href="#m7a01b90040" y="158.67879239"/>
     <use style="fill:#ff0000;stroke:#ff0000;stroke-width:0.5;" x="328.114654711" xlink:href="#m7a01b90040" y="200.437720252"/>
     <use style="fill:#ff0000;stroke:#ff0000;stroke-width:0.5;" x="422.7123881" xlink:href="#m7a01b90040" y="156.944364372"/>
     <use style="fill:#ff0000;stroke:#ff0000;stroke-width:0.5;" x="369.48943208" xlink:href="#m7a01b90040" y="326.925356832"/>
     <use style="fill:#ff0000;stroke:#ff0000;stroke-width:0.5;" x="169.799046687" xlink:href="#m7a01b90040" y="424.967243955"/>
     <use style="fill:#ff0000;stroke:#ff0000;stroke-width:0.5;" x="205.388374105" xlink:href="#m7a01b90040" y="204.659054965"/>
     <use style="fill:#ff0000;stroke:#ff0000;stroke-width:0.5;" x="283.610678756" xlink:href="#m7a01b90040" y="179.74608962"/>
     <use style="fill:#ff0000;stroke:#ff0000;stroke-width:0.5;" x="422.799501631" xlink:href="#m7a01b90040" y="160.109925319"/>
     <use style="fill:#ff0000;stroke:#ff0000;stroke-width:0.5;" x="437.327939848" xlink:href="#m7a01b90040" y="70.7855800515"/>
     <use style="fill:#ff0000;stroke:#ff0000;stroke-width:0.5;" x="450.65807621" xlink:href="#m7a01b90040" y="193.530524738"/>
     <use style="fill:#ff0000;stroke:#ff0000;stroke-width:0.5;" x="198.001907777" xlink:href="#m7a01b90040" y="224.93148831"/>
     <use style="fill:#ff0000;stroke:#ff0000;stroke-width:0.5;" x="304.560450551" xlink:href="#m7a01b90040" y="207.607543707"/>
     <use style="fill:#ff0000;stroke:#ff0000;stroke-width:0.5;" x="132.342261897" xlink:href="#m7a01b90040" y="239.471574708"/>
     <use style="fill:#ff0000;stroke:#ff0000;stroke-width:0.5;" x="415.628085615" xlink:href="#m7a01b90040" y="184.082347262"/>
     <use style="fill:#ff0000;stroke:#ff0000;stroke-width:0.5;" x="120.413611813" xlink:href="#m7a01b90040" y="108.596963124"/>
     <use style="fill:#ff0000;stroke:#ff0000;stroke-width:0.5;" x="205.800932478" xlink:href="#m7a01b90040" y="210.94864658"/>
     <use style="fill:#ff0000;stroke:#ff0000;stroke-width:0.5;" x="173.382034455" xlink:href="#m7a01b90040" y="420.861601468"/>
     <use style="fill:#ff0000;stroke:#ff0000;stroke-width:0.5;" x="423.259379996" xlink:href="#m7a01b90040" y="190.453892097"/>
     <use style="fill:#ff0000;stroke:#ff0000;stroke-width:0.5;" x="344.884948733" xlink:href="#m7a01b90040" y="104.939622089"/>
     <use style="fill:#ff0000;stroke:#ff0000;stroke-width:0.5;" x="342.822173954" xlink:href="#m7a01b90040" y="201.780670022"/>
     <use style="fill:#ff0000;stroke:#ff0000;stroke-width:0.5;" x="183.955752597" xlink:href="#m7a01b90040" y="435.121895445"/>
     <use style="fill:#ff0000;stroke:#ff0000;stroke-width:0.5;" x="381.570605381" xlink:href="#m7a01b90040" y="181.420867259"/>
     <use style="fill:#ff0000;stroke:#ff0000;stroke-width:0.5;" x="328.247047401" xlink:href="#m7a01b90040" y="231.701003565"/>
     <use style="fill:#ff0000;stroke:#ff0000;stroke-width:0.5;" x="238.799406957" xlink:href="#m7a01b90040" y="172.618915865"/>
     <use style="fill:#ff0000;stroke:#ff0000;stroke-width:0.5;" x="311.816564296" xlink:href="#m7a01b90040" y="273.06381293"/>
     <use style="fill:#ff0000;stroke:#ff0000;stroke-width:0.5;" x="206.921323937" xlink:href="#m7a01b90040" y="148.225653344"/>
     <use style="fill:#ff0000;stroke:#ff0000;stroke-width:0.5;" x="314.426723845" xlink:href="#m7a01b90040" y="279.52594635"/>
     <use style="fill:#ff0000;stroke:#ff0000;stroke-width:0.5;" x="119.724605824" xlink:href="#m7a01b90040" y="272.29357183"/>
     <use style="fill:#ff0000;stroke:#ff0000;stroke-width:0.5;" x="378.436050867" xlink:href="#m7a01b90040" y="86.6966424439"/>
     <use style="fill:#ff0000;stroke:#ff0000;stroke-width:0.5;" x="148.169710574" xlink:href="#m7a01b90040" y="273.782628313"/>
     <use style="fill:#ff0000;stroke:#ff0000;stroke-width:0.5;" x="303.087016462" xlink:href="#m7a01b90040" y="214.849249659"/>
     <use style="fill:#ff0000;stroke:#ff0000;stroke-width:0.5;" x="369.134484455" xlink:href="#m7a01b90040" y="106.574809049"/>
     <use style="fill:#ff0000;stroke:#ff0000;stroke-width:0.5;" x="407.815696913" xlink:href="#m7a01b90040" y="80.9228021067"/>
     <use style="fill:#ff0000;stroke:#ff0000;stroke-width:0.5;" x="400.840067974" xlink:href="#m7a01b90040" y="92.6283327027"/>
     <use style="fill:#ff0000;stroke:#ff0000;stroke-width:0.5;" x="374.659553076" xlink:href="#m7a01b90040" y="98.5185115899"/>
     <use style="fill:#ff0000;stroke:#ff0000;stroke-width:0.5;" x="423.088150705" xlink:href="#m7a01b90040" y="182.044622284"/>
     <use style="fill:#ff0000;stroke:#ff0000;stroke-width:0.5;" x="129.706806738" xlink:href="#m7a01b90040" y="100.448721876"/>
     <use style="fill:#ff0000;stroke:#ff0000;stroke-width:0.5;" x="183.114480199" xlink:href="#m7a01b90040" y="201.235316632"/>
     <use style="fill:#ff0000;stroke:#ff0000;stroke-width:0.5;" x="345.803777857" xlink:href="#m7a01b90040" y="100.308401578"/>
     <use style="fill:#ff0000;stroke:#ff0000;stroke-width:0.5;" x="375.682620421" xlink:href="#m7a01b90040" y="90.5429930248"/>
     <use style="fill:#ff0000;stroke:#ff0000;stroke-width:0.5;" x="125.209858611" xlink:href="#m7a01b90040" y="235.954268886"/>
     <use style="fill:#ff0000;stroke:#ff0000;stroke-width:0.5;" x="418.389163676" xlink:href="#m7a01b90040" y="73.2478153938"/>
     <use style="fill:#ff0000;stroke:#ff0000;stroke-width:0.5;" x="184.027792074" xlink:href="#m7a01b90040" y="440.026379602"/>
     <use style="fill:#ff0000;stroke:#ff0000;stroke-width:0.5;" x="373.666333545" xlink:href="#m7a01b90040" y="102.972430399"/>
     <use style="fill:#ff0000;stroke:#ff0000;stroke-width:0.5;" x="423.145161064" xlink:href="#m7a01b90040" y="183.097857506"/>
     <use style="fill:#ff0000;stroke:#ff0000;stroke-width:0.5;" x="181.091173885" xlink:href="#m7a01b90040" y="435.790304506"/>
     <use style="fill:#ff0000;stroke:#ff0000;stroke-width:0.5;" x="422.08055537" xlink:href="#m7a01b90040" y="125.947610294"/>
     <use style="fill:#ff0000;stroke:#ff0000;stroke-width:0.5;" x="403.514761874" xlink:href="#m7a01b90040" y="181.163151258"/>
     <use style="fill:#ff0000;stroke:#ff0000;stroke-width:0.5;" x="390.583228789" xlink:href="#m7a01b90040" y="191.982578761"/>
     <use style="fill:#ff0000;stroke:#ff0000;stroke-width:0.5;" x="356.275167472" xlink:href="#m7a01b90040" y="84.1111306558"/>
     <use style="fill:#ff0000;stroke:#ff0000;stroke-width:0.5;" x="125.197564548" xlink:href="#m7a01b90040" y="270.946708331"/>
     <use style="fill:#ff0000;stroke:#ff0000;stroke-width:0.5;" x="364.60809936" xlink:href="#m7a01b90040" y="207.761526248"/>
     <use style="fill:#ff0000;stroke:#ff0000;stroke-width:0.5;" x="335.171301945" xlink:href="#m7a01b90040" y="230.985719123"/>
     <use style="fill:#ff0000;stroke:#ff0000;stroke-width:0.5;" x="171.468516109" xlink:href="#m7a01b90040" y="292.413644609"/>
     <use style="fill:#ff0000;stroke:#ff0000;stroke-width:0.5;" x="374.564530051" xlink:href="#m7a01b90040" y="87.8999139322"/>
     <use style="fill:#ff0000;stroke:#ff0000;stroke-width:0.5;" x="372.114598191" xlink:href="#m7a01b90040" y="280.846306893"/>
     <use style="fill:#ff0000;stroke:#ff0000;stroke-width:0.5;" x="330.419326142" xlink:href="#m7a01b90040" y="229.574728675"/>
     <use style="fill:#ff0000;stroke:#ff0000;stroke-width:0.5;" x="173.377793783" xlink:href="#m7a01b90040" y="411.693209527"/>
     <use style="fill:#ff0000;stroke:#ff0000;stroke-width:0.5;" x="414.760684812" xlink:href="#m7a01b90040" y="76.8722765612"/>
     <use style="fill:#ff0000;stroke:#ff0000;stroke-width:0.5;" x="365.762722358" xlink:href="#m7a01b90040" y="201.593007551"/>
     <use style="fill:#ff0000;stroke:#ff0000;stroke-width:0.5;" x="206.145340735" xlink:href="#m7a01b90040" y="204.642133379"/>
     <use style="fill:#ff0000;stroke:#ff0000;stroke-width:0.5;" x="307.745971469" xlink:href="#m7a01b90040" y="282.809312285"/>
     <use style="fill:#ff0000;stroke:#ff0000;stroke-width:0.5;" x="393.568384377" xlink:href="#m7a01b90040" y="181.830063701"/>
     <use style="fill:#ff0000;stroke:#ff0000;stroke-width:0.5;" x="204.048748176" xlink:href="#m7a01b90040" y="154.905183196"/>
     <use style="fill:#ff0000;stroke:#ff0000;stroke-width:0.5;" x="228.801831572" xlink:href="#m7a01b90040" y="198.835100806"/>
     <use style="fill:#ff0000;stroke:#ff0000;stroke-width:0.5;" x="378.743603951" xlink:href="#m7a01b90040" y="87.1104175734"/>
     <use style="fill:#ff0000;stroke:#ff0000;stroke-width:0.5;" x="409.353076925" xlink:href="#m7a01b90040" y="182.246734828"/>
     <use style="fill:#ff0000;stroke:#ff0000;stroke-width:0.5;" x="423.0630717" xlink:href="#m7a01b90040" y="178.240341939"/>
     <use style="fill:#ff0000;stroke:#ff0000;stroke-width:0.5;" x="205.089080738" xlink:href="#m7a01b90040" y="153.634082649"/>
     <use style="fill:#ff0000;stroke:#ff0000;stroke-width:0.5;" x="283.618663658" xlink:href="#m7a01b90040" y="178.77662508"/>
     <use style="fill:#ff0000;stroke:#ff0000;stroke-width:0.5;" x="422.805066871" xlink:href="#m7a01b90040" y="158.406719546"/>
     <use style="fill:#ff0000;stroke:#ff0000;stroke-width:0.5;" x="355.709129555" xlink:href="#m7a01b90040" y="89.0756109411"/>
     <use style="fill:#ff0000;stroke:#ff0000;stroke-width:0.5;" x="132.187098617" xlink:href="#m7a01b90040" y="268.586827433"/>
     <use style="fill:#ff0000;stroke:#ff0000;stroke-width:0.5;" x="183.212168879" xlink:href="#m7a01b90040" y="433.65944548"/>
     <use style="fill:#ff0000;stroke:#ff0000;stroke-width:0.5;" x="192.305860708" xlink:href="#m7a01b90040" y="206.624170829"/>
     <use style="fill:#ff0000;stroke:#ff0000;stroke-width:0.5;" x="368.76809484" xlink:href="#m7a01b90040" y="65.1142763668"/>
     <use style="fill:#ff0000;stroke:#ff0000;stroke-width:0.5;" x="122.96117402" xlink:href="#m7a01b90040" y="109.14886897"/>
     <use style="fill:#ff0000;stroke:#ff0000;stroke-width:0.5;" x="284.641260438" xlink:href="#m7a01b90040" y="181.481544428"/>
     <use style="fill:#ff0000;stroke:#ff0000;stroke-width:0.5;" x="171.018423037" xlink:href="#m7a01b90040" y="429.649702203"/>
     <use style="fill:#ff0000;stroke:#ff0000;stroke-width:0.5;" x="317.005946157" xlink:href="#m7a01b90040" y="239.800533338"/>
     <use style="fill:#ff0000;stroke:#ff0000;stroke-width:0.5;" x="312.312208653" xlink:href="#m7a01b90040" y="279.709409844"/>
     <use style="fill:#ff0000;stroke:#ff0000;stroke-width:0.5;" x="231.375995188" xlink:href="#m7a01b90040" y="195.393008994"/>
     <use style="fill:#ff0000;stroke:#ff0000;stroke-width:0.5;" x="372.674525421" xlink:href="#m7a01b90040" y="327.106248284"/>
     <use style="fill:#ff0000;stroke:#ff0000;stroke-width:0.5;" x="130.91898231" xlink:href="#m7a01b90040" y="240.396693042"/>
     <use style="fill:#ff0000;stroke:#ff0000;stroke-width:0.5;" x="123.231139156" xlink:href="#m7a01b90040" y="105.810889863"/>
     <use style="fill:#ff0000;stroke:#ff0000;stroke-width:0.5;" x="422.115955695" xlink:href="#m7a01b90040" y="122.986086471"/>
     <use style="fill:#ff0000;stroke:#ff0000;stroke-width:0.5;" x="374.419746489" xlink:href="#m7a01b90040" y="185.198288858"/>
     <use style="fill:#ff0000;stroke:#ff0000;stroke-width:0.5;" x="370.688214701" xlink:href="#m7a01b90040" y="325.716893632"/>
     <use style="fill:#ff0000;stroke:#ff0000;stroke-width:0.5;" x="119.987475521" xlink:href="#m7a01b90040" y="106.944543566"/>
     <use style="fill:#ff0000;stroke:#ff0000;stroke-width:0.5;" x="184.429337485" xlink:href="#m7a01b90040" y="204.684093368"/>
     <use style="fill:#ff0000;stroke:#ff0000;stroke-width:0.5;" x="357.814039937" xlink:href="#m7a01b90040" y="98.6699629924"/>
     <use style="fill:#ff0000;stroke:#ff0000;stroke-width:0.5;" x="331.87029899" xlink:href="#m7a01b90040" y="210.159293877"/>
     <use style="fill:#ff0000;stroke:#ff0000;stroke-width:0.5;" x="120.936844443" xlink:href="#m7a01b90040" y="109.80072506"/>
     <use style="fill:#ff0000;stroke:#ff0000;stroke-width:0.5;" x="357.491266104" xlink:href="#m7a01b90040" y="325.423248522"/>
     <use style="fill:#ff0000;stroke:#ff0000;stroke-width:0.5;" x="131.709814337" xlink:href="#m7a01b90040" y="240.632250637"/>
     <use style="fill:#ff0000;stroke:#ff0000;stroke-width:0.5;" x="378.243076394" xlink:href="#m7a01b90040" y="84.1674521466"/>
     <use style="fill:#ff0000;stroke:#ff0000;stroke-width:0.5;" x="363.235805727" xlink:href="#m7a01b90040" y="327.023359929"/>
     <use style="fill:#ff0000;stroke:#ff0000;stroke-width:0.5;" x="193.246881258" xlink:href="#m7a01b90040" y="206.192168507"/>
     <use style="fill:#ff0000;stroke:#ff0000;stroke-width:0.5;" x="209.085761217" xlink:href="#m7a01b90040" y="148.671905328"/>
     <use style="fill:#ff0000;stroke:#ff0000;stroke-width:0.5;" x="378.696589084" xlink:href="#m7a01b90040" y="89.8854204438"/>
     <use style="fill:#ff0000;stroke:#ff0000;stroke-width:0.5;" x="314.602782099" xlink:href="#m7a01b90040" y="202.176557452"/>
     <use style="fill:#ff0000;stroke:#ff0000;stroke-width:0.5;" x="359.784051911" xlink:href="#m7a01b90040" y="329.518086307"/>
     <use style="fill:#ff0000;stroke:#ff0000;stroke-width:0.5;" x="348.798296158" xlink:href="#m7a01b90040" y="255.058170742"/>
     <use style="fill:#ff0000;stroke:#ff0000;stroke-width:0.5;" x="209.753540878" xlink:href="#m7a01b90040" y="211.456630654"/>
     <use style="fill:#ff0000;stroke:#ff0000;stroke-width:0.5;" x="368.783752188" xlink:href="#m7a01b90040" y="188.378790018"/>
     <use style="fill:#ff0000;stroke:#ff0000;stroke-width:0.5;" x="281.027360402" xlink:href="#m7a01b90040" y="175.786370009"/>
     <use style="fill:#ff0000;stroke:#ff0000;stroke-width:0.5;" x="185.09752062" xlink:href="#m7a01b90040" y="202.79956856"/>
     <use style="fill:#ff0000;stroke:#ff0000;stroke-width:0.5;" x="330.024948572" xlink:href="#m7a01b90040" y="208.77197433"/>
     <use style="fill:#ff0000;stroke:#ff0000;stroke-width:0.5;" x="314.460388069" xlink:href="#m7a01b90040" y="227.18231093"/>
     <use style="fill:#ff0000;stroke:#ff0000;stroke-width:0.5;" x="335.735731153" xlink:href="#m7a01b90040" y="234.053941508"/>
     <use style="fill:#ff0000;stroke:#ff0000;stroke-width:0.5;" x="372.816434323" xlink:href="#m7a01b90040" y="96.0656299913"/>
     <use style="fill:#ff0000;stroke:#ff0000;stroke-width:0.5;" x="324.749345429" xlink:href="#m7a01b90040" y="279.757650937"/>
     <use style="fill:#ff0000;stroke:#ff0000;stroke-width:0.5;" x="317.155050299" xlink:href="#m7a01b90040" y="205.227963731"/>
     <use style="fill:#ff0000;stroke:#ff0000;stroke-width:0.5;" x="334.620263364" xlink:href="#m7a01b90040" y="236.781850955"/>
     <use style="fill:#ff0000;stroke:#ff0000;stroke-width:0.5;" x="365.009406877" xlink:href="#m7a01b90040" y="81.4860129575"/>
     <use style="fill:#ff0000;stroke:#ff0000;stroke-width:0.5;" x="327.583754619" xlink:href="#m7a01b90040" y="196.213272201"/>
     <use style="fill:#ff0000;stroke:#ff0000;stroke-width:0.5;" x="335.923774257" xlink:href="#m7a01b90040" y="230.911048568"/>
     <use style="fill:#ff0000;stroke:#ff0000;stroke-width:0.5;" x="353.328031583" xlink:href="#m7a01b90040" y="94.6872890247"/>
     <use style="fill:#ff0000;stroke:#ff0000;stroke-width:0.5;" x="355.78465978" xlink:href="#m7a01b90040" y="85.393537878"/>
     <use style="fill:#ff0000;stroke:#ff0000;stroke-width:0.5;" x="130.268418516" xlink:href="#m7a01b90040" y="108.364507777"/>
     <use style="fill:#ff0000;stroke:#ff0000;stroke-width:0.5;" x="422.430326351" xlink:href="#m7a01b90040" y="143.562998576"/>
     <use style="fill:#ff0000;stroke:#ff0000;stroke-width:0.5;" x="184.449629874" xlink:href="#m7a01b90040" y="288.22317742"/>
     <use style="fill:#ff0000;stroke:#ff0000;stroke-width:0.5;" x="279.497400456" xlink:href="#m7a01b90040" y="175.549402168"/>
     <use style="fill:#ff0000;stroke:#ff0000;stroke-width:0.5;" x="359.431894921" xlink:href="#m7a01b90040" y="95.3984687809"/>
     <use style="fill:#ff0000;stroke:#ff0000;stroke-width:0.5;" x="330.033202791" xlink:href="#m7a01b90040" y="227.180058452"/>
     <use style="fill:#ff0000;stroke:#ff0000;stroke-width:0.5;" x="171.167866062" xlink:href="#m7a01b90040" y="301.165304173"/>
     <use style="fill:#ff0000;stroke:#ff0000;stroke-width:0.5;" x="372.689069098" xlink:href="#m7a01b90040" y="103.31243454"/>
     <use style="fill:#ff0000;stroke:#ff0000;stroke-width:0.5;" x="361.541018907" xlink:href="#m7a01b90040" y="189.649471572"/>
     <use style="fill:#ff0000;stroke:#ff0000;stroke-width:0.5;" x="380.916006189" xlink:href="#m7a01b90040" y="176.327037692"/>
     <use style="fill:#ff0000;stroke:#ff0000;stroke-width:0.5;" x="340.002221591" xlink:href="#m7a01b90040" y="250.849235493"/>
     <use style="fill:#ff0000;stroke:#ff0000;stroke-width:0.5;" x="395.160734304" xlink:href="#m7a01b90040" y="185.552583291"/>
     <use style="fill:#ff0000;stroke:#ff0000;stroke-width:0.5;" x="315.253664771" xlink:href="#m7a01b90040" y="281.460279848"/>
     <use style="fill:#ff0000;stroke:#ff0000;stroke-width:0.5;" x="316.004811152" xlink:href="#m7a01b90040" y="278.107348002"/>
     <use style="fill:#ff0000;stroke:#ff0000;stroke-width:0.5;" x="124.390990747" xlink:href="#m7a01b90040" y="235.435727554"/>
     <use style="fill:#ff0000;stroke:#ff0000;stroke-width:0.5;" x="321.180074139" xlink:href="#m7a01b90040" y="279.62172932"/>
     <use style="fill:#ff0000;stroke:#ff0000;stroke-width:0.5;" x="422.623935943" xlink:href="#m7a01b90040" y="156.395121688"/>
     <use style="fill:#ff0000;stroke:#ff0000;stroke-width:0.5;" x="203.675616993" xlink:href="#m7a01b90040" y="152.62611158"/>
     <use style="fill:#ff0000;stroke:#ff0000;stroke-width:0.5;" x="188.189617743" xlink:href="#m7a01b90040" y="278.515686491"/>
     <use style="fill:#ff0000;stroke:#ff0000;stroke-width:0.5;" x="145.322712064" xlink:href="#m7a01b90040" y="262.894322652"/>
     <use style="fill:#ff0000;stroke:#ff0000;stroke-width:0.5;" x="120.931286515" xlink:href="#m7a01b90040" y="102.532563625"/>
     <use style="fill:#ff0000;stroke:#ff0000;stroke-width:0.5;" x="323.025949564" xlink:href="#m7a01b90040" y="250.914156639"/>
     <use style="fill:#ff0000;stroke:#ff0000;stroke-width:0.5;" x="335.296679374" xlink:href="#m7a01b90040" y="248.410796647"/>
     <use style="fill:#ff0000;stroke:#ff0000;stroke-width:0.5;" x="119.408271817" xlink:href="#m7a01b90040" y="111.733619034"/>
     <use style="fill:#ff0000;stroke:#ff0000;stroke-width:0.5;" x="319.608582262" xlink:href="#m7a01b90040" y="193.461736854"/>
     <use style="fill:#ff0000;stroke:#ff0000;stroke-width:0.5;" x="372.691414255" xlink:href="#m7a01b90040" y="98.2276998579"/>
     <use style="fill:#ff0000;stroke:#ff0000;stroke-width:0.5;" x="365.935458413" xlink:href="#m7a01b90040" y="331.728532534"/>
     <use style="fill:#ff0000;stroke:#ff0000;stroke-width:0.5;" x="369.413553063" xlink:href="#m7a01b90040" y="189.18143447"/>
     <use style="fill:#ff0000;stroke:#ff0000;stroke-width:0.5;" x="408.813365803" xlink:href="#m7a01b90040" y="193.458673698"/>
     <use style="fill:#ff0000;stroke:#ff0000;stroke-width:0.5;" x="377.057746712" xlink:href="#m7a01b90040" y="84.2510855307"/>
     <use style="fill:#ff0000;stroke:#ff0000;stroke-width:0.5;" x="180.700441521" xlink:href="#m7a01b90040" y="417.775457168"/>
     <use style="fill:#ff0000;stroke:#ff0000;stroke-width:0.5;" x="185.019363235" xlink:href="#m7a01b90040" y="205.021381376"/>
     <use style="fill:#ff0000;stroke:#ff0000;stroke-width:0.5;" x="422.111827593" xlink:href="#m7a01b90040" y="71.2956701916"/>
     <use style="fill:#ff0000;stroke:#ff0000;stroke-width:0.5;" x="375.098503741" xlink:href="#m7a01b90040" y="89.7491936693"/>
     <use style="fill:#ff0000;stroke:#ff0000;stroke-width:0.5;" x="361.110749509" xlink:href="#m7a01b90040" y="203.135482832"/>
     <use style="fill:#ff0000;stroke:#ff0000;stroke-width:0.5;" x="229.194309414" xlink:href="#m7a01b90040" y="205.023476671"/>
     <use style="fill:#ff0000;stroke:#ff0000;stroke-width:0.5;" x="179.442528492" xlink:href="#m7a01b90040" y="422.059091038"/>
     <use style="fill:#ff0000;stroke:#ff0000;stroke-width:0.5;" x="195.745097887" xlink:href="#m7a01b90040" y="208.609348646"/>
     <use style="fill:#ff0000;stroke:#ff0000;stroke-width:0.5;" x="185.662829769" xlink:href="#m7a01b90040" y="205.623127439"/>
     <use style="fill:#ff0000;stroke:#ff0000;stroke-width:0.5;" x="423.024013974" xlink:href="#m7a01b90040" y="172.44151521"/>
     <use style="fill:#ff0000;stroke:#ff0000;stroke-width:0.5;" x="200.055707765" xlink:href="#m7a01b90040" y="157.95233369"/>
     <use style="fill:#ff0000;stroke:#ff0000;stroke-width:0.5;" x="368.281582174" xlink:href="#m7a01b90040" y="101.661047066"/>
     <use style="fill:#ff0000;stroke:#ff0000;stroke-width:0.5;" x="127.019378088" xlink:href="#m7a01b90040" y="109.059749847"/>
     <use style="fill:#ff0000;stroke:#ff0000;stroke-width:0.5;" x="410.696910989" xlink:href="#m7a01b90040" y="86.1096672597"/>
     <use style="fill:#ff0000;stroke:#ff0000;stroke-width:0.5;" x="94.2395304552" xlink:href="#m7a01b90040" y="284.044292778"/>
     <use style="fill:#ff0000;stroke:#ff0000;stroke-width:0.5;" x="107.860505725" xlink:href="#m7a01b90040" y="279.165557599"/>
     <use style="fill:#ff0000;stroke:#ff0000;stroke-width:0.5;" x="317.919745306" xlink:href="#m7a01b90040" y="283.958640742"/>
     <use style="fill:#ff0000;stroke:#ff0000;stroke-width:0.5;" x="369.56796721" xlink:href="#m7a01b90040" y="170.213258693"/>
     <use style="fill:#ff0000;stroke:#ff0000;stroke-width:0.5;" x="311.645384851" xlink:href="#m7a01b90040" y="272.123302698"/>
     <use style="fill:#ff0000;stroke:#ff0000;stroke-width:0.5;" x="127.261420564" xlink:href="#m7a01b90040" y="104.313330333"/>
    </g>
   </g>
   <g id="patch_3">
    <path d="
M453.6 441
L453.6 50.4" style="fill:none;stroke:#000000;stroke-linecap:square;stroke-linejoin:miter;"/>
   </g>
   <g id="patch_4">
    <path d="
M63 441
L63 50.4" style="fill:none;stroke:#000000;stroke-linecap:square;stroke-linejoin:miter;"/>
   </g>
   <g id="patch_5">
    <path d="
M63 50.4
L453.6 50.4" style="fill:none;stroke:#000000;stroke-linecap:square;stroke-linejoin:miter;"/>
   </g>
   <g id="patch_6">
    <path d="
M63 441
L453.6 441" style="fill:none;stroke:#000000;stroke-linecap:square;stroke-linejoin:miter;"/>
   </g>
   <g id="matplotlib.axis_1">
    <g id="xtick_1">
     <g id="line2d_2">
      <defs>
       <path d="
M0 0
L0 -4" id="mc7db9fdffb" style="stroke:#000000;stroke-width:0.5;"/>
      </defs>
      <g>
       <use style="stroke:#000000;stroke-width:0.5;" x="63.0" xlink:href="#mc7db9fdffb" y="441.0"/>
      </g>
     </g>
     <g id="line2d_3">
      <defs>
       <path d="
M0 0
L0 4" id="m5a7d422ac3" style="stroke:#000000;stroke-width:0.5;"/>
      </defs>
      <g>
       <use style="stroke:#000000;stroke-width:0.5;" x="63.0" xlink:href="#m5a7d422ac3" y="50.4"/>
      </g>
     </g>
     <g id="text_1">
      <!-- −2.5 -->
      <defs>
       <path d="
M10.6875 12.4062
L21 12.4062
L21 0
L10.6875 0
z
" id="BitstreamVeraSans-Roman-2e"/>
       <path d="
M10.7969 72.9062
L49.5156 72.9062
L49.5156 64.5938
L19.8281 64.5938
L19.8281 46.7344
Q21.9688 47.4688 24.1094 47.8281
Q26.2656 48.1875 28.4219 48.1875
Q40.625 48.1875 47.75 41.5
Q54.8906 34.8125 54.8906 23.3906
Q54.8906 11.625 47.5625 5.09375
Q40.2344 -1.42188 26.9062 -1.42188
Q22.3125 -1.42188 17.5469 -0.640625
Q12.7969 0.140625 7.71875 1.70312
L7.71875 11.625
Q12.1094 9.23438 16.7969 8.0625
Q21.4844 6.89062 26.7031 6.89062
Q35.1562 6.89062 40.0781 11.3281
Q45.0156 15.7656 45.0156 23.3906
Q45.0156 31 40.0781 35.4375
Q35.1562 39.8906 26.7031 39.8906
Q22.75 39.8906 18.8125 39.0156
Q14.8906 38.1406 10.7969 36.2812
z
" id="BitstreamVeraSans-Roman-35"/>
       <path d="
M19.1875 8.29688
L53.6094 8.29688
L53.6094 0
L7.32812 0
L7.32812 8.29688
Q12.9375 14.1094 22.625 23.8906
Q32.3281 33.6875 34.8125 36.5312
Q39.5469 41.8438 41.4219 45.5312
Q43.3125 49.2188 43.3125 52.7812
Q43.3125 58.5938 39.2344 62.25
Q35.1562 65.9219 28.6094 65.9219
Q23.9688 65.9219 18.8125 64.3125
Q13.6719 62.7031 7.8125 59.4219
L7.8125 69.3906
Q13.7656 71.7812 18.9375 73
Q24.125 74.2188 28.4219 74.2188
Q39.75 74.2188 46.4844 68.5469
Q53.2188 62.8906 53.2188 53.4219
Q53.2188 48.9219 51.5312 44.8906
Q49.8594 40.875 45.4062 35.4062
Q44.1875 33.9844 37.6406 27.2188
Q31.1094 20.4531 19.1875 8.29688" id="BitstreamVeraSans-Roman-32"/>
       <path d="
M10.5938 35.5
L73.1875 35.5
L73.1875 27.2031
L10.5938 27.2031
z
" id="BitstreamVeraSans-Roman-2212"/>
      </defs>
      <g transform="translate(51.825 452.5984375)scale(0.1 -0.1)">
       <use xlink:href="#BitstreamVeraSans-Roman-2212"/>
       <use x="83.7890625" xlink:href="#BitstreamVeraSans-Roman-32"/>
       <use x="147.412109375" xlink:href="#BitstreamVeraSans-Roman-2e"/>
       <use x="179.19921875" xlink:href="#BitstreamVeraSans-Roman-35"/>
      </g>
     </g>
    </g>
    <g id="xtick_2">
     <g id="line2d_4">
      <g>
       <use style="stroke:#000000;stroke-width:0.5;" x="111.825" xlink:href="#mc7db9fdffb" y="441.0"/>
      </g>
     </g>
     <g id="line2d_5">
      <g>
       <use style="stroke:#000000;stroke-width:0.5;" x="111.825" xlink:href="#m5a7d422ac3" y="50.4"/>
      </g>
     </g>
     <g id="text_2">
      <!-- −2.0 -->
      <defs>
       <path d="
M31.7812 66.4062
Q24.1719 66.4062 20.3281 58.9062
Q16.5 51.4219 16.5 36.375
Q16.5 21.3906 20.3281 13.8906
Q24.1719 6.39062 31.7812 6.39062
Q39.4531 6.39062 43.2812 13.8906
Q47.125 21.3906 47.125 36.375
Q47.125 51.4219 43.2812 58.9062
Q39.4531 66.4062 31.7812 66.4062
M31.7812 74.2188
Q44.0469 74.2188 50.5156 64.5156
Q56.9844 54.8281 56.9844 36.375
Q56.9844 17.9688 50.5156 8.26562
Q44.0469 -1.42188 31.7812 -1.42188
Q19.5312 -1.42188 13.0625 8.26562
Q6.59375 17.9688 6.59375 36.375
Q6.59375 54.8281 13.0625 64.5156
Q19.5312 74.2188 31.7812 74.2188" id="BitstreamVeraSans-Roman-30"/>
      </defs>
      <g transform="translate(100.5453125 452.5984375)scale(0.1 -0.1)">
       <use xlink:href="#BitstreamVeraSans-Roman-2212"/>
       <use x="83.7890625" xlink:href="#BitstreamVeraSans-Roman-32"/>
       <use x="147.412109375" xlink:href="#BitstreamVeraSans-Roman-2e"/>
       <use x="179.19921875" xlink:href="#BitstreamVeraSans-Roman-30"/>
      </g>
     </g>
    </g>
    <g id="xtick_3">
     <g id="line2d_6">
      <g>
       <use style="stroke:#000000;stroke-width:0.5;" x="160.65" xlink:href="#mc7db9fdffb" y="441.0"/>
      </g>
     </g>
     <g id="line2d_7">
      <g>
       <use style="stroke:#000000;stroke-width:0.5;" x="160.65" xlink:href="#m5a7d422ac3" y="50.4"/>
      </g>
     </g>
     <g id="text_3">
      <!-- −1.5 -->
      <defs>
       <path d="
M12.4062 8.29688
L28.5156 8.29688
L28.5156 63.9219
L10.9844 60.4062
L10.9844 69.3906
L28.4219 72.9062
L38.2812 72.9062
L38.2812 8.29688
L54.3906 8.29688
L54.3906 0
L12.4062 0
z
" id="BitstreamVeraSans-Roman-31"/>
      </defs>
      <g transform="translate(149.475 452.5984375)scale(0.1 -0.1)">
       <use xlink:href="#BitstreamVeraSans-Roman-2212"/>
       <use x="83.7890625" xlink:href="#BitstreamVeraSans-Roman-31"/>
       <use x="147.412109375" xlink:href="#BitstreamVeraSans-Roman-2e"/>
       <use x="179.19921875" xlink:href="#BitstreamVeraSans-Roman-35"/>
      </g>
     </g>
    </g>
    <g id="xtick_4">
     <g id="line2d_8">
      <g>
       <use style="stroke:#000000;stroke-width:0.5;" x="209.475" xlink:href="#mc7db9fdffb" y="441.0"/>
      </g>
     </g>
     <g id="line2d_9">
      <g>
       <use style="stroke:#000000;stroke-width:0.5;" x="209.475" xlink:href="#m5a7d422ac3" y="50.4"/>
      </g>
     </g>
     <g id="text_4">
      <!-- −1.0 -->
      <g transform="translate(198.1953125 452.5984375)scale(0.1 -0.1)">
       <use xlink:href="#BitstreamVeraSans-Roman-2212"/>
       <use x="83.7890625" xlink:href="#BitstreamVeraSans-Roman-31"/>
       <use x="147.412109375" xlink:href="#BitstreamVeraSans-Roman-2e"/>
       <use x="179.19921875" xlink:href="#BitstreamVeraSans-Roman-30"/>
      </g>
     </g>
    </g>
    <g id="xtick_5">
     <g id="line2d_10">
      <g>
       <use style="stroke:#000000;stroke-width:0.5;" x="258.3" xlink:href="#mc7db9fdffb" y="441.0"/>
      </g>
     </g>
     <g id="line2d_11">
      <g>
       <use style="stroke:#000000;stroke-width:0.5;" x="258.3" xlink:href="#m5a7d422ac3" y="50.4"/>
      </g>
     </g>
     <g id="text_5">
      <!-- −0.5 -->
      <g transform="translate(247.125 452.5984375)scale(0.1 -0.1)">
       <use xlink:href="#BitstreamVeraSans-Roman-2212"/>
       <use x="83.7890625" xlink:href="#BitstreamVeraSans-Roman-30"/>
       <use x="147.412109375" xlink:href="#BitstreamVeraSans-Roman-2e"/>
       <use x="179.19921875" xlink:href="#BitstreamVeraSans-Roman-35"/>
      </g>
     </g>
    </g>
    <g id="xtick_6">
     <g id="line2d_12">
      <g>
       <use style="stroke:#000000;stroke-width:0.5;" x="307.125" xlink:href="#mc7db9fdffb" y="441.0"/>
      </g>
     </g>
     <g id="line2d_13">
      <g>
       <use style="stroke:#000000;stroke-width:0.5;" x="307.125" xlink:href="#m5a7d422ac3" y="50.4"/>
      </g>
     </g>
     <g id="text_6">
      <!-- 0.0 -->
      <g transform="translate(299.83515625 452.5984375)scale(0.1 -0.1)">
       <use xlink:href="#BitstreamVeraSans-Roman-30"/>
       <use x="63.623046875" xlink:href="#BitstreamVeraSans-Roman-2e"/>
       <use x="95.41015625" xlink:href="#BitstreamVeraSans-Roman-30"/>
      </g>
     </g>
    </g>
    <g id="xtick_7">
     <g id="line2d_14">
      <g>
       <use style="stroke:#000000;stroke-width:0.5;" x="355.95" xlink:href="#mc7db9fdffb" y="441.0"/>
      </g>
     </g>
     <g id="line2d_15">
      <g>
       <use style="stroke:#000000;stroke-width:0.5;" x="355.95" xlink:href="#m5a7d422ac3" y="50.4"/>
      </g>
     </g>
     <g id="text_7">
      <!-- 0.5 -->
      <g transform="translate(348.76484375 452.5984375)scale(0.1 -0.1)">
       <use xlink:href="#BitstreamVeraSans-Roman-30"/>
       <use x="63.623046875" xlink:href="#BitstreamVeraSans-Roman-2e"/>
       <use x="95.41015625" xlink:href="#BitstreamVeraSans-Roman-35"/>
      </g>
     </g>
    </g>
    <g id="xtick_8">
     <g id="line2d_16">
      <g>
       <use style="stroke:#000000;stroke-width:0.5;" x="404.775" xlink:href="#mc7db9fdffb" y="441.0"/>
      </g>
     </g>
     <g id="line2d_17">
      <g>
       <use style="stroke:#000000;stroke-width:0.5;" x="404.775" xlink:href="#m5a7d422ac3" y="50.4"/>
      </g>
     </g>
     <g id="text_8">
      <!-- 1.0 -->
      <g transform="translate(397.7046875 452.5984375)scale(0.1 -0.1)">
       <use xlink:href="#BitstreamVeraSans-Roman-31"/>
       <use x="63.623046875" xlink:href="#BitstreamVeraSans-Roman-2e"/>
       <use x="95.41015625" xlink:href="#BitstreamVeraSans-Roman-30"/>
      </g>
     </g>
    </g>
    <g id="xtick_9">
     <g id="line2d_18">
      <g>
       <use style="stroke:#000000;stroke-width:0.5;" x="453.6" xlink:href="#mc7db9fdffb" y="441.0"/>
      </g>
     </g>
     <g id="line2d_19">
      <g>
       <use style="stroke:#000000;stroke-width:0.5;" x="453.6" xlink:href="#m5a7d422ac3" y="50.4"/>
      </g>
     </g>
     <g id="text_9">
      <!-- 1.5 -->
      <g transform="translate(446.634375 452.5984375)scale(0.1 -0.1)">
       <use xlink:href="#BitstreamVeraSans-Roman-31"/>
       <use x="63.623046875" xlink:href="#BitstreamVeraSans-Roman-2e"/>
       <use x="95.41015625" xlink:href="#BitstreamVeraSans-Roman-35"/>
      </g>
     </g>
    </g>
    <g id="text_10">
     <!-- $y_1$ -->
     <defs>
      <path d="
M9.28125 0
L9.28125 3.51562
Q21.7812 3.51562 21.7812 6.6875
L21.7812 59.1875
Q16.6094 56.6875 8.6875 56.6875
L8.6875 60.2031
Q20.9531 60.2031 27.2031 66.6094
L28.6094 66.6094
Q28.9531 66.6094 29.2656 66.3281
Q29.5938 66.0625 29.5938 65.7188
L29.5938 6.6875
Q29.5938 3.51562 42.0938 3.51562
L42.0938 0
z
" id="Cmr10-31"/>
      <path d="
M8.40625 -14.3125
Q10.5 -17.9219 15.7188 -17.9219
Q20.4531 -17.9219 23.9219 -14.5938
Q27.3906 -11.2812 29.5156 -6.5625
Q31.6406 -1.85938 32.8125 3.07812
Q28.375 -1.125 23.1875 -1.125
Q19.2344 -1.125 16.4531 0.234375
Q13.6719 1.60938 12.125 4.3125
Q10.5938 7.03125 10.5938 10.8906
Q10.5938 14.1562 11.4688 17.5938
Q12.3594 21.0469 13.9375 25.2656
Q15.5312 29.5 16.7031 32.625
Q18.0156 36.2812 18.0156 38.625
Q18.0156 41.6094 15.8281 41.6094
Q11.8594 41.6094 9.29688 37.5312
Q6.73438 33.4531 5.51562 28.4219
Q5.32812 27.7812 4.6875 27.7812
L3.51562 27.7812
Q2.6875 27.7812 2.6875 28.7188
L2.6875 29
Q4.29688 34.9688 7.60938 39.5781
Q10.9375 44.1875 16.0156 44.1875
Q19.5781 44.1875 22.0469 41.8438
Q24.5156 39.5 24.5156 35.8906
Q24.5156 34.0312 23.6875 31.9844
Q23.25 30.7656 21.6875 26.6562
Q20.125 22.5625 19.2812 19.875
Q18.4531 17.1875 17.9219 14.5938
Q17.3906 12.0156 17.3906 9.42188
Q17.3906 6.10938 18.7969 3.8125
Q20.2188 1.51562 23.2969 1.51562
Q29.5 1.51562 34.4219 9.07812
L42 39.8906
Q42.3281 41.2188 43.5469 42.1562
Q44.7812 43.1094 46.1875 43.1094
Q47.4062 43.1094 48.3125 42.3281
Q49.2188 41.5469 49.2188 40.2812
Q49.2188 39.7031 49.125 39.5
L39.2031 -0.296875
Q37.8906 -5.42188 34.375 -10.1094
Q30.8594 -14.7969 25.9062 -17.6562
Q20.9531 -20.5156 15.5781 -20.5156
Q12.9844 -20.5156 10.4375 -19.5
Q7.90625 -18.5 6.34375 -16.5
Q4.78125 -14.5 4.78125 -11.8125
Q4.78125 -9.07812 6.39062 -7.07812
Q8.01562 -5.07812 10.6875 -5.07812
Q12.3125 -5.07812 13.4062 -6.07812
Q14.5 -7.07812 14.5 -8.6875
Q14.5 -10.9844 12.7812 -12.6875
Q11.0781 -14.4062 8.79688 -14.4062
Q8.6875 -14.3594 8.59375 -14.3281
Q8.5 -14.3125 8.40625 -14.3125" id="Cmmi10-79"/>
     </defs>
     <g transform="translate(248.3 473.834375)scale(0.2 -0.2)">
      <use transform="translate(0.0 0.8125)" xlink:href="#Cmmi10-79"/>
      <use transform="translate(49.0234375 -24.696875000000006)scale(0.7)" xlink:href="#Cmr10-31"/>
     </g>
    </g>
   </g>
   <g id="matplotlib.axis_2">
    <g id="ytick_1">
     <g id="line2d_20">
      <defs>
       <path d="
M0 0
L4 0" id="md7965d1ba0" style="stroke:#000000;stroke-width:0.5;"/>
      </defs>
      <g>
       <use style="stroke:#000000;stroke-width:0.5;" x="63.0" xlink:href="#md7965d1ba0" y="441.0"/>
      </g>
     </g>
     <g id="line2d_21">
      <defs>
       <path d="
M0 0
L-4 0" id="md9a1c1a7cd" style="stroke:#000000;stroke-width:0.5;"/>
      </defs>
      <g>
       <use style="stroke:#000000;stroke-width:0.5;" x="453.6" xlink:href="#md9a1c1a7cd" y="441.0"/>
      </g>
     </g>
     <g id="text_11">
      <!-- −3.0 -->
      <defs>
       <path d="
M40.5781 39.3125
Q47.6562 37.7969 51.625 33
Q55.6094 28.2188 55.6094 21.1875
Q55.6094 10.4062 48.1875 4.48438
Q40.7656 -1.42188 27.0938 -1.42188
Q22.5156 -1.42188 17.6562 -0.515625
Q12.7969 0.390625 7.625 2.20312
L7.625 11.7188
Q11.7188 9.32812 16.5938 8.10938
Q21.4844 6.89062 26.8125 6.89062
Q36.0781 6.89062 40.9375 10.5469
Q45.7969 14.2031 45.7969 21.1875
Q45.7969 27.6406 41.2812 31.2656
Q36.7656 34.9062 28.7188 34.9062
L20.2188 34.9062
L20.2188 43.0156
L29.1094 43.0156
Q36.375 43.0156 40.2344 45.9219
Q44.0938 48.8281 44.0938 54.2969
Q44.0938 59.9062 40.1094 62.9062
Q36.1406 65.9219 28.7188 65.9219
Q24.6562 65.9219 20.0156 65.0312
Q15.375 64.1562 9.8125 62.3125
L9.8125 71.0938
Q15.4375 72.6562 20.3438 73.4375
Q25.25 74.2188 29.5938 74.2188
Q40.8281 74.2188 47.3594 69.1094
Q53.9062 64.0156 53.9062 55.3281
Q53.9062 49.2656 50.4375 45.0938
Q46.9688 40.9219 40.5781 39.3125" id="BitstreamVeraSans-Roman-33"/>
      </defs>
      <g transform="translate(36.440625 443.759375)scale(0.1 -0.1)">
       <use xlink:href="#BitstreamVeraSans-Roman-2212"/>
       <use x="83.7890625" xlink:href="#BitstreamVeraSans-Roman-33"/>
       <use x="147.412109375" xlink:href="#BitstreamVeraSans-Roman-2e"/>
       <use x="179.19921875" xlink:href="#BitstreamVeraSans-Roman-30"/>
      </g>
     </g>
    </g>
    <g id="ytick_2">
     <g id="line2d_22">
      <g>
       <use style="stroke:#000000;stroke-width:0.5;" x="63.0" xlink:href="#md7965d1ba0" y="397.6"/>
      </g>
     </g>
     <g id="line2d_23">
      <g>
       <use style="stroke:#000000;stroke-width:0.5;" x="453.6" xlink:href="#md9a1c1a7cd" y="397.6"/>
      </g>
     </g>
     <g id="text_12">
      <!-- −2.5 -->
      <g transform="translate(36.65 400.359375)scale(0.1 -0.1)">
       <use xlink:href="#BitstreamVeraSans-Roman-2212"/>
       <use x="83.7890625" xlink:href="#BitstreamVeraSans-Roman-32"/>
       <use x="147.412109375" xlink:href="#BitstreamVeraSans-Roman-2e"/>
       <use x="179.19921875" xlink:href="#BitstreamVeraSans-Roman-35"/>
      </g>
     </g>
    </g>
    <g id="ytick_3">
     <g id="line2d_24">
      <g>
       <use style="stroke:#000000;stroke-width:0.5;" x="63.0" xlink:href="#md7965d1ba0" y="354.2"/>
      </g>
     </g>
     <g id="line2d_25">
      <g>
       <use style="stroke:#000000;stroke-width:0.5;" x="453.6" xlink:href="#md9a1c1a7cd" y="354.2"/>
      </g>
     </g>
     <g id="text_13">
      <!-- −2.0 -->
      <g transform="translate(36.440625 356.959375)scale(0.1 -0.1)">
       <use xlink:href="#BitstreamVeraSans-Roman-2212"/>
       <use x="83.7890625" xlink:href="#BitstreamVeraSans-Roman-32"/>
       <use x="147.412109375" xlink:href="#BitstreamVeraSans-Roman-2e"/>
       <use x="179.19921875" xlink:href="#BitstreamVeraSans-Roman-30"/>
      </g>
     </g>
    </g>
    <g id="ytick_4">
     <g id="line2d_26">
      <g>
       <use style="stroke:#000000;stroke-width:0.5;" x="63.0" xlink:href="#md7965d1ba0" y="310.8"/>
      </g>
     </g>
     <g id="line2d_27">
      <g>
       <use style="stroke:#000000;stroke-width:0.5;" x="453.6" xlink:href="#md9a1c1a7cd" y="310.8"/>
      </g>
     </g>
     <g id="text_14">
      <!-- −1.5 -->
      <g transform="translate(36.65 313.559375)scale(0.1 -0.1)">
       <use xlink:href="#BitstreamVeraSans-Roman-2212"/>
       <use x="83.7890625" xlink:href="#BitstreamVeraSans-Roman-31"/>
       <use x="147.412109375" xlink:href="#BitstreamVeraSans-Roman-2e"/>
       <use x="179.19921875" xlink:href="#BitstreamVeraSans-Roman-35"/>
      </g>
     </g>
    </g>
    <g id="ytick_5">
     <g id="line2d_28">
      <g>
       <use style="stroke:#000000;stroke-width:0.5;" x="63.0" xlink:href="#md7965d1ba0" y="267.4"/>
      </g>
     </g>
     <g id="line2d_29">
      <g>
       <use style="stroke:#000000;stroke-width:0.5;" x="453.6" xlink:href="#md9a1c1a7cd" y="267.4"/>
      </g>
     </g>
     <g id="text_15">
      <!-- −1.0 -->
      <g transform="translate(36.440625 270.159375)scale(0.1 -0.1)">
       <use xlink:href="#BitstreamVeraSans-Roman-2212"/>
       <use x="83.7890625" xlink:href="#BitstreamVeraSans-Roman-31"/>
       <use x="147.412109375" xlink:href="#BitstreamVeraSans-Roman-2e"/>
       <use x="179.19921875" xlink:href="#BitstreamVeraSans-Roman-30"/>
      </g>
     </g>
    </g>
    <g id="ytick_6">
     <g id="line2d_30">
      <g>
       <use style="stroke:#000000;stroke-width:0.5;" x="63.0" xlink:href="#md7965d1ba0" y="224.0"/>
      </g>
     </g>
     <g id="line2d_31">
      <g>
       <use style="stroke:#000000;stroke-width:0.5;" x="453.6" xlink:href="#md9a1c1a7cd" y="224.0"/>
      </g>
     </g>
     <g id="text_16">
      <!-- −0.5 -->
      <g transform="translate(36.65 226.759375)scale(0.1 -0.1)">
       <use xlink:href="#BitstreamVeraSans-Roman-2212"/>
       <use x="83.7890625" xlink:href="#BitstreamVeraSans-Roman-30"/>
       <use x="147.412109375" xlink:href="#BitstreamVeraSans-Roman-2e"/>
       <use x="179.19921875" xlink:href="#BitstreamVeraSans-Roman-35"/>
      </g>
     </g>
    </g>
    <g id="ytick_7">
     <g id="line2d_32">
      <g>
       <use style="stroke:#000000;stroke-width:0.5;" x="63.0" xlink:href="#md7965d1ba0" y="180.6"/>
      </g>
     </g>
     <g id="line2d_33">
      <g>
       <use style="stroke:#000000;stroke-width:0.5;" x="453.6" xlink:href="#md9a1c1a7cd" y="180.6"/>
      </g>
     </g>
     <g id="text_17">
      <!-- 0.0 -->
      <g transform="translate(44.4203125 183.359375)scale(0.1 -0.1)">
       <use xlink:href="#BitstreamVeraSans-Roman-30"/>
       <use x="63.623046875" xlink:href="#BitstreamVeraSans-Roman-2e"/>
       <use x="95.41015625" xlink:href="#BitstreamVeraSans-Roman-30"/>
      </g>
     </g>
    </g>
    <g id="ytick_8">
     <g id="line2d_34">
      <g>
       <use style="stroke:#000000;stroke-width:0.5;" x="63.0" xlink:href="#md7965d1ba0" y="137.2"/>
      </g>
     </g>
     <g id="line2d_35">
      <g>
       <use style="stroke:#000000;stroke-width:0.5;" x="453.6" xlink:href="#md9a1c1a7cd" y="137.2"/>
      </g>
     </g>
     <g id="text_18">
      <!-- 0.5 -->
      <g transform="translate(44.6296875 139.959375)scale(0.1 -0.1)">
       <use xlink:href="#BitstreamVeraSans-Roman-30"/>
       <use x="63.623046875" xlink:href="#BitstreamVeraSans-Roman-2e"/>
       <use x="95.41015625" xlink:href="#BitstreamVeraSans-Roman-35"/>
      </g>
     </g>
    </g>
    <g id="ytick_9">
     <g id="line2d_36">
      <g>
       <use style="stroke:#000000;stroke-width:0.5;" x="63.0" xlink:href="#md7965d1ba0" y="93.8"/>
      </g>
     </g>
     <g id="line2d_37">
      <g>
       <use style="stroke:#000000;stroke-width:0.5;" x="453.6" xlink:href="#md9a1c1a7cd" y="93.8"/>
      </g>
     </g>
     <g id="text_19">
      <!-- 1.0 -->
      <g transform="translate(44.859375 96.559375)scale(0.1 -0.1)">
       <use xlink:href="#BitstreamVeraSans-Roman-31"/>
       <use x="63.623046875" xlink:href="#BitstreamVeraSans-Roman-2e"/>
       <use x="95.41015625" xlink:href="#BitstreamVeraSans-Roman-30"/>
      </g>
     </g>
    </g>
    <g id="ytick_10">
     <g id="line2d_38">
      <g>
       <use style="stroke:#000000;stroke-width:0.5;" x="63.0" xlink:href="#md7965d1ba0" y="50.4"/>
      </g>
     </g>
     <g id="line2d_39">
      <g>
       <use style="stroke:#000000;stroke-width:0.5;" x="453.6" xlink:href="#md9a1c1a7cd" y="50.4"/>
      </g>
     </g>
     <g id="text_20">
      <!-- 1.5 -->
      <g transform="translate(45.06875 53.159375)scale(0.1 -0.1)">
       <use xlink:href="#BitstreamVeraSans-Roman-31"/>
       <use x="63.623046875" xlink:href="#BitstreamVeraSans-Roman-2e"/>
       <use x="95.41015625" xlink:href="#BitstreamVeraSans-Roman-35"/>
      </g>
     </g>
    </g>
    <g id="text_21">
     <!-- $y_2$ -->
     <defs>
      <path d="
M4.98438 0
L4.98438 2.6875
Q4.98438 2.9375 5.17188 3.21875
L20.7031 20.4062
Q24.2188 24.2188 26.4062 26.7969
Q28.6094 29.3906 30.75 32.7656
Q32.9062 36.1406 34.1562 39.625
Q35.4062 43.1094 35.4062 47.0156
Q35.4062 51.125 33.8906 54.8594
Q32.375 58.5938 29.375 60.8438
Q26.375 63.0938 22.125 63.0938
Q17.7812 63.0938 14.3125 60.4688
Q10.8438 57.8594 9.42188 53.7188
Q9.8125 53.8125 10.5 53.8125
Q12.75 53.8125 14.3281 52.2969
Q15.9219 50.7812 15.9219 48.3906
Q15.9219 46.0938 14.3281 44.5
Q12.75 42.9219 10.5 42.9219
Q8.15625 42.9219 6.5625 44.5469
Q4.98438 46.1875 4.98438 48.3906
Q4.98438 52.1562 6.39062 55.4375
Q7.8125 58.7344 10.4688 61.2969
Q13.1406 63.875 16.4844 65.2344
Q19.8281 66.6094 23.5781 66.6094
Q29.2969 66.6094 34.2188 64.1875
Q39.1562 61.7656 42.0312 57.3438
Q44.9219 52.9375 44.9219 47.0156
Q44.9219 42.6719 43.0156 38.7656
Q41.1094 34.8594 38.125 31.6562
Q35.1562 28.4688 30.5156 24.4062
Q25.875 20.3594 24.4219 19
L13.0938 8.10938
L22.7031 8.10938
Q29.7812 8.10938 34.5469 8.21875
Q39.3125 8.34375 39.5938 8.59375
Q40.7656 9.85938 42 17.8281
L44.9219 17.8281
L42.0938 0
z
" id="Cmr10-32"/>
     </defs>
     <g transform="translate(26.240625 255.7)rotate(-90.0)scale(0.2 -0.2)">
      <use transform="translate(0.0 0.8125)" xlink:href="#Cmmi10-79"/>
      <use transform="translate(49.0234375 -24.696875000000006)scale(0.7)" xlink:href="#Cmr10-32"/>
     </g>
    </g>
   </g>
  </g>
 </g>
 <defs>
  <clipPath id="p41d7ee9abc">
   <rect height="390.6" width="390.6" x="63.0" y="50.4"/>
  </clipPath>
 </defs>
</svg>
