<?xml version="1.0" encoding="utf-8" standalone="no"?>
<!DOCTYPE svg PUBLIC "-//W3C//DTD SVG 1.1//EN"
  "http://www.w3.org/Graphics/SVG/1.1/DTD/svg11.dtd">
<!-- Created with matplotlib (http://matplotlib.org/) -->
<svg height="504pt" version="1.1" viewBox="0 0 504 504" width="504pt" xmlns="http://www.w3.org/2000/svg" xmlns:xlink="http://www.w3.org/1999/xlink">
 <defs>
  <style type="text/css">
*{stroke-linecap:butt;stroke-linejoin:round;}
  </style>
 </defs>
 <g id="figure_1">
  <g id="patch_1">
   <path d="
M0 504
L504 504
L504 0
L0 0
z
" style="fill:#ffffff;"/>
  </g>
  <g id="axes_1">
   <g id="patch_2">
    <path d="
M63 441
L453.6 441
L453.6 50.4
L63 50.4
z
" style="fill:#ffffff;"/>
   </g>
   <g id="LineCollection_1">
    <path clip-path="url(#p41d7ee9abc)" d="
M63 441
L63 253.232" style="fill:none;stroke:#000000;"/>
   </g>
   <g id="LineCollection_2">
    <path clip-path="url(#p41d7ee9abc)" d="
M63 441
L453.6 441" style="fill:none;stroke:#000000;"/>
   </g>
   <g id="line2d_1">
    <path clip-path="url(#p41d7ee9abc)" d="
M96.48 441
L198.529 440.896
L204.394 440.664
L208.303 440.309
L211.431 439.811
L214.168 439.137
L216.514 438.314
L218.469 437.406
L220.424 436.25
L222.379 434.798
L223.943 433.391
L225.507 431.737
L227.071 429.812
L228.635 427.593
L230.59 424.374
L232.545 420.634
L234.5 416.358
L236.455 411.547
L238.801 405.106
L241.147 398.022
L244.275 387.837
L251.312 364.525
L253.658 357.669
L255.613 352.689
L257.177 349.306
L258.35 347.169
L259.523 345.405
L260.696 344.038
L261.869 343.084
L262.651 342.685
L263.433 342.478
L264.215 342.464
L264.997 342.644
L265.779 343.016
L266.561 343.578
L267.734 344.769
L268.907 346.366
L270.08 348.346
L271.644 351.539
L273.208 355.298
L275.163 360.668
L277.509 367.864
L281.028 379.538
L286.111 396.433
L288.848 404.782
L291.194 411.257
L293.148 416.097
L295.103 420.405
L297.058 424.175
L299.013 427.422
L300.968 430.177
L302.923 432.478
L304.878 434.371
L306.833 435.907
L308.788 437.135
L310.743 438.102
L313.089 438.982
L315.435 439.62
L318.172 440.133
L321.691 440.54
L325.992 440.799
L332.639 440.95
L347.496 440.999
L453.846 441
L453.846 441" style="fill:none;stroke:#ff0000;stroke-linecap:square;stroke-width:3;"/>
   </g>
   <g id="line2d_2">
    <path clip-path="url(#p41d7ee9abc)" d="
M96.48 441
L238.801 440.898
L242.711 440.679
L245.448 440.327
L247.403 439.892
L249.357 439.218
L250.921 438.44
L252.485 437.38
L253.658 436.353
L254.831 435.088
L256.004 433.545
L257.177 431.682
L258.35 429.456
L259.523 426.823
L260.696 423.744
L262.26 418.879
L263.824 413.085
L265.388 406.323
L266.952 398.593
L268.907 387.658
L271.253 372.991
L278.682 324.762
L280.246 316.624
L281.419 311.491
L282.592 307.332
L283.374 305.154
L284.156 303.482
L284.938 302.336
L285.72 301.727
L286.111 301.628
L286.502 301.665
L286.893 301.839
L287.675 302.594
L288.457 303.885
L289.239 305.696
L290.021 308.007
L291.194 312.351
L292.366 317.647
L293.93 325.964
L295.885 337.88
L299.013 358.741
L302.532 381.826
L304.487 393.386
L306.442 403.617
L308.006 410.735
L309.57 416.879
L311.134 422.076
L312.698 426.384
L314.262 429.888
L315.435 432.045
L316.608 433.847
L317.781 435.337
L319.345 436.909
L320.909 438.09
L322.473 438.963
L324.037 439.596
L325.992 440.138
L328.338 440.535
L331.466 440.807
L336.157 440.954
L347.105 440.999
L453.846 441
L453.846 441" style="fill:none;stroke:#0000ff;stroke-linecap:square;stroke-width:3;"/>
   </g>
   <g id="line2d_3">
    <path clip-path="url(#p41d7ee9abc)" d="
M96.48 441
L239.583 440.895
L242.711 440.674
L245.057 440.283
L246.621 439.822
L248.185 439.111
L249.357 438.348
L250.53 437.328
L251.703 435.981
L252.876 434.231
L254.049 431.991
L255.222 429.167
L256.395 425.663
L257.568 421.383
L258.741 416.239
L259.914 410.157
L261.087 403.088
L262.651 392.099
L264.215 379.395
L266.17 361.457
L269.689 326.164
L272.035 303.719
L273.599 290.858
L274.772 282.891
L275.945 276.694
L276.727 273.666
L277.509 271.583
L277.9 270.908
L278.291 270.481
L278.682 270.305
L279.073 270.381
L279.464 270.707
L279.855 271.283
L280.637 273.172
L281.419 276.015
L282.201 279.763
L283.374 286.937
L284.547 295.731
L286.111 309.421
L288.457 332.479
L291.975 367.408
L293.93 384.672
L295.494 396.708
L297.058 406.983
L298.622 415.483
L299.795 420.748
L300.968 425.139
L302.141 428.741
L303.314 431.65
L304.487 433.963
L305.66 435.773
L306.833 437.169
L308.006 438.229
L309.179 439.022
L310.743 439.764
L312.307 440.246
L314.262 440.606
L316.999 440.851
L321.3 440.972
L334.203 441
L453.846 441
L453.846 441" style="fill:none;stroke:#ff00ff;stroke-linecap:square;stroke-width:3;"/>
   </g>
   <g id="patch_3">
    <path d="
M63 441
L63 50.4" style="fill:none;stroke:#000000;stroke-linecap:square;stroke-linejoin:miter;"/>
   </g>
   <g id="patch_4">
    <path d="
M63 50.4
L453.6 50.4" style="fill:none;stroke:#000000;stroke-linecap:square;stroke-linejoin:miter;"/>
   </g>
   <g id="patch_5">
    <path d="
M63 441
L453.6 441" style="fill:none;stroke:#000000;stroke-linecap:square;stroke-linejoin:miter;"/>
   </g>
   <g id="patch_6">
    <path d="
M453.6 441
L453.6 50.4" style="fill:none;stroke:#000000;stroke-linecap:square;stroke-linejoin:miter;"/>
   </g>
   <g id="matplotlib.axis_1">
    <g id="xtick_1">
     <g id="line2d_4">
      <defs>
       <path d="
M0 0
L0 -4" id="mc7db9fdffb" style="stroke:#000000;stroke-width:0.5;"/>
      </defs>
      <g>
       <use style="stroke:#000000;stroke-width:0.5;" x="63.0" xlink:href="#mc7db9fdffb" y="441.0"/>
      </g>
     </g>
     <g id="line2d_5">
      <defs>
       <path d="
M0 0
L0 4" id="m5a7d422ac3" style="stroke:#000000;stroke-width:0.5;"/>
      </defs>
      <g>
       <use style="stroke:#000000;stroke-width:0.5;" x="63.0" xlink:href="#m5a7d422ac3" y="50.4"/>
      </g>
     </g>
     <g id="text_1">
      <!-- −3 -->
      <defs>
       <path d="
M10.5938 35.5
L73.1875 35.5
L73.1875 27.2031
L10.5938 27.2031
z
" id="BitstreamVeraSans-Roman-2212"/>
       <path d="
M40.5781 39.3125
Q47.6562 37.7969 51.625 33
Q55.6094 28.2188 55.6094 21.1875
Q55.6094 10.4062 48.1875 4.48438
Q40.7656 -1.42188 27.0938 -1.42188
Q22.5156 -1.42188 17.6562 -0.515625
Q12.7969 0.390625 7.625 2.20312
L7.625 11.7188
Q11.7188 9.32812 16.5938 8.10938
Q21.4844 6.89062 26.8125 6.89062
Q36.0781 6.89062 40.9375 10.5469
Q45.7969 14.2031 45.7969 21.1875
Q45.7969 27.6406 41.2812 31.2656
Q36.7656 34.9062 28.7188 34.9062
L20.2188 34.9062
L20.2188 43.0156
L29.1094 43.0156
Q36.375 43.0156 40.2344 45.9219
Q44.0938 48.8281 44.0938 54.2969
Q44.0938 59.9062 40.1094 62.9062
Q36.1406 65.9219 28.7188 65.9219
Q24.6562 65.9219 20.0156 65.0312
Q15.375 64.1562 9.8125 62.3125
L9.8125 71.0938
Q15.4375 72.6562 20.3438 73.4375
Q25.25 74.2188 29.5938 74.2188
Q40.8281 74.2188 47.3594 69.1094
Q53.9062 64.0156 53.9062 55.3281
Q53.9062 49.2656 50.4375 45.0938
Q46.9688 40.9219 40.5781 39.3125" id="BitstreamVeraSans-Roman-33"/>
      </defs>
      <g transform="translate(56.559375 452.5984375)scale(0.1 -0.1)">
       <use xlink:href="#BitstreamVeraSans-Roman-2212"/>
       <use x="83.7890625" xlink:href="#BitstreamVeraSans-Roman-33"/>
      </g>
     </g>
    </g>
    <g id="xtick_2">
     <g id="line2d_6">
      <g>
       <use style="stroke:#000000;stroke-width:0.5;" x="118.8" xlink:href="#mc7db9fdffb" y="441.0"/>
      </g>
     </g>
     <g id="line2d_7">
      <g>
       <use style="stroke:#000000;stroke-width:0.5;" x="118.8" xlink:href="#m5a7d422ac3" y="50.4"/>
      </g>
     </g>
     <g id="text_2">
      <!-- −2 -->
      <defs>
       <path d="
M19.1875 8.29688
L53.6094 8.29688
L53.6094 0
L7.32812 0
L7.32812 8.29688
Q12.9375 14.1094 22.625 23.8906
Q32.3281 33.6875 34.8125 36.5312
Q39.5469 41.8438 41.4219 45.5312
Q43.3125 49.2188 43.3125 52.7812
Q43.3125 58.5938 39.2344 62.25
Q35.1562 65.9219 28.6094 65.9219
Q23.9688 65.9219 18.8125 64.3125
Q13.6719 62.7031 7.8125 59.4219
L7.8125 69.3906
Q13.7656 71.7812 18.9375 73
Q24.125 74.2188 28.4219 74.2188
Q39.75 74.2188 46.4844 68.5469
Q53.2188 62.8906 53.2188 53.4219
Q53.2188 48.9219 51.5312 44.8906
Q49.8594 40.875 45.4062 35.4062
Q44.1875 33.9844 37.6406 27.2188
Q31.1094 20.4531 19.1875 8.29688" id="BitstreamVeraSans-Roman-32"/>
      </defs>
      <g transform="translate(112.459375 452.5984375)scale(0.1 -0.1)">
       <use xlink:href="#BitstreamVeraSans-Roman-2212"/>
       <use x="83.7890625" xlink:href="#BitstreamVeraSans-Roman-32"/>
      </g>
     </g>
    </g>
    <g id="xtick_3">
     <g id="line2d_8">
      <g>
       <use style="stroke:#000000;stroke-width:0.5;" x="174.6" xlink:href="#mc7db9fdffb" y="441.0"/>
      </g>
     </g>
     <g id="line2d_9">
      <g>
       <use style="stroke:#000000;stroke-width:0.5;" x="174.6" xlink:href="#m5a7d422ac3" y="50.4"/>
      </g>
     </g>
     <g id="text_3">
      <!-- −1 -->
      <defs>
       <path d="
M12.4062 8.29688
L28.5156 8.29688
L28.5156 63.9219
L10.9844 60.4062
L10.9844 69.3906
L28.4219 72.9062
L38.2812 72.9062
L38.2812 8.29688
L54.3906 8.29688
L54.3906 0
L12.4062 0
z
" id="BitstreamVeraSans-Roman-31"/>
      </defs>
      <g transform="translate(168.2203125 452.5984375)scale(0.1 -0.1)">
       <use xlink:href="#BitstreamVeraSans-Roman-2212"/>
       <use x="83.7890625" xlink:href="#BitstreamVeraSans-Roman-31"/>
      </g>
     </g>
    </g>
    <g id="xtick_4">
     <g id="line2d_10">
      <g>
       <use style="stroke:#000000;stroke-width:0.5;" x="230.4" xlink:href="#mc7db9fdffb" y="441.0"/>
      </g>
     </g>
     <g id="line2d_11">
      <g>
       <use style="stroke:#000000;stroke-width:0.5;" x="230.4" xlink:href="#m5a7d422ac3" y="50.4"/>
      </g>
     </g>
     <g id="text_4">
      <!-- 0 -->
      <defs>
       <path d="
M31.7812 66.4062
Q24.1719 66.4062 20.3281 58.9062
Q16.5 51.4219 16.5 36.375
Q16.5 21.3906 20.3281 13.8906
Q24.1719 6.39062 31.7812 6.39062
Q39.4531 6.39062 43.2812 13.8906
Q47.125 21.3906 47.125 36.375
Q47.125 51.4219 43.2812 58.9062
Q39.4531 66.4062 31.7812 66.4062
M31.7812 74.2188
Q44.0469 74.2188 50.5156 64.5156
Q56.9844 54.8281 56.9844 36.375
Q56.9844 17.9688 50.5156 8.26562
Q44.0469 -1.42188 31.7812 -1.42188
Q19.5312 -1.42188 13.0625 8.26562
Q6.59375 17.9688 6.59375 36.375
Q6.59375 54.8281 13.0625 64.5156
Q19.5312 74.2188 31.7812 74.2188" id="BitstreamVeraSans-Roman-30"/>
      </defs>
      <g transform="translate(227.88046875 452.5984375)scale(0.1 -0.1)">
       <use xlink:href="#BitstreamVeraSans-Roman-30"/>
      </g>
     </g>
    </g>
    <g id="xtick_5">
     <g id="line2d_12">
      <g>
       <use style="stroke:#000000;stroke-width:0.5;" x="286.2" xlink:href="#mc7db9fdffb" y="441.0"/>
      </g>
     </g>
     <g id="line2d_13">
      <g>
       <use style="stroke:#000000;stroke-width:0.5;" x="286.2" xlink:href="#m5a7d422ac3" y="50.4"/>
      </g>
     </g>
     <g id="text_5">
      <!-- 1 -->
      <g transform="translate(284.0296875 452.5984375)scale(0.1 -0.1)">
       <use xlink:href="#BitstreamVeraSans-Roman-31"/>
      </g>
     </g>
    </g>
    <g id="xtick_6">
     <g id="line2d_14">
      <g>
       <use style="stroke:#000000;stroke-width:0.5;" x="342.0" xlink:href="#mc7db9fdffb" y="441.0"/>
      </g>
     </g>
     <g id="line2d_15">
      <g>
       <use style="stroke:#000000;stroke-width:0.5;" x="342.0" xlink:href="#m5a7d422ac3" y="50.4"/>
      </g>
     </g>
     <g id="text_6">
      <!-- 2 -->
      <g transform="translate(339.6859375 452.5984375)scale(0.1 -0.1)">
       <use xlink:href="#BitstreamVeraSans-Roman-32"/>
      </g>
     </g>
    </g>
    <g id="xtick_7">
     <g id="line2d_16">
      <g>
       <use style="stroke:#000000;stroke-width:0.5;" x="397.8" xlink:href="#mc7db9fdffb" y="441.0"/>
      </g>
     </g>
     <g id="line2d_17">
      <g>
       <use style="stroke:#000000;stroke-width:0.5;" x="397.8" xlink:href="#m5a7d422ac3" y="50.4"/>
      </g>
     </g>
     <g id="text_7">
      <!-- 3 -->
      <g transform="translate(395.40078125 452.5984375)scale(0.1 -0.1)">
       <use xlink:href="#BitstreamVeraSans-Roman-33"/>
      </g>
     </g>
    </g>
    <g id="xtick_8">
     <g id="line2d_18">
      <g>
       <use style="stroke:#000000;stroke-width:0.5;" x="453.6" xlink:href="#mc7db9fdffb" y="441.0"/>
      </g>
     </g>
     <g id="line2d_19">
      <g>
       <use style="stroke:#000000;stroke-width:0.5;" x="453.6" xlink:href="#m5a7d422ac3" y="50.4"/>
      </g>
     </g>
     <g id="text_8">
      <!-- 4 -->
      <defs>
       <path d="
M37.7969 64.3125
L12.8906 25.3906
L37.7969 25.3906
z

M35.2031 72.9062
L47.6094 72.9062
L47.6094 25.3906
L58.0156 25.3906
L58.0156 17.1875
L47.6094 17.1875
L47.6094 0
L37.7969 0
L37.7969 17.1875
L4.89062 17.1875
L4.89062 26.7031
z
" id="BitstreamVeraSans-Roman-34"/>
      </defs>
      <g transform="translate(450.94375 452.5984375)scale(0.1 -0.1)">
       <use xlink:href="#BitstreamVeraSans-Roman-34"/>
      </g>
     </g>
    </g>
   </g>
   <g id="matplotlib.axis_2">
    <g id="ytick_1">
     <g id="line2d_20">
      <defs>
       <path d="
M0 0
L4 0" id="md7965d1ba0" style="stroke:#000000;stroke-width:0.5;"/>
      </defs>
      <g>
       <use style="stroke:#000000;stroke-width:0.5;" x="63.0" xlink:href="#md7965d1ba0" y="441.0"/>
      </g>
     </g>
     <g id="line2d_21">
      <defs>
       <path d="
M0 0
L-4 0" id="md9a1c1a7cd" style="stroke:#000000;stroke-width:0.5;"/>
      </defs>
      <g>
       <use style="stroke:#000000;stroke-width:0.5;" x="453.6" xlink:href="#md9a1c1a7cd" y="441.0"/>
      </g>
     </g>
     <g id="text_9">
      <!-- 0 -->
      <g transform="translate(53.9609375 443.759375)scale(0.1 -0.1)">
       <use xlink:href="#BitstreamVeraSans-Roman-30"/>
      </g>
     </g>
    </g>
    <g id="ytick_2">
     <g id="line2d_22">
      <g>
       <use style="stroke:#000000;stroke-width:0.5;" x="63.0" xlink:href="#md7965d1ba0" y="362.88"/>
      </g>
     </g>
     <g id="line2d_23">
      <g>
       <use style="stroke:#000000;stroke-width:0.5;" x="453.6" xlink:href="#md9a1c1a7cd" y="362.88"/>
      </g>
     </g>
     <g id="text_10">
      <!-- 1 -->
      <g transform="translate(54.659375 365.639375)scale(0.1 -0.1)">
       <use xlink:href="#BitstreamVeraSans-Roman-31"/>
      </g>
     </g>
    </g>
    <g id="ytick_3">
     <g id="line2d_24">
      <g>
       <use style="stroke:#000000;stroke-width:0.5;" x="63.0" xlink:href="#md7965d1ba0" y="284.76"/>
      </g>
     </g>
     <g id="line2d_25">
      <g>
       <use style="stroke:#000000;stroke-width:0.5;" x="453.6" xlink:href="#md9a1c1a7cd" y="284.76"/>
      </g>
     </g>
     <g id="text_11">
      <!-- 2 -->
      <g transform="translate(54.371875 287.519375)scale(0.1 -0.1)">
       <use xlink:href="#BitstreamVeraSans-Roman-32"/>
      </g>
     </g>
    </g>
    <g id="ytick_4">
     <g id="line2d_26">
      <g>
       <use style="stroke:#000000;stroke-width:0.5;" x="63.0" xlink:href="#md7965d1ba0" y="206.64"/>
      </g>
     </g>
     <g id="line2d_27">
      <g>
       <use style="stroke:#000000;stroke-width:0.5;" x="453.6" xlink:href="#md9a1c1a7cd" y="206.64"/>
      </g>
     </g>
     <g id="text_12">
      <!-- 3 -->
      <g transform="translate(54.2015625 209.399375)scale(0.1 -0.1)">
       <use xlink:href="#BitstreamVeraSans-Roman-33"/>
      </g>
     </g>
    </g>
    <g id="ytick_5">
     <g id="line2d_28">
      <g>
       <use style="stroke:#000000;stroke-width:0.5;" x="63.0" xlink:href="#md7965d1ba0" y="128.52"/>
      </g>
     </g>
     <g id="line2d_29">
      <g>
       <use style="stroke:#000000;stroke-width:0.5;" x="453.6" xlink:href="#md9a1c1a7cd" y="128.52"/>
      </g>
     </g>
     <g id="text_13">
      <!-- 4 -->
      <g transform="translate(53.6875 131.279375)scale(0.1 -0.1)">
       <use xlink:href="#BitstreamVeraSans-Roman-34"/>
      </g>
     </g>
    </g>
    <g id="ytick_6">
     <g id="line2d_30">
      <g>
       <use style="stroke:#000000;stroke-width:0.5;" x="63.0" xlink:href="#md7965d1ba0" y="50.4"/>
      </g>
     </g>
     <g id="line2d_31">
      <g>
       <use style="stroke:#000000;stroke-width:0.5;" x="453.6" xlink:href="#md9a1c1a7cd" y="50.4"/>
      </g>
     </g>
     <g id="text_14">
      <!-- 5 -->
      <defs>
       <path d="
M10.7969 72.9062
L49.5156 72.9062
L49.5156 64.5938
L19.8281 64.5938
L19.8281 46.7344
Q21.9688 47.4688 24.1094 47.8281
Q26.2656 48.1875 28.4219 48.1875
Q40.625 48.1875 47.75 41.5
Q54.8906 34.8125 54.8906 23.3906
Q54.8906 11.625 47.5625 5.09375
Q40.2344 -1.42188 26.9062 -1.42188
Q22.3125 -1.42188 17.5469 -0.640625
Q12.7969 0.140625 7.71875 1.70312
L7.71875 11.625
Q12.1094 9.23438 16.7969 8.0625
Q21.4844 6.89062 26.7031 6.89062
Q35.1562 6.89062 40.0781 11.3281
Q45.0156 15.7656 45.0156 23.3906
Q45.0156 31 40.0781 35.4375
Q35.1562 39.8906 26.7031 39.8906
Q22.75 39.8906 18.8125 39.0156
Q14.8906 38.1406 10.7969 36.2812
z
" id="BitstreamVeraSans-Roman-35"/>
      </defs>
      <g transform="translate(54.2828125 53.159375)scale(0.1 -0.1)">
       <use xlink:href="#BitstreamVeraSans-Roman-35"/>
      </g>
     </g>
    </g>
   </g>
   <g id="text_15">
    <!-- $p(c) = \mathcal{N}(c|0, \alpha_1)$ -->
    <defs>
     <path d="
M7.51562 13.2812
Q6.6875 13.2812 6.14062 13.9062
Q5.60938 14.5469 5.60938 15.2812
Q5.60938 16.1094 6.14062 16.6875
Q6.6875 17.2812 7.51562 17.2812
L70.3125 17.2812
Q71.0469 17.2812 71.5781 16.6875
Q72.125 16.1094 72.125 15.2812
Q72.125 14.5469 71.5781 13.9062
Q71.0469 13.2812 70.3125 13.2812
z

M7.51562 32.7188
Q6.6875 32.7188 6.14062 33.2969
Q5.60938 33.8906 5.60938 34.7188
Q5.60938 35.4531 6.14062 36.0781
Q6.6875 36.7188 7.51562 36.7188
L70.3125 36.7188
Q71.0469 36.7188 71.5781 36.0781
Q72.125 35.4531 72.125 34.7188
Q72.125 33.8906 71.5781 33.2969
Q71.0469 32.7188 70.3125 32.7188
z
" id="Cmr10-3d"/>
     <path d="
M31 -24.8125
Q25.4375 -20.4062 21.4062 -14.7188
Q17.3906 -9.03125 14.8125 -2.57812
Q12.25 3.85938 10.9844 10.8906
Q9.71875 17.9219 9.71875 25
Q9.71875 32.1719 10.9844 39.2031
Q12.25 46.2344 14.8594 52.7344
Q17.4844 59.2344 21.5312 64.8906
Q25.5938 70.5625 31 74.8125
Q31 75 31.5 75
L32.4219 75
Q32.7188 75 32.9531 74.7344
Q33.2031 74.4688 33.2031 74.125
Q33.2031 73.6875 33.0156 73.4844
Q28.125 68.7031 24.875 63.2344
Q21.625 57.7656 19.6406 51.5781
Q17.6719 45.4062 16.7969 38.7812
Q15.9219 32.1719 15.9219 25
Q15.9219 -6.78125 32.9062 -23.2969
Q33.2031 -23.5781 33.2031 -24.125
Q33.2031 -24.3594 32.9375 -24.6719
Q32.6719 -25 32.4219 -25
L31.5 -25
Q31 -25 31 -24.8125" id="Cmr10-28"/>
     <path d="
M-2.48438 -19.3906
Q-3.42188 -19.3906 -3.42188 -18.1094
Q-3.07812 -15.9219 -2.09375 -15.9219
Q1.03125 -15.9219 2.26562 -15.3594
Q3.51562 -14.7969 4.20312 -12.5
L15.4844 32.5156
Q16.2188 34.375 16.2188 37.3125
Q16.2188 41.6094 13.2812 41.6094
Q10.1562 41.6094 8.64062 37.8594
Q7.125 34.125 5.71875 28.4219
Q5.71875 27.7812 4.89062 27.7812
L3.71875 27.7812
Q3.46875 27.7812 3.17188 28.1406
Q2.875 28.5156 2.875 28.8125
Q3.95312 33.1562 4.95312 36.1719
Q5.95312 39.2031 8.07812 41.6875
Q10.2031 44.1875 13.375 44.1875
Q16.7969 44.1875 19.375 42.25
Q21.9688 40.3281 22.7031 37.0156
Q25.4375 40.1875 28.75 42.1875
Q32.0781 44.1875 35.5938 44.1875
Q39.7969 44.1875 42.8906 41.9375
Q46 39.7031 47.5625 36.0625
Q49.125 32.4219 49.125 28.2188
Q49.125 21.7812 45.8281 14.8906
Q42.5312 8.01562 36.8906 3.4375
Q31.25 -1.125 24.8125 -1.125
Q21.875 -1.125 19.5 0.53125
Q17.1406 2.20312 15.8281 4.89062
L11.2812 -12.8906
Q11.0312 -14.3594 10.9844 -14.5938
Q10.9844 -15.9219 17.5781 -15.9219
Q18.6094 -15.9219 18.6094 -17.1875
Q18.2656 -18.5 18.0469 -18.9375
Q17.8281 -19.3906 16.8906 -19.3906
z

M24.9062 1.51562
Q28.375 1.51562 31.3438 4.375
Q34.3281 7.23438 36.1875 10.7969
Q37.5469 13.4844 38.7344 17.3594
Q39.9375 21.2344 40.8125 25.625
Q41.7031 30.0312 41.7031 32.625
Q41.7031 34.9062 41.0938 36.9062
Q40.4844 38.9219 39.0938 40.2656
Q37.7031 41.6094 35.4062 41.6094
Q31.7344 41.6094 28.4844 38.9844
Q25.25 36.375 22.6094 32.5156
L22.6094 32.1719
L17.0938 10.1094
Q17.7812 6.54688 19.7344 4.03125
Q21.6875 1.51562 24.9062 1.51562" id="Cmmi10-70"/>
     <path d="
M11.9219 -23.1875
L11.9219 73.1875
Q11.9219 73.9688 12.5 74.4844
Q13.0938 75 13.9219 75
Q14.6562 75 15.2812 74.4844
Q15.9219 73.9688 15.9219 73.1875
L15.9219 -23.1875
Q15.9219 -23.9688 15.2812 -24.4844
Q14.6562 -25 13.9219 -25
Q13.0938 -25 12.5 -24.4844
Q11.9219 -23.9688 11.9219 -23.1875" id="Cmsy10-6a"/>
     <path d="
M20.125 -1.125
Q15.375 -1.125 11.6875 1.125
Q8.01562 3.375 6 7.17188
Q4 10.9844 4 15.8281
Q4 22.6094 7.78125 29.25
Q11.5781 35.8906 17.8438 40.0312
Q24.125 44.1875 31 44.1875
Q36.0781 44.1875 39.9375 41.5312
Q43.7969 38.875 45.7969 34.4531
Q47.7969 30.0312 47.7969 25
L47.9062 18.3125
Q51.3125 23.0469 53.6875 28.1406
Q56.0625 33.25 57.3281 38.7188
Q57.5156 39.3125 58.1094 39.3125
L59.2812 39.3125
Q60.2031 39.3125 60.2031 38.375
Q60.2031 38.2812 60.1094 38.0938
Q58.9375 33.5 57.1719 29.2656
Q55.4219 25.0469 53.0469 21.0938
Q50.6875 17.1406 47.9062 13.9219
Q47.9062 1.51562 50.7812 1.51562
Q52.6406 1.51562 53.8281 2.60938
Q55.0312 3.71875 55.9375 5.32812
Q56.8438 6.9375 57.0781 6.98438
L58.2969 6.98438
Q59.0781 6.98438 59.0781 6
Q59.0781 3.51562 56.2188 1.1875
Q53.375 -1.125 50.5938 -1.125
Q46.9688 -1.125 44.5781 1.21875
Q42.1875 3.5625 41.3125 7.32812
Q36.625 3.32812 31.1562 1.09375
Q25.6875 -1.125 20.125 -1.125
M20.3125 1.51562
Q31 1.51562 40.8281 10.2969
Q40.7656 10.8906 40.6719 11.7344
Q40.5781 12.5938 40.5781 12.7031
L40.5781 23.4844
Q40.5781 41.6094 30.8125 41.6094
Q24.9531 41.6094 20.5469 36.5938
Q16.1562 31.5938 13.9375 24.625
Q11.7188 17.6719 11.7188 11.9219
Q11.7188 7.5625 13.9375 4.53125
Q16.1562 1.51562 20.3125 1.51562" id="Cmmi10-ae"/>
     <path d="
M9.28125 0
L9.28125 3.51562
Q21.7812 3.51562 21.7812 6.6875
L21.7812 59.1875
Q16.6094 56.6875 8.6875 56.6875
L8.6875 60.2031
Q20.9531 60.2031 27.2031 66.6094
L28.6094 66.6094
Q28.9531 66.6094 29.2656 66.3281
Q29.5938 66.0625 29.5938 65.7188
L29.5938 6.6875
Q29.5938 3.51562 42.0938 3.51562
L42.0938 0
z
" id="Cmr10-31"/>
     <path d="
M-2.875 0.203125
Q-2.875 2.04688 -1.60938 5.03125
Q-0.34375 8.01562 1.125 8.01562
Q1.3125 8.01562 1.42188 7.90625
Q4.59375 4.59375 9.28125 4.59375
Q11.9219 4.59375 13.9375 9.34375
Q15.9688 14.1094 17.9219 20.4062
Q18.9531 23.5781 20.4375 28.7031
Q21.9219 33.8438 22.7031 37.0156
Q23.3906 39.6562 24.3438 44.1719
Q25.2969 48.6875 25.9062 52.0469
Q26.5156 55.4219 27 58.9375
Q27.4844 62.4531 27.875 66.3125
Q27.875 66.8438 28.6094 67.5781
Q29.6875 68.7031 31.2031 69.5781
Q32.625 70.2188 34.0781 70.5156
L34.9062 70.5156
Q35.5 70.2188 35.5938 69.8281
Q38.0938 61.0781 41.7969 50
Q45.1719 39.75 47.5625 33.2031
Q49.9531 26.6562 53.2031 19.4062
Q56.4531 12.1562 60.2969 6
Q65.5312 28.4219 70.7031 46.6875
L72.0156 51.3125
Q74.1719 58.8906 75.5625 63.1094
Q76.9531 67.3281 79.1094 70.7031
Q80.8594 73.4375 83.6875 75
Q86.5312 76.5625 89.8906 77.2188
Q93.2656 77.875 96.9219 77.875
Q97.7969 77.875 97.7969 76.2188
Q97.7969 75.0469 97.2812 73.2188
Q96.7812 71.3906 95.8906 69.9688
Q95.0156 68.5625 93.8906 68.3125
Q89.9375 68.3125 86.8281 67.6719
Q83.7344 67.0469 81.2031 65.375
Q79.9375 64.4531 79.7188 63.9688
Q79.5 63.4844 78.7188 61.0781
Q77.4375 57.5625 76.125 52.5938
L74.8125 48.0938
Q72.2656 38.9219 70.2812 31.3438
Q68.3125 23.7812 66.5 16.3281
Q64.7031 8.89062 62.9844 1.3125
Q63.0312 1.3125 62.9531 1.4375
Q62.8906 1.5625 62.8906 1.60938
Q62.8906 0.734375 61.7344 -0.234375
Q60.5938 -1.21875 59.1094 -1.875
Q57.625 -2.54688 56.6875 -2.6875
L56 -2.6875
Q54.3438 -1.85938 50.3438 5.75
Q46.3438 13.375 44.2812 18.3125
Q36.8594 36.6719 30.7188 56.6875
Q29.9375 51.8594 27.4844 41.375
Q25.0469 30.9062 21.6719 20.2656
Q18.3125 9.625 14.2812 2.3125
Q10.25 -4.98438 6.20312 -4.98438
Q3.60938 -4.98438 0.359375 -3.51562
Q-2.875 -2.04688 -2.875 0.203125" id="Cmsy10-4e"/>
     <path d="
M25 -2.20312
Q12.75 -2.20312 8.32812 7.875
Q3.90625 17.9688 3.90625 31.8906
Q3.90625 40.5781 5.48438 48.2344
Q7.07812 55.9062 11.7812 61.25
Q16.5 66.6094 25 66.6094
Q31.5938 66.6094 35.7812 63.375
Q39.9844 60.1562 42.1875 55.0469
Q44.3906 49.9531 45.1875 44.1094
Q46 38.2812 46 31.8906
Q46 23.2969 44.4062 15.7969
Q42.8281 8.29688 38.1875 3.04688
Q33.5469 -2.20312 25 -2.20312
M25 0.390625
Q30.5625 0.390625 33.2969 6.09375
Q36.0312 11.8125 36.6719 18.75
Q37.3125 25.6875 37.3125 33.5
Q37.3125 41.0156 36.6719 47.3594
Q36.0312 53.7188 33.3125 58.8594
Q30.6094 64.0156 25 64.0156
Q19.3438 64.0156 16.6094 58.8281
Q13.875 53.6562 13.2344 47.3281
Q12.5938 41.0156 12.5938 33.5
Q12.5938 27.9375 12.8594 23
Q13.1406 18.0625 14.3125 12.8125
Q15.4844 7.5625 18.0938 3.96875
Q20.7031 0.390625 25 0.390625" id="Cmr10-30"/>
     <path d="
M11.7188 11.9219
Q11.7188 7.5625 13.9375 4.53125
Q16.1562 1.51562 20.3125 1.51562
Q26.2656 1.51562 31.75 4.25
Q37.25 6.98438 40.7188 11.8125
Q41.0156 12.1094 41.5 12.1094
Q42 12.1094 42.5 11.5469
Q43.0156 10.9844 43.0156 10.5
Q43.0156 10.1094 42.8281 9.90625
Q39.1562 4.78125 32.9531 1.82812
Q26.7656 -1.125 20.125 -1.125
Q15.3281 -1.125 11.6719 1.14062
Q8.01562 3.42188 6 7.21875
Q4 11.0312 4 15.8281
Q4 22.5625 7.76562 29.2031
Q11.5312 35.8438 17.7812 40.0156
Q24.0312 44.1875 30.9062 44.1875
Q35.4062 44.1875 38.9844 42.0156
Q42.5781 39.8438 42.5781 35.5938
Q42.5781 32.8594 40.9844 30.9219
Q39.4062 29 36.7188 29
Q35.1094 29 34 30
Q32.9062 31 32.9062 32.625
Q32.9062 34.9688 34.6094 36.625
Q36.3281 38.2812 38.625 38.2812
L38.8125 38.2812
Q37.6406 39.9844 35.4219 40.7969
Q33.2031 41.6094 30.8125 41.6094
Q24.9531 41.6094 20.5469 36.5938
Q16.1562 31.5938 13.9375 24.625
Q11.7188 17.6719 11.7188 11.9219" id="Cmmi10-63"/>
     <path d="
M6.5 -25
Q5.60938 -25 5.60938 -24.125
Q5.60938 -23.6875 5.8125 -23.4844
Q22.9062 -6.78125 22.9062 25
Q22.9062 56.7812 6 73.2969
Q5.60938 73.5312 5.60938 74.125
Q5.60938 74.4688 5.875 74.7344
Q6.15625 75 6.5 75
L7.42188 75
Q7.71875 75 7.90625 74.8125
Q15.0938 69.1406 19.875 61.0312
Q24.6562 52.9375 26.875 43.75
Q29.1094 34.5781 29.1094 25
Q29.1094 17.9219 27.9062 11.0625
Q26.7031 4.20312 24.0938 -2.45312
Q21.4844 -9.125 17.4844 -14.7656
Q13.4844 -20.4062 7.90625 -24.8125
Q7.71875 -25 7.42188 -25
z
" id="Cmr10-29"/>
     <path d="
M9.90625 -18.0156
Q9.90625 -17.5781 10.2969 -17.1875
Q13.9219 -13.7188 15.9219 -9.17188
Q17.9219 -4.64062 17.9219 0.390625
L17.9219 1.60938
Q16.3125 0 13.9219 0
Q11.625 0 10.0156 1.60938
Q8.40625 3.21875 8.40625 5.51562
Q8.40625 7.85938 10.0156 9.42188
Q11.625 10.9844 13.9219 10.9844
Q17.4844 10.9844 19 7.6875
Q20.5156 4.39062 20.5156 0.390625
Q20.5156 -5.17188 18.2812 -10.1719
Q16.0625 -15.1875 12.0156 -19.1875
Q11.625 -19.3906 11.375 -19.3906
Q10.8906 -19.3906 10.3906 -18.9375
Q9.90625 -18.5 9.90625 -18.0156" id="Cmmi10-3b"/>
    </defs>
    <g transform="translate(390.85 284.76)scale(0.1 -0.1)">
     <use transform="translate(0.0 0.125)" xlink:href="#Cmmi10-70"/>
     <use transform="translate(50.29296875 0.125)" xlink:href="#Cmr10-28"/>
     <use transform="translate(89.111328125 0.125)" xlink:href="#Cmmi10-63"/>
     <use transform="translate(132.32421875 0.125)" xlink:href="#Cmr10-29"/>
     <use transform="translate(188.701171875 0.125)" xlink:href="#Cmr10-3d"/>
     <use transform="translate(272.759765625 0.125)" xlink:href="#Cmsy10-4e"/>
     <use transform="translate(354.7421875 0.125)" xlink:href="#Cmr10-28"/>
     <use transform="translate(393.560546875 0.125)" xlink:href="#Cmmi10-63"/>
     <use transform="translate(436.7734375 0.125)" xlink:href="#Cmsy10-6a"/>
     <use transform="translate(464.458984375 0.125)" xlink:href="#Cmr10-30"/>
     <use transform="translate(514.458984375 0.125)" xlink:href="#Cmmi10-3b"/>
     <use transform="translate(544.126953125 0.125)" xlink:href="#Cmmi10-ae"/>
     <use transform="translate(608.04296875 -25.384375000000006)scale(0.7)" xlink:href="#Cmr10-31"/>
     <use transform="translate(658.04296875 0.125)" xlink:href="#Cmr10-29"/>
    </g>
   </g>
   <g id="text_16">
    <!-- $p(y|m, c, x, \sigma^2)=\mathcal{N}(y|mx+c,\sigma^2)$ -->
    <defs>
     <path d="
M7.71875 1.70312
Q7.71875 2.29688 7.8125 2.59375
L15.2812 32.4219
Q16.0156 35.2031 16.0156 37.3125
Q16.0156 41.6094 13.0938 41.6094
Q9.96875 41.6094 8.45312 37.8594
Q6.9375 34.125 5.51562 28.4219
Q5.51562 28.125 5.21875 27.9531
Q4.9375 27.7812 4.6875 27.7812
L3.51562 27.7812
Q3.17188 27.7812 2.92188 28.1406
Q2.6875 28.5156 2.6875 28.8125
Q3.76562 33.1562 4.76562 36.1719
Q5.76562 39.2031 7.89062 41.6875
Q10.0156 44.1875 13.1875 44.1875
Q16.9375 44.1875 19.8125 41.8125
Q22.7031 39.4531 22.7031 35.7969
Q25.6875 39.7031 29.6875 41.9375
Q33.6875 44.1875 38.1875 44.1875
Q42.9219 44.1875 46.3594 41.7656
Q49.8125 39.3594 49.8125 34.9062
Q52.875 39.2656 57 41.7188
Q61.1406 44.1875 66.0156 44.1875
Q71.1875 44.1875 74.3281 41.375
Q77.4844 38.5781 77.4844 33.4062
Q77.4844 29.2969 75.6562 23.4844
Q73.8281 17.6719 71.0938 10.5
Q69.6719 7.03125 69.6719 4.5
Q69.6719 1.51562 72.0156 1.51562
Q75.9219 1.51562 78.5156 5.70312
Q81.1094 9.90625 82.1719 14.7031
Q82.4688 15.2812 83.0156 15.2812
L84.1875 15.2812
Q84.5781 15.2812 84.8438 15.0156
Q85.1094 14.75 85.1094 14.4062
Q85.1094 14.3125 85.0156 14.1094
Q83.6406 8.45312 80.25 3.65625
Q76.8594 -1.125 71.7812 -1.125
Q68.2656 -1.125 65.7656 1.29688
Q63.2812 3.71875 63.2812 7.17188
Q63.2812 8.9375 64.1094 11.0781
Q66.9375 18.6094 68.8125 24.5156
Q70.7031 30.4219 70.7031 34.9062
Q70.7031 37.7031 69.5781 39.6562
Q68.4531 41.6094 65.8281 41.6094
Q60.3594 41.6094 56.3438 38.25
Q52.3438 34.9062 49.4219 29.3906
Q49.2188 28.4219 49.125 27.875
L42.6719 2.20312
Q42.3281 0.828125 41.125 -0.140625
Q39.9375 -1.125 38.4844 -1.125
Q37.3125 -1.125 36.4062 -0.34375
Q35.5 0.4375 35.5 1.70312
Q35.5 2.29688 35.5938 2.59375
L42 28.0781
Q43.0156 32.1719 43.0156 34.9062
Q43.0156 37.7031 41.8594 39.6562
Q40.7188 41.6094 37.9844 41.6094
Q34.3281 41.6094 31.25 39.9844
Q28.1719 38.375 25.875 35.7188
Q23.5781 33.0625 21.6875 29.3906
L14.8906 2.20312
Q14.5469 0.828125 13.3438 -0.140625
Q12.1562 -1.125 10.6875 -1.125
Q9.46875 -1.125 8.59375 -0.34375
Q7.71875 0.4375 7.71875 1.70312" id="Cmmi10-6d"/>
     <path d="
M7.8125 2.875
Q9.57812 1.51562 12.7969 1.51562
Q15.9219 1.51562 18.3125 4.51562
Q20.7031 7.51562 21.5781 11.0781
L26.125 28.8125
Q27.2031 33.6406 27.2031 35.4062
Q27.2031 37.8906 25.8125 39.75
Q24.4219 41.6094 21.9219 41.6094
Q18.75 41.6094 15.9688 39.625
Q13.1875 37.6406 11.2812 34.5938
Q9.375 31.5469 8.59375 28.4219
Q8.40625 27.7812 7.8125 27.7812
L6.59375 27.7812
Q5.8125 27.7812 5.8125 28.7188
L5.8125 29
Q6.78125 32.7188 9.125 36.25
Q11.4688 39.7969 14.8594 41.9844
Q18.2656 44.1875 22.125 44.1875
Q25.7812 44.1875 28.7344 42.2344
Q31.6875 40.2812 32.9062 36.9219
Q34.625 39.9844 37.2812 42.0781
Q39.9375 44.1875 43.1094 44.1875
Q45.2656 44.1875 47.5 43.4219
Q49.75 42.6719 51.1719 41.1094
Q52.5938 39.5469 52.5938 37.2031
Q52.5938 34.6719 50.9531 32.8281
Q49.3125 31 46.7812 31
Q45.1719 31 44.0938 32.0312
Q43.0156 33.0625 43.0156 34.625
Q43.0156 36.7188 44.4531 38.2969
Q45.9062 39.8906 47.9062 40.1875
Q46.0938 41.6094 42.9219 41.6094
Q39.7031 41.6094 37.3281 38.625
Q34.9688 35.6406 33.9844 31.9844
L29.5938 14.3125
Q28.5156 10.2969 28.5156 7.71875
Q28.5156 5.17188 29.9531 3.34375
Q31.3906 1.51562 33.7969 1.51562
Q38.4844 1.51562 42.1562 5.64062
Q45.8438 9.76562 47.0156 14.7031
Q47.2188 15.2812 47.7969 15.2812
L49.0312 15.2812
Q49.4219 15.2812 49.6562 15.0156
Q49.9062 14.75 49.9062 14.4062
Q49.9062 14.3125 49.8125 14.1094
Q48.3906 8.15625 43.8438 3.51562
Q39.3125 -1.125 33.5938 -1.125
Q29.9375 -1.125 26.9844 0.84375
Q24.0312 2.82812 22.7969 6.20312
Q21.2344 3.26562 18.4688 1.0625
Q15.7188 -1.125 12.5938 -1.125
Q10.4531 -1.125 8.17188 -0.359375
Q5.90625 0.390625 4.48438 1.95312
Q3.07812 3.51562 3.07812 5.90625
Q3.07812 8.25 4.70312 10.1719
Q6.34375 12.1094 8.79688 12.1094
Q10.4531 12.1094 11.5781 11.1094
Q12.7031 10.1094 12.7031 8.5
Q12.7031 6.39062 11.2969 4.82812
Q9.90625 3.26562 7.8125 2.875" id="Cmmi10-78"/>
     <path d="
M4.98438 0
L4.98438 2.6875
Q4.98438 2.9375 5.17188 3.21875
L20.7031 20.4062
Q24.2188 24.2188 26.4062 26.7969
Q28.6094 29.3906 30.75 32.7656
Q32.9062 36.1406 34.1562 39.625
Q35.4062 43.1094 35.4062 47.0156
Q35.4062 51.125 33.8906 54.8594
Q32.375 58.5938 29.375 60.8438
Q26.375 63.0938 22.125 63.0938
Q17.7812 63.0938 14.3125 60.4688
Q10.8438 57.8594 9.42188 53.7188
Q9.8125 53.8125 10.5 53.8125
Q12.75 53.8125 14.3281 52.2969
Q15.9219 50.7812 15.9219 48.3906
Q15.9219 46.0938 14.3281 44.5
Q12.75 42.9219 10.5 42.9219
Q8.15625 42.9219 6.5625 44.5469
Q4.98438 46.1875 4.98438 48.3906
Q4.98438 52.1562 6.39062 55.4375
Q7.8125 58.7344 10.4688 61.2969
Q13.1406 63.875 16.4844 65.2344
Q19.8281 66.6094 23.5781 66.6094
Q29.2969 66.6094 34.2188 64.1875
Q39.1562 61.7656 42.0312 57.3438
Q44.9219 52.9375 44.9219 47.0156
Q44.9219 42.6719 43.0156 38.7656
Q41.1094 34.8594 38.125 31.6562
Q35.1562 28.4688 30.5156 24.4062
Q25.875 20.3594 24.4219 19
L13.0938 8.10938
L22.7031 8.10938
Q29.7812 8.10938 34.5469 8.21875
Q39.3125 8.34375 39.5938 8.59375
Q40.7656 9.85938 42 17.8281
L44.9219 17.8281
L42.0938 0
z
" id="Cmr10-32"/>
     <path d="
M18.7031 -1.125
Q14.2656 -1.125 10.8125 1
Q7.375 3.125 5.48438 6.73438
Q3.60938 10.3594 3.60938 14.7031
Q3.60938 19.3438 5.70312 24.4688
Q7.8125 29.5938 11.4531 33.8438
Q15.0938 38.0938 19.6719 40.5938
Q24.2656 43.1094 29.1094 43.1094
L54.2969 43.1094
Q55.3281 43.1094 56.0469 42.4219
Q56.7812 41.75 56.7812 40.5781
Q56.7812 39.1094 55.7344 38.0156
Q54.6875 36.9219 53.2188 36.9219
L41.0156 36.9219
Q43.8906 32.625 43.8906 26.5156
Q43.8906 21.4844 41.9375 16.5938
Q39.9844 11.7188 36.5156 7.6875
Q33.0625 3.65625 28.4375 1.26562
Q23.8281 -1.125 18.7031 -1.125
M18.7969 1.51562
Q24.2656 1.51562 28.4844 5.78125
Q32.7188 10.0625 34.9531 16.2344
Q37.2031 22.4062 37.2031 27.6875
Q37.2031 31.9844 34.8281 34.4531
Q32.4688 36.9219 28.2188 36.9219
Q22.4062 36.9219 18.3281 33.0156
Q14.2656 29.1094 12.2344 23.1875
Q10.2031 17.2812 10.2031 11.8125
Q10.2031 7.51562 12.4688 4.51562
Q14.75 1.51562 18.7969 1.51562" id="Cmmi10-be"/>
     <path d="
M8.40625 -14.3125
Q10.5 -17.9219 15.7188 -17.9219
Q20.4531 -17.9219 23.9219 -14.5938
Q27.3906 -11.2812 29.5156 -6.5625
Q31.6406 -1.85938 32.8125 3.07812
Q28.375 -1.125 23.1875 -1.125
Q19.2344 -1.125 16.4531 0.234375
Q13.6719 1.60938 12.125 4.3125
Q10.5938 7.03125 10.5938 10.8906
Q10.5938 14.1562 11.4688 17.5938
Q12.3594 21.0469 13.9375 25.2656
Q15.5312 29.5 16.7031 32.625
Q18.0156 36.2812 18.0156 38.625
Q18.0156 41.6094 15.8281 41.6094
Q11.8594 41.6094 9.29688 37.5312
Q6.73438 33.4531 5.51562 28.4219
Q5.32812 27.7812 4.6875 27.7812
L3.51562 27.7812
Q2.6875 27.7812 2.6875 28.7188
L2.6875 29
Q4.29688 34.9688 7.60938 39.5781
Q10.9375 44.1875 16.0156 44.1875
Q19.5781 44.1875 22.0469 41.8438
Q24.5156 39.5 24.5156 35.8906
Q24.5156 34.0312 23.6875 31.9844
Q23.25 30.7656 21.6875 26.6562
Q20.125 22.5625 19.2812 19.875
Q18.4531 17.1875 17.9219 14.5938
Q17.3906 12.0156 17.3906 9.42188
Q17.3906 6.10938 18.7969 3.8125
Q20.2188 1.51562 23.2969 1.51562
Q29.5 1.51562 34.4219 9.07812
L42 39.8906
Q42.3281 41.2188 43.5469 42.1562
Q44.7812 43.1094 46.1875 43.1094
Q47.4062 43.1094 48.3125 42.3281
Q49.2188 41.5469 49.2188 40.2812
Q49.2188 39.7031 49.125 39.5
L39.2031 -0.296875
Q37.8906 -5.42188 34.375 -10.1094
Q30.8594 -14.7969 25.9062 -17.6562
Q20.9531 -20.5156 15.5781 -20.5156
Q12.9844 -20.5156 10.4375 -19.5
Q7.90625 -18.5 6.34375 -16.5
Q4.78125 -14.5 4.78125 -11.8125
Q4.78125 -9.07812 6.39062 -7.07812
Q8.01562 -5.07812 10.6875 -5.07812
Q12.3125 -5.07812 13.4062 -6.07812
Q14.5 -7.07812 14.5 -8.6875
Q14.5 -10.9844 12.7812 -12.6875
Q11.0781 -14.4062 8.79688 -14.4062
Q8.6875 -14.3594 8.59375 -14.3281
Q8.5 -14.3125 8.40625 -14.3125" id="Cmmi10-79"/>
     <path d="
M7.51562 23
Q6.6875 23 6.14062 23.625
Q5.60938 24.2656 5.60938 25
Q5.60938 25.7344 6.14062 26.3594
Q6.6875 27 7.51562 27
L36.9219 27
L36.9219 56.5
Q36.9219 57.2812 37.5 57.7812
Q38.0938 58.2969 38.9219 58.2969
Q39.6562 58.2969 40.2812 57.7812
Q40.9219 57.2812 40.9219 56.5
L40.9219 27
L70.3125 27
Q71.0469 27 71.5781 26.3594
Q72.125 25.7344 72.125 25
Q72.125 24.2656 71.5781 23.625
Q71.0469 23 70.3125 23
L40.9219 23
L40.9219 -6.5
Q40.9219 -7.28125 40.2812 -7.78125
Q39.6562 -8.29688 38.9219 -8.29688
Q38.0938 -8.29688 37.5 -7.78125
Q36.9219 -7.28125 36.9219 -6.5
L36.9219 23
z
" id="Cmr10-2b"/>
    </defs>
    <g transform="translate(356.3 323.82)scale(0.1 -0.1)">
     <use transform="translate(0.0 0.8578124999999943)" xlink:href="#Cmmi10-70"/>
     <use transform="translate(50.29296875 0.8578124999999943)" xlink:href="#Cmr10-28"/>
     <use transform="translate(89.111328125 0.8578124999999943)" xlink:href="#Cmmi10-79"/>
     <use transform="translate(138.134765625 0.8578124999999943)" xlink:href="#Cmsy10-6a"/>
     <use transform="translate(165.8203125 0.8578124999999943)" xlink:href="#Cmmi10-6d"/>
     <use transform="translate(253.61328125 0.8578124999999943)" xlink:href="#Cmmi10-3b"/>
     <use transform="translate(283.28125 0.8578124999999943)" xlink:href="#Cmmi10-63"/>
     <use transform="translate(326.494140625 0.8578124999999943)" xlink:href="#Cmmi10-3b"/>
     <use transform="translate(356.162109375 0.8578124999999943)" xlink:href="#Cmmi10-78"/>
     <use transform="translate(413.2421875 0.8578124999999943)" xlink:href="#Cmmi10-3b"/>
     <use transform="translate(442.91015625 0.8578124999999943)" xlink:href="#Cmmi10-be"/>
     <use transform="translate(499.990234375 43.373437499999994)scale(0.7)" xlink:href="#Cmr10-32"/>
     <use transform="translate(566.996484375 0.8578124999999943)" xlink:href="#Cmr10-29"/>
     <use transform="translate(623.3734375 0.8578124999999943)" xlink:href="#Cmr10-3d"/>
     <use transform="translate(707.43203125 0.8578124999999943)" xlink:href="#Cmsy10-4e"/>
     <use transform="translate(789.414453125 0.8578124999999943)" xlink:href="#Cmr10-28"/>
     <use transform="translate(828.2328125 0.8578124999999943)" xlink:href="#Cmmi10-79"/>
     <use transform="translate(877.25625 0.8578124999999943)" xlink:href="#Cmsy10-6a"/>
     <use transform="translate(904.941796875 0.8578124999999943)" xlink:href="#Cmmi10-6d"/>
     <use transform="translate(992.734765625 0.8578124999999943)" xlink:href="#Cmmi10-78"/>
     <use transform="translate(1067.3734375 0.8578124999999943)" xlink:href="#Cmr10-2b"/>
     <use transform="translate(1151.43203125 0.8578124999999943)" xlink:href="#Cmmi10-63"/>
     <use transform="translate(1194.644921875 0.8578124999999943)" xlink:href="#Cmmi10-3b"/>
     <use transform="translate(1224.312890625 0.8578124999999943)" xlink:href="#Cmmi10-be"/>
     <use transform="translate(1281.39296875 43.373437499999994)scale(0.7)" xlink:href="#Cmr10-32"/>
     <use transform="translate(1348.3992187499998 0.8578124999999943)" xlink:href="#Cmr10-29"/>
    </g>
   </g>
   <g id="text_17">
    <!-- $p(c|y, m, x, \sigma^2)=$ -->
    <g transform="translate(390.3 362.88)scale(0.1 -0.1)">
     <use transform="translate(0.0 0.8578124999999943)" xlink:href="#Cmmi10-70"/>
     <use transform="translate(50.29296875 0.8578124999999943)" xlink:href="#Cmr10-28"/>
     <use transform="translate(89.111328125 0.8578124999999943)" xlink:href="#Cmmi10-63"/>
     <use transform="translate(132.32421875 0.8578124999999943)" xlink:href="#Cmsy10-6a"/>
     <use transform="translate(160.009765625 0.8578124999999943)" xlink:href="#Cmmi10-79"/>
     <use transform="translate(209.033203125 0.8578124999999943)" xlink:href="#Cmmi10-3b"/>
     <use transform="translate(238.701171875 0.8578124999999943)" xlink:href="#Cmmi10-6d"/>
     <use transform="translate(326.494140625 0.8578124999999943)" xlink:href="#Cmmi10-3b"/>
     <use transform="translate(356.162109375 0.8578124999999943)" xlink:href="#Cmmi10-78"/>
     <use transform="translate(413.2421875 0.8578124999999943)" xlink:href="#Cmmi10-3b"/>
     <use transform="translate(442.91015625 0.8578124999999943)" xlink:href="#Cmmi10-be"/>
     <use transform="translate(499.990234375 43.373437499999994)scale(0.7)" xlink:href="#Cmr10-32"/>
     <use transform="translate(566.996484375 0.8578124999999943)" xlink:href="#Cmr10-29"/>
     <use transform="translate(623.3734375 0.8578124999999943)" xlink:href="#Cmr10-3d"/>
    </g>
   </g>
   <g id="text_18">
    <!-- $\mathcal{N}\left(c|\frac{y-mx}{1+\sigma^2\alpha_1},(\sigma^{-2}+\alpha_1^{-1})^{-1}\right)$ -->
    <defs>
     <path d="
M52.4844 -175.688
Q43.1719 -167.578 36.5469 -157.266
Q29.9375 -146.969 25.8594 -135.25
Q21.7812 -123.531 19.8906 -111.172
Q18.0156 -98.8281 18.0156 -85.9844
Q18.0156 -73.0938 19.8906 -60.7188
Q21.7812 -48.3438 25.8594 -36.625
Q29.9375 -24.9062 36.5469 -14.5938
Q43.1719 -4.29688 52.4844 3.8125
Q52.4844 4 52.9844 4
L55.3281 4
Q55.6094 4 55.8594 3.6875
Q56.1094 3.375 56.1094 3.07812
Q56.1094 2.6875 55.9062 2.48438
Q47.3594 -6.0625 41.5938 -16.2656
Q35.8438 -26.4688 32.375 -38.1094
Q28.9062 -49.75 27.4375 -61.6875
Q25.9844 -73.6406 25.9844 -86.0781
Q25.9844 -98.4844 27.4375 -110.469
Q28.9062 -122.469 32.375 -133.984
Q35.8438 -145.516 41.6719 -155.766
Q47.5156 -166.016 55.9062 -174.422
Q56.1094 -174.609 56.1094 -175
Q56.1094 -175.25 55.8281 -175.562
Q55.5625 -175.875 55.3281 -175.875
L52.9844 -175.875
Q52.4844 -175.875 52.4844 -175.688" id="Cmex10-b3"/>
     <path d="
M10.2031 23
Q9.375 23 8.82812 23.625
Q8.29688 24.2656 8.29688 25
Q8.29688 25.7344 8.82812 26.3594
Q9.375 27 10.2031 27
L67.5781 27
Q68.3594 27 68.875 26.3594
Q69.3906 25.7344 69.3906 25
Q69.3906 24.2656 68.875 23.625
Q68.3594 23 67.5781 23
z
" id="Cmsy10-a1"/>
     <path d="
M4.39062 -175.875
Q3.51562 -175.875 3.51562 -175
Q3.51562 -174.609 3.71875 -174.422
Q12.2031 -165.922 18.0625 -155.547
Q23.9219 -145.172 27.2969 -133.844
Q30.6719 -122.516 32.125 -110.547
Q33.5938 -98.5781 33.5938 -85.8906
Q33.5938 -72.9062 32.0938 -61.0312
Q30.6094 -49.1719 27.2344 -37.8906
Q23.875 -26.6094 18.0312 -16.2344
Q12.2031 -5.85938 3.71875 2.48438
Q3.51562 2.6875 3.51562 3.07812
Q3.51562 4 4.39062 4
L6.6875 4
Q6.98438 4 7.17188 3.8125
Q16.4062 -4.15625 23.0938 -14.5781
Q29.7812 -25 33.8594 -36.6875
Q37.9375 -48.3906 39.7656 -60.7344
Q41.6094 -73.0938 41.6094 -85.9844
Q41.6094 -98.8281 39.7656 -111.156
Q37.9375 -123.484 33.8594 -135.203
Q29.7812 -146.922 23.0938 -157.312
Q16.4062 -167.719 7.17188 -175.688
Q6.98438 -175.875 6.6875 -175.875
z
" id="Cmex10-b4"/>
    </defs>
    <g transform="translate(365.05 382.41)scale(0.1 -0.1)">
     <use transform="translate(0.0 0.8810937500000051)" xlink:href="#Cmsy10-4e"/>
     <use transform="translate(81.982421875 93.21875)scale(0.9457861362056984)" xlink:href="#Cmex10-b3"/>
     <use transform="translate(138.46144104003906 0.8810937500000051)" xlink:href="#Cmmi10-63"/>
     <use transform="translate(181.67433166503906 0.8810937500000051)" xlink:href="#Cmsy10-6a"/>
     <use transform="translate(250.35987854003906 52.74203125000002)scale(0.7)" xlink:href="#Cmmi10-79"/>
     <use transform="translate(284.67628479003906 52.74203125000002)scale(0.7)" xlink:href="#Cmsy10-a1"/>
     <use transform="translate(339.05616760253906 52.74203125000002)scale(0.7)" xlink:href="#Cmmi10-6d"/>
     <use transform="translate(400.51124572753906 52.74203125000002)scale(0.7)" xlink:href="#Cmmi10-78"/>
     <use transform="translate(209.35987854003906 -55.268437499999976)scale(0.7)" xlink:href="#Cmr10-31"/>
     <use transform="translate(256.65089416503906 -55.268437499999976)scale(0.7)" xlink:href="#Cmr10-2b"/>
     <use transform="translate(315.4919097900391 -55.268437499999976)scale(0.7)" xlink:href="#Cmmi10-be"/>
     <use transform="translate(355.4479644775391 -25.507499999999993)scale(0.49)" xlink:href="#Cmr10-32"/>
     <use transform="translate(402.3523394775391 -55.268437499999976)scale(0.7)" xlink:href="#Cmmi10-ae"/>
     <use transform="translate(447.0935504150391 -73.125)scale(0.49)" xlink:href="#Cmr10-31"/>
     <use transform="translate(494.59355041503903 0.8810937500000051)" xlink:href="#Cmmi10-3b"/>
     <use transform="translate(524.2615191650391 0.8810937500000051)" xlink:href="#Cmr10-28"/>
     <use transform="translate(563.0798785400391 0.8810937500000051)" xlink:href="#Cmmi10-be"/>
     <use transform="translate(620.1599566650391 43.396718750000005)scale(0.7)" xlink:href="#Cmsy10-a1"/>
     <use transform="translate(674.5398394775391 43.396718750000005)scale(0.7)" xlink:href="#Cmr10-32"/>
     <use transform="translate(744.1046832275391 0.8810937500000051)" xlink:href="#Cmr10-2b"/>
     <use transform="translate(828.1632769775391 0.8810937500000051)" xlink:href="#Cmmi10-ae"/>
     <use transform="translate(904.3237926025391 43.39671875000001)scale(0.7)" xlink:href="#Cmsy10-a1"/>
     <use transform="translate(958.7036754150391 43.39671875000001)scale(0.7)" xlink:href="#Cmr10-31"/>
     <use transform="translate(892.0792926025391 -24.628281249999986)scale(0.7)" xlink:href="#Cmr10-31"/>
     <use transform="translate(1010.7099254150392 0.8810937500000051)" xlink:href="#Cmr10-29"/>
     <use transform="translate(1049.5282847900392 50.37171875000001)scale(0.7)" xlink:href="#Cmsy10-a1"/>
     <use transform="translate(1103.9081676025392 50.37171875000001)scale(0.7)" xlink:href="#Cmr10-31"/>
     <use transform="translate(1155.914417602539 93.21875)scale(0.9457861362056984)" xlink:href="#Cmex10-b4"/>
     <path d="
M209.36 13.3811
L209.36 19.6311
L482.094 19.6311
L482.094 13.3811
L209.36 13.3811
z
"/>
    </g>
   </g>
  </g>
 </g>
 <defs>
  <clipPath id="p41d7ee9abc">
   <rect height="390.6" width="390.6" x="63.0" y="50.4"/>
  </clipPath>
 </defs>
</svg>
