<?xml version="1.0" encoding="utf-8" standalone="no"?>
<!DOCTYPE svg PUBLIC "-//W3C//DTD SVG 1.1//EN"
  "http://www.w3.org/Graphics/SVG/1.1/DTD/svg11.dtd">
<!-- Created with matplotlib (http://matplotlib.org/) -->
<svg height="576pt" version="1.1" viewBox="0 0 576 576" width="576pt" xmlns="http://www.w3.org/2000/svg" xmlns:xlink="http://www.w3.org/1999/xlink">
 <defs>
  <style type="text/css">
*{stroke-linecap:butt;stroke-linejoin:round;}
  </style>
 </defs>
 <g id="figure_1">
  <g id="patch_1">
   <path d="
M0 576
L576 576
L576 0
L0 0
z
" style="fill:#ffffff;"/>
  </g>
  <g id="axes_1">
   <g id="line2d_1">
    <defs>
     <path d="
M-3 3
L3 -3
M-3 -3
L3 3" id="m7a01b90040" style="stroke:#ff0000;stroke-width:0.5;"/>
    </defs>
    <g clip-path="url(#p621aff4130)">
     <use style="fill:#ff0000;stroke:#ff0000;stroke-width:0.5;" x="375.141641958" xlink:href="#m7a01b90040" y="281.688295961"/>
     <use style="fill:#ff0000;stroke:#ff0000;stroke-width:0.5;" x="384.667043277" xlink:href="#m7a01b90040" y="162.589705932"/>
     <use style="fill:#ff0000;stroke:#ff0000;stroke-width:0.5;" x="323.140796911" xlink:href="#m7a01b90040" y="252.78071597"/>
     <use style="fill:#ff0000;stroke:#ff0000;stroke-width:0.5;" x="431.29390819" xlink:href="#m7a01b90040" y="246.291251176"/>
     <use style="fill:#ff0000;stroke:#ff0000;stroke-width:0.5;" x="391.287306129" xlink:href="#m7a01b90040" y="103.365709818"/>
     <use style="fill:#ff0000;stroke:#ff0000;stroke-width:0.5;" x="424.68982035" xlink:href="#m7a01b90040" y="212.461567257"/>
     <use style="fill:#ff0000;stroke:#ff0000;stroke-width:0.5;" x="349.416516149" xlink:href="#m7a01b90040" y="291.261922243"/>
     <use style="fill:#ff0000;stroke:#ff0000;stroke-width:0.5;" x="418.865355272" xlink:href="#m7a01b90040" y="286.396616348"/>
     <use style="fill:#ff0000;stroke:#ff0000;stroke-width:0.5;" x="374.737019236" xlink:href="#m7a01b90040" y="50.1679171102"/>
     <use style="fill:#ff0000;stroke:#ff0000;stroke-width:0.5;" x="496.755391305" xlink:href="#m7a01b90040" y="112.825420701"/>
     <use style="fill:#ff0000;stroke:#ff0000;stroke-width:0.5;" x="376.159063521" xlink:href="#m7a01b90040" y="354.797064961"/>
     <use style="fill:#ff0000;stroke:#ff0000;stroke-width:0.5;" x="317.00698068" xlink:href="#m7a01b90040" y="73.0260700197"/>
     <use style="fill:#ff0000;stroke:#ff0000;stroke-width:0.5;" x="449.175749885" xlink:href="#m7a01b90040" y="271.377300567"/>
     <use style="fill:#ff0000;stroke:#ff0000;stroke-width:0.5;" x="287.006224896" xlink:href="#m7a01b90040" y="380.195868845"/>
     <use style="fill:#ff0000;stroke:#ff0000;stroke-width:0.5;" x="380.882170585" xlink:href="#m7a01b90040" y="305.138268026"/>
     <use style="fill:#ff0000;stroke:#ff0000;stroke-width:0.5;" x="346.841255726" xlink:href="#m7a01b90040" y="282.307016138"/>
     <use style="fill:#ff0000;stroke:#ff0000;stroke-width:0.5;" x="424.323008423" xlink:href="#m7a01b90040" y="135.782921773"/>
     <use style="fill:#ff0000;stroke:#ff0000;stroke-width:0.5;" x="357.076689467" xlink:href="#m7a01b90040" y="115.485299709"/>
     <use style="fill:#ff0000;stroke:#ff0000;stroke-width:0.5;" x="320.634332766" xlink:href="#m7a01b90040" y="230.089730095"/>
     <use style="fill:#ff0000;stroke:#ff0000;stroke-width:0.5;" x="464.596381663" xlink:href="#m7a01b90040" y="189.452186445"/>
     <use style="fill:#ff0000;stroke:#ff0000;stroke-width:0.5;" x="292.250966922" xlink:href="#m7a01b90040" y="189.837398899"/>
     <use style="fill:#ff0000;stroke:#ff0000;stroke-width:0.5;" x="272.709445638" xlink:href="#m7a01b90040" y="220.931106728"/>
     <use style="fill:#ff0000;stroke:#ff0000;stroke-width:0.5;" x="150.19833496" xlink:href="#m7a01b90040" y="78.6608858557"/>
     <use style="fill:#ff0000;stroke:#ff0000;stroke-width:0.5;" x="419.183231594" xlink:href="#m7a01b90040" y="90.8799379894"/>
     <use style="fill:#ff0000;stroke:#ff0000;stroke-width:0.5;" x="312.279169672" xlink:href="#m7a01b90040" y="148.546583511"/>
     <use style="fill:#ff0000;stroke:#ff0000;stroke-width:0.5;" x="447.237317112" xlink:href="#m7a01b90040" y="254.822168957"/>
     <use style="fill:#ff0000;stroke:#ff0000;stroke-width:0.5;" x="327.6454915" xlink:href="#m7a01b90040" y="253.910110225"/>
     <use style="fill:#ff0000;stroke:#ff0000;stroke-width:0.5;" x="480.319096754" xlink:href="#m7a01b90040" y="231.945646611"/>
     <use style="fill:#ff0000;stroke:#ff0000;stroke-width:0.5;" x="525.314463618" xlink:href="#m7a01b90040" y="242.145871162"/>
     <use style="fill:#ff0000;stroke:#ff0000;stroke-width:0.5;" x="289.879293675" xlink:href="#m7a01b90040" y="39.3640699578"/>
     <use style="fill:#ff0000;stroke:#ff0000;stroke-width:0.5;" x="369.836925971" xlink:href="#m7a01b90040" y="200.632396559"/>
     <use style="fill:#ff0000;stroke:#ff0000;stroke-width:0.5;" x="359.592657247" xlink:href="#m7a01b90040" y="163.954643021"/>
     <use style="fill:#ff0000;stroke:#ff0000;stroke-width:0.5;" x="386.238027582" xlink:href="#m7a01b90040" y="263.506150228"/>
     <use style="fill:#ff0000;stroke:#ff0000;stroke-width:0.5;" x="347.992994384" xlink:href="#m7a01b90040" y="215.000415932"/>
     <use style="fill:#ff0000;stroke:#ff0000;stroke-width:0.5;" x="320.612339297" xlink:href="#m7a01b90040" y="127.565969134"/>
     <use style="fill:#ff0000;stroke:#ff0000;stroke-width:0.5;" x="364.529503905" xlink:href="#m7a01b90040" y="103.528785179"/>
     <use style="fill:#ff0000;stroke:#ff0000;stroke-width:0.5;" x="321.682636657" xlink:href="#m7a01b90040" y="275.255642701"/>
     <use style="fill:#ff0000;stroke:#ff0000;stroke-width:0.5;" x="343.167603013" xlink:href="#m7a01b90040" y="228.927309379"/>
     <use style="fill:#ff0000;stroke:#ff0000;stroke-width:0.5;" x="323.439351059" xlink:href="#m7a01b90040" y="346.152949282"/>
     <use style="fill:#ff0000;stroke:#ff0000;stroke-width:0.5;" x="373.394905185" xlink:href="#m7a01b90040" y="465.241224391"/>
     <use style="fill:#ff0000;stroke:#ff0000;stroke-width:0.5;" x="271.053162313" xlink:href="#m7a01b90040" y="377.368799786"/>
     <use style="fill:#ff0000;stroke:#ff0000;stroke-width:0.5;" x="282.258084783" xlink:href="#m7a01b90040" y="227.381030679"/>
     <use style="fill:#ff0000;stroke:#ff0000;stroke-width:0.5;" x="342.153741968" xlink:href="#m7a01b90040" y="515.481083265"/>
     <use style="fill:#ff0000;stroke:#ff0000;stroke-width:0.5;" x="221.082631243" xlink:href="#m7a01b90040" y="135.383060511"/>
     <use style="fill:#ff0000;stroke:#ff0000;stroke-width:0.5;" x="462.713336605" xlink:href="#m7a01b90040" y="359.896642797"/>
     <use style="fill:#ff0000;stroke:#ff0000;stroke-width:0.5;" x="324.868066866" xlink:href="#m7a01b90040" y="297.511399018"/>
     <use style="fill:#ff0000;stroke:#ff0000;stroke-width:0.5;" x="457.570000978" xlink:href="#m7a01b90040" y="242.447164002"/>
     <use style="fill:#ff0000;stroke:#ff0000;stroke-width:0.5;" x="613.855952282" xlink:href="#m7a01b90040" y="104.11923115"/>
     <use style="fill:#ff0000;stroke:#ff0000;stroke-width:0.5;" x="343.70924848" xlink:href="#m7a01b90040" y="213.697246516"/>
     <use style="fill:#ff0000;stroke:#ff0000;stroke-width:0.5;" x="315.244122179" xlink:href="#m7a01b90040" y="360.439219351"/>
     <use style="fill:#ff0000;stroke:#ff0000;stroke-width:0.5;" x="302.489104003" xlink:href="#m7a01b90040" y="403.952669766"/>
     <use style="fill:#ff0000;stroke:#ff0000;stroke-width:0.5;" x="546.887037008" xlink:href="#m7a01b90040" y="150.906978406"/>
     <use style="fill:#ff0000;stroke:#ff0000;stroke-width:0.5;" x="356.925721854" xlink:href="#m7a01b90040" y="242.269397706"/>
     <use style="fill:#ff0000;stroke:#ff0000;stroke-width:0.5;" x="318.582197517" xlink:href="#m7a01b90040" y="186.560323057"/>
     <use style="fill:#ff0000;stroke:#ff0000;stroke-width:0.5;" x="399.150695112" xlink:href="#m7a01b90040" y="176.121013939"/>
     <use style="fill:#ff0000;stroke:#ff0000;stroke-width:0.5;" x="484.739455427" xlink:href="#m7a01b90040" y="242.338211896"/>
     <use style="fill:#ff0000;stroke:#ff0000;stroke-width:0.5;" x="471.817647812" xlink:href="#m7a01b90040" y="158.883120343"/>
     <use style="fill:#ff0000;stroke:#ff0000;stroke-width:0.5;" x="295.941287479" xlink:href="#m7a01b90040" y="205.544695911"/>
     <use style="fill:#ff0000;stroke:#ff0000;stroke-width:0.5;" x="423.916989115" xlink:href="#m7a01b90040" y="304.940258198"/>
     <use style="fill:#ff0000;stroke:#ff0000;stroke-width:0.5;" x="313.949340392" xlink:href="#m7a01b90040" y="293.064321996"/>
     <use style="fill:#ff0000;stroke:#ff0000;stroke-width:0.5;" x="280.940777787" xlink:href="#m7a01b90040" y="223.914666131"/>
     <use style="fill:#ff0000;stroke:#ff0000;stroke-width:0.5;" x="409.468864337" xlink:href="#m7a01b90040" y="323.82115975"/>
     <use style="fill:#ff0000;stroke:#ff0000;stroke-width:0.5;" x="174.212092691" xlink:href="#m7a01b90040" y="84.6324402682"/>
     <use style="fill:#ff0000;stroke:#ff0000;stroke-width:0.5;" x="319.647697551" xlink:href="#m7a01b90040" y="208.008326152"/>
     <use style="fill:#ff0000;stroke:#ff0000;stroke-width:0.5;" x="460.661235413" xlink:href="#m7a01b90040" y="342.269675151"/>
     <use style="fill:#ff0000;stroke:#ff0000;stroke-width:0.5;" x="357.86185615" xlink:href="#m7a01b90040" y="266.603139726"/>
     <use style="fill:#ff0000;stroke:#ff0000;stroke-width:0.5;" x="394.347527923" xlink:href="#m7a01b90040" y="119.094509696"/>
     <use style="fill:#ff0000;stroke:#ff0000;stroke-width:0.5;" x="374.340821014" xlink:href="#m7a01b90040" y="79.2746220749"/>
     <use style="fill:#ff0000;stroke:#ff0000;stroke-width:0.5;" x="340.135656578" xlink:href="#m7a01b90040" y="122.689074826"/>
     <use style="fill:#ff0000;stroke:#ff0000;stroke-width:0.5;" x="465.64945607" xlink:href="#m7a01b90040" y="60.3157476337"/>
     <use style="fill:#ff0000;stroke:#ff0000;stroke-width:0.5;" x="454.609848072" xlink:href="#m7a01b90040" y="190.230780058"/>
     <use style="fill:#ff0000;stroke:#ff0000;stroke-width:0.5;" x="292.132247393" xlink:href="#m7a01b90040" y="412.98139242"/>
     <use style="fill:#ff0000;stroke:#ff0000;stroke-width:0.5;" x="430.815238098" xlink:href="#m7a01b90040" y="109.509258688"/>
     <use style="fill:#ff0000;stroke:#ff0000;stroke-width:0.5;" x="356.794663328" xlink:href="#m7a01b90040" y="374.890306064"/>
     <use style="fill:#ff0000;stroke:#ff0000;stroke-width:0.5;" x="348.799831175" xlink:href="#m7a01b90040" y="245.616536028"/>
     <use style="fill:#ff0000;stroke:#ff0000;stroke-width:0.5;" x="168.721407755" xlink:href="#m7a01b90040" y="261.28856002"/>
     <use style="fill:#ff0000;stroke:#ff0000;stroke-width:0.5;" x="430.706171659" xlink:href="#m7a01b90040" y="316.049529804"/>
     <use style="fill:#ff0000;stroke:#ff0000;stroke-width:0.5;" x="261.66366638" xlink:href="#m7a01b90040" y="195.611647175"/>
     <use style="fill:#ff0000;stroke:#ff0000;stroke-width:0.5;" x="351.424356796" xlink:href="#m7a01b90040" y="255.184986901"/>
     <use style="fill:#ff0000;stroke:#ff0000;stroke-width:0.5;" x="437.339046672" xlink:href="#m7a01b90040" y="168.483374337"/>
     <use style="fill:#ff0000;stroke:#ff0000;stroke-width:0.5;" x="347.245208012" xlink:href="#m7a01b90040" y="287.850550253"/>
     <use style="fill:#ff0000;stroke:#ff0000;stroke-width:0.5;" x="498.389727792" xlink:href="#m7a01b90040" y="259.973358033"/>
     <use style="fill:#ff0000;stroke:#ff0000;stroke-width:0.5;" x="370.934831668" xlink:href="#m7a01b90040" y="114.721868565"/>
     <use style="fill:#ff0000;stroke:#ff0000;stroke-width:0.5;" x="294.855068983" xlink:href="#m7a01b90040" y="133.46113936"/>
     <use style="fill:#ff0000;stroke:#ff0000;stroke-width:0.5;" x="417.661485559" xlink:href="#m7a01b90040" y="83.5095752087"/>
     <use style="fill:#ff0000;stroke:#ff0000;stroke-width:0.5;" x="392.047880787" xlink:href="#m7a01b90040" y="64.2090280164"/>
     <use style="fill:#ff0000;stroke:#ff0000;stroke-width:0.5;" x="379.481466268" xlink:href="#m7a01b90040" y="215.933064594"/>
     <use style="fill:#ff0000;stroke:#ff0000;stroke-width:0.5;" x="382.768158418" xlink:href="#m7a01b90040" y="226.656446869"/>
     <use style="fill:#ff0000;stroke:#ff0000;stroke-width:0.5;" x="398.937463535" xlink:href="#m7a01b90040" y="81.492363347"/>
     <use style="fill:#ff0000;stroke:#ff0000;stroke-width:0.5;" x="324.387888444" xlink:href="#m7a01b90040" y="303.258545174"/>
     <use style="fill:#ff0000;stroke:#ff0000;stroke-width:0.5;" x="282.265664398" xlink:href="#m7a01b90040" y="403.72837603"/>
     <use style="fill:#ff0000;stroke:#ff0000;stroke-width:0.5;" x="426.323924077" xlink:href="#m7a01b90040" y="235.728389658"/>
     <use style="fill:#ff0000;stroke:#ff0000;stroke-width:0.5;" x="453.343635524" xlink:href="#m7a01b90040" y="146.14533373"/>
     <use style="fill:#ff0000;stroke:#ff0000;stroke-width:0.5;" x="408.885470336" xlink:href="#m7a01b90040" y="185.459771109"/>
     <use style="fill:#ff0000;stroke:#ff0000;stroke-width:0.5;" x="373.613616023" xlink:href="#m7a01b90040" y="192.522700093"/>
     <use style="fill:#ff0000;stroke:#ff0000;stroke-width:0.5;" x="313.788774012" xlink:href="#m7a01b90040" y="345.981646306"/>
     <use style="fill:#ff0000;stroke:#ff0000;stroke-width:0.5;" x="505.546961577" xlink:href="#m7a01b90040" y="294.276213215"/>
     <use style="fill:#ff0000;stroke:#ff0000;stroke-width:0.5;" x="368.560163053" xlink:href="#m7a01b90040" y="173.237707002"/>
     <use style="fill:#ff0000;stroke:#ff0000;stroke-width:0.5;" x="294.044992324" xlink:href="#m7a01b90040" y="164.233252483"/>
     <use style="fill:#ff0000;stroke:#ff0000;stroke-width:0.5;" x="328.627597394" xlink:href="#m7a01b90040" y="336.174738382"/>
    </g>
   </g>
   <g id="line2d_2">
    <path clip-path="url(#p621aff4130)" d="
M79.2 493.371
L79.2 -1" style="fill:none;stroke:#000000;stroke-linecap:square;"/>
   </g>
   <g id="line2d_3">
    <path clip-path="url(#p621aff4130)" d="
M151.2 493.371
L151.2 -1" style="fill:none;stroke:#000000;stroke-linecap:square;"/>
   </g>
   <g id="line2d_4">
    <path clip-path="url(#p621aff4130)" d="
M223.2 493.371
L223.2 -1" style="fill:none;stroke:#000000;stroke-linecap:square;"/>
   </g>
   <g id="line2d_5">
    <path clip-path="url(#p621aff4130)" d="
M295.2 493.371
L295.2 -1" style="fill:none;stroke:#000000;stroke-linecap:square;"/>
   </g>
   <g id="line2d_6">
    <path clip-path="url(#p621aff4130)" d="
M367.2 493.371
L367.2 -1" style="fill:none;stroke:#000000;stroke-linecap:square;"/>
   </g>
   <g id="line2d_7">
    <path clip-path="url(#p621aff4130)" d="
M439.2 493.371
L439.2 -1" style="fill:none;stroke:#000000;stroke-linecap:square;"/>
   </g>
   <g id="line2d_8">
    <path clip-path="url(#p621aff4130)" d="
M511.2 493.371
L511.2 -1" style="fill:none;stroke:#000000;stroke-linecap:square;"/>
   </g>
   <g id="line2d_9">
    <path clip-path="url(#p621aff4130)" d="
M79.2 493.371
L577 493.371" style="fill:none;stroke:#000000;stroke-linecap:square;"/>
   </g>
   <g id="line2d_10">
    <path clip-path="url(#p621aff4130)" d="
M79.2 387.086
L577 387.086" style="fill:none;stroke:#000000;stroke-linecap:square;"/>
   </g>
   <g id="line2d_11">
    <path clip-path="url(#p621aff4130)" d="
M79.2 280.8
L577 280.8" style="fill:none;stroke:#000000;stroke-linecap:square;"/>
   </g>
   <g id="line2d_12">
    <path clip-path="url(#p621aff4130)" d="
M79.2 174.514
L577 174.514" style="fill:none;stroke:#000000;stroke-linecap:square;"/>
   </g>
   <g id="line2d_13">
    <path clip-path="url(#p621aff4130)" d="
M79.2 68.2286
L577 68.2286" style="fill:none;stroke:#000000;stroke-linecap:square;"/>
   </g>
   <g id="line2d_14">
    <path clip-path="url(#p621aff4130)" d="
M75.6 179.829
L514.8 179.829
L514.8 62.9143
L75.6 62.9143
L75.6 179.829" style="fill:none;stroke:#ff0000;stroke-dasharray:1.000000,3.000000;stroke-dashoffset:0.0;stroke-width:2;"/>
   </g>
   <g id="line2d_15">
    <path clip-path="url(#p621aff4130)" d="
M363.6 498.686
L442.8 498.686
L442.8 62.9143
L363.6 62.9143
L363.6 498.686" style="fill:none;stroke:#ff0000;stroke-dasharray:6.000000,6.000000;stroke-dashoffset:0.0;stroke-width:2;"/>
   </g>
   <g id="line2d_16">
    <path clip-path="url(#p621aff4130)" d="
M216 185.143
L302.4 185.143
L302.4 57.6
L216 57.6
L216 185.143" style="fill:none;stroke:#ff00ff;stroke-dasharray:6.000000,6.000000;stroke-dashoffset:0.0;stroke-width:2;"/>
   </g>
   <g id="text_1">
    <!-- 1 -->
    <defs>
     <path d="
M12.4062 8.29688
L28.5156 8.29688
L28.5156 63.9219
L10.9844 60.4062
L10.9844 69.3906
L28.4219 72.9062
L38.2812 72.9062
L38.2812 8.29688
L54.3906 8.29688
L54.3906 0
L12.4062 0
z
" id="BitstreamVeraSans-Roman-31"/>
    </defs>
    <g transform="translate(53.259375 440.228571429)scale(0.2 -0.2)">
     <use xlink:href="#BitstreamVeraSans-Roman-31"/>
    </g>
   </g>
   <g id="text_2">
    <!-- 2 -->
    <defs>
     <path d="
M19.1875 8.29688
L53.6094 8.29688
L53.6094 0
L7.32812 0
L7.32812 8.29688
Q12.9375 14.1094 22.625 23.8906
Q32.3281 33.6875 34.8125 36.5312
Q39.5469 41.8438 41.4219 45.5312
Q43.3125 49.2188 43.3125 52.7812
Q43.3125 58.5938 39.2344 62.25
Q35.1562 65.9219 28.6094 65.9219
Q23.9688 65.9219 18.8125 64.3125
Q13.6719 62.7031 7.8125 59.4219
L7.8125 69.3906
Q13.7656 71.7812 18.9375 73
Q24.125 74.2188 28.4219 74.2188
Q39.75 74.2188 46.4844 68.5469
Q53.2188 62.8906 53.2188 53.4219
Q53.2188 48.9219 51.5312 44.8906
Q49.8594 40.875 45.4062 35.4062
Q44.1875 33.9844 37.6406 27.2188
Q31.1094 20.4531 19.1875 8.29688" id="BitstreamVeraSans-Roman-32"/>
    </defs>
    <g transform="translate(52.971875 333.942857143)scale(0.2 -0.2)">
     <use xlink:href="#BitstreamVeraSans-Roman-32"/>
    </g>
   </g>
   <g id="text_3">
    <!-- 3 -->
    <defs>
     <path d="
M40.5781 39.3125
Q47.6562 37.7969 51.625 33
Q55.6094 28.2188 55.6094 21.1875
Q55.6094 10.4062 48.1875 4.48438
Q40.7656 -1.42188 27.0938 -1.42188
Q22.5156 -1.42188 17.6562 -0.515625
Q12.7969 0.390625 7.625 2.20312
L7.625 11.7188
Q11.7188 9.32812 16.5938 8.10938
Q21.4844 6.89062 26.8125 6.89062
Q36.0781 6.89062 40.9375 10.5469
Q45.7969 14.2031 45.7969 21.1875
Q45.7969 27.6406 41.2812 31.2656
Q36.7656 34.9062 28.7188 34.9062
L20.2188 34.9062
L20.2188 43.0156
L29.1094 43.0156
Q36.375 43.0156 40.2344 45.9219
Q44.0938 48.8281 44.0938 54.2969
Q44.0938 59.9062 40.1094 62.9062
Q36.1406 65.9219 28.7188 65.9219
Q24.6562 65.9219 20.0156 65.0312
Q15.375 64.1562 9.8125 62.3125
L9.8125 71.0938
Q15.4375 72.6562 20.3438 73.4375
Q25.25 74.2188 29.5938 74.2188
Q40.8281 74.2188 47.3594 69.1094
Q53.9062 64.0156 53.9062 55.3281
Q53.9062 49.2656 50.4375 45.0938
Q46.9688 40.9219 40.5781 39.3125" id="BitstreamVeraSans-Roman-33"/>
    </defs>
    <g transform="translate(52.8015625 227.657142857)scale(0.2 -0.2)">
     <use xlink:href="#BitstreamVeraSans-Roman-33"/>
    </g>
   </g>
   <g id="text_4">
    <!-- 4 -->
    <defs>
     <path d="
M37.7969 64.3125
L12.8906 25.3906
L37.7969 25.3906
z

M35.2031 72.9062
L47.6094 72.9062
L47.6094 25.3906
L58.0156 25.3906
L58.0156 17.1875
L47.6094 17.1875
L47.6094 0
L37.7969 0
L37.7969 17.1875
L4.89062 17.1875
L4.89062 26.7031
z
" id="BitstreamVeraSans-Roman-34"/>
    </defs>
    <g transform="translate(52.2875 121.371428571)scale(0.2 -0.2)">
     <use xlink:href="#BitstreamVeraSans-Roman-34"/>
    </g>
   </g>
   <g id="text_5">
    <!-- 1 -->
    <g transform="translate(110.859375 525.257142857)scale(0.2 -0.2)">
     <use xlink:href="#BitstreamVeraSans-Roman-31"/>
    </g>
   </g>
   <g id="text_6">
    <!-- 2 -->
    <g transform="translate(182.571875 525.257142857)scale(0.2 -0.2)">
     <use xlink:href="#BitstreamVeraSans-Roman-32"/>
    </g>
   </g>
   <g id="text_7">
    <!-- 3 -->
    <g transform="translate(254.4015625 525.257142857)scale(0.2 -0.2)">
     <use xlink:href="#BitstreamVeraSans-Roman-33"/>
    </g>
   </g>
   <g id="text_8">
    <!-- 4 -->
    <g transform="translate(325.8875 525.257142857)scale(0.2 -0.2)">
     <use xlink:href="#BitstreamVeraSans-Roman-34"/>
    </g>
   </g>
   <g id="text_9">
    <!-- 5 -->
    <defs>
     <path d="
M10.7969 72.9062
L49.5156 72.9062
L49.5156 64.5938
L19.8281 64.5938
L19.8281 46.7344
Q21.9688 47.4688 24.1094 47.8281
Q26.2656 48.1875 28.4219 48.1875
Q40.625 48.1875 47.75 41.5
Q54.8906 34.8125 54.8906 23.3906
Q54.8906 11.625 47.5625 5.09375
Q40.2344 -1.42188 26.9062 -1.42188
Q22.3125 -1.42188 17.5469 -0.640625
Q12.7969 0.140625 7.71875 1.70312
L7.71875 11.625
Q12.1094 9.23438 16.7969 8.0625
Q21.4844 6.89062 26.7031 6.89062
Q35.1562 6.89062 40.0781 11.3281
Q45.0156 15.7656 45.0156 23.3906
Q45.0156 31 40.0781 35.4375
Q35.1562 39.8906 26.7031 39.8906
Q22.75 39.8906 18.8125 39.0156
Q14.8906 38.1406 10.7969 36.2812
z
" id="BitstreamVeraSans-Roman-35"/>
    </defs>
    <g transform="translate(398.4828125 525.257142857)scale(0.2 -0.2)">
     <use xlink:href="#BitstreamVeraSans-Roman-35"/>
    </g>
   </g>
   <g id="text_10">
    <!-- 6 -->
    <defs>
     <path d="
M33.0156 40.375
Q26.375 40.375 22.4844 35.8281
Q18.6094 31.2969 18.6094 23.3906
Q18.6094 15.5312 22.4844 10.9531
Q26.375 6.39062 33.0156 6.39062
Q39.6562 6.39062 43.5312 10.9531
Q47.4062 15.5312 47.4062 23.3906
Q47.4062 31.2969 43.5312 35.8281
Q39.6562 40.375 33.0156 40.375
M52.5938 71.2969
L52.5938 62.3125
Q48.875 64.0625 45.0938 64.9844
Q41.3125 65.9219 37.5938 65.9219
Q27.8281 65.9219 22.6719 59.3281
Q17.5312 52.7344 16.7969 39.4062
Q19.6719 43.6562 24.0156 45.9219
Q28.375 48.1875 33.5938 48.1875
Q44.5781 48.1875 50.9531 41.5156
Q57.3281 34.8594 57.3281 23.3906
Q57.3281 12.1562 50.6875 5.35938
Q44.0469 -1.42188 33.0156 -1.42188
Q20.3594 -1.42188 13.6719 8.26562
Q6.98438 17.9688 6.98438 36.375
Q6.98438 53.6562 15.1875 63.9375
Q23.3906 74.2188 37.2031 74.2188
Q40.9219 74.2188 44.7031 73.4844
Q48.4844 72.75 52.5938 71.2969" id="BitstreamVeraSans-Roman-36"/>
    </defs>
    <g transform="translate(470.165625 525.257142857)scale(0.2 -0.2)">
     <use xlink:href="#BitstreamVeraSans-Roman-36"/>
    </g>
   </g>
   <g id="text_11">
    <!-- $n_{Y=4}$ -->
    <defs>
     <path d="
M7.71875 1.70312
Q7.71875 2.29688 7.8125 2.59375
L15.2812 32.4219
Q16.0156 35.2031 16.0156 37.3125
Q16.0156 41.6094 13.0938 41.6094
Q9.96875 41.6094 8.45312 37.8594
Q6.9375 34.125 5.51562 28.4219
Q5.51562 28.125 5.21875 27.9531
Q4.9375 27.7812 4.6875 27.7812
L3.51562 27.7812
Q3.17188 27.7812 2.92188 28.1406
Q2.6875 28.5156 2.6875 28.8125
Q3.76562 33.1562 4.76562 36.1719
Q5.76562 39.2031 7.89062 41.6875
Q10.0156 44.1875 13.1875 44.1875
Q16.9375 44.1875 19.8125 41.8125
Q22.7031 39.4531 22.7031 35.7969
Q25.6875 39.7031 29.6875 41.9375
Q33.6875 44.1875 38.1875 44.1875
Q41.75 44.1875 44.3281 42.9688
Q46.9219 41.75 48.3594 39.2812
Q49.8125 36.8125 49.8125 33.4062
Q49.8125 29.2969 47.9688 23.4844
Q46.1406 17.6719 43.4062 10.5
Q42 7.23438 42 4.5
Q42 1.51562 44.2812 1.51562
Q48.1875 1.51562 50.7969 5.70312
Q53.4219 9.90625 54.5 14.7031
Q54.6875 15.2812 55.3281 15.2812
L56.5 15.2812
Q56.8906 15.2812 57.1562 15.0312
Q57.4219 14.7969 57.4219 14.4062
Q57.4219 14.3125 57.3281 14.1094
Q55.9531 8.45312 52.5625 3.65625
Q49.1719 -1.125 44.0938 -1.125
Q40.5781 -1.125 38.0781 1.29688
Q35.5938 3.71875 35.5938 7.17188
Q35.5938 9.03125 36.375 11.0781
Q37.6406 14.3594 39.2812 18.8906
Q40.9219 23.4375 41.9688 27.5781
Q43.0156 31.7344 43.0156 34.9062
Q43.0156 37.7031 41.8594 39.6562
Q40.7188 41.6094 37.9844 41.6094
Q34.3281 41.6094 31.25 39.9844
Q28.1719 38.375 25.875 35.7188
Q23.5781 33.0625 21.6875 29.3906
L14.8906 2.20312
Q14.5469 0.828125 13.3438 -0.140625
Q12.1562 -1.125 10.6875 -1.125
Q9.46875 -1.125 8.59375 -0.34375
Q7.71875 0.4375 7.71875 1.70312" id="Cmmi10-6e"/>
     <path d="
M7.51562 13.2812
Q6.6875 13.2812 6.14062 13.9062
Q5.60938 14.5469 5.60938 15.2812
Q5.60938 16.1094 6.14062 16.6875
Q6.6875 17.2812 7.51562 17.2812
L70.3125 17.2812
Q71.0469 17.2812 71.5781 16.6875
Q72.125 16.1094 72.125 15.2812
Q72.125 14.5469 71.5781 13.9062
Q71.0469 13.2812 70.3125 13.2812
z

M7.51562 32.7188
Q6.6875 32.7188 6.14062 33.2969
Q5.60938 33.8906 5.60938 34.7188
Q5.60938 35.4531 6.14062 36.0781
Q6.6875 36.7188 7.51562 36.7188
L70.3125 36.7188
Q71.0469 36.7188 71.5781 36.0781
Q72.125 35.4531 72.125 34.7188
Q72.125 33.8906 71.5781 33.2969
Q71.0469 32.7188 70.3125 32.7188
z
" id="Cmr10-3d"/>
     <path d="
M2.78125 16.5
L2.78125 20.0156
L33.6875 66.1094
Q34.0312 66.6094 34.7188 66.6094
L36.1875 66.6094
Q37.3125 66.6094 37.3125 65.4844
L37.3125 20.0156
L47.125 20.0156
L47.125 16.5
L37.3125 16.5
L37.3125 6.6875
Q37.3125 4.64062 40.2344 4.07812
Q43.1719 3.51562 47.0156 3.51562
L47.0156 0
L19.4844 0
L19.4844 3.51562
Q23.3438 3.51562 26.2656 4.07812
Q29.2031 4.64062 29.2031 6.6875
L29.2031 16.5
z

M6.10938 20.0156
L29.7812 20.0156
L29.7812 55.4219
z
" id="Cmr10-34"/>
     <path d="
M8.89062 1.3125
Q8.9375 1.5625 9.07812 2.14062
Q9.23438 2.73438 9.46875 3.125
Q9.71875 3.51562 10.2031 3.51562
Q16.3125 3.51562 18.7031 4.20312
Q19.1875 4.34375 19.5938 4.875
Q20.0156 5.42188 20.2656 6
Q20.5156 6.59375 20.7031 7.17188
L25.6875 27.2969
L12.7969 62.7969
Q11.9219 64.1094 9.625 64.4531
Q7.32812 64.7969 4.29688 64.7969
Q3.32812 64.7969 3.32812 66.1094
Q3.60938 67.3281 3.85938 67.8125
Q4.10938 68.3125 4.98438 68.3125
L30.1719 68.3125
Q31.1094 68.3125 31.1094 67
Q30.7188 64.7969 29.7812 64.7969
Q22.7031 64.7969 22.7031 62.5938
L33.9844 31.7812
L57.625 59.0781
Q57.8125 59.5781 58.2969 60.2812
Q58.7969 60.9844 59.0312 61.4688
Q59.2812 61.9688 59.2812 62.5938
Q59.2812 64.7969 55.1719 64.7969
Q54.2031 64.7969 54.2031 66.1094
Q54.3906 66.8906 54.5156 67.3281
Q54.6406 67.7812 54.9531 68.0469
Q55.2812 68.3125 55.9062 68.3125
L75.2969 68.3125
Q75.7344 68.3125 76.0156 67.875
Q76.3125 67.4375 76.3125 67
Q76.125 66.2656 76.0156 65.9375
Q75.9219 65.625 75.6719 65.2031
Q75.4375 64.7969 74.9062 64.7969
Q70.9062 64.7969 67.3281 63.0625
Q63.7656 61.3281 61.0781 58.2031
Q60.9844 58.1094 60.8594 58.0312
Q60.75 57.9531 60.5938 57.8125
L34.1875 27.2969
L29 6.59375
Q29 6.34375 28.9062 5.85938
Q28.8125 5.375 28.8125 5.07812
Q28.8125 4.6875 28.9219 4.42188
Q29.0469 4.15625 29.2656 4.07812
Q29.5 4 29.9844 3.90625
Q31.8906 3.51562 37.2031 3.51562
Q38.1875 3.51562 38.1875 2.20312
Q37.8438 0.78125 37.6406 0.390625
Q37.4531 0 36.5312 0
L9.90625 0
Q8.89062 0 8.89062 1.3125" id="Cmmi10-59"/>
    </defs>
    <g transform="translate(94.5 78.8571428571)scale(0.2 -0.2)">
     <use transform="translate(0.0 0.8125)" xlink:href="#Cmmi10-6e"/>
     <use transform="translate(60.009765625 -24.696875000000006)scale(0.7)" xlink:href="#Cmmi10-59"/>
     <use transform="translate(112.90625 -24.696875000000006)scale(0.7)" xlink:href="#Cmr10-3d"/>
     <use transform="translate(171.747265625 -24.696875000000006)scale(0.7)" xlink:href="#Cmr10-34"/>
    </g>
   </g>
   <g id="text_12">
    <!-- $n_{X=5}$ -->
    <defs>
     <path d="
M8.6875 11.375
Q9.71875 8.45312 11.8438 6.04688
Q13.9688 3.65625 16.875 2.3125
Q19.7812 0.984375 22.9062 0.984375
Q30.125 0.984375 32.8594 6.59375
Q35.5938 12.2031 35.5938 20.2188
Q35.5938 23.6875 35.4688 26.0469
Q35.3594 28.4219 34.8125 30.6094
Q33.8906 34.125 31.5625 36.7656
Q29.25 39.4062 25.875 39.4062
Q22.5156 39.4062 20.0938 38.375
Q17.6719 37.3594 16.1562 35.9844
Q14.6562 34.625 13.4844 33.1094
Q12.3125 31.5938 12.0156 31.5
L10.8906 31.5
Q10.6406 31.5 10.2656 31.8125
Q9.90625 32.125 9.90625 32.4219
L9.90625 65.8281
Q9.90625 66.0625 10.2188 66.3281
Q10.5469 66.6094 10.8906 66.6094
L11.1875 66.6094
Q17.9219 63.375 25.4844 63.375
Q32.9062 63.375 39.7969 66.6094
L40.0938 66.6094
Q40.4375 66.6094 40.7188 66.3594
Q41.0156 66.1094 41.0156 65.8281
L41.0156 64.8906
Q41.0156 64.4062 40.8281 64.4062
Q37.4062 59.8594 32.25 57.3125
Q27.0938 54.7812 21.5781 54.7812
Q17.5781 54.7812 13.375 55.9062
L13.375 37.0156
Q16.7031 39.7031 19.3125 40.8438
Q21.9219 42 25.9844 42
Q31.5 42 35.8594 38.8125
Q40.2344 35.6406 42.5781 30.5312
Q44.9219 25.4375 44.9219 20.125
Q44.9219 14.1094 41.9688 8.98438
Q39.0156 3.85938 33.9375 0.828125
Q28.8594 -2.20312 22.9062 -2.20312
Q17.9688 -2.20312 13.8438 0.328125
Q9.71875 2.875 7.34375 7.17188
Q4.98438 11.4688 4.98438 16.3125
Q4.98438 18.5625 6.4375 19.9688
Q7.90625 21.3906 10.1094 21.3906
Q12.3125 21.3906 13.7969 19.9375
Q15.2812 18.5 15.2812 16.3125
Q15.2812 14.1562 13.7969 12.6719
Q12.3125 11.1875 10.1094 11.1875
Q9.76562 11.1875 9.32812 11.25
Q8.89062 11.3281 8.6875 11.375" id="Cmr10-35"/>
     <path d="
M3.60938 0
Q2.59375 0 2.59375 1.3125
Q2.64062 1.5625 2.8125 2.1875
Q2.98438 2.82812 3.25 3.17188
Q3.51562 3.51562 4 3.51562
Q13.0938 3.51562 19.5781 10.2969
Q19.6719 10.4062 19.7969 10.4531
Q19.9219 10.5 19.9219 10.5
L41.7969 34.0781
L29.8906 62.7969
Q28.8594 64.1094 26.5625 64.4531
Q24.2656 64.7969 21.1875 64.7969
Q20.2188 64.7969 20.2188 66.1094
Q20.5625 67.3906 20.75 67.8438
Q20.9531 68.3125 21.9219 68.3125
L46.9219 68.3125
Q47.9062 68.3125 47.9062 67
Q47.8594 66.75 47.6875 66.1094
Q47.5156 65.4844 47.2344 65.1406
Q46.9688 64.7969 46.4844 64.7969
Q44.625 64.7969 42.6406 64.1875
Q40.6719 63.5781 39.8906 62.2031
L48.4844 41.5
L64.8906 59.0781
Q65.0469 59.4219 65.5781 60.2812
Q66.1094 61.1406 66.1094 61.9219
Q66.1094 63.375 64.8438 64.0781
Q63.5781 64.7969 61.8125 64.7969
Q60.7969 64.7969 60.7969 66.1094
Q61.1406 67.3906 61.3281 67.8438
Q61.5312 68.3125 62.5 68.3125
L84.1875 68.3125
Q84.7188 68.3125 84.9531 67.9219
Q85.2031 67.5312 85.2031 67
Q85.1562 66.75 85 66.1562
Q84.8594 65.5781 84.6094 65.1875
Q84.375 64.7969 83.8906 64.7969
Q79.25 64.7969 75.3594 63.1094
Q71.4844 61.4219 68.2188 58.0156
Q68.1719 57.9531 68.0938 57.9219
Q68.0156 57.9062 67.9219 57.8125
L49.8125 38.2812
L63.4844 5.51562
Q65.0938 3.51562 72.2188 3.51562
Q73.1875 3.51562 73.1875 2.20312
Q72.8594 0.875 72.625 0.4375
Q72.4062 0 71.4844 0
L46.4844 0
Q45.5156 0 45.5156 1.3125
Q45.5625 1.5625 45.7031 2.17188
Q45.8438 2.78125 46.1094 3.14062
Q46.3906 3.51562 46.7812 3.51562
Q48.7344 3.51562 50.7344 4.125
Q52.7344 4.73438 53.5156 6.10938
L43.1094 31
L22.9062 9.1875
Q22.75 8.84375 22.2188 8
Q21.6875 7.17188 21.6875 6.39062
Q21.6875 4.9375 23.0469 4.21875
Q24.4219 3.51562 25.9844 3.51562
Q27 3.51562 27 2.20312
Q26.6562 0.78125 26.4531 0.390625
Q26.2656 0 25.2969 0
z
" id="Cmmi10-58"/>
    </defs>
    <g transform="translate(380.7 78.8571428571)scale(0.2 -0.2)">
     <use transform="translate(0.0 0.8125)" xlink:href="#Cmmi10-6e"/>
     <use transform="translate(60.009765625 -24.696875000000006)scale(0.7)" xlink:href="#Cmmi10-58"/>
     <use transform="translate(130.26953125 -24.696875000000006)scale(0.7)" xlink:href="#Cmr10-3d"/>
     <use transform="translate(189.110546875 -24.696875000000006)scale(0.7)" xlink:href="#Cmr10-35"/>
    </g>
   </g>
   <g id="text_13">
    <!-- $n_{X=3, Y=4}$ -->
    <defs>
     <path d="
M9.90625 -18.0156
Q9.90625 -17.5781 10.2969 -17.1875
Q13.9219 -13.7188 15.9219 -9.17188
Q17.9219 -4.64062 17.9219 0.390625
L17.9219 1.60938
Q16.3125 0 13.9219 0
Q11.625 0 10.0156 1.60938
Q8.40625 3.21875 8.40625 5.51562
Q8.40625 7.85938 10.0156 9.42188
Q11.625 10.9844 13.9219 10.9844
Q17.4844 10.9844 19 7.6875
Q20.5156 4.39062 20.5156 0.390625
Q20.5156 -5.17188 18.2812 -10.1719
Q16.0625 -15.1875 12.0156 -19.1875
Q11.625 -19.3906 11.375 -19.3906
Q10.8906 -19.3906 10.3906 -18.9375
Q9.90625 -18.5 9.90625 -18.0156" id="Cmmi10-3b"/>
     <path d="
M9.51562 7.71875
Q11.8594 4.29688 15.8125 2.64062
Q19.7812 0.984375 24.3125 0.984375
Q30.125 0.984375 32.5625 5.9375
Q35.0156 10.8906 35.0156 17.1875
Q35.0156 20.0156 34.5 22.8438
Q33.9844 25.6875 32.7656 28.125
Q31.5469 30.5625 29.4219 32.0312
Q27.2969 33.5 24.2188 33.5
L17.5781 33.5
Q16.7031 33.5 16.7031 34.4219
L16.7031 35.2969
Q16.7031 36.0781 17.5781 36.0781
L23.0938 36.5312
Q26.6094 36.5312 28.9219 39.1562
Q31.25 41.7969 32.3281 45.5781
Q33.4062 49.3594 33.4062 52.7812
Q33.4062 57.5625 31.1562 60.6406
Q28.9062 63.7188 24.3125 63.7188
Q20.5156 63.7188 17.0469 62.2812
Q13.5781 60.8438 11.5312 57.9062
Q11.7188 57.9531 11.8594 57.9844
Q12.0156 58.0156 12.2031 58.0156
Q14.4531 58.0156 15.9688 56.4531
Q17.4844 54.8906 17.4844 52.6875
Q17.4844 50.5312 15.9688 48.9688
Q14.4531 47.4062 12.2031 47.4062
Q10.0156 47.4062 8.45312 48.9688
Q6.89062 50.5312 6.89062 52.6875
Q6.89062 56.9844 9.46875 60.1562
Q12.0625 63.3281 16.1406 64.9688
Q20.2188 66.6094 24.3125 66.6094
Q27.3438 66.6094 30.7031 65.7031
Q34.0781 64.7969 36.8125 63.1094
Q39.5469 61.4219 41.2812 58.7812
Q43.0156 56.1562 43.0156 52.7812
Q43.0156 48.5781 41.1406 45.0156
Q39.2656 41.4531 35.9844 38.8594
Q32.7188 36.2812 28.8125 35.0156
Q33.1562 34.1875 37.0625 31.7344
Q40.9688 29.2969 43.3281 25.4844
Q45.7031 21.6875 45.7031 17.2812
Q45.7031 11.7656 42.6719 7.29688
Q39.6562 2.82812 34.7188 0.3125
Q29.7812 -2.20312 24.3125 -2.20312
Q19.625 -2.20312 14.9062 -0.40625
Q10.2031 1.375 7.20312 4.9375
Q4.20312 8.5 4.20312 13.4844
Q4.20312 15.9688 5.85938 17.625
Q7.51562 19.2812 10.0156 19.2812
Q11.625 19.2812 12.9688 18.5312
Q14.3125 17.7812 15.0625 16.4062
Q15.8281 15.0469 15.8281 13.4844
Q15.8281 11.0312 14.1094 9.375
Q12.4062 7.71875 10.0156 7.71875
z
" id="Cmr10-33"/>
    </defs>
    <g transform="translate(220.0 78.8571428571)scale(0.2 -0.2)">
     <use transform="translate(0.0 0.8125)" xlink:href="#Cmmi10-6e"/>
     <use transform="translate(60.009765625 -24.696875000000006)scale(0.7)" xlink:href="#Cmmi10-58"/>
     <use transform="translate(130.26953125 -24.696875000000006)scale(0.7)" xlink:href="#Cmr10-3d"/>
     <use transform="translate(189.110546875 -24.696875000000006)scale(0.7)" xlink:href="#Cmr10-33"/>
     <use transform="translate(224.110546875 -24.696875000000006)scale(0.7)" xlink:href="#Cmmi10-3b"/>
     <use transform="translate(244.878125 -24.696875000000006)scale(0.7)" xlink:href="#Cmmi10-59"/>
     <use transform="translate(297.774609375 -24.696875000000006)scale(0.7)" xlink:href="#Cmr10-3d"/>
     <use transform="translate(356.615625 -24.696875000000006)scale(0.7)" xlink:href="#Cmr10-34"/>
    </g>
   </g>
   <g id="text_14">
    <!-- $N$ crosses total -->
    <defs>
     <path id="BitstreamVeraSans-Roman-20"/>
     <path d="
M44.2812 53.0781
L44.2812 44.5781
Q40.4844 46.5312 36.375 47.5
Q32.2812 48.4844 27.875 48.4844
Q21.1875 48.4844 17.8438 46.4375
Q14.5 44.3906 14.5 40.2812
Q14.5 37.1562 16.8906 35.375
Q19.2812 33.5938 26.5156 31.9844
L29.5938 31.2969
Q39.1562 29.25 43.1875 25.5156
Q47.2188 21.7812 47.2188 15.0938
Q47.2188 7.46875 41.1875 3.01562
Q35.1562 -1.42188 24.6094 -1.42188
Q20.2188 -1.42188 15.4531 -0.5625
Q10.6875 0.296875 5.42188 2
L5.42188 11.2812
Q10.4062 8.6875 15.2344 7.39062
Q20.0625 6.10938 24.8125 6.10938
Q31.1562 6.10938 34.5625 8.28125
Q37.9844 10.4531 37.9844 14.4062
Q37.9844 18.0625 35.5156 20.0156
Q33.0625 21.9688 24.7031 23.7812
L21.5781 24.5156
Q13.2344 26.2656 9.51562 29.9062
Q5.8125 33.5469 5.8125 39.8906
Q5.8125 47.6094 11.2812 51.7969
Q16.75 56 26.8125 56
Q31.7812 56 36.1719 55.2656
Q40.5781 54.5469 44.2812 53.0781" id="BitstreamVeraSans-Roman-73"/>
     <path d="
M30.6094 48.3906
Q23.3906 48.3906 19.1875 42.75
Q14.9844 37.1094 14.9844 27.2969
Q14.9844 17.4844 19.1562 11.8438
Q23.3438 6.20312 30.6094 6.20312
Q37.7969 6.20312 41.9844 11.8594
Q46.1875 17.5312 46.1875 27.2969
Q46.1875 37.0156 41.9844 42.7031
Q37.7969 48.3906 30.6094 48.3906
M30.6094 56
Q42.3281 56 49.0156 48.375
Q55.7188 40.7656 55.7188 27.2969
Q55.7188 13.875 49.0156 6.21875
Q42.3281 -1.42188 30.6094 -1.42188
Q18.8438 -1.42188 12.1719 6.21875
Q5.51562 13.875 5.51562 27.2969
Q5.51562 40.7656 12.1719 48.375
Q18.8438 56 30.6094 56" id="BitstreamVeraSans-Roman-6f"/>
     <path d="
M48.7812 52.5938
L48.7812 44.1875
Q44.9688 46.2969 41.1406 47.3438
Q37.3125 48.3906 33.4062 48.3906
Q24.6562 48.3906 19.8125 42.8438
Q14.9844 37.3125 14.9844 27.2969
Q14.9844 17.2812 19.8125 11.7344
Q24.6562 6.20312 33.4062 6.20312
Q37.3125 6.20312 41.1406 7.25
Q44.9688 8.29688 48.7812 10.4062
L48.7812 2.09375
Q45.0156 0.34375 40.9844 -0.53125
Q36.9688 -1.42188 32.4219 -1.42188
Q20.0625 -1.42188 12.7812 6.34375
Q5.51562 14.1094 5.51562 27.2969
Q5.51562 40.6719 12.8594 48.3281
Q20.2188 56 33.0156 56
Q37.1562 56 41.1094 55.1406
Q45.0625 54.2969 48.7812 52.5938" id="BitstreamVeraSans-Roman-63"/>
     <path d="
M41.1094 46.2969
Q39.5938 47.1719 37.8125 47.5781
Q36.0312 48 33.8906 48
Q26.2656 48 22.1875 43.0469
Q18.1094 38.0938 18.1094 28.8125
L18.1094 0
L9.07812 0
L9.07812 54.6875
L18.1094 54.6875
L18.1094 46.1875
Q20.9531 51.1719 25.4844 53.5781
Q30.0312 56 36.5312 56
Q37.4531 56 38.5781 55.875
Q39.7031 55.7656 41.0625 55.5156
z
" id="BitstreamVeraSans-Roman-72"/>
     <path d="
M9.42188 75.9844
L18.4062 75.9844
L18.4062 0
L9.42188 0
z
" id="BitstreamVeraSans-Roman-6c"/>
     <path d="
M18.3125 70.2188
L18.3125 54.6875
L36.8125 54.6875
L36.8125 47.7031
L18.3125 47.7031
L18.3125 18.0156
Q18.3125 11.3281 20.1406 9.42188
Q21.9688 7.51562 27.5938 7.51562
L36.8125 7.51562
L36.8125 0
L27.5938 0
Q17.1875 0 13.2344 3.875
Q9.28125 7.76562 9.28125 18.0156
L9.28125 47.7031
L2.6875 47.7031
L2.6875 54.6875
L9.28125 54.6875
L9.28125 70.2188
z
" id="BitstreamVeraSans-Roman-74"/>
     <path d="
M34.2812 27.4844
Q23.3906 27.4844 19.1875 25
Q14.9844 22.5156 14.9844 16.5
Q14.9844 11.7188 18.1406 8.90625
Q21.2969 6.10938 26.7031 6.10938
Q34.1875 6.10938 38.7031 11.4062
Q43.2188 16.7031 43.2188 25.4844
L43.2188 27.4844
z

M52.2031 31.2031
L52.2031 0
L43.2188 0
L43.2188 8.29688
Q40.1406 3.32812 35.5469 0.953125
Q30.9531 -1.42188 24.3125 -1.42188
Q15.9219 -1.42188 10.9531 3.29688
Q6 8.01562 6 15.9219
Q6 25.1406 12.1719 29.8281
Q18.3594 34.5156 30.6094 34.5156
L43.2188 34.5156
L43.2188 35.4062
Q43.2188 41.6094 39.1406 45
Q35.0625 48.3906 27.6875 48.3906
Q23 48.3906 18.5469 47.2656
Q14.1094 46.1406 10.0156 43.8906
L10.0156 52.2031
Q14.9375 54.1094 19.5781 55.0469
Q24.2188 56 28.6094 56
Q40.4844 56 46.3438 49.8438
Q52.2031 43.7031 52.2031 31.2031" id="BitstreamVeraSans-Roman-61"/>
     <path d="
M56.2031 29.5938
L56.2031 25.2031
L14.8906 25.2031
Q15.4844 15.9219 20.4844 11.0625
Q25.4844 6.20312 34.4219 6.20312
Q39.5938 6.20312 44.4531 7.46875
Q49.3125 8.73438 54.1094 11.2812
L54.1094 2.78125
Q49.2656 0.734375 44.1875 -0.34375
Q39.1094 -1.42188 33.8906 -1.42188
Q20.7969 -1.42188 13.1562 6.1875
Q5.51562 13.8125 5.51562 26.8125
Q5.51562 40.2344 12.7656 48.1094
Q20.0156 56 32.3281 56
Q43.3594 56 49.7812 48.8906
Q56.2031 41.7969 56.2031 29.5938
M47.2188 32.2344
Q47.125 39.5938 43.0938 43.9844
Q39.0625 48.3906 32.4219 48.3906
Q24.9062 48.3906 20.3906 44.1406
Q15.875 39.8906 15.1875 32.1719
z
" id="BitstreamVeraSans-Roman-65"/>
     <path d="
M4.6875 0
Q3.71875 0 3.71875 1.3125
Q3.76562 1.5625 3.90625 2.17188
Q4.04688 2.78125 4.3125 3.14062
Q4.59375 3.51562 4.98438 3.51562
Q14.5469 3.51562 16.1094 9.625
L29.6875 64.3125
Q26.9062 64.7969 20.9062 64.7969
Q19.9219 64.7969 19.9219 66.1094
Q19.9688 66.3594 20.1094 66.9688
Q20.2656 67.5781 20.5312 67.9375
Q20.7969 68.3125 21.1875 68.3125
L38.4844 68.3125
Q39.2031 68.3125 39.4062 67.6719
L61.625 14.7969
L72.7031 59.0781
Q72.9062 60.1562 72.9062 60.5938
Q72.9062 64.7969 65.1875 64.7969
Q64.2031 64.7969 64.2031 66.1094
Q64.5469 67.3906 64.7344 67.8438
Q64.9375 68.3125 65.9219 68.3125
L87.3125 68.3125
Q88.2812 68.3125 88.2812 67
Q88.2344 66.75 88.0781 66.1406
Q87.9375 65.5312 87.6719 65.1562
Q87.4062 64.7969 87.0156 64.7969
Q77.4375 64.7969 75.875 58.6875
L61.5312 0.875
Q61.1875 0 60.5 0
L59.2812 0
Q58.5938 0 58.4062 0.6875
L32.9062 61.1875
L32.7188 61.8125
Q32.5156 62.0156 32.5156 62.1094
L19.2812 9.1875
Q19.1875 8.9375 19.1406 8.5625
Q19.0938 8.20312 19 7.71875
Q19 5.125 21.2344 4.3125
Q23.4844 3.51562 26.8125 3.51562
Q27.7812 3.51562 27.7812 2.20312
Q27.4375 0.828125 27.1875 0.40625
Q26.9531 0 26.125 0
z
" id="Cmmi10-4e"/>
    </defs>
    <g transform="translate(112.4 440.228571429)scale(0.2 -0.2)">
     <use transform="translate(0.0 0.015625)" xlink:href="#Cmmi10-4e"/>
     <use transform="translate(80.322265625 0.015625)" xlink:href="#BitstreamVeraSans-Roman-20"/>
     <use transform="translate(112.109375 0.015625)" xlink:href="#BitstreamVeraSans-Roman-63"/>
     <use transform="translate(167.08984375 0.015625)" xlink:href="#BitstreamVeraSans-Roman-72"/>
     <use transform="translate(208.203125 0.015625)" xlink:href="#BitstreamVeraSans-Roman-6f"/>
     <use transform="translate(269.384765625 0.015625)" xlink:href="#BitstreamVeraSans-Roman-73"/>
     <use transform="translate(321.484375 0.015625)" xlink:href="#BitstreamVeraSans-Roman-73"/>
     <use transform="translate(373.583984375 0.015625)" xlink:href="#BitstreamVeraSans-Roman-65"/>
     <use transform="translate(435.107421875 0.015625)" xlink:href="#BitstreamVeraSans-Roman-73"/>
     <use transform="translate(487.20703125 0.015625)" xlink:href="#BitstreamVeraSans-Roman-20"/>
     <use transform="translate(518.994140625 0.015625)" xlink:href="#BitstreamVeraSans-Roman-74"/>
     <use transform="translate(558.203125 0.015625)" xlink:href="#BitstreamVeraSans-Roman-6f"/>
     <use transform="translate(619.384765625 0.015625)" xlink:href="#BitstreamVeraSans-Roman-74"/>
     <use transform="translate(658.59375 0.015625)" xlink:href="#BitstreamVeraSans-Roman-61"/>
     <use transform="translate(719.873046875 0.015625)" xlink:href="#BitstreamVeraSans-Roman-6c"/>
    </g>
   </g>
   <g id="text_15">
    <!-- $X$ -->
    <g transform="translate(295.2 557.142857143)scale(0.2 -0.2)">
     <use transform="translate(0.0 0.6875)" xlink:href="#Cmmi10-58"/>
    </g>
   </g>
   <g id="text_16">
    <!-- $Y$ -->
    <g transform="translate(36.0 280.8)scale(0.2 -0.2)">
     <use transform="translate(0.0 0.6875)" xlink:href="#Cmmi10-59"/>
    </g>
   </g>
  </g>
 </g>
 <defs>
  <clipPath id="p621aff4130">
   <rect height="446.4" width="446.4" x="72.0" y="57.6"/>
  </clipPath>
 </defs>
</svg>
