<?xml version="1.0" encoding="utf-8" standalone="no"?>
<!DOCTYPE svg PUBLIC "-//W3C//DTD SVG 1.1//EN"
  "http://www.w3.org/Graphics/SVG/1.1/DTD/svg11.dtd">
<!-- Created with matplotlib (http://matplotlib.org/) -->
<svg height="504pt" version="1.1" viewBox="0 0 504 504" width="504pt" xmlns="http://www.w3.org/2000/svg" xmlns:xlink="http://www.w3.org/1999/xlink">
 <defs>
  <style type="text/css">
*{stroke-linecap:butt;stroke-linejoin:round;}
  </style>
 </defs>
 <g id="figure_1">
  <g id="patch_1">
   <path d="
M0 504
L504 504
L504 0
L0 0
z
" style="fill:#ffffff;"/>
  </g>
  <g id="axes_1">
   <g id="patch_2">
    <path d="
M63 441
L453.6 441
L453.6 50.4
L63 50.4
z
" style="fill:#ffffff;"/>
   </g>
   <g id="patch_3">
    <path clip-path="url(#p41d7ee9abc)" d="
M288.773 220.562
L281.456 239.805
L276.44 235.706
L167.185 369.411
L167.135 369.369
L276.39 235.665
L271.374 231.566
z
" style="fill:#0000ff;stroke:#000000;stroke-linejoin:miter;"/>
   </g>
   <g id="LineCollection_1"/>
   <g id="LineCollection_2">
    <path clip-path="url(#p41d7ee9abc)" d="
M260.273 244.069
L258.654 243.727
L256.327 243.032
L252.382 240.218
L251.97 239.782
L249.716 235.836
L249.272 231.891
L252.382 228.421
L256.327 228.548
L260.273 230.654
L261.683 231.891
L264.218 235.232
L264.556 235.836
L265.144 239.782
L264.218 242.038
L261.706 243.727
L260.273 244.069" style="fill:none;stroke:#000089;"/>
   </g>
   <g id="LineCollection_3">
    <path clip-path="url(#p41d7ee9abc)" d="
M256.327 259.94
L255.365 259.509
L252.382 258.031
L248.436 255.678
L248.276 255.564
L244.491 252.569
L243.428 251.618
L240.545 248.718
L239.614 247.673
L236.6 243.808
L236.543 243.727
L234.247 239.782
L232.655 236.421
L232.403 235.836
L231.234 231.891
L230.606 227.945
L230.635 224
L231.47 220.055
L232.655 217.448
L233.49 216.109
L236.6 213.025
L237.986 212.164
L240.545 211.012
L244.491 210.148
L248.436 210.059
L252.382 210.599
L256.327 211.661
L257.602 212.164
L260.273 213.328
L264.218 215.482
L265.173 216.109
L268.164 218.293
L270.275 220.055
L272.109 221.775
L274.218 224
L276.055 226.215
L277.346 227.945
L279.863 231.891
L280 232.165
L281.663 235.836
L282.986 239.782
L283.752 243.727
L283.836 247.673
L283.068 251.618
L281.219 255.564
L280 257.132
L277.283 259.509
L276.055 260.264
L272.109 261.694
L268.164 262.22
L264.218 262.019
L260.273 261.225
L256.327 259.94" style="fill:none;stroke:#000092;"/>
   </g>
   <g id="LineCollection_4">
    <path clip-path="url(#p41d7ee9abc)" d="
M213.964 209.437
L214.343 208.218
L216.24 204.273
L216.873 203.302
L219.251 200.327
L220.818 198.808
L224.052 196.382
L224.764 195.946
L228.709 194.15
L232.655 192.977
L236.02 192.436
L236.6 192.356
L240.545 192.216
L244.226 192.436
L244.491 192.453
L248.436 193.084
L252.382 194.042
L256.327 195.293
L259.139 196.382
L260.273 196.848
L264.218 198.766
L267.07 200.327
L268.164 200.965
L272.109 203.533
L273.142 204.273
L276.055 206.495
L278.142 208.218
L280 209.861
L282.42 212.164
L283.945 213.726
L286.12 216.109
L287.891 218.212
L289.347 220.055
L291.836 223.489
L292.185 224
L294.589 227.945
L295.782 230.147
L296.673 231.891
L298.4 235.836
L299.727 239.459
L299.839 239.782
L300.868 243.727
L301.572 247.673
L301.911 251.618
L301.839 255.564
L301.302 259.509
L300.237 263.455
L299.727 264.7
L298.407 267.4
L295.782 271.212
L295.668 271.345
L291.836 274.823
L291.158 275.291
L287.891 277.13
L283.945 278.676
L281.654 279.236
L280 279.581
L276.055 279.963
L272.109 279.937
L268.164 279.549
L266.469 279.236
L264.218 278.794
L260.273 277.691
L256.327 276.306
L253.913 275.291
L252.382 274.606
L248.436 272.562
L246.343 271.345
L244.491 270.199
L240.545 267.514
L240.394 267.4
L236.6 264.366
L235.542 263.455
L232.655 260.789
L231.362 259.509
L230.289 258.365" style="fill:none;stroke:#0000a4;"/>
   </g>
   <g id="LineCollection_5">
    <path clip-path="url(#p41d7ee9abc)" d="
M293.616 198.142
L295.782 200.217
L295.891 200.327
L299.638 204.273
L299.727 204.372
L303.041 208.218
L303.673 208.993
L306.15 212.164
L307.618 214.155
L309.001 216.109
L311.564 219.961
L311.623 220.055
L313.947 224
L315.509 226.856
L316.082 227.945
L317.962 231.891
L319.455 235.349
L319.657 235.836
L321.083 239.782
L322.317 243.727
L323.344 247.673
L323.4 247.957
L324.098 251.618
L324.62 255.564
L324.895 259.509
L324.903 263.455
L324.621 267.4
L324.026 271.345
L323.4 274.006
L323.064 275.291
L321.644 279.236
L319.776 283.182
L319.455 283.733
L317.21 287.127
L315.509 289.25
L313.818 291.073
L311.564 293.141
L309.134 295.018
L307.618 296.038
L303.673 298.221
L301.989 298.964
L299.727 299.85
L295.782 301.026
L291.836 301.847
L287.891 302.341
L283.945 302.535
L280 302.453
L276.055 302.117
L272.109 301.544
L268.164 300.754
L264.218 299.761
L261.578 298.964
L260.273 298.553
L256.327 297.109
L252.382 295.495
L251.34 295.018
L248.436 293.637
L244.491 291.596
L243.562 291.073
L240.545 289.303
L237.066 287.127
L236.6 286.823
L232.655 284.065
L231.461 283.182
L228.709 281.054
L226.478 279.236
L224.764 277.776
L221.988 275.291
L220.818 274.193
L217.924 271.345
L216.873 270.259
L214.23 267.4
L212.927 265.916
L210.858 263.455
L208.982 261.096
L207.77 259.509
L205.036 255.713
L204.933 255.564
L202.398 251.618
L201.091 249.436
L200.075 247.673
L197.984 243.727
L197.145 241.984
L196.125 239.782
L194.489 235.836
L193.2 232.325
L193.047 231.891
L191.873 227.945
L190.905 224
L190.159 220.055
L189.652 216.109
L189.404 212.164
L189.436 208.218
L189.774 204.273
L190.443 200.327
L191.476 196.382
L192.906 192.436
L193.2 191.798
L194.915 188.491
L197.145 185.055
L197.524 184.545
L201.044 180.6
L201.091 180.555
L205.036 177.32
L206.013 176.655
L208.982 174.886
L212.927 173.005
L213.718 172.709
L216.873 171.657
L220.818 170.699
L224.764 170.075
L228.709 169.759
L232.655 169.725
L236.6 169.952
L240.545 170.421
L244.491 171.114
L247.209 171.734" style="fill:none;stroke:#0000c8;"/>
   </g>
   <g id="LineCollection_6">
    <path clip-path="url(#p41d7ee9abc)" d="
M193.076 280.084
L189.037 275.291
L185.309 270.487
L181.364 264.978
L177.762 259.509
L175.389 255.564
L173.146 251.618
L169.527 244.491
L169.162 243.727
L165.786 235.836
L164.342 231.891
L163.036 227.945
L161.636 223.098
L160.877 220.055
L160.044 216.109
L159.366 212.164
L158.85 208.218
L158.507 204.273
L158.344 200.327
L158.374 196.382
L158.606 192.436
L159.053 188.491
L159.728 184.545
L160.644 180.6
L161.826 176.655
L163.355 172.709
L165.582 168.048
L167.483 164.818
L170.23 160.873
L173.584 156.927
L177.767 152.982
L181.364 150.222
L185.309 147.692
L190.34 145.091
L193.2 143.884
L197.145 142.492
L202.065 141.145
L205.036 140.521
L208.982 139.91
L212.927 139.507
L216.873 139.302
L220.818 139.283
L224.764 139.442
L228.709 139.768
L232.655 140.254
L237.868 141.145
L240.545 141.697
L244.491 142.656
L248.436 143.749
L252.727 145.091
L256.327 146.37
L263.012 149.036
L264.218 149.553
L272.109 153.318
L278.697 156.927
L283.945 160.094
L287.891 162.672
L291.836 165.396
L296.382 168.764
L301.318 172.709
L305.916 176.655
L310.207 180.6
L314.22 184.545
L317.982 188.491
L321.513 192.436
L324.835 196.382
L327.964 200.327
L331.291 204.825
L335.236 210.637
L338.637 216.109
L340.876 220.055
L343.127 224.282
L346.703 231.891
L348.324 235.836
L349.804 239.782
L351.148 243.727
L352.308 247.673
L353.327 251.618
L354.197 255.564
L354.964 259.886
L355.44 263.455
L355.799 267.4
L355.983 271.345
L355.981 275.291
L355.784 279.236
L355.38 283.182
L354.746 287.127
L353.845 291.073
L352.684 295.018
L351.018 299.487
L349.417 302.909
L347.073 307.113
L344.528 310.8
L343.127 312.58
L341.248 314.745
L339.182 316.867
L337.2 318.691
L335.236 320.321
L331.291 323.166
L327.345 325.488
L323.4 327.415
L319.455 328.979
L314.518 330.527
L311.564 331.252
L307.618 331.994
L303.673 332.518
L299.727 332.837
L295.782 332.962
L291.836 332.903
L287.891 332.67
L283.945 332.272
L280 331.717
L273.805 330.527
L272.109 330.151
L268.164 329.127
L264.218 327.97
L259.981 326.582
L256.327 325.226
L250.052 322.636
L248.436 321.918
L241.824 318.691
L236.6 315.853
L234.354 314.545
L234.354 314.545" style="fill:none;stroke:#0000ff;"/>
   </g>
   <g id="LineCollection_7">
    <path clip-path="url(#p41d7ee9abc)" d="
M388.302 236.53
L390.94 243.727
L393.405 251.618
L394.49 255.564
L396.296 263.455
L397.675 271.345
L398.364 276.975
L398.587 279.236
L398.853 283.182
L398.995 287.127
L399.007 291.073
L398.885 295.018
L398.364 301.481
L398.21 302.909
L397.631 306.855
L396.888 310.8
L395.974 314.745
L394.418 320.14
L393.574 322.636
L392.044 326.582
L390.293 330.527
L388.243 334.473
L385.919 338.418
L382.582 343.257
L378.636 348.082
L374.691 352.186
L370.745 355.723
L366.8 358.802
L361.873 362.091
L358.909 363.817
L354.642 366.036
L351.018 367.655
L344.863 369.982
L343.127 370.554
L339.182 371.684
L335.236 372.643
L331.291 373.436
L327.345 374.067
L323.4 374.534
L319.455 374.861
L315.509 375.053
L311.564 375.115
L307.618 375.051
L303.673 374.867
L299.727 374.567
L294.077 373.927
L287.891 372.978
L280 371.38
L272.109 369.378
L264.218 366.962
L260.273 365.611
L252.382 362.599
L248.436 360.939
L240.545 357.332
L232.655 353.317
L224.764 348.882
L220.484 346.309
L212.927 341.424
L208.561 338.418
L201.091 332.914
L197.145 329.834
L193.149 326.582
L185.309 319.746
L179.963 314.745
L173.473 308.256
L168.468 302.909
L164.958 298.964
L161.593 295.018
L155.315 287.127
L152.367 283.182
L149.536 279.236
L144.271 271.345
L141.797 267.4
L137.222 259.509
L133.081 251.618
L129.368 243.727
L126.073 235.836
L123.219 227.945
L121.938 224
L119.723 216.109
L118.236 209.699
L117.204 204.273
L116.594 200.327
L116.099 196.382
L115.722 192.436
L115.468 188.491
L115.342 184.545
L115.349 180.6
L115.494 176.655
L115.782 172.709
L116.22 168.764
L116.813 164.818
L117.568 160.873
L118.501 156.927
L119.642 152.982
L120.975 149.036
L122.523 145.091
L124.339 141.145
L126.397 137.2
L130.073 131.336
L131.518 129.309
L134.64 125.364
L138.245 121.418
L142.451 117.473
L147.422 113.527
L149.8 111.864
L153.745 109.364
L157.691 107.209
L161.636 105.299
L165.582 103.663
L171.205 101.691
L173.473 101.006
L177.418 99.9798
L181.364 99.1208
L185.309 98.4218
L190.541 97.7455
L193.2 97.4875
L197.145 97.2397
L201.091 97.1235
L205.036 97.1339
L208.982 97.2664
L215.399 97.7455
L216.873 97.8846
L224.764 98.9699
L232.655 100.475
L237.841 101.691
L244.491 103.511
L252.382 106.029
L260.273 108.957
L264.218 110.572
L272.109 114.091
L280 118.019
L287.891 122.364
L295.782 127.136
L299.727 129.676
L307.618 135.134
L311.564 138.032
L315.626 141.145
L323.4 147.527
L329.576 152.982
L335.236 158.317
L341.678 164.818
L347.073 170.656
L352.269 176.655
L356.798 182.239
L356.798 182.239" style="fill:none;stroke:#0080ff;"/>
   </g>
   <g id="LineCollection_8">
    <path clip-path="url(#p41d7ee9abc)" d="
M453.6 352.801
L453.185 354.2
L451.887 358.145
L450.45 362.091
L449.655 364.086
L448.847 366.036
L447.067 369.982
L445.709 372.756
L445.112 373.927
L442.946 377.873
L441.764 379.875
L440.566 381.818
L437.959 385.764
L437.818 385.964
L435.065 389.709
L433.873 391.232
L431.884 393.655
L429.927 395.901
L428.372 397.6
L425.982 400.069
L424.476 401.545
L422.036 403.814
L420.13 405.491
L418.091 407.197
L415.253 409.436
L414.145 410.269
L410.2 413.062
L409.72 413.382
L406.255 415.587
L403.324 417.327
L402.309 417.904
L398.364 420
L395.779 421.273
L394.418 421.916
L390.473 423.645
L386.553 425.218
L386.527 425.228
L382.582 426.632
L378.636 427.904
L374.691 429.049
L374.25 429.164
L370.745 430.046
L366.8 430.924
L362.855 431.689
L358.909 432.345
L354.964 432.893
L353.056 433.109
L351.018 433.332
L347.073 433.668
L343.127 433.908
L339.182 434.054
L335.236 434.111
L331.291 434.078
L327.345 433.96
L323.4 433.758
L319.455 433.474
L315.509 433.11
L315.502 433.109
L311.564 432.659
L307.618 432.13
L303.673 431.526
L299.727 430.848
L295.782 430.099
L291.836 429.28
L291.322 429.164
L287.891 428.376
L283.945 427.401
L280 426.361
L276.055 425.256
L275.929 425.218
L272.109 424.063
L268.164 422.807
L264.218 421.491
L263.598 421.273
L260.273 420.09
L256.327 418.625
L252.967 417.327
L252.382 417.098
L248.436 415.486
L245.094 414.074" style="fill:none;stroke:#7dff7a;"/>
    <path clip-path="url(#p41d7ee9abc)" d="
M190.185 383.402
L189.255 382.761
L187.916 381.818
L185.309 379.957
L182.444 377.873
L181.364 377.075
L177.418 374.108
L177.183 373.927
L173.473 371.037
L172.141 369.982
L169.527 367.879
L167.276 366.036
L165.582 364.629
L162.578 362.091
L161.636 361.283
L158.041 358.145
L157.691 357.835
L153.745 354.281
L153.657 354.2
L149.8 350.611
L149.423 350.255
L145.855 346.827
L145.323 346.309
L141.909 342.925
L141.352 342.364
L137.964 338.898
L137.502 338.418
L134.018 334.74
L133.769 334.473
L130.15 330.527
L130.073 330.442
L126.646 326.582
L126.127 325.987
L123.247 322.636
L122.182 321.375
L119.948 318.691
L118.236 316.596
L116.745 314.745
L114.291 311.642
L113.634 310.8
L110.618 306.855
L110.345 306.491
L107.702 302.909
L106.4 301.109
L104.869 298.964
L102.455 295.509
L102.116 295.018
L99.4587 291.073
L98.5091 289.63
L96.8833 287.127
L94.5636 283.476
L94.379 283.182
L91.9718 279.236
L90.6182 276.964
L89.6349 275.291
L87.3766 271.345
L86.6727 270.08
L85.2014 267.4
L83.0932 263.455
L82.7273 262.747
L81.0743 259.509
L79.1174 255.564
L78.7818 254.862
L77.2493 251.618
L75.4448 247.673
L74.8364 246.291
L73.7223 243.727
L72.0713 239.782
L70.8909 236.848
L70.4892 235.836
L68.9928 231.891
L67.5589 227.945
L66.9455 226.17
L66.2052 224
L64.9291 220.055
L63.7196 216.109
L63 213.614" style="fill:none;stroke:#7dff7a;"/>
    <path clip-path="url(#p41d7ee9abc)" d="
M453.6 267.168
L452.662 263.455
L451.594 259.509
L450.457 255.564
L449.655 252.942
L449.244 251.618
L447.947 247.673
L446.585 243.727
L445.709 241.312
L445.147 239.782
L443.628 235.836
L442.048 231.891
L441.764 231.21
L440.38 227.945
L438.646 224
L437.818 222.184
L436.835 220.055
L434.949 216.109
L433.873 213.929
L432.989 212.164
L430.952 208.218
L429.927 206.292
L428.839 204.273
L426.652 200.327
L425.982 199.153
L424.38 196.382
L422.044 192.436
L422.036 192.425
L419.607 188.491
L418.091 186.091
L417.102 184.545
L414.517 180.6
L414.145 180.047
L411.836 176.655
L410.2 174.3
L409.079 172.709
L406.255 168.781
L406.242 168.764
L403.299 164.818
L402.309 163.517
L400.269 160.873
L398.364 158.448
L397.151 156.927
L394.418 153.563
L393.94 152.982
L390.627 149.036
L390.473 148.856
L387.205 145.091
L386.527 144.324
L383.679 141.145
L382.582 139.943
L380.044 137.2
L378.636 135.704
L376.296 133.255
L374.691 131.602
L372.43 129.309
L370.745 127.629
L368.44 125.364
L366.8 123.778
L364.32 121.418
L362.855 120.045
L360.064 117.473
L358.909 116.424
L355.666 113.527
L354.964 112.91
L351.118 109.582
L351.018 109.497
L347.073 106.195
L346.394 105.636
L343.127 102.99
L341.496 101.691
L339.182 99.8752
L336.419 97.7455
L335.236 96.8474
L331.291 93.905
L331.147 93.8
L327.345 91.0646
L325.632 89.8545
L323.4 88.3013
L320.756 86.4964" style="fill:none;stroke:#7dff7a;"/>
    <path clip-path="url(#p41d7ee9abc)" d="
M265.446 56.5608
L264.218 56.051
L260.273 54.4681
L259.953 54.3455
L256.327 52.9725
L252.382 51.5374
L249.116 50.4" style="fill:none;stroke:#7dff7a;"/>
    <path clip-path="url(#p41d7ee9abc)" d="
M63 112.541
L64.1133 109.582
L65.7408 105.636
L66.9455 102.956
L67.5372 101.691
L69.5314 97.7455
L70.8909 95.2551
L71.7192 93.8
L74.13 89.8545
L74.8364 88.7727
L76.7908 85.9091
L78.7818 83.178
L79.709 81.9636
L82.7273 78.2476
L82.9229 78.0182
L86.4858 74.0727
L86.6727 73.8769
L90.4405 70.1273
L90.6182 69.9595
L94.5636 66.4296
L94.8565 66.1818
L98.5091 63.2416
L99.8352 62.2364
L102.455 60.3425
L105.48 58.2909
L106.4 57.6942
L110.345 55.294
L112.016 54.3455
L114.291 53.1076
L118.236 51.1128
L119.756 50.4" style="fill:none;stroke:#7dff7a;"/>
   </g>
   <g id="LineCollection_9">
    <path clip-path="url(#p41d7ee9abc)" d="
M156.202 441
L153.745 439.227
L150.773 437.055
L149.8 436.336
L145.855 433.382
L145.496 433.109
L141.909 430.357
L140.373 429.164
L137.964 427.272
L135.379 425.218
L134.018 424.125
L130.51 421.273
L130.073 420.914
L130.064 420.906" style="fill:none;stroke:#800000;"/>
    <path clip-path="url(#p41d7ee9abc)" d="
M84.0885 377.894
L84.0685 377.873
L82.7273 376.443
L80.3917 373.927
L78.7818 372.172
L76.7936 369.982
L74.8364 367.799
L73.2716 366.036
L70.8909 363.321
L69.8235 362.091
L66.9455 358.733
L66.447 358.145
L63.1424 354.2
L63 354.028" style="fill:none;stroke:#800000;"/>
    <path clip-path="url(#p41d7ee9abc)" d="
M453.6 120.955
L450.732 117.473
L449.655 116.182
L447.418 113.527
L445.709 111.525
L444.034 109.582
L441.764 106.981
L440.578 105.636
L439.853 104.824" style="fill:none;stroke:#800000;"/>
    <path clip-path="url(#p41d7ee9abc)" d="
M395.118 60.5242
L394.418 59.9115
L392.545 58.2909
L390.473 56.5174
L387.905 54.3455
L386.527 53.1926
L383.15 50.4" style="fill:none;stroke:#800000;"/>
   </g>
   <g id="line2d_1">
    <defs>
     <path d="
M6.12323e-16 -10
L-2.24514 -3.09017
L-9.51057 -3.09017
L-3.63271 1.18034
L-5.87785 8.09017
L-7.0166e-16 3.81966
L5.87785 8.09017
L3.63271 1.18034
L9.51057 -3.09017
L2.24514 -3.09017
z
" id="m55df51375f" style="stroke:#000000;stroke-linejoin:bevel;stroke-width:0.5;"/>
    </defs>
    <g clip-path="url(#p41d7ee9abc)">
     <use style="fill:#008000;stroke:#000000;stroke-linejoin:bevel;stroke-width:0.5;" x="167.16" xlink:href="#m55df51375f" y="369.39"/>
    </g>
   </g>
   <g id="patch_4">
    <path d="
M63 441
L63 50.4" style="fill:none;stroke:#000000;stroke-linecap:square;stroke-linejoin:miter;"/>
   </g>
   <g id="patch_5">
    <path d="
M63 50.4
L453.6 50.4" style="fill:none;stroke:#000000;stroke-linecap:square;stroke-linejoin:miter;"/>
   </g>
   <g id="patch_6">
    <path d="
M453.6 441
L453.6 50.4" style="fill:none;stroke:#000000;stroke-linecap:square;stroke-linejoin:miter;"/>
   </g>
   <g id="patch_7">
    <path d="
M63 441
L453.6 441" style="fill:none;stroke:#000000;stroke-linecap:square;stroke-linejoin:miter;"/>
   </g>
   <g id="matplotlib.axis_1">
    <g id="xtick_1">
     <g id="line2d_2">
      <defs>
       <path d="
M0 0
L0 -4" id="mc7db9fdffb" style="stroke:#000000;stroke-width:0.5;"/>
      </defs>
      <g>
       <use style="stroke:#000000;stroke-width:0.5;" x="102.06" xlink:href="#mc7db9fdffb" y="441.0"/>
      </g>
     </g>
     <g id="line2d_3">
      <defs>
       <path d="
M0 0
L0 4" id="m5a7d422ac3" style="stroke:#000000;stroke-width:0.5;"/>
      </defs>
      <g>
       <use style="stroke:#000000;stroke-width:0.5;" x="102.06" xlink:href="#m5a7d422ac3" y="50.4"/>
      </g>
     </g>
     <g id="text_1">
      <!-- −1 -->
      <defs>
       <path d="
M10.5938 35.5
L73.1875 35.5
L73.1875 27.2031
L10.5938 27.2031
z
" id="BitstreamVeraSans-Roman-2212"/>
       <path d="
M12.4062 8.29688
L28.5156 8.29688
L28.5156 63.9219
L10.9844 60.4062
L10.9844 69.3906
L28.4219 72.9062
L38.2812 72.9062
L38.2812 8.29688
L54.3906 8.29688
L54.3906 0
L12.4062 0
z
" id="BitstreamVeraSans-Roman-31"/>
      </defs>
      <g transform="translate(95.6803125 452.5984375)scale(0.1 -0.1)">
       <use xlink:href="#BitstreamVeraSans-Roman-2212"/>
       <use x="83.7890625" xlink:href="#BitstreamVeraSans-Roman-31"/>
      </g>
     </g>
    </g>
    <g id="xtick_2">
     <g id="line2d_4">
      <g>
       <use style="stroke:#000000;stroke-width:0.5;" x="167.16" xlink:href="#mc7db9fdffb" y="441.0"/>
      </g>
     </g>
     <g id="line2d_5">
      <g>
       <use style="stroke:#000000;stroke-width:0.5;" x="167.16" xlink:href="#m5a7d422ac3" y="50.4"/>
      </g>
     </g>
     <g id="text_2">
      <!-- 0 -->
      <defs>
       <path d="
M31.7812 66.4062
Q24.1719 66.4062 20.3281 58.9062
Q16.5 51.4219 16.5 36.375
Q16.5 21.3906 20.3281 13.8906
Q24.1719 6.39062 31.7812 6.39062
Q39.4531 6.39062 43.2812 13.8906
Q47.125 21.3906 47.125 36.375
Q47.125 51.4219 43.2812 58.9062
Q39.4531 66.4062 31.7812 66.4062
M31.7812 74.2188
Q44.0469 74.2188 50.5156 64.5156
Q56.9844 54.8281 56.9844 36.375
Q56.9844 17.9688 50.5156 8.26562
Q44.0469 -1.42188 31.7812 -1.42188
Q19.5312 -1.42188 13.0625 8.26562
Q6.59375 17.9688 6.59375 36.375
Q6.59375 54.8281 13.0625 64.5156
Q19.5312 74.2188 31.7812 74.2188" id="BitstreamVeraSans-Roman-30"/>
      </defs>
      <g transform="translate(164.64046875 452.5984375)scale(0.1 -0.1)">
       <use xlink:href="#BitstreamVeraSans-Roman-30"/>
      </g>
     </g>
    </g>
    <g id="xtick_3">
     <g id="line2d_6">
      <g>
       <use style="stroke:#000000;stroke-width:0.5;" x="232.26" xlink:href="#mc7db9fdffb" y="441.0"/>
      </g>
     </g>
     <g id="line2d_7">
      <g>
       <use style="stroke:#000000;stroke-width:0.5;" x="232.26" xlink:href="#m5a7d422ac3" y="50.4"/>
      </g>
     </g>
     <g id="text_3">
      <!-- 1 -->
      <g transform="translate(230.0896875 452.5984375)scale(0.1 -0.1)">
       <use xlink:href="#BitstreamVeraSans-Roman-31"/>
      </g>
     </g>
    </g>
    <g id="xtick_4">
     <g id="line2d_8">
      <g>
       <use style="stroke:#000000;stroke-width:0.5;" x="297.36" xlink:href="#mc7db9fdffb" y="441.0"/>
      </g>
     </g>
     <g id="line2d_9">
      <g>
       <use style="stroke:#000000;stroke-width:0.5;" x="297.36" xlink:href="#m5a7d422ac3" y="50.4"/>
      </g>
     </g>
     <g id="text_4">
      <!-- 2 -->
      <defs>
       <path d="
M19.1875 8.29688
L53.6094 8.29688
L53.6094 0
L7.32812 0
L7.32812 8.29688
Q12.9375 14.1094 22.625 23.8906
Q32.3281 33.6875 34.8125 36.5312
Q39.5469 41.8438 41.4219 45.5312
Q43.3125 49.2188 43.3125 52.7812
Q43.3125 58.5938 39.2344 62.25
Q35.1562 65.9219 28.6094 65.9219
Q23.9688 65.9219 18.8125 64.3125
Q13.6719 62.7031 7.8125 59.4219
L7.8125 69.3906
Q13.7656 71.7812 18.9375 73
Q24.125 74.2188 28.4219 74.2188
Q39.75 74.2188 46.4844 68.5469
Q53.2188 62.8906 53.2188 53.4219
Q53.2188 48.9219 51.5312 44.8906
Q49.8594 40.875 45.4062 35.4062
Q44.1875 33.9844 37.6406 27.2188
Q31.1094 20.4531 19.1875 8.29688" id="BitstreamVeraSans-Roman-32"/>
      </defs>
      <g transform="translate(295.0459375 452.5984375)scale(0.1 -0.1)">
       <use xlink:href="#BitstreamVeraSans-Roman-32"/>
      </g>
     </g>
    </g>
    <g id="xtick_5">
     <g id="line2d_10">
      <g>
       <use style="stroke:#000000;stroke-width:0.5;" x="362.46" xlink:href="#mc7db9fdffb" y="441.0"/>
      </g>
     </g>
     <g id="line2d_11">
      <g>
       <use style="stroke:#000000;stroke-width:0.5;" x="362.46" xlink:href="#m5a7d422ac3" y="50.4"/>
      </g>
     </g>
     <g id="text_5">
      <!-- 3 -->
      <defs>
       <path d="
M40.5781 39.3125
Q47.6562 37.7969 51.625 33
Q55.6094 28.2188 55.6094 21.1875
Q55.6094 10.4062 48.1875 4.48438
Q40.7656 -1.42188 27.0938 -1.42188
Q22.5156 -1.42188 17.6562 -0.515625
Q12.7969 0.390625 7.625 2.20312
L7.625 11.7188
Q11.7188 9.32812 16.5938 8.10938
Q21.4844 6.89062 26.8125 6.89062
Q36.0781 6.89062 40.9375 10.5469
Q45.7969 14.2031 45.7969 21.1875
Q45.7969 27.6406 41.2812 31.2656
Q36.7656 34.9062 28.7188 34.9062
L20.2188 34.9062
L20.2188 43.0156
L29.1094 43.0156
Q36.375 43.0156 40.2344 45.9219
Q44.0938 48.8281 44.0938 54.2969
Q44.0938 59.9062 40.1094 62.9062
Q36.1406 65.9219 28.7188 65.9219
Q24.6562 65.9219 20.0156 65.0312
Q15.375 64.1562 9.8125 62.3125
L9.8125 71.0938
Q15.4375 72.6562 20.3438 73.4375
Q25.25 74.2188 29.5938 74.2188
Q40.8281 74.2188 47.3594 69.1094
Q53.9062 64.0156 53.9062 55.3281
Q53.9062 49.2656 50.4375 45.0938
Q46.9688 40.9219 40.5781 39.3125" id="BitstreamVeraSans-Roman-33"/>
      </defs>
      <g transform="translate(360.06078125 452.5984375)scale(0.1 -0.1)">
       <use xlink:href="#BitstreamVeraSans-Roman-33"/>
      </g>
     </g>
    </g>
    <g id="xtick_6">
     <g id="line2d_12">
      <g>
       <use style="stroke:#000000;stroke-width:0.5;" x="427.56" xlink:href="#mc7db9fdffb" y="441.0"/>
      </g>
     </g>
     <g id="line2d_13">
      <g>
       <use style="stroke:#000000;stroke-width:0.5;" x="427.56" xlink:href="#m5a7d422ac3" y="50.4"/>
      </g>
     </g>
     <g id="text_6">
      <!-- 4 -->
      <defs>
       <path d="
M37.7969 64.3125
L12.8906 25.3906
L37.7969 25.3906
z

M35.2031 72.9062
L47.6094 72.9062
L47.6094 25.3906
L58.0156 25.3906
L58.0156 17.1875
L47.6094 17.1875
L47.6094 0
L37.7969 0
L37.7969 17.1875
L4.89062 17.1875
L4.89062 26.7031
z
" id="BitstreamVeraSans-Roman-34"/>
      </defs>
      <g transform="translate(424.90375 452.5984375)scale(0.1 -0.1)">
       <use xlink:href="#BitstreamVeraSans-Roman-34"/>
      </g>
     </g>
    </g>
    <g id="text_7">
     <!-- $m$ -->
     <defs>
      <path d="
M7.71875 1.70312
Q7.71875 2.29688 7.8125 2.59375
L15.2812 32.4219
Q16.0156 35.2031 16.0156 37.3125
Q16.0156 41.6094 13.0938 41.6094
Q9.96875 41.6094 8.45312 37.8594
Q6.9375 34.125 5.51562 28.4219
Q5.51562 28.125 5.21875 27.9531
Q4.9375 27.7812 4.6875 27.7812
L3.51562 27.7812
Q3.17188 27.7812 2.92188 28.1406
Q2.6875 28.5156 2.6875 28.8125
Q3.76562 33.1562 4.76562 36.1719
Q5.76562 39.2031 7.89062 41.6875
Q10.0156 44.1875 13.1875 44.1875
Q16.9375 44.1875 19.8125 41.8125
Q22.7031 39.4531 22.7031 35.7969
Q25.6875 39.7031 29.6875 41.9375
Q33.6875 44.1875 38.1875 44.1875
Q42.9219 44.1875 46.3594 41.7656
Q49.8125 39.3594 49.8125 34.9062
Q52.875 39.2656 57 41.7188
Q61.1406 44.1875 66.0156 44.1875
Q71.1875 44.1875 74.3281 41.375
Q77.4844 38.5781 77.4844 33.4062
Q77.4844 29.2969 75.6562 23.4844
Q73.8281 17.6719 71.0938 10.5
Q69.6719 7.03125 69.6719 4.5
Q69.6719 1.51562 72.0156 1.51562
Q75.9219 1.51562 78.5156 5.70312
Q81.1094 9.90625 82.1719 14.7031
Q82.4688 15.2812 83.0156 15.2812
L84.1875 15.2812
Q84.5781 15.2812 84.8438 15.0156
Q85.1094 14.75 85.1094 14.4062
Q85.1094 14.3125 85.0156 14.1094
Q83.6406 8.45312 80.25 3.65625
Q76.8594 -1.125 71.7812 -1.125
Q68.2656 -1.125 65.7656 1.29688
Q63.2812 3.71875 63.2812 7.17188
Q63.2812 8.9375 64.1094 11.0781
Q66.9375 18.6094 68.8125 24.5156
Q70.7031 30.4219 70.7031 34.9062
Q70.7031 37.7031 69.5781 39.6562
Q68.4531 41.6094 65.8281 41.6094
Q60.3594 41.6094 56.3438 38.25
Q52.3438 34.9062 49.4219 29.3906
Q49.2188 28.4219 49.125 27.875
L42.6719 2.20312
Q42.3281 0.828125 41.125 -0.140625
Q39.9375 -1.125 38.4844 -1.125
Q37.3125 -1.125 36.4062 -0.34375
Q35.5 0.4375 35.5 1.70312
Q35.5 2.29688 35.5938 2.59375
L42 28.0781
Q43.0156 32.1719 43.0156 34.9062
Q43.0156 37.7031 41.8594 39.6562
Q40.7188 41.6094 37.9844 41.6094
Q34.3281 41.6094 31.25 39.9844
Q28.1719 38.375 25.875 35.7188
Q23.5781 33.0625 21.6875 29.3906
L14.8906 2.20312
Q14.5469 0.828125 13.3438 -0.140625
Q12.1562 -1.125 10.6875 -1.125
Q9.46875 -1.125 8.59375 -0.34375
Q7.71875 0.4375 7.71875 1.70312" id="Cmmi10-6d"/>
     </defs>
     <g transform="translate(247.3 478.67421875)scale(0.25 -0.25)">
      <use transform="translate(0.0 0.8125)" xlink:href="#Cmmi10-6d"/>
     </g>
    </g>
   </g>
   <g id="matplotlib.axis_2">
    <g id="ytick_1">
     <g id="line2d_14">
      <defs>
       <path d="
M0 0
L4 0" id="md7965d1ba0" style="stroke:#000000;stroke-width:0.5;"/>
      </defs>
      <g>
       <use style="stroke:#000000;stroke-width:0.5;" x="63.0" xlink:href="#md7965d1ba0" y="434.49"/>
      </g>
     </g>
     <g id="line2d_15">
      <defs>
       <path d="
M0 0
L-4 0" id="md9a1c1a7cd" style="stroke:#000000;stroke-width:0.5;"/>
      </defs>
      <g>
       <use style="stroke:#000000;stroke-width:0.5;" x="453.6" xlink:href="#md9a1c1a7cd" y="434.49"/>
      </g>
     </g>
     <g id="text_8">
      <!-- −6 -->
      <defs>
       <path d="
M33.0156 40.375
Q26.375 40.375 22.4844 35.8281
Q18.6094 31.2969 18.6094 23.3906
Q18.6094 15.5312 22.4844 10.9531
Q26.375 6.39062 33.0156 6.39062
Q39.6562 6.39062 43.5312 10.9531
Q47.4062 15.5312 47.4062 23.3906
Q47.4062 31.2969 43.5312 35.8281
Q39.6562 40.375 33.0156 40.375
M52.5938 71.2969
L52.5938 62.3125
Q48.875 64.0625 45.0938 64.9844
Q41.3125 65.9219 37.5938 65.9219
Q27.8281 65.9219 22.6719 59.3281
Q17.5312 52.7344 16.7969 39.4062
Q19.6719 43.6562 24.0156 45.9219
Q28.375 48.1875 33.5938 48.1875
Q44.5781 48.1875 50.9531 41.5156
Q57.3281 34.8594 57.3281 23.3906
Q57.3281 12.1562 50.6875 5.35938
Q44.0469 -1.42188 33.0156 -1.42188
Q20.3594 -1.42188 13.6719 8.26562
Q6.98438 17.9688 6.98438 36.375
Q6.98438 53.6562 15.1875 63.9375
Q23.3906 74.2188 37.2031 74.2188
Q40.9219 74.2188 44.7031 73.4844
Q48.4844 72.75 52.5938 71.2969" id="BitstreamVeraSans-Roman-36"/>
      </defs>
      <g transform="translate(45.946875 437.249375)scale(0.1 -0.1)">
       <use xlink:href="#BitstreamVeraSans-Roman-2212"/>
       <use x="83.7890625" xlink:href="#BitstreamVeraSans-Roman-36"/>
      </g>
     </g>
    </g>
    <g id="ytick_2">
     <g id="line2d_16">
      <g>
       <use style="stroke:#000000;stroke-width:0.5;" x="63.0" xlink:href="#md7965d1ba0" y="369.39"/>
      </g>
     </g>
     <g id="line2d_17">
      <g>
       <use style="stroke:#000000;stroke-width:0.5;" x="453.6" xlink:href="#md9a1c1a7cd" y="369.39"/>
      </g>
     </g>
     <g id="text_9">
      <!-- −5 -->
      <defs>
       <path d="
M10.7969 72.9062
L49.5156 72.9062
L49.5156 64.5938
L19.8281 64.5938
L19.8281 46.7344
Q21.9688 47.4688 24.1094 47.8281
Q26.2656 48.1875 28.4219 48.1875
Q40.625 48.1875 47.75 41.5
Q54.8906 34.8125 54.8906 23.3906
Q54.8906 11.625 47.5625 5.09375
Q40.2344 -1.42188 26.9062 -1.42188
Q22.3125 -1.42188 17.5469 -0.640625
Q12.7969 0.140625 7.71875 1.70312
L7.71875 11.625
Q12.1094 9.23438 16.7969 8.0625
Q21.4844 6.89062 26.7031 6.89062
Q35.1562 6.89062 40.0781 11.3281
Q45.0156 15.7656 45.0156 23.3906
Q45.0156 31 40.0781 35.4375
Q35.1562 39.8906 26.7031 39.8906
Q22.75 39.8906 18.8125 39.0156
Q14.8906 38.1406 10.7969 36.2812
z
" id="BitstreamVeraSans-Roman-35"/>
      </defs>
      <g transform="translate(46.190625 372.149375)scale(0.1 -0.1)">
       <use xlink:href="#BitstreamVeraSans-Roman-2212"/>
       <use x="83.7890625" xlink:href="#BitstreamVeraSans-Roman-35"/>
      </g>
     </g>
    </g>
    <g id="ytick_3">
     <g id="line2d_18">
      <g>
       <use style="stroke:#000000;stroke-width:0.5;" x="63.0" xlink:href="#md7965d1ba0" y="304.29"/>
      </g>
     </g>
     <g id="line2d_19">
      <g>
       <use style="stroke:#000000;stroke-width:0.5;" x="453.6" xlink:href="#md9a1c1a7cd" y="304.29"/>
      </g>
     </g>
     <g id="text_10">
      <!-- −4 -->
      <g transform="translate(45.878125 307.049375)scale(0.1 -0.1)">
       <use xlink:href="#BitstreamVeraSans-Roman-2212"/>
       <use x="83.7890625" xlink:href="#BitstreamVeraSans-Roman-34"/>
      </g>
     </g>
    </g>
    <g id="ytick_4">
     <g id="line2d_20">
      <g>
       <use style="stroke:#000000;stroke-width:0.5;" x="63.0" xlink:href="#md7965d1ba0" y="239.19"/>
      </g>
     </g>
     <g id="line2d_21">
      <g>
       <use style="stroke:#000000;stroke-width:0.5;" x="453.6" xlink:href="#md9a1c1a7cd" y="239.19"/>
      </g>
     </g>
     <g id="text_11">
      <!-- −3 -->
      <g transform="translate(46.11875 241.949375)scale(0.1 -0.1)">
       <use xlink:href="#BitstreamVeraSans-Roman-2212"/>
       <use x="83.7890625" xlink:href="#BitstreamVeraSans-Roman-33"/>
      </g>
     </g>
    </g>
    <g id="ytick_5">
     <g id="line2d_22">
      <g>
       <use style="stroke:#000000;stroke-width:0.5;" x="63.0" xlink:href="#md7965d1ba0" y="174.09"/>
      </g>
     </g>
     <g id="line2d_23">
      <g>
       <use style="stroke:#000000;stroke-width:0.5;" x="453.6" xlink:href="#md9a1c1a7cd" y="174.09"/>
      </g>
     </g>
     <g id="text_12">
      <!-- −2 -->
      <g transform="translate(46.31875 176.849375)scale(0.1 -0.1)">
       <use xlink:href="#BitstreamVeraSans-Roman-2212"/>
       <use x="83.7890625" xlink:href="#BitstreamVeraSans-Roman-32"/>
      </g>
     </g>
    </g>
    <g id="ytick_6">
     <g id="line2d_24">
      <g>
       <use style="stroke:#000000;stroke-width:0.5;" x="63.0" xlink:href="#md7965d1ba0" y="108.99"/>
      </g>
     </g>
     <g id="line2d_25">
      <g>
       <use style="stroke:#000000;stroke-width:0.5;" x="453.6" xlink:href="#md9a1c1a7cd" y="108.99"/>
      </g>
     </g>
     <g id="text_13">
      <!-- −1 -->
      <g transform="translate(46.240625 111.749375)scale(0.1 -0.1)">
       <use xlink:href="#BitstreamVeraSans-Roman-2212"/>
       <use x="83.7890625" xlink:href="#BitstreamVeraSans-Roman-31"/>
      </g>
     </g>
    </g>
    <g id="text_14">
     <!-- $c$ -->
     <defs>
      <path d="
M11.7188 11.9219
Q11.7188 7.5625 13.9375 4.53125
Q16.1562 1.51562 20.3125 1.51562
Q26.2656 1.51562 31.75 4.25
Q37.25 6.98438 40.7188 11.8125
Q41.0156 12.1094 41.5 12.1094
Q42 12.1094 42.5 11.5469
Q43.0156 10.9844 43.0156 10.5
Q43.0156 10.1094 42.8281 9.90625
Q39.1562 4.78125 32.9531 1.82812
Q26.7656 -1.125 20.125 -1.125
Q15.3281 -1.125 11.6719 1.14062
Q8.01562 3.42188 6 7.21875
Q4 11.0312 4 15.8281
Q4 22.5625 7.76562 29.2031
Q11.5312 35.8438 17.7812 40.0156
Q24.0312 44.1875 30.9062 44.1875
Q35.4062 44.1875 38.9844 42.0156
Q42.5781 39.8438 42.5781 35.5938
Q42.5781 32.8594 40.9844 30.9219
Q39.4062 29 36.7188 29
Q35.1094 29 34 30
Q32.9062 31 32.9062 32.625
Q32.9062 34.9688 34.6094 36.625
Q36.3281 38.2812 38.625 38.2812
L38.8125 38.2812
Q37.6406 39.9844 35.4219 40.7969
Q33.2031 41.6094 30.8125 41.6094
Q24.9531 41.6094 20.5469 36.5938
Q16.1562 31.5938 13.9375 24.625
Q11.7188 17.6719 11.7188 11.9219" id="Cmmi10-63"/>
     </defs>
     <g transform="translate(35.67890625 251.2)rotate(-90.0)scale(0.25 -0.25)">
      <use transform="translate(0.0 0.8125)" xlink:href="#Cmmi10-63"/>
     </g>
    </g>
   </g>
   <g id="text_15">
    <g clip-path="url(#p41d7ee9abc)">
     <!-- 2.000 -->
     <defs>
      <path d="
M10.6875 12.4062
L21 12.4062
L21 0
L10.6875 0
z
" id="BitstreamVeraSans-Roman-2e"/>
     </defs>
     <g style="fill:#0000a4;" transform="translate(205.068084475 217.926478935)rotate(-289.28792930769407)scale(0.15 -0.15)">
      <use xlink:href="#BitstreamVeraSans-Roman-32"/>
      <use x="63.623046875" xlink:href="#BitstreamVeraSans-Roman-2e"/>
      <use x="95.41015625" xlink:href="#BitstreamVeraSans-Roman-30"/>
      <use x="159.033203125" xlink:href="#BitstreamVeraSans-Roman-30"/>
      <use x="222.65625" xlink:href="#BitstreamVeraSans-Roman-30"/>
     </g>
    </g>
   </g>
   <g id="text_16">
    <g clip-path="url(#p41d7ee9abc)">
     <!-- 4.000 -->
     <g style="fill:#0000c8;" transform="translate(252.172740261 175.269436064)rotate(-330.18236440924187)scale(0.15 -0.15)">
      <use xlink:href="#BitstreamVeraSans-Roman-34"/>
      <use x="63.623046875" xlink:href="#BitstreamVeraSans-Roman-2e"/>
      <use x="95.41015625" xlink:href="#BitstreamVeraSans-Roman-30"/>
      <use x="159.033203125" xlink:href="#BitstreamVeraSans-Roman-30"/>
      <use x="222.65625" xlink:href="#BitstreamVeraSans-Roman-30"/>
     </g>
    </g>
   </g>
   <g id="text_17">
    <g clip-path="url(#p41d7ee9abc)">
     <!-- 8.000 -->
     <defs>
      <path d="
M31.7812 34.625
Q24.75 34.625 20.7188 30.8594
Q16.7031 27.0938 16.7031 20.5156
Q16.7031 13.9219 20.7188 10.1562
Q24.75 6.39062 31.7812 6.39062
Q38.8125 6.39062 42.8594 10.1719
Q46.9219 13.9688 46.9219 20.5156
Q46.9219 27.0938 42.8906 30.8594
Q38.875 34.625 31.7812 34.625
M21.9219 38.8125
Q15.5781 40.375 12.0312 44.7188
Q8.5 49.0781 8.5 55.3281
Q8.5 64.0625 14.7188 69.1406
Q20.9531 74.2188 31.7812 74.2188
Q42.6719 74.2188 48.875 69.1406
Q55.0781 64.0625 55.0781 55.3281
Q55.0781 49.0781 51.5312 44.7188
Q48 40.375 41.7031 38.8125
Q48.8281 37.1562 52.7969 32.3125
Q56.7812 27.4844 56.7812 20.5156
Q56.7812 9.90625 50.3125 4.23438
Q43.8438 -1.42188 31.7812 -1.42188
Q19.7344 -1.42188 13.25 4.23438
Q6.78125 9.90625 6.78125 20.5156
Q6.78125 27.4844 10.7812 32.3125
Q14.7969 37.1562 21.9219 38.8125
M18.3125 54.3906
Q18.3125 48.7344 21.8438 45.5625
Q25.3906 42.3906 31.7812 42.3906
Q38.1406 42.3906 41.7188 45.5625
Q45.3125 48.7344 45.3125 54.3906
Q45.3125 60.0625 41.7188 63.2344
Q38.1406 66.4062 31.7812 66.4062
Q25.3906 66.4062 21.8438 63.2344
Q18.3125 60.0625 18.3125 54.3906" id="BitstreamVeraSans-Roman-38"/>
     </defs>
     <g style="fill:#0000ff;" transform="translate(193.979635775 289.022034262)rotate(-320.13111560887864)scale(0.15 -0.15)">
      <use xlink:href="#BitstreamVeraSans-Roman-38"/>
      <use x="63.623046875" xlink:href="#BitstreamVeraSans-Roman-2e"/>
      <use x="95.41015625" xlink:href="#BitstreamVeraSans-Roman-30"/>
      <use x="159.033203125" xlink:href="#BitstreamVeraSans-Roman-30"/>
      <use x="222.65625" xlink:href="#BitstreamVeraSans-Roman-30"/>
     </g>
    </g>
   </g>
   <g id="text_18">
    <g clip-path="url(#p41d7ee9abc)">
     <!-- 16.000 -->
     <g style="fill:#0080ff;" transform="translate(358.459524326 188.757554629)rotate(-300.18582844606556)scale(0.15 -0.15)">
      <use xlink:href="#BitstreamVeraSans-Roman-31"/>
      <use x="63.623046875" xlink:href="#BitstreamVeraSans-Roman-36"/>
      <use x="127.24609375" xlink:href="#BitstreamVeraSans-Roman-2e"/>
      <use x="159.033203125" xlink:href="#BitstreamVeraSans-Roman-30"/>
      <use x="222.65625" xlink:href="#BitstreamVeraSans-Roman-30"/>
      <use x="286.279296875" xlink:href="#BitstreamVeraSans-Roman-30"/>
     </g>
    </g>
   </g>
   <g id="text_19">
    <g clip-path="url(#p41d7ee9abc)">
     <!-- 32.000 -->
     <g style="fill:#7dff7a;" transform="translate(192.879408095 391.444097798)rotate(-330.79953192682)scale(0.15 -0.15)">
      <use xlink:href="#BitstreamVeraSans-Roman-33"/>
      <use x="63.623046875" xlink:href="#BitstreamVeraSans-Roman-32"/>
      <use x="127.24609375" xlink:href="#BitstreamVeraSans-Roman-2e"/>
      <use x="159.033203125" xlink:href="#BitstreamVeraSans-Roman-30"/>
      <use x="222.65625" xlink:href="#BitstreamVeraSans-Roman-30"/>
      <use x="286.279296875" xlink:href="#BitstreamVeraSans-Roman-30"/>
     </g>
    </g>
   </g>
   <g id="text_20">
    <g clip-path="url(#p41d7ee9abc)">
     <!-- 32.000 -->
     <g style="fill:#7dff7a;" transform="translate(269.753823557 61.771893973)rotate(-331.5444138753053)scale(0.15 -0.15)">
      <use xlink:href="#BitstreamVeraSans-Roman-33"/>
      <use x="63.623046875" xlink:href="#BitstreamVeraSans-Roman-32"/>
      <use x="127.24609375" xlink:href="#BitstreamVeraSans-Roman-2e"/>
      <use x="159.033203125" xlink:href="#BitstreamVeraSans-Roman-30"/>
      <use x="222.65625" xlink:href="#BitstreamVeraSans-Roman-30"/>
      <use x="286.279296875" xlink:href="#BitstreamVeraSans-Roman-30"/>
     </g>
    </g>
   </g>
   <g id="text_21">
    <g clip-path="url(#p41d7ee9abc)">
     <!-- 64.000 -->
     <g style="fill:#800000;" transform="translate(85.1542929629 385.91502767)rotate(-316.90847976445855)scale(0.15 -0.15)">
      <use xlink:href="#BitstreamVeraSans-Roman-36"/>
      <use x="63.623046875" xlink:href="#BitstreamVeraSans-Roman-34"/>
      <use x="127.24609375" xlink:href="#BitstreamVeraSans-Roman-2e"/>
      <use x="159.033203125" xlink:href="#BitstreamVeraSans-Roman-30"/>
      <use x="222.65625" xlink:href="#BitstreamVeraSans-Roman-30"/>
      <use x="286.279296875" xlink:href="#BitstreamVeraSans-Roman-30"/>
     </g>
    </g>
   </g>
   <g id="text_22">
    <g clip-path="url(#p41d7ee9abc)">
     <!-- 64.000 -->
     <g style="fill:#800000;" transform="translate(397.355623199 67.1584466502)rotate(-315.2811652515518)scale(0.15 -0.15)">
      <use xlink:href="#BitstreamVeraSans-Roman-36"/>
      <use x="63.623046875" xlink:href="#BitstreamVeraSans-Roman-34"/>
      <use x="127.24609375" xlink:href="#BitstreamVeraSans-Roman-2e"/>
      <use x="159.033203125" xlink:href="#BitstreamVeraSans-Roman-30"/>
      <use x="222.65625" xlink:href="#BitstreamVeraSans-Roman-30"/>
      <use x="286.279296875" xlink:href="#BitstreamVeraSans-Roman-30"/>
     </g>
    </g>
   </g>
  </g>
 </g>
 <defs>
  <clipPath id="p41d7ee9abc">
   <rect height="390.6" width="390.6" x="63.0" y="50.4"/>
  </clipPath>
 </defs>
</svg>
