<?xml version="1.0" encoding="utf-8" standalone="no"?>
<!DOCTYPE svg PUBLIC "-//W3C//DTD SVG 1.1//EN"
  "http://www.w3.org/Graphics/SVG/1.1/DTD/svg11.dtd">
<!-- Created with matplotlib (http://matplotlib.org/) -->
<svg height="504pt" version="1.1" viewBox="0 0 504 504" width="504pt" xmlns="http://www.w3.org/2000/svg" xmlns:xlink="http://www.w3.org/1999/xlink">
 <defs>
  <style type="text/css">
*{stroke-linecap:butt;stroke-linejoin:round;}
  </style>
 </defs>
 <g id="figure_1">
  <g id="patch_1">
   <path d="
M0 504
L504 504
L504 0
L0 0
z
" style="fill:#ffffff;"/>
  </g>
  <g id="axes_1">
   <g id="patch_2">
    <path d="
M63 441
L453.6 441
L453.6 50.4
L63 50.4
z
" style="fill:#ffffff;"/>
   </g>
   <g id="patch_3">
    <path clip-path="url(#p41d7ee9abc)" d="
M155.243 288.754
L164.538 307.122
L158.13 308.069
L167.192 369.385
L167.128 369.395
L158.066 308.079
L151.658 309.026
z
" style="fill:#0000ff;stroke:#000000;stroke-linejoin:miter;"/>
   </g>
   <g id="LineCollection_1"/>
   <g id="LineCollection_2">
    <path clip-path="url(#p41d7ee9abc)" d="
M260.295 218.423
L264.023 216.109
L264.218 215.997
L268.164 214.009
L272.024 212.164
L272.109 212.126
L276.055 210.748
L280 209.644
L283.945 208.95
L287.891 208.909
L291.836 210.008
L294.612 212.164
L295.782 214.91
L296.082 216.109
L295.805 220.055
L295.782 220.126
L294.474 224
L292.57 227.945
L291.836 229.115
L290.048 231.891
L287.891 234.784
L287.085 235.836
L283.945 239.444
L283.644 239.782
L280 243.419
L279.682 243.727
L276.055 246.906
L275.153 247.673
L272.109 250.035
L270.005 251.618
L268.164 252.892
L264.218 255.532
L264.166 255.564
L260.273 257.715
L256.89 259.509
L256.327 259.784
L252.382 261.409
L248.436 262.833
L246.106 263.455
L244.491 263.846
L240.545 264.314
L236.6 264.137
L234.221 263.455
L232.655 262.614
L230.426 259.848" style="fill:none;stroke:#000089;"/>
   </g>
   <g id="LineCollection_3">
    <path clip-path="url(#p41d7ee9abc)" d="
M261.949 267.401
L260.273 268.349
L256.327 270.461
L254.562 271.345
L252.382 272.38
L248.436 274.106
L245.48 275.291
L244.491 275.666
L240.545 276.925
L236.6 277.985
L232.655 278.788
L228.78 279.236
L228.709 279.244
L226.632 279.236
L224.764 279.227
L220.818 278.526
L216.873 276.797
L214.935 275.291
L212.927 272.417
L212.42 271.345
L211.72 267.4
L211.944 263.455
L212.809 259.509
L212.927 259.187
L214.286 255.564
L216.132 251.618
L216.873 250.31
L218.394 247.673
L220.818 243.91
L220.938 243.727
L223.884 239.782
L224.764 238.699
L227.127 235.836
L228.709 234.058
L230.67 231.891
L232.655 229.844
L234.527 227.945
L236.6 225.976
L238.717 224
L240.545 222.394
L243.257 220.055
L244.491 219.049
L248.166 216.109
L248.436 215.904
L252.382 213.035
L253.612 212.164
L256.327 210.345
L259.573 208.218
L260.273 207.783
L264.218 205.471
L266.346 204.273
L268.164 203.303
L272.109 201.328
L274.258 200.327
L276.055 199.535
L280 197.972
L283.945 196.549
L284.521 196.382
L287.891 195.461
L291.836 194.631
L295.782 194.107
L299.727 193.994
L303.673 194.449
L307.618 195.72
L308.786 196.382
L311.564 198.982
L312.483 200.327
L313.717 204.273
L313.813 208.218
L313.147 212.164
L311.945 216.109
L311.564 216.989
L310.209 220.055
L308.132 224
L307.618 224.826
L305.643 227.945
L303.673 230.763
L302.87 231.891
L302.547 232.306" style="fill:none;stroke:#000092;"/>
   </g>
   <g id="LineCollection_4">
    <path clip-path="url(#p41d7ee9abc)" d="
M335.989 203.164
L335.681 204.273
L335.236 205.473
L334.206 208.218
L332.444 212.164
L331.291 214.42
L330.417 216.109
L328.136 220.055
L327.345 221.296
L325.603 224
L323.4 227.196
L322.877 227.945
L319.915 231.891
L319.455 232.465
L316.721 235.836
L315.509 237.256
L313.327 239.782
L311.564 241.724
L309.724 243.727
L307.618 245.914
L305.905 247.673
L303.673 249.864
L301.864 251.618
L299.727 253.603
L297.59 255.564
L295.782 257.156
L293.077 259.509
L291.836 260.546
L288.315 263.455
L287.891 263.791
L283.945 266.86
L283.237 267.4
L280 269.774
L277.827 271.345
L276.055 272.581
L272.11 275.291
L272.109 275.292
L268.164 277.798
L265.863 279.236
L264.218 280.228
L260.273 282.536
L259.123 283.182
L256.327 284.695
L252.382 286.773
L251.667 287.127
L248.436 288.669
L244.491 290.483
L243.111 291.073
L240.545 292.128
L236.6 293.639
L232.74 295.018
L232.655 295.048
L228.709 296.214
L224.764 297.238
L220.818 298.091
L216.873 298.738
L214.545 298.964
L212.927 299.113
L208.982 299.183
L205.789 298.964
L205.036 298.9
L201.091 298.077
L197.145 296.583
L194.479 295.018
L193.2 293.967
L190.678 291.073
L189.255 288.344
L188.76 287.127
L187.965 283.182
L187.868 279.236
L188.306 275.291
L189.165 271.345
L189.255 271.069
L190.455 267.4
L192.033 263.455
L193.2 260.964
L193.891 259.509
L196.03 255.564
L197.145 253.702
L198.408 251.618
L200.988 247.673
L201.091 247.528
L203.845 243.727
L205.036 242.176
L206.897 239.782
L208.982 237.243
L210.15 235.836
L212.927 232.664
L213.612 231.891
L216.873 228.388
L217.29 227.945
L220.818 224.374
L221.192 224
L224.764 220.586
L225.327 220.055
L228.709 216.996
L229.702 216.109
L232.655 213.579
L234.328 212.164
L236.6 210.317
L239.214 208.218
L240.545 207.19
L244.371 204.273
L244.491 204.184
L248.436 201.376
L249.934 200.327
L252.382 198.676
L255.832 196.382
L256.327 196.064
L260.273 193.631
L262.255 192.436
L264.218 191.296
L268.164 189.072
L269.243 188.491
L272.109 187.005
L276.055 185.023
L277.066 184.545
L280 183.213
L283.945 181.508
L286.199 180.6
L287.891 179.944
L291.836 178.555
L295.782 177.281
L298.014 176.655
L299.727 176.193
L303.673 175.324
L305.207 175.06" style="fill:none;stroke:#0000a4;"/>
   </g>
   <g id="LineCollection_5">
    <path clip-path="url(#p41d7ee9abc)" d="
M234.634 314.919
L228.709 317.333
L224.764 318.843
L216.873 321.474
L212.927 322.657
L205.036 324.558
L201.091 325.322
L197.145 325.938
L193.2 326.384
L189.255 326.63
L184.039 326.582
L181.364 326.413
L177.418 325.853
L173.473 324.914
L169.527 323.519
L167.676 322.636
L165.582 321.407
L161.636 318.247
L158.842 314.745
L157.691 312.678
L156.816 310.8
L155.632 306.855
L155.038 302.909
L154.927 298.964
L155.214 295.018
L155.836 291.073
L156.739 287.127
L157.896 283.182
L159.326 279.236
L161.636 273.777
L162.768 271.345
L165.582 265.942
L166.97 263.455
L169.527 259.169
L174.525 251.618
L177.418 247.568
L183.477 239.782
L189.255 232.947
L193.744 227.945
L201.091 220.302
L205.368 216.109
L212.927 209.115
L218.458 204.273
L224.764 199.031
L232.655 192.821
L238.505 188.491
L244.491 184.248
L252.382 179.007
L256.327 176.483
L264.218 171.757
L272.109 167.363
L280 163.312
L287.891 159.613
L295.782 156.28
L304.769 152.982
L311.564 150.877
L318.63 149.036
L319.455 148.842
L323.4 148.061
L327.345 147.421
L331.291 146.941
L335.236 146.644
L339.182 146.559
L343.127 146.721
L347.073 147.172
L351.018 147.966
L354.964 149.187
L358.909 151.119
L361.73 152.982
L362.855 153.927
L365.679 156.927
L366.8 158.567
L368.105 160.873
L369.589 164.818
L370.413 168.764
L370.703 172.709
L370.556 176.655
L370.046 180.6
L369.231 184.545
L368.157 188.491
L366.8 192.593
L365.294 196.382
L362.855 201.756
L361.608 204.273
L358.909 209.229
L354.751 216.109
L351.018 221.623
L346.425 227.945
L343.127 232.175
L336.748 239.782
L331.291 245.821
L325.747 251.618
L319.455 257.791
L313.357 263.455
L307.618 268.5
L299.727 275.071
L294.41 279.236
L287.891 284.115
L281.651 288.544
L281.651 288.544" style="fill:none;stroke:#0000c8;"/>
   </g>
   <g id="LineCollection_6">
    <path clip-path="url(#p41d7ee9abc)" d="
M223.069 171.723
L232.655 164.75
L244.121 156.927
L250.228 152.982
L256.537 149.036
L264.218 144.463
L272.109 140
L280 135.774
L287.891 131.792
L295.782 128.058
L303.673 124.578
L311.564 121.358
L319.455 118.449
L327.345 115.829
L335.236 113.502
L343.127 111.572
L351.018 109.99
L354.964 109.364
L358.909 108.869
L362.855 108.495
L366.8 108.256
L370.745 108.166
L374.691 108.24
L378.636 108.497
L382.582 108.96
L386.527 109.659
L390.473 110.688
L394.418 112.044
L398.364 113.801
L402.309 116.191
L404.062 117.473
L406.255 119.381
L408.245 121.418
L410.2 123.891
L411.213 125.364
L413.337 129.309
L414.832 133.255
L415.817 137.2
L416.406 141.145
L416.65 145.091
L416.593 149.036
L416.272 152.982
L415.715 156.927
L414.951 160.873
L413.994 164.818
L412.83 168.764
L411.512 172.709
L410.052 176.655
L406.655 184.545
L404.743 188.491
L402.309 193.192
L398.295 200.327
L393.381 208.218
L388.032 216.109
L382.268 224
L376.062 231.891
L369.453 239.782
L362.439 247.673
L354.964 255.606
L347.073 263.516
L338.822 271.345
L330.039 279.236
L320.772 287.127
L311.564 294.561
L305.857 298.964
L295.782 306.411
L287.891 311.935
L280 317.215
L271.513 322.636
L264.218 327.06
L256.327 331.609
L248.436 335.921
L240.545 339.992
L232.655 343.816
L224.764 347.388
L216.873 350.701
L207.67 354.2
L201.091 356.452
L193.2 358.883
L185.309 360.962
L180.346 362.091
L173.473 363.372
L169.527 363.959
L165.582 364.431
L161.636 364.775
L157.691 364.979
L153.745 365.026
L149.8 364.9
L145.855 364.58
L141.909 364.041
L137.964 363.255
L133.721 362.091
L130.073 360.697
L125.034 358.145
L122.182 356.201
L119.737 354.2
L118.236 352.721
L116.092 350.255
L113.476 346.309
L111.624 342.364
L110.309 338.418
L109.497 334.473
L109.053 330.527
L108.931 326.582
L109.092 322.636
L109.502 318.691
L110.345 313.764
L110.99 310.8
L112.038 306.855
L113.249 302.909
L114.619 298.964
L116.167 295.018
L118.236 290.202
L121.609 283.182
L125.886 275.291
L130.651 267.4
L135.871 259.509
L141.505 251.618
L147.583 243.727
L154.052 235.836
L160.953 227.945
L168.269 220.055
L176.006 212.164
L181.816 206.517
L181.816 206.517" style="fill:none;stroke:#0000ff;"/>
   </g>
   <g id="LineCollection_7">
    <path clip-path="url(#p41d7ee9abc)" d="
M63 301.405
L64.2772 298.964
L66.4172 295.018
L66.9455 294.084
L68.6549 291.073
L70.8909 287.241
L70.9575 287.127
L73.3653 283.182
L74.8364 280.832
L75.8399 279.236
L78.3907 275.291
L78.7818 274.705
L81.0325 271.345
L82.7273 268.872
L83.7404 267.4
L86.5193 263.455
L86.6727 263.243
L89.3899 259.509
L90.6182 257.856
L92.3276 255.564
L94.5636 252.625
L95.3332 251.618
L98.41 247.673
L98.5091 247.549
L101.574 243.727
L102.455 242.649
L104.807 239.782
L106.4 237.874
L108.109 235.836
L110.345 233.217
L111.482 231.891
L114.291 228.67
L114.926 227.945
L118.236 224.23
L118.442 224
L122.035 220.055
L122.182 219.896
L125.705 216.109
L126.127 215.663
L129.449 212.164
L130.073 211.516
L133.266 208.218
L134.018 207.453
L137.157 204.273
L137.964 203.468
L141.125 200.327
L141.909 199.56
L145.169 196.382
L145.855 195.723
L149.291 192.436
L149.8 191.956
L153.491 188.491
L153.745 188.255
L157.691 184.62
L157.772 184.545
L161.636 181.056
L162.143 180.6
L165.582 177.552
L166.598 176.655
L169.527 174.105
L171.138 172.709
L173.473 170.713
L175.763 168.764
L177.418 167.374
L180.476 164.818
L181.364 164.086
L185.277 160.873
L185.309 160.846
L189.255 157.677
L190.193 156.927
L193.2 154.555
L195.203 152.982
L197.145 151.476
L200.307 149.036
L201.091 148.44
L205.036 145.455
L205.522 145.091
L208.982 142.529
L210.86 141.145
L212.927 139.642
L213.446 139.266" style="fill:none;stroke:#0080ff;"/>
    <path clip-path="url(#p41d7ee9abc)" d="
M266.237 104.936
L268.164 103.829
L271.909 101.691
L272.109 101.578
L276.055 99.3959
L279.059 97.7455
L280 97.2352
L283.945 95.1317
L286.47 93.8
L287.891 93.0601
L291.836 91.0394
L294.181 89.8545
L295.782 89.0556
L299.727 87.1218
L302.238 85.9091
L303.673 85.2247
L307.618 83.3817
L310.698 81.9636
L311.564 81.5699
L315.509 79.8221
L319.455 78.0967
L319.64 78.0182
L323.4 76.446
L327.345 74.824
L329.223 74.0727
L331.291 73.2564
L335.236 71.7425
L339.182 70.2607
L339.552 70.1273
L343.127 68.8555
L347.073 67.4912
L350.971 66.1818
L351.018 66.1663
L354.964 64.9248
L358.909 63.7273
L362.855 62.5764
L364.09 62.2364
L366.8 61.5011
L370.745 60.4896
L374.691 59.5337
L378.636 58.6372
L380.296 58.2909
L382.582 57.8212
L386.527 57.0836
L390.473 56.4166
L394.418 55.8248
L398.364 55.3136
L402.309 54.8885
L406.255 54.5559
L409.821 54.3455
L410.2 54.3234
L414.145 54.2022
L418.091 54.1914
L422.036 54.2997
L422.816 54.3455
L425.982 54.5452
L429.927 54.9388
L433.873 55.4911
L437.818 56.2163
L441.764 57.1304
L445.709 58.2515
L445.828 58.2909
L449.655 59.6774
L453.6 61.3771" style="fill:none;stroke:#0080ff;"/>
    <path clip-path="url(#p41d7ee9abc)" d="
M453.6 187.768
L453.167 188.491
L450.715 192.436
L449.655 194.096
L448.188 196.382
L445.709 200.153
L445.594 200.327
L442.904 204.273
L441.764 205.907
L440.145 208.218
L437.818 211.468
L437.318 212.164
L434.41 216.109
L433.873 216.822
L431.423 220.055
L429.927 221.99
L428.367 224
L425.982 227.016
L425.243 227.945
L422.993 230.725" style="fill:none;stroke:#0080ff;"/>
    <path clip-path="url(#p41d7ee9abc)" d="
M380.257 276.963
L378.636 278.526
L377.896 279.236
L374.691 282.269
L373.723 283.182
L370.745 285.946
L369.468 287.127
L366.8 289.559
L365.133 291.073
L362.855 293.111
L360.714 295.018
L358.909 296.604
L356.213 298.964
L354.964 300.041
L351.626 302.909
L351.018 303.424
L347.073 306.752
L346.951 306.855
L343.127 310.012
L342.169 310.8
L339.182 313.223
L337.296 314.745
L335.236 316.387
L332.332 318.691
L331.291 319.506
L327.345 322.58
L327.272 322.636
L323.4 325.585
L322.085 326.582
L319.455 328.55
L316.799 330.527
L315.509 331.476
L311.564 334.361
L311.409 334.473
L307.618 337.179
L305.874 338.418
L303.673 339.962
L300.232 342.364
L299.727 342.712
L295.782 345.402
L294.441 346.309
L291.836 348.05
L288.52 350.255
L287.891 350.668
L283.945 353.228
L282.434 354.2
L280 355.747
L276.206 358.145
L276.055 358.24
L272.109 360.665
L269.775 362.091
L268.164 363.063
L264.218 365.419
L263.171 366.036
L260.273 367.723
L256.368 369.982
L256.327 370.005
L252.382 372.217
L249.311 373.927
L248.436 374.409
L244.491 376.543
L242.006 377.873
L240.545 378.645
L236.6 380.697
L234.417 381.818
L232.655 382.711
L228.709 384.678
L226.499 385.764
L224.764 386.605
L220.818 388.483
L218.201 389.709
L216.873 390.323
L212.927 392.107
L209.457 393.655
L208.982 393.864
L205.036 395.549
L201.091 397.211
L200.138 397.6
L197.145 398.806
L193.2 400.361
L190.12 401.545
L189.255 401.874
L185.309 403.317
L181.364 404.726
L179.143 405.491
L177.418 406.077
L173.473 407.365
L169.527 408.61
L166.795 409.436
L165.582 409.798
L161.636 410.912
L157.691 411.975
L153.745 412.985
L152.082 413.382
L149.8 413.918
L145.855 414.778
L141.909 415.575
L137.964 416.303
L134.018 416.959
L131.49 417.327
L130.073 417.53
L126.127 418.007
L122.182 418.397
L118.236 418.695
L114.291 418.894
L110.345 418.986
L106.4 418.963
L102.455 418.817
L98.5091 418.538
L94.5636 418.113
L90.6182 417.532
L89.5214 417.327
L86.6727 416.751
L82.7273 415.762
L78.7818 414.553
L75.5701 413.382
L74.8364 413.088
L70.8909 411.265
L67.511 409.436
L66.9455 409.096
L63 406.403" style="fill:none;stroke:#0080ff;"/>
   </g>
   <g id="LineCollection_8">
    <path clip-path="url(#p41d7ee9abc)" d="
M225.32 441
L228.709 439.237
L232.655 437.174
L232.88 437.055
L236.6 435.062
L240.231 433.109
L240.545 432.938
L244.491 430.767
L247.389 429.164
L248.436 428.579
L252.382 426.353
L254.378 425.218
L256.327 424.1
L260.273 421.821
L261.213 421.273
L264.218 419.504
L267.901 417.327
L268.164 417.171
L272.109 414.79
L273.104 414.187" style="fill:none;stroke:#7dff7a;"/>
    <path clip-path="url(#p41d7ee9abc)" d="
M325.721 379.564
L327.345 378.412
L328.101 377.873
L331.291 375.575
L333.571 373.927
L335.236 372.713
L338.969 369.982
L339.182 369.825
L343.127 366.89
L344.271 366.036
L347.073 363.925
L349.498 362.091
L351.018 360.931
L354.657 358.145
L354.964 357.909
L358.909 354.842
L359.731 354.2
L362.855 351.739
L364.733 350.255
L366.8 348.605
L369.669 346.309
L370.745 345.439
L374.54 342.364
L374.691 342.24
L378.636 338.994
L379.333 338.418
L382.582 335.71
L384.062 334.473
L386.527 332.391
L388.728 330.527
L390.473 329.035
L393.333 326.582
L394.418 325.642
L397.878 322.636
L398.364 322.21
L402.309 318.737
L402.361 318.691
L406.255 315.214
L406.777 314.745
L410.2 311.649
L411.136 310.8
L414.145 308.041
L415.436 306.855
L418.091 304.389
L419.68 302.909
L422.036 300.692
L423.868 298.964
L425.982 296.948
L428 295.018
L429.927 293.155
L432.076 291.073
L433.873 289.313
L436.098 287.127
L437.818 285.419
L440.065 283.182
L441.764 281.472
L443.978 279.236
L445.709 277.47
L447.838 275.291
L449.655 273.411
L451.644 271.345
L453.6 269.293" style="fill:none;stroke:#7dff7a;"/>
    <path clip-path="url(#p41d7ee9abc)" d="
M63 213.515
L64.2407 212.164
L66.9455 209.252
L67.9091 208.218
L70.8909 205.054
L71.6296 204.273
L74.8364 200.918
L75.4027 200.327
L78.7818 196.842
L79.229 196.382
L82.7273 192.823
L83.1087 192.436
L86.6727 188.861
L87.0425 188.491
L90.6182 184.953
L91.0307 184.545
L94.5636 181.097
L95.0739 180.6
L98.5091 177.292
L99.0256 176.796" style="fill:none;stroke:#7dff7a;"/>
    <path clip-path="url(#p41d7ee9abc)" d="
M146.082 134.927
L148.101 133.255
L149.8 131.862
L152.922 129.309
L153.745 128.642
L157.691 125.457
L157.808 125.364
L161.636 122.321
L162.776 121.418
L165.582 119.216
L167.81 117.473
L169.527 116.142
L172.911 113.527
L173.473 113.098
L177.418 110.093
L178.094 109.582
L181.364 107.128
L183.357 105.636
L185.309 104.19
L188.691 101.691
L189.255 101.278
L193.2 98.4078
L194.115 97.7455
L197.145 95.5722
L199.625 93.8
L201.091 92.7615
L205.036 89.9777
L205.212 89.8545
L208.982 87.2408
L210.909 85.9091
L212.927 84.527
L216.683 81.9636
L216.873 81.8356
L220.818 79.1911
L222.575 78.0182
L224.764 76.5707
L228.553 74.0727
L228.709 73.9709
L232.655 71.4187
L234.659 70.1273
L236.6 68.8882
L240.545 66.3809
L240.862 66.1818
L244.491 63.9192
L247.2 62.2364
L248.436 61.4753
L252.382 59.0652
L253.659 58.2909
L256.327 56.6885
L260.243 54.3455
L260.273 54.328
L264.218 52.0174
L266.992 50.4" style="fill:none;stroke:#7dff7a;"/>
   </g>
   <g id="LineCollection_9">
    <path clip-path="url(#p41d7ee9abc)" d="
M349.05 441
L351.018 439.605
L354.61 437.055
L354.964 436.802
L358.909 433.967
L360.1 433.109
L362.855 431.111
L365.533 429.164
L366.8 428.236
L370.745 425.341
L370.912 425.218
L374.691 422.413
L376.224 421.273
L377.31 420.459" style="fill:none;stroke:#800000;"/>
    <path clip-path="url(#p41d7ee9abc)" d="
M426.831 381.524
L429.927 378.954
L431.227 377.873
L433.873 375.657
L435.934 373.927
L437.818 372.335
L440.597 369.982
L441.764 368.987
L445.217 366.036
L445.709 365.613
L449.655 362.21
L449.792 362.091
L453.6 358.772" style="fill:none;stroke:#800000;"/>
    <path clip-path="url(#p41d7ee9abc)" d="
M63 122.355
L64.0514 121.418
L66.9455 118.857
L68.5124 117.473
L70.8909 115.387
L73.0153 113.527
L74.8364 111.944
L77.5604 109.582
L78.7818 108.53
L82.1479 105.636
L82.2124 105.581" style="fill:none;stroke:#800000;"/>
    <path clip-path="url(#p41d7ee9abc)" d="
M131.073 65.8216
L134.018 63.5515
L135.728 62.2364
L137.964 60.5283
L140.899 58.2909
L141.909 57.5256
L145.855 54.5461
L146.121 54.3455
L149.8 51.5985
L151.409 50.4" style="fill:none;stroke:#800000;"/>
   </g>
   <g id="line2d_1">
    <defs>
     <path d="
M6.12323e-16 -10
L-2.24514 -3.09017
L-9.51057 -3.09017
L-3.63271 1.18034
L-5.87785 8.09017
L-7.0166e-16 3.81966
L5.87785 8.09017
L3.63271 1.18034
L9.51057 -3.09017
L2.24514 -3.09017
z
" id="m55df51375f" style="stroke:#000000;stroke-linejoin:bevel;stroke-width:0.5;"/>
    </defs>
    <g clip-path="url(#p41d7ee9abc)">
     <use style="fill:#008000;stroke:#000000;stroke-linejoin:bevel;stroke-width:0.5;" x="167.16" xlink:href="#m55df51375f" y="369.39"/>
    </g>
   </g>
   <g id="patch_4">
    <path d="
M63 441
L453.6 441" style="fill:none;stroke:#000000;stroke-linecap:square;stroke-linejoin:miter;"/>
   </g>
   <g id="patch_5">
    <path d="
M453.6 441
L453.6 50.4" style="fill:none;stroke:#000000;stroke-linecap:square;stroke-linejoin:miter;"/>
   </g>
   <g id="patch_6">
    <path d="
M63 441
L63 50.4" style="fill:none;stroke:#000000;stroke-linecap:square;stroke-linejoin:miter;"/>
   </g>
   <g id="patch_7">
    <path d="
M63 50.4
L453.6 50.4" style="fill:none;stroke:#000000;stroke-linecap:square;stroke-linejoin:miter;"/>
   </g>
   <g id="matplotlib.axis_1">
    <g id="xtick_1">
     <g id="line2d_2">
      <defs>
       <path d="
M0 0
L0 -4" id="mc7db9fdffb" style="stroke:#000000;stroke-width:0.5;"/>
      </defs>
      <g>
       <use style="stroke:#000000;stroke-width:0.5;" x="102.06" xlink:href="#mc7db9fdffb" y="441.0"/>
      </g>
     </g>
     <g id="line2d_3">
      <defs>
       <path d="
M0 0
L0 4" id="m5a7d422ac3" style="stroke:#000000;stroke-width:0.5;"/>
      </defs>
      <g>
       <use style="stroke:#000000;stroke-width:0.5;" x="102.06" xlink:href="#m5a7d422ac3" y="50.4"/>
      </g>
     </g>
     <g id="text_1">
      <!-- −1 -->
      <defs>
       <path d="
M12.4062 8.29688
L28.5156 8.29688
L28.5156 63.9219
L10.9844 60.4062
L10.9844 69.3906
L28.4219 72.9062
L38.2812 72.9062
L38.2812 8.29688
L54.3906 8.29688
L54.3906 0
L12.4062 0
z
" id="BitstreamVeraSans-Roman-31"/>
       <path d="
M10.5938 35.5
L73.1875 35.5
L73.1875 27.2031
L10.5938 27.2031
z
" id="BitstreamVeraSans-Roman-2212"/>
      </defs>
      <g transform="translate(95.6803125 452.5984375)scale(0.1 -0.1)">
       <use xlink:href="#BitstreamVeraSans-Roman-2212"/>
       <use x="83.7890625" xlink:href="#BitstreamVeraSans-Roman-31"/>
      </g>
     </g>
    </g>
    <g id="xtick_2">
     <g id="line2d_4">
      <g>
       <use style="stroke:#000000;stroke-width:0.5;" x="167.16" xlink:href="#mc7db9fdffb" y="441.0"/>
      </g>
     </g>
     <g id="line2d_5">
      <g>
       <use style="stroke:#000000;stroke-width:0.5;" x="167.16" xlink:href="#m5a7d422ac3" y="50.4"/>
      </g>
     </g>
     <g id="text_2">
      <!-- 0 -->
      <defs>
       <path d="
M31.7812 66.4062
Q24.1719 66.4062 20.3281 58.9062
Q16.5 51.4219 16.5 36.375
Q16.5 21.3906 20.3281 13.8906
Q24.1719 6.39062 31.7812 6.39062
Q39.4531 6.39062 43.2812 13.8906
Q47.125 21.3906 47.125 36.375
Q47.125 51.4219 43.2812 58.9062
Q39.4531 66.4062 31.7812 66.4062
M31.7812 74.2188
Q44.0469 74.2188 50.5156 64.5156
Q56.9844 54.8281 56.9844 36.375
Q56.9844 17.9688 50.5156 8.26562
Q44.0469 -1.42188 31.7812 -1.42188
Q19.5312 -1.42188 13.0625 8.26562
Q6.59375 17.9688 6.59375 36.375
Q6.59375 54.8281 13.0625 64.5156
Q19.5312 74.2188 31.7812 74.2188" id="BitstreamVeraSans-Roman-30"/>
      </defs>
      <g transform="translate(164.64046875 452.5984375)scale(0.1 -0.1)">
       <use xlink:href="#BitstreamVeraSans-Roman-30"/>
      </g>
     </g>
    </g>
    <g id="xtick_3">
     <g id="line2d_6">
      <g>
       <use style="stroke:#000000;stroke-width:0.5;" x="232.26" xlink:href="#mc7db9fdffb" y="441.0"/>
      </g>
     </g>
     <g id="line2d_7">
      <g>
       <use style="stroke:#000000;stroke-width:0.5;" x="232.26" xlink:href="#m5a7d422ac3" y="50.4"/>
      </g>
     </g>
     <g id="text_3">
      <!-- 1 -->
      <g transform="translate(230.0896875 452.5984375)scale(0.1 -0.1)">
       <use xlink:href="#BitstreamVeraSans-Roman-31"/>
      </g>
     </g>
    </g>
    <g id="xtick_4">
     <g id="line2d_8">
      <g>
       <use style="stroke:#000000;stroke-width:0.5;" x="297.36" xlink:href="#mc7db9fdffb" y="441.0"/>
      </g>
     </g>
     <g id="line2d_9">
      <g>
       <use style="stroke:#000000;stroke-width:0.5;" x="297.36" xlink:href="#m5a7d422ac3" y="50.4"/>
      </g>
     </g>
     <g id="text_4">
      <!-- 2 -->
      <defs>
       <path d="
M19.1875 8.29688
L53.6094 8.29688
L53.6094 0
L7.32812 0
L7.32812 8.29688
Q12.9375 14.1094 22.625 23.8906
Q32.3281 33.6875 34.8125 36.5312
Q39.5469 41.8438 41.4219 45.5312
Q43.3125 49.2188 43.3125 52.7812
Q43.3125 58.5938 39.2344 62.25
Q35.1562 65.9219 28.6094 65.9219
Q23.9688 65.9219 18.8125 64.3125
Q13.6719 62.7031 7.8125 59.4219
L7.8125 69.3906
Q13.7656 71.7812 18.9375 73
Q24.125 74.2188 28.4219 74.2188
Q39.75 74.2188 46.4844 68.5469
Q53.2188 62.8906 53.2188 53.4219
Q53.2188 48.9219 51.5312 44.8906
Q49.8594 40.875 45.4062 35.4062
Q44.1875 33.9844 37.6406 27.2188
Q31.1094 20.4531 19.1875 8.29688" id="BitstreamVeraSans-Roman-32"/>
      </defs>
      <g transform="translate(295.0459375 452.5984375)scale(0.1 -0.1)">
       <use xlink:href="#BitstreamVeraSans-Roman-32"/>
      </g>
     </g>
    </g>
    <g id="xtick_5">
     <g id="line2d_10">
      <g>
       <use style="stroke:#000000;stroke-width:0.5;" x="362.46" xlink:href="#mc7db9fdffb" y="441.0"/>
      </g>
     </g>
     <g id="line2d_11">
      <g>
       <use style="stroke:#000000;stroke-width:0.5;" x="362.46" xlink:href="#m5a7d422ac3" y="50.4"/>
      </g>
     </g>
     <g id="text_5">
      <!-- 3 -->
      <defs>
       <path d="
M40.5781 39.3125
Q47.6562 37.7969 51.625 33
Q55.6094 28.2188 55.6094 21.1875
Q55.6094 10.4062 48.1875 4.48438
Q40.7656 -1.42188 27.0938 -1.42188
Q22.5156 -1.42188 17.6562 -0.515625
Q12.7969 0.390625 7.625 2.20312
L7.625 11.7188
Q11.7188 9.32812 16.5938 8.10938
Q21.4844 6.89062 26.8125 6.89062
Q36.0781 6.89062 40.9375 10.5469
Q45.7969 14.2031 45.7969 21.1875
Q45.7969 27.6406 41.2812 31.2656
Q36.7656 34.9062 28.7188 34.9062
L20.2188 34.9062
L20.2188 43.0156
L29.1094 43.0156
Q36.375 43.0156 40.2344 45.9219
Q44.0938 48.8281 44.0938 54.2969
Q44.0938 59.9062 40.1094 62.9062
Q36.1406 65.9219 28.7188 65.9219
Q24.6562 65.9219 20.0156 65.0312
Q15.375 64.1562 9.8125 62.3125
L9.8125 71.0938
Q15.4375 72.6562 20.3438 73.4375
Q25.25 74.2188 29.5938 74.2188
Q40.8281 74.2188 47.3594 69.1094
Q53.9062 64.0156 53.9062 55.3281
Q53.9062 49.2656 50.4375 45.0938
Q46.9688 40.9219 40.5781 39.3125" id="BitstreamVeraSans-Roman-33"/>
      </defs>
      <g transform="translate(360.06078125 452.5984375)scale(0.1 -0.1)">
       <use xlink:href="#BitstreamVeraSans-Roman-33"/>
      </g>
     </g>
    </g>
    <g id="xtick_6">
     <g id="line2d_12">
      <g>
       <use style="stroke:#000000;stroke-width:0.5;" x="427.56" xlink:href="#mc7db9fdffb" y="441.0"/>
      </g>
     </g>
     <g id="line2d_13">
      <g>
       <use style="stroke:#000000;stroke-width:0.5;" x="427.56" xlink:href="#m5a7d422ac3" y="50.4"/>
      </g>
     </g>
     <g id="text_6">
      <!-- 4 -->
      <defs>
       <path d="
M37.7969 64.3125
L12.8906 25.3906
L37.7969 25.3906
z

M35.2031 72.9062
L47.6094 72.9062
L47.6094 25.3906
L58.0156 25.3906
L58.0156 17.1875
L47.6094 17.1875
L47.6094 0
L37.7969 0
L37.7969 17.1875
L4.89062 17.1875
L4.89062 26.7031
z
" id="BitstreamVeraSans-Roman-34"/>
      </defs>
      <g transform="translate(424.90375 452.5984375)scale(0.1 -0.1)">
       <use xlink:href="#BitstreamVeraSans-Roman-34"/>
      </g>
     </g>
    </g>
    <g id="text_7">
     <!-- $m$ -->
     <defs>
      <path d="
M7.71875 1.70312
Q7.71875 2.29688 7.8125 2.59375
L15.2812 32.4219
Q16.0156 35.2031 16.0156 37.3125
Q16.0156 41.6094 13.0938 41.6094
Q9.96875 41.6094 8.45312 37.8594
Q6.9375 34.125 5.51562 28.4219
Q5.51562 28.125 5.21875 27.9531
Q4.9375 27.7812 4.6875 27.7812
L3.51562 27.7812
Q3.17188 27.7812 2.92188 28.1406
Q2.6875 28.5156 2.6875 28.8125
Q3.76562 33.1562 4.76562 36.1719
Q5.76562 39.2031 7.89062 41.6875
Q10.0156 44.1875 13.1875 44.1875
Q16.9375 44.1875 19.8125 41.8125
Q22.7031 39.4531 22.7031 35.7969
Q25.6875 39.7031 29.6875 41.9375
Q33.6875 44.1875 38.1875 44.1875
Q42.9219 44.1875 46.3594 41.7656
Q49.8125 39.3594 49.8125 34.9062
Q52.875 39.2656 57 41.7188
Q61.1406 44.1875 66.0156 44.1875
Q71.1875 44.1875 74.3281 41.375
Q77.4844 38.5781 77.4844 33.4062
Q77.4844 29.2969 75.6562 23.4844
Q73.8281 17.6719 71.0938 10.5
Q69.6719 7.03125 69.6719 4.5
Q69.6719 1.51562 72.0156 1.51562
Q75.9219 1.51562 78.5156 5.70312
Q81.1094 9.90625 82.1719 14.7031
Q82.4688 15.2812 83.0156 15.2812
L84.1875 15.2812
Q84.5781 15.2812 84.8438 15.0156
Q85.1094 14.75 85.1094 14.4062
Q85.1094 14.3125 85.0156 14.1094
Q83.6406 8.45312 80.25 3.65625
Q76.8594 -1.125 71.7812 -1.125
Q68.2656 -1.125 65.7656 1.29688
Q63.2812 3.71875 63.2812 7.17188
Q63.2812 8.9375 64.1094 11.0781
Q66.9375 18.6094 68.8125 24.5156
Q70.7031 30.4219 70.7031 34.9062
Q70.7031 37.7031 69.5781 39.6562
Q68.4531 41.6094 65.8281 41.6094
Q60.3594 41.6094 56.3438 38.25
Q52.3438 34.9062 49.4219 29.3906
Q49.2188 28.4219 49.125 27.875
L42.6719 2.20312
Q42.3281 0.828125 41.125 -0.140625
Q39.9375 -1.125 38.4844 -1.125
Q37.3125 -1.125 36.4062 -0.34375
Q35.5 0.4375 35.5 1.70312
Q35.5 2.29688 35.5938 2.59375
L42 28.0781
Q43.0156 32.1719 43.0156 34.9062
Q43.0156 37.7031 41.8594 39.6562
Q40.7188 41.6094 37.9844 41.6094
Q34.3281 41.6094 31.25 39.9844
Q28.1719 38.375 25.875 35.7188
Q23.5781 33.0625 21.6875 29.3906
L14.8906 2.20312
Q14.5469 0.828125 13.3438 -0.140625
Q12.1562 -1.125 10.6875 -1.125
Q9.46875 -1.125 8.59375 -0.34375
Q7.71875 0.4375 7.71875 1.70312" id="Cmmi10-6d"/>
     </defs>
     <g transform="translate(247.3 478.67421875)scale(0.25 -0.25)">
      <use transform="translate(0.0 0.8125)" xlink:href="#Cmmi10-6d"/>
     </g>
    </g>
   </g>
   <g id="matplotlib.axis_2">
    <g id="ytick_1">
     <g id="line2d_14">
      <defs>
       <path d="
M0 0
L4 0" id="md7965d1ba0" style="stroke:#000000;stroke-width:0.5;"/>
      </defs>
      <g>
       <use style="stroke:#000000;stroke-width:0.5;" x="63.0" xlink:href="#md7965d1ba0" y="434.49"/>
      </g>
     </g>
     <g id="line2d_15">
      <defs>
       <path d="
M0 0
L-4 0" id="md9a1c1a7cd" style="stroke:#000000;stroke-width:0.5;"/>
      </defs>
      <g>
       <use style="stroke:#000000;stroke-width:0.5;" x="453.6" xlink:href="#md9a1c1a7cd" y="434.49"/>
      </g>
     </g>
     <g id="text_8">
      <!-- −6 -->
      <defs>
       <path d="
M33.0156 40.375
Q26.375 40.375 22.4844 35.8281
Q18.6094 31.2969 18.6094 23.3906
Q18.6094 15.5312 22.4844 10.9531
Q26.375 6.39062 33.0156 6.39062
Q39.6562 6.39062 43.5312 10.9531
Q47.4062 15.5312 47.4062 23.3906
Q47.4062 31.2969 43.5312 35.8281
Q39.6562 40.375 33.0156 40.375
M52.5938 71.2969
L52.5938 62.3125
Q48.875 64.0625 45.0938 64.9844
Q41.3125 65.9219 37.5938 65.9219
Q27.8281 65.9219 22.6719 59.3281
Q17.5312 52.7344 16.7969 39.4062
Q19.6719 43.6562 24.0156 45.9219
Q28.375 48.1875 33.5938 48.1875
Q44.5781 48.1875 50.9531 41.5156
Q57.3281 34.8594 57.3281 23.3906
Q57.3281 12.1562 50.6875 5.35938
Q44.0469 -1.42188 33.0156 -1.42188
Q20.3594 -1.42188 13.6719 8.26562
Q6.98438 17.9688 6.98438 36.375
Q6.98438 53.6562 15.1875 63.9375
Q23.3906 74.2188 37.2031 74.2188
Q40.9219 74.2188 44.7031 73.4844
Q48.4844 72.75 52.5938 71.2969" id="BitstreamVeraSans-Roman-36"/>
      </defs>
      <g transform="translate(45.946875 437.249375)scale(0.1 -0.1)">
       <use xlink:href="#BitstreamVeraSans-Roman-2212"/>
       <use x="83.7890625" xlink:href="#BitstreamVeraSans-Roman-36"/>
      </g>
     </g>
    </g>
    <g id="ytick_2">
     <g id="line2d_16">
      <g>
       <use style="stroke:#000000;stroke-width:0.5;" x="63.0" xlink:href="#md7965d1ba0" y="369.39"/>
      </g>
     </g>
     <g id="line2d_17">
      <g>
       <use style="stroke:#000000;stroke-width:0.5;" x="453.6" xlink:href="#md9a1c1a7cd" y="369.39"/>
      </g>
     </g>
     <g id="text_9">
      <!-- −5 -->
      <defs>
       <path d="
M10.7969 72.9062
L49.5156 72.9062
L49.5156 64.5938
L19.8281 64.5938
L19.8281 46.7344
Q21.9688 47.4688 24.1094 47.8281
Q26.2656 48.1875 28.4219 48.1875
Q40.625 48.1875 47.75 41.5
Q54.8906 34.8125 54.8906 23.3906
Q54.8906 11.625 47.5625 5.09375
Q40.2344 -1.42188 26.9062 -1.42188
Q22.3125 -1.42188 17.5469 -0.640625
Q12.7969 0.140625 7.71875 1.70312
L7.71875 11.625
Q12.1094 9.23438 16.7969 8.0625
Q21.4844 6.89062 26.7031 6.89062
Q35.1562 6.89062 40.0781 11.3281
Q45.0156 15.7656 45.0156 23.3906
Q45.0156 31 40.0781 35.4375
Q35.1562 39.8906 26.7031 39.8906
Q22.75 39.8906 18.8125 39.0156
Q14.8906 38.1406 10.7969 36.2812
z
" id="BitstreamVeraSans-Roman-35"/>
      </defs>
      <g transform="translate(46.190625 372.149375)scale(0.1 -0.1)">
       <use xlink:href="#BitstreamVeraSans-Roman-2212"/>
       <use x="83.7890625" xlink:href="#BitstreamVeraSans-Roman-35"/>
      </g>
     </g>
    </g>
    <g id="ytick_3">
     <g id="line2d_18">
      <g>
       <use style="stroke:#000000;stroke-width:0.5;" x="63.0" xlink:href="#md7965d1ba0" y="304.29"/>
      </g>
     </g>
     <g id="line2d_19">
      <g>
       <use style="stroke:#000000;stroke-width:0.5;" x="453.6" xlink:href="#md9a1c1a7cd" y="304.29"/>
      </g>
     </g>
     <g id="text_10">
      <!-- −4 -->
      <g transform="translate(45.878125 307.049375)scale(0.1 -0.1)">
       <use xlink:href="#BitstreamVeraSans-Roman-2212"/>
       <use x="83.7890625" xlink:href="#BitstreamVeraSans-Roman-34"/>
      </g>
     </g>
    </g>
    <g id="ytick_4">
     <g id="line2d_20">
      <g>
       <use style="stroke:#000000;stroke-width:0.5;" x="63.0" xlink:href="#md7965d1ba0" y="239.19"/>
      </g>
     </g>
     <g id="line2d_21">
      <g>
       <use style="stroke:#000000;stroke-width:0.5;" x="453.6" xlink:href="#md9a1c1a7cd" y="239.19"/>
      </g>
     </g>
     <g id="text_11">
      <!-- −3 -->
      <g transform="translate(46.11875 241.949375)scale(0.1 -0.1)">
       <use xlink:href="#BitstreamVeraSans-Roman-2212"/>
       <use x="83.7890625" xlink:href="#BitstreamVeraSans-Roman-33"/>
      </g>
     </g>
    </g>
    <g id="ytick_5">
     <g id="line2d_22">
      <g>
       <use style="stroke:#000000;stroke-width:0.5;" x="63.0" xlink:href="#md7965d1ba0" y="174.09"/>
      </g>
     </g>
     <g id="line2d_23">
      <g>
       <use style="stroke:#000000;stroke-width:0.5;" x="453.6" xlink:href="#md9a1c1a7cd" y="174.09"/>
      </g>
     </g>
     <g id="text_12">
      <!-- −2 -->
      <g transform="translate(46.31875 176.849375)scale(0.1 -0.1)">
       <use xlink:href="#BitstreamVeraSans-Roman-2212"/>
       <use x="83.7890625" xlink:href="#BitstreamVeraSans-Roman-32"/>
      </g>
     </g>
    </g>
    <g id="ytick_6">
     <g id="line2d_24">
      <g>
       <use style="stroke:#000000;stroke-width:0.5;" x="63.0" xlink:href="#md7965d1ba0" y="108.99"/>
      </g>
     </g>
     <g id="line2d_25">
      <g>
       <use style="stroke:#000000;stroke-width:0.5;" x="453.6" xlink:href="#md9a1c1a7cd" y="108.99"/>
      </g>
     </g>
     <g id="text_13">
      <!-- −1 -->
      <g transform="translate(46.240625 111.749375)scale(0.1 -0.1)">
       <use xlink:href="#BitstreamVeraSans-Roman-2212"/>
       <use x="83.7890625" xlink:href="#BitstreamVeraSans-Roman-31"/>
      </g>
     </g>
    </g>
    <g id="text_14">
     <!-- $c$ -->
     <defs>
      <path d="
M11.7188 11.9219
Q11.7188 7.5625 13.9375 4.53125
Q16.1562 1.51562 20.3125 1.51562
Q26.2656 1.51562 31.75 4.25
Q37.25 6.98438 40.7188 11.8125
Q41.0156 12.1094 41.5 12.1094
Q42 12.1094 42.5 11.5469
Q43.0156 10.9844 43.0156 10.5
Q43.0156 10.1094 42.8281 9.90625
Q39.1562 4.78125 32.9531 1.82812
Q26.7656 -1.125 20.125 -1.125
Q15.3281 -1.125 11.6719 1.14062
Q8.01562 3.42188 6 7.21875
Q4 11.0312 4 15.8281
Q4 22.5625 7.76562 29.2031
Q11.5312 35.8438 17.7812 40.0156
Q24.0312 44.1875 30.9062 44.1875
Q35.4062 44.1875 38.9844 42.0156
Q42.5781 39.8438 42.5781 35.5938
Q42.5781 32.8594 40.9844 30.9219
Q39.4062 29 36.7188 29
Q35.1094 29 34 30
Q32.9062 31 32.9062 32.625
Q32.9062 34.9688 34.6094 36.625
Q36.3281 38.2812 38.625 38.2812
L38.8125 38.2812
Q37.6406 39.9844 35.4219 40.7969
Q33.2031 41.6094 30.8125 41.6094
Q24.9531 41.6094 20.5469 36.5938
Q16.1562 31.5938 13.9375 24.625
Q11.7188 17.6719 11.7188 11.9219" id="Cmmi10-63"/>
     </defs>
     <g transform="translate(35.67890625 251.2)rotate(-90.0)scale(0.25 -0.25)">
      <use transform="translate(0.0 0.8125)" xlink:href="#Cmmi10-63"/>
     </g>
    </g>
   </g>
   <g id="text_15">
    <g clip-path="url(#p41d7ee9abc)">
     <!-- 0.500 -->
     <defs>
      <path d="
M10.6875 12.4062
L21 12.4062
L21 0
L10.6875 0
z
" id="BitstreamVeraSans-Roman-2e"/>
     </defs>
     <g style="fill:#000089;" transform="translate(230.448151054 254.52653583)rotate(-52.02833843061334)scale(0.15 -0.15)">
      <use xlink:href="#BitstreamVeraSans-Roman-30"/>
      <use x="63.623046875" xlink:href="#BitstreamVeraSans-Roman-2e"/>
      <use x="95.41015625" xlink:href="#BitstreamVeraSans-Roman-35"/>
      <use x="159.033203125" xlink:href="#BitstreamVeraSans-Roman-30"/>
      <use x="222.65625" xlink:href="#BitstreamVeraSans-Roman-30"/>
     </g>
    </g>
   </g>
   <g id="text_16">
    <g clip-path="url(#p41d7ee9abc)">
     <!-- 1.000 -->
     <g style="fill:#000092;" transform="translate(271.367594756 268.082897631)rotate(-40.696053075424004)scale(0.15 -0.15)">
      <use xlink:href="#BitstreamVeraSans-Roman-31"/>
      <use x="63.623046875" xlink:href="#BitstreamVeraSans-Roman-2e"/>
      <use x="95.41015625" xlink:href="#BitstreamVeraSans-Roman-30"/>
      <use x="159.033203125" xlink:href="#BitstreamVeraSans-Roman-30"/>
      <use x="222.65625" xlink:href="#BitstreamVeraSans-Roman-30"/>
     </g>
    </g>
   </g>
   <g id="text_17">
    <g clip-path="url(#p41d7ee9abc)">
     <!-- 2.000 -->
     <g style="fill:#0000a4;" transform="translate(313.281876528 167.857709571)rotate(-318.3365086510166)scale(0.15 -0.15)">
      <use xlink:href="#BitstreamVeraSans-Roman-32"/>
      <use x="63.623046875" xlink:href="#BitstreamVeraSans-Roman-2e"/>
      <use x="95.41015625" xlink:href="#BitstreamVeraSans-Roman-30"/>
      <use x="159.033203125" xlink:href="#BitstreamVeraSans-Roman-30"/>
      <use x="222.65625" xlink:href="#BitstreamVeraSans-Roman-30"/>
     </g>
    </g>
   </g>
   <g id="text_18">
    <g clip-path="url(#p41d7ee9abc)">
     <!-- 4.000 -->
     <g style="fill:#0000c8;" transform="translate(242.86278132 316.610984679)rotate(-29.32878042219832)scale(0.15 -0.15)">
      <use xlink:href="#BitstreamVeraSans-Roman-34"/>
      <use x="63.623046875" xlink:href="#BitstreamVeraSans-Roman-2e"/>
      <use x="95.41015625" xlink:href="#BitstreamVeraSans-Roman-30"/>
      <use x="159.033203125" xlink:href="#BitstreamVeraSans-Roman-30"/>
      <use x="222.65625" xlink:href="#BitstreamVeraSans-Roman-30"/>
     </g>
    </g>
   </g>
   <g id="text_19">
    <g clip-path="url(#p41d7ee9abc)">
     <!-- 8.000 -->
     <defs>
      <path d="
M31.7812 34.625
Q24.75 34.625 20.7188 30.8594
Q16.7031 27.0938 16.7031 20.5156
Q16.7031 13.9219 20.7188 10.1562
Q24.75 6.39062 31.7812 6.39062
Q38.8125 6.39062 42.8594 10.1719
Q46.9219 13.9688 46.9219 20.5156
Q46.9219 27.0938 42.8906 30.8594
Q38.875 34.625 31.7812 34.625
M21.9219 38.8125
Q15.5781 40.375 12.0312 44.7188
Q8.5 49.0781 8.5 55.3281
Q8.5 64.0625 14.7188 69.1406
Q20.9531 74.2188 31.7812 74.2188
Q42.6719 74.2188 48.875 69.1406
Q55.0781 64.0625 55.0781 55.3281
Q55.0781 49.0781 51.5312 44.7188
Q48 40.375 41.7031 38.8125
Q48.8281 37.1562 52.7969 32.3125
Q56.7812 27.4844 56.7812 20.5156
Q56.7812 9.90625 50.3125 4.23438
Q43.8438 -1.42188 31.7812 -1.42188
Q19.7344 -1.42188 13.25 4.23438
Q6.78125 9.90625 6.78125 20.5156
Q6.78125 27.4844 10.7812 32.3125
Q14.7969 37.1562 21.9219 38.8125
M18.3125 54.3906
Q18.3125 48.7344 21.8438 45.5625
Q25.3906 42.3906 31.7812 42.3906
Q38.1406 42.3906 41.7188 45.5625
Q45.3125 48.7344 45.3125 54.3906
Q45.3125 60.0625 41.7188 63.2344
Q38.1406 66.4062 31.7812 66.4062
Q25.3906 66.4062 21.8438 63.2344
Q18.3125 60.0625 18.3125 54.3906" id="BitstreamVeraSans-Roman-38"/>
     </defs>
     <g style="fill:#0000ff;" transform="translate(188.934213239 204.847037994)rotate(-40.1372205478712)scale(0.15 -0.15)">
      <use xlink:href="#BitstreamVeraSans-Roman-38"/>
      <use x="63.623046875" xlink:href="#BitstreamVeraSans-Roman-2e"/>
      <use x="95.41015625" xlink:href="#BitstreamVeraSans-Roman-30"/>
      <use x="159.033203125" xlink:href="#BitstreamVeraSans-Roman-30"/>
      <use x="222.65625" xlink:href="#BitstreamVeraSans-Roman-30"/>
     </g>
    </g>
   </g>
   <g id="text_20">
    <g clip-path="url(#p41d7ee9abc)">
     <!-- 16.000 -->
     <g style="fill:#0080ff;" transform="translate(220.762619015 138.474284748)rotate(-33.03624637728746)scale(0.15 -0.15)">
      <use xlink:href="#BitstreamVeraSans-Roman-31"/>
      <use x="63.623046875" xlink:href="#BitstreamVeraSans-Roman-36"/>
      <use x="127.24609375" xlink:href="#BitstreamVeraSans-Roman-2e"/>
      <use x="159.033203125" xlink:href="#BitstreamVeraSans-Roman-30"/>
      <use x="222.65625" xlink:href="#BitstreamVeraSans-Roman-30"/>
      <use x="286.279296875" xlink:href="#BitstreamVeraSans-Roman-30"/>
     </g>
    </g>
   </g>
   <g id="text_21">
    <g clip-path="url(#p41d7ee9abc)">
     <!-- 16.000 -->
     <g style="fill:#0080ff;" transform="translate(388.427432836 275.582019406)rotate(-47.237492611952746)scale(0.15 -0.15)">
      <use xlink:href="#BitstreamVeraSans-Roman-31"/>
      <use x="63.623046875" xlink:href="#BitstreamVeraSans-Roman-36"/>
      <use x="127.24609375" xlink:href="#BitstreamVeraSans-Roman-2e"/>
      <use x="159.033203125" xlink:href="#BitstreamVeraSans-Roman-30"/>
      <use x="222.65625" xlink:href="#BitstreamVeraSans-Roman-30"/>
      <use x="286.279296875" xlink:href="#BitstreamVeraSans-Roman-30"/>
     </g>
    </g>
   </g>
   <g id="text_22">
    <g clip-path="url(#p41d7ee9abc)">
     <!-- 32.000 -->
     <g style="fill:#7dff7a;" transform="translate(280.974292388 414.650033747)rotate(-33.34771747978886)scale(0.15 -0.15)">
      <use xlink:href="#BitstreamVeraSans-Roman-33"/>
      <use x="63.623046875" xlink:href="#BitstreamVeraSans-Roman-32"/>
      <use x="127.24609375" xlink:href="#BitstreamVeraSans-Roman-2e"/>
      <use x="159.033203125" xlink:href="#BitstreamVeraSans-Roman-30"/>
      <use x="222.65625" xlink:href="#BitstreamVeraSans-Roman-30"/>
      <use x="286.279296875" xlink:href="#BitstreamVeraSans-Roman-30"/>
     </g>
    </g>
   </g>
   <g id="text_23">
    <g clip-path="url(#p41d7ee9abc)">
     <!-- 32.000 -->
     <g style="fill:#7dff7a;" transform="translate(106.126967614 175.268717387)rotate(-41.66208598767811)scale(0.15 -0.15)">
      <use xlink:href="#BitstreamVeraSans-Roman-33"/>
      <use x="63.623046875" xlink:href="#BitstreamVeraSans-Roman-32"/>
      <use x="127.24609375" xlink:href="#BitstreamVeraSans-Roman-2e"/>
      <use x="159.033203125" xlink:href="#BitstreamVeraSans-Roman-30"/>
      <use x="222.65625" xlink:href="#BitstreamVeraSans-Roman-30"/>
      <use x="286.279296875" xlink:href="#BitstreamVeraSans-Roman-30"/>
     </g>
    </g>
   </g>
   <g id="text_24">
    <g clip-path="url(#p41d7ee9abc)">
     <!-- 64.000 -->
     <g style="fill:#800000;" transform="translate(385.041210343 420.137811036)rotate(-38.177681591699496)scale(0.15 -0.15)">
      <use xlink:href="#BitstreamVeraSans-Roman-36"/>
      <use x="63.623046875" xlink:href="#BitstreamVeraSans-Roman-34"/>
      <use x="127.24609375" xlink:href="#BitstreamVeraSans-Roman-2e"/>
      <use x="159.033203125" xlink:href="#BitstreamVeraSans-Roman-30"/>
      <use x="222.65625" xlink:href="#BitstreamVeraSans-Roman-30"/>
      <use x="286.279296875" xlink:href="#BitstreamVeraSans-Roman-30"/>
     </g>
    </g>
   </g>
   <g id="text_25">
    <g clip-path="url(#p41d7ee9abc)">
     <!-- 64.000 -->
     <g style="fill:#800000;" transform="translate(89.4494640447 104.532002012)rotate(-39.13534353811106)scale(0.15 -0.15)">
      <use xlink:href="#BitstreamVeraSans-Roman-36"/>
      <use x="63.623046875" xlink:href="#BitstreamVeraSans-Roman-34"/>
      <use x="127.24609375" xlink:href="#BitstreamVeraSans-Roman-2e"/>
      <use x="159.033203125" xlink:href="#BitstreamVeraSans-Roman-30"/>
      <use x="222.65625" xlink:href="#BitstreamVeraSans-Roman-30"/>
      <use x="286.279296875" xlink:href="#BitstreamVeraSans-Roman-30"/>
     </g>
    </g>
   </g>
  </g>
 </g>
 <defs>
  <clipPath id="p41d7ee9abc">
   <rect height="390.6" width="390.6" x="63.0" y="50.4"/>
  </clipPath>
 </defs>
</svg>
