<?xml version="1.0" encoding="utf-8" standalone="no"?>
<!DOCTYPE svg PUBLIC "-//W3C//DTD SVG 1.1//EN"
  "http://www.w3.org/Graphics/SVG/1.1/DTD/svg11.dtd">
<!-- Created with matplotlib (http://matplotlib.org/) -->
<svg height="360pt" version="1.1" viewBox="0 0 360 360" width="360pt" xmlns="http://www.w3.org/2000/svg" xmlns:xlink="http://www.w3.org/1999/xlink">
 <defs>
  <style type="text/css">
*{stroke-linecap:butt;stroke-linejoin:round;}
  </style>
 </defs>
 <g id="figure_1">
  <g id="patch_1">
   <path d="
M0 360
L360 360
L360 0
L0 0
z
" style="fill:#ffffff;"/>
  </g>
  <g id="axes_1">
   <g id="patch_2">
    <path d="
M45 315
L324 315
L324 36
L45 36
z
" style="fill:#ffffff;"/>
   </g>
   <g id="LineCollection_1"/>
   <g id="LineCollection_2">
    <path clip-path="url(#pd0c2820aef)" d="
M185.909 174.335
L184.753 174.091
L183.091 173.594
L180.273 171.584
L179.978 171.273
L178.368 168.455
L178.051 165.636
L180.273 163.158
L183.091 163.249
L185.909 164.753
L186.916 165.636
L188.727 168.023
L188.969 168.455
L189.388 171.273
L188.727 172.884
L186.933 174.091
L185.909 174.335" style="fill:none;stroke:#000089;"/>
   </g>
   <g id="LineCollection_3">
    <path clip-path="url(#pd0c2820aef)" d="
M183.091 185.672
L182.403 185.364
L180.273 184.308
L177.455 182.627
L177.34 182.545
L174.636 180.407
L173.877 179.727
L171.818 177.656
L171.153 176.909
L169 174.149
L168.959 174.091
L167.32 171.273
L166.182 168.872
L166.002 168.455
L165.167 165.636
L164.719 162.818
L164.739 160
L165.336 157.182
L166.182 155.32
L166.779 154.364
L169 152.161
L169.99 151.545
L171.818 150.723
L174.636 150.106
L177.455 150.042
L180.273 150.428
L183.091 151.187
L184.001 151.545
L185.909 152.377
L188.727 153.916
L189.409 154.364
L191.545 155.924
L193.054 157.182
L194.364 158.411
L195.87 160
L197.182 161.582
L198.104 162.818
L199.902 165.636
L200 165.832
L201.188 168.455
L202.133 171.273
L202.68 174.091
L202.74 176.909
L202.192 179.727
L200.871 182.545
L200 183.665
L198.059 185.364
L197.182 185.903
L194.364 186.924
L191.545 187.3
L188.727 187.156
L185.909 186.589
L183.091 185.672" style="fill:none;stroke:#000092;"/>
   </g>
   <g id="LineCollection_4">
    <path clip-path="url(#pd0c2820aef)" d="
M156.699 143.002
L157.727 142.006
L160.037 140.273
L160.545 139.962
L163.364 138.678
L166.182 137.841
L168.586 137.455
L169 137.397
L171.818 137.297
L174.447 137.455
L174.636 137.467
L177.455 137.917
L180.273 138.601
L183.091 139.495
L185.1 140.273
L185.909 140.606
L188.727 141.976
L190.764 143.091
L191.545 143.546
L194.364 145.381
L195.102 145.909
L197.182 147.497
L198.673 148.727
L200 149.901
L201.729 151.545
L202.818 152.661
L204.371 154.364
L205.636 155.866
L206.677 157.182
L208.455 159.635
L208.704 160
L210.421 162.818
L211.273 164.391
L211.909 165.636
L213.143 168.455
L214.091 171.042
L214.171 171.273
L214.906 174.091
L215.409 176.909
L215.651 179.727
L215.599 182.545
L215.216 185.364
L214.455 188.182
L214.091 189.071
L213.148 191
L211.273 193.723
L211.191 193.818
L208.455 196.302
L207.97 196.636
L205.636 197.95
L202.818 199.054
L201.182 199.455
L200 199.7
L197.182 199.973
L194.364 199.955
L191.545 199.678
L190.335 199.455
L188.727 199.139
L185.909 198.351
L183.091 197.362
L181.367 196.636
L180.273 196.147
L177.455 194.687
L175.959 193.818
L174.636 193
L171.818 191.081
L171.71 191
L170.164 189.764" style="fill:none;stroke:#0000a4;"/>
   </g>
   <g id="LineCollection_5">
    <path clip-path="url(#pd0c2820aef)" d="
M215.056 147.101
L216.458 148.727
L216.909 149.281
L218.679 151.545
L219.727 152.968
L220.715 154.364
L222.545 157.115
L222.588 157.182
L224.248 160
L225.364 162.04
L225.773 162.818
L227.116 165.636
L228.182 168.106
L228.326 168.455
L229.345 171.273
L230.227 174.091
L230.96 176.909
L231 177.112
L231.499 179.727
L231.872 182.545
L232.068 185.364
L232.074 188.182
L231.872 191
L231.447 193.818
L231 195.718
L230.76 196.636
L229.746 199.455
L228.411 202.273
L228.182 202.667
L226.579 205.091
L225.364 206.607
L224.156 207.909
L222.545 209.386
L220.81 210.727
L219.727 211.456
L216.909 213.015
L215.706 213.545
L214.091 214.178
L211.273 215.019
L208.455 215.605
L205.636 215.958
L202.818 216.096
L200 216.038
L197.182 215.798
L194.364 215.389
L191.545 214.824
L188.727 214.115
L186.841 213.545
L185.909 213.252
L183.091 212.221
L180.273 211.068
L179.528 210.727
L177.455 209.741
L174.636 208.283
L173.973 207.909
L171.818 206.645
L169.333 205.091
L169 204.874
L166.182 202.904
L165.329 202.273
L163.364 200.753
L161.77 199.455
L160.545 198.411
L158.563 196.636
L157.727 195.852
L155.66 193.818
L154.909 193.042
L153.021 191
L152.091 189.94
L150.613 188.182
L149.273 186.497
L148.407 185.364
L146.455 182.652
L146.381 182.545
L144.57 179.727
L143.636 178.168
L142.911 176.909
L141.417 174.091
L140.818 172.846
L140.089 171.273
L138.92 168.455
L138 165.946
L137.89 165.636
L137.052 162.818
L136.361 160
L135.828 157.182
L135.466 154.364
L135.288 151.545
L135.312 148.727
L135.553 145.909
L136.031 143.091
L136.769 140.273
L137.79 137.455
L138 136.998
L139.225 134.636
L140.818 132.182
L141.089 131.818
L143.603 129
L143.636 128.968
L146.455 126.657
L147.152 126.182
L149.273 124.918
L152.091 123.575
L152.656 123.364
L154.909 122.612
L157.727 121.928
L160.545 121.482
L163.364 121.256
L166.182 121.232
L168.977 121.393" style="fill:none;stroke:#0000c8;"/>
   </g>
   <g id="LineCollection_6">
    <path clip-path="url(#pd0c2820aef)" d="
M223.818 236.296
L222.545 236.608
L219.727 237.138
L216.909 237.513
L214.091 237.741
L211.273 237.83
L208.455 237.788
L205.636 237.621
L202.818 237.337
L197.182 236.438
L194.364 235.822
L188.727 234.264
L185.701 233.273
L180.273 231.174
L177.455 229.942
L171.818 227.162
L166.182 223.951
L163.073 222
L157.727 218.289
L154.909 216.166
L151.671 213.545
L146.455 208.915
L142.555 205.091
L139.89 202.273
L137.385 199.455
L135.027 196.636
L130.756 191
L128.805 188.182
L126.727 184.964
L123.676 179.727
L120.83 174.091
L118.273 168.064
L116.454 162.818
L115.455 159.356
L114.317 154.364
L113.833 151.545
L113.464 148.727
L113.219 145.909
L113.103 143.091
L113.124 140.273
L113.29 137.455
L113.609 134.636
L114.091 131.818
L114.745 129
L115.59 126.182
L116.682 123.364
L118.273 120.035
L119.631 117.727
L121.593 114.909
L123.989 112.091
L126.977 109.273
L130.802 106.455
L132.364 105.494
L135.957 103.636
L138 102.774
L140.818 101.78
L144.332 100.818
L146.455 100.372
L149.273 99.9357
L152.091 99.648
L154.909 99.5014
L157.727 99.4882
L160.545 99.6014
L163.364 99.8346
L169 100.637
L171.818 101.212
L177.455 102.678
L180.519 103.636
L185.909 105.638
L188.727 106.824
L194.364 109.513
L200 112.631
L205.636 116.194
L208.455 118.14
L211.701 120.545
L216.909 124.783
L221.576 129
L225.364 132.764
L229.652 137.455
L232.025 140.273
L234.26 143.091
L236.636 146.303
L240.157 151.545
L243.483 157.182
L245.091 160.202
L247.645 165.636
L248.803 168.455
L250.82 174.091
L252.376 179.727
L253.509 185.364
L253.886 188.182
L254.142 191
L254.273 193.818
L254.268 196.718
L254.268 196.718" style="fill:none;stroke:#0000ff;"/>
   </g>
   <g id="LineCollection_7">
    <path clip-path="url(#pd0c2820aef)" d="
M127.708 223.999
L123.909 220.183
L120.334 216.364
L115.424 210.727
L110.939 205.091
L106.811 199.455
L103.051 193.818
L99.6157 188.182
L96.4993 182.545
L93.6955 176.909
L91.198 171.273
L89.001 165.636
L87.0986 160
L85.5166 154.364
L84.2314 148.727
L83.2817 143.091
L82.6587 137.455
L82.3874 131.818
L82.4956 126.182
L83.0141 120.545
L83.4377 117.727
L84.4545 112.861
L84.6435 112.091
L85.4587 109.273
L87.2727 104.231
L87.5161 103.636
L88.8132 100.818
L90.2838 98
L92.9091 93.8117
L93.9415 92.3636
L96.1713 89.5455
L98.7462 86.7273
L101.751 83.9091
L105.301 81.0909
L107 79.9025
L109.818 78.1173
L112.636 76.578
L115.455 75.2137
L118.273 74.045
L122.289 72.6364
L123.909 72.1468
L126.727 71.4141
L129.545 70.8006
L135.182 69.9117
L138 69.6339
L143.636 69.3739
L149.273 69.476
L154.909 69.9176
L160.545 70.6928
L166.182 71.7677
L171.818 73.1369
L177.455 74.8003
L183.091 76.751
L188.727 78.98
L194.364 81.4938
L200 84.299
L205.636 87.4026
L211.273 90.8116
L216.909 94.5333
L222.545 98.5946
L228.182 103.017
L232.25 106.455
L236.636 110.402
L241.305 114.909
L245.091 118.821
L249.207 123.364
L253.936 129
L258.262 134.636
L262.235 140.273
L265.851 145.909
L269.147 151.545
L272.128 157.182
L274.8 162.818
L277.17 168.455
L279.243 174.091
L281.004 179.727
L282.46 185.364
L283.601 191
L284.424 196.636
L284.895 202.273
L285.005 207.909
L284.73 213.545
L284.435 216.364
L284.022 219.182
L283.491 222
L282.839 224.818
L281.727 228.671
L281.124 230.455
L280.031 233.273
L278.781 236.091
L277.316 238.909
L275.657 241.727
L273.273 245.184
L270.455 248.63
L267.636 251.562
L264.818 254.088
L262 256.287
L258.481 258.636
L256.364 259.869
L253.316 261.455
L250.727 262.611
L246.331 264.273
L245.091 264.681
L242.273 265.489
L239.455 266.173
L234.467 267.091
L231 267.525
L225.364 267.895
L219.727 267.894
L214.091 267.548
L208.455 266.874
L202.818 265.878
L197.182 264.596
L191.545 263.01
L185.909 261.15
L179.774 258.792
L179.774 258.792" style="fill:none;stroke:#0080ff;"/>
   </g>
   <g id="LineCollection_8">
    <path clip-path="url(#pd0c2820aef)" d="
M324 252.001
L323.704 253
L322.776 255.818
L321.75 258.636
L321.182 260.062
L320.605 261.455
L319.334 264.273
L318.364 266.254
L317.937 267.091
L316.39 269.909
L315.545 271.339
L314.69 272.727
L312.828 275.545
L312.727 275.688
L311.006 278.03" style="fill:none;stroke:#7dff7a;"/>
    <path clip-path="url(#pd0c2820aef)" d="
M257.691 308.597
L253.545 309.209
L247.909 309.763
L242.273 310.039
L236.636 310.056
L231 309.827
L225.358 309.364
L219.727 308.664
L214.091 307.749
L208.087 306.545
L202.818 305.287
L197.092 303.727
L191.545 302.005
L185.909 300.064
L180.273 297.927
L173.924 295.273
L167.762 292.455
L162.068 289.636
L156.756 286.818
L151.759 284
L146.455 280.819
L140.818 277.221
L134.225 272.727
L129.545 269.34
L122.958 264.273
L116.127 258.636
L112.636 255.597
L106.731 250.182
L100.965 244.545
L95.5493 238.909
L90.0909 232.848
L84.4545 226.14
L81.1672 222
L76 215.078
L72.9398 210.727
L69.2024 205.091
L65.6941 199.455
L61.9091 192.914
L59.0909 187.676
L56.2727 182.045
L53.4545 175.922
L50.6364 169.177
L49.2806 165.636
L47.2894 160
L45 152.581
L45 152.581" style="fill:none;stroke:#7dff7a;"/>
    <path clip-path="url(#pd0c2820aef)" d="
M324 190.834
L323.33 188.182
L322.567 185.364
L321.755 182.545
L321.182 180.673
L320.888 179.727
L319.962 176.909
L318.989 174.091
L318.364 172.366
L317.962 171.273
L316.877 168.455
L315.749 165.636
L315.545 165.15
L314.557 162.818
L313.319 160
L313.053 159.418" style="fill:none;stroke:#7dff7a;"/>
    <path clip-path="url(#pd0c2820aef)" d="
M279.122 106.577
L279.02 106.455
L278.909 106.325
L276.575 103.636
L276.091 103.088
L274.056 100.818
L273.273 99.959
L271.46 98
L270.455 96.9317
L268.783 95.1818
L267.636 94.0013
L266.021 92.3636
L264.818 91.1633
L263.171 89.5455
L262 88.4132
L260.229 86.7273
L259.182 85.7468
L257.189 83.9091
L256.364 83.1602
L254.047 81.0909
L253.545 80.6498
L250.798 78.2727
L250.727 78.2122
L247.909 75.8535
L247.424 75.4545
L245.091 73.5641
L243.926 72.6364
L242.273 71.3395
L240.299 69.8182
L239.455 69.1767
L236.636 67.075
L236.534 67
L233.818 65.0461
L232.594 64.1818
L231 63.0724
L228.497 61.3636
L228.182 61.1515
L225.364 59.2978
L224.195 58.5455
L222.545 57.4981
L219.727 55.7459
L219.697 55.7273
L216.909 54.0629
L214.934 52.9091
L214.091 52.4236
L211.273 50.8423
L209.898 50.0909
L208.455 49.3122
L205.636 47.8327
L204.538 47.2727
L202.818 46.4078
L200 45.0308
L198.783 44.4545
L197.182 43.7071
L194.364 42.4331
L192.541 41.6364
L191.545 41.2069
L188.727 40.0364
L185.909 38.9058
L185.681 38.8182
L183.091 37.8375
L180.273 36.8124
L177.94 36" style="fill:none;stroke:#7dff7a;"/>
    <path clip-path="url(#pd0c2820aef)" d="
M45 80.3867
L45.7952 78.2727
L46.9577 75.4545
L47.8182 73.5402
L48.2409 72.6364
L49.6653 69.8182
L50.6364 68.0394
L51.228 67
L52.95 64.1818
L53.4545 63.4091
L54.8506 61.3636
L56.2727 59.4128
L56.935 58.5455
L59.0909 55.8911
L59.2306 55.7273
L61.7756 52.9091
L61.9091 52.7692
L64.6003 50.0909
L64.7273 49.9711
L67.5455 47.4497
L67.7547 47.2727
L70.3636 45.1725
L71.3109 44.4545
L73.1818 43.1018
L75.3426 41.6364
L76 41.2102
L78.8182 39.4957
L80.0114 38.8182
L81.6364 37.934
L84.4545 36.5091
L85.54 36" style="fill:none;stroke:#7dff7a;"/>
   </g>
   <g id="LineCollection_9">
    <path clip-path="url(#pd0c2820aef)" d="
M111.573 315
L109.818 313.734
L107.695 312.182
L107 311.668
L104.182 309.558
L103.926 309.364
L101.364 307.398
L100.266 306.545
L99.9242 306.277" style="fill:none;stroke:#800000;"/>
    <path clip-path="url(#pd0c2820aef)" d="
M53.976 263.295
L53.4545 262.714
L52.3369 261.455
L50.6364 259.515
L49.8739 258.636
L47.8182 256.238
L47.4622 255.818
L45.1017 253
L45 252.877" style="fill:none;stroke:#800000;"/>
    <path clip-path="url(#pd0c2820aef)" d="
M324 86.3968
L321.951 83.9091
L321.182 82.9869
L319.584 81.0909
L318.364 79.6607
L317.167 78.2727
L315.545 76.415
L314.698 75.4545
L312.727 73.2468
L312.177 72.6364
L309.909 70.1533
L309.6 69.8182
L307.091 67.1319
L306.966 67
L304.275 64.1818
L304.273 64.1799
L301.521 61.3636
L301.455 61.2962
L298.707 58.5455
L298.636 58.4759
L295.829 55.7273
L295.818 55.717
L293 53.0194
L292.884 52.9091
L290.182 50.3802
L289.869 50.0909
L287.364 47.7975
L286.784 47.2727
L284.545 45.2693
L283.625 44.4545
L281.727 42.7939
L280.389 41.6364
L278.909 40.3696
L277.075 38.8182
L276.091 37.9947
L273.679 36" style="fill:none;stroke:#800000;"/>
   </g>
   <g id="patch_3">
    <path d="
M45 315
L45 36" style="fill:none;stroke:#000000;stroke-linecap:square;stroke-linejoin:miter;"/>
   </g>
   <g id="patch_4">
    <path d="
M45 36
L324 36" style="fill:none;stroke:#000000;stroke-linecap:square;stroke-linejoin:miter;"/>
   </g>
   <g id="patch_5">
    <path d="
M324 315
L324 36" style="fill:none;stroke:#000000;stroke-linecap:square;stroke-linejoin:miter;"/>
   </g>
   <g id="patch_6">
    <path d="
M45 315
L324 315" style="fill:none;stroke:#000000;stroke-linecap:square;stroke-linejoin:miter;"/>
   </g>
   <g id="matplotlib.axis_1">
    <g id="xtick_1">
     <g id="line2d_1">
      <defs>
       <path d="
M0 0
L0 -4" id="mc7db9fdffb" style="stroke:#000000;stroke-width:0.5;"/>
      </defs>
      <g>
       <use style="stroke:#000000;stroke-width:0.5;" x="72.9" xlink:href="#mc7db9fdffb" y="315.0"/>
      </g>
     </g>
     <g id="line2d_2">
      <defs>
       <path d="
M0 0
L0 4" id="m5a7d422ac3" style="stroke:#000000;stroke-width:0.5;"/>
      </defs>
      <g>
       <use style="stroke:#000000;stroke-width:0.5;" x="72.9" xlink:href="#m5a7d422ac3" y="36.0"/>
      </g>
     </g>
     <g id="text_1">
      <!-- −1 -->
      <defs>
       <path d="
M10.5938 35.5
L73.1875 35.5
L73.1875 27.2031
L10.5938 27.2031
z
" id="BitstreamVeraSans-Roman-2212"/>
       <path d="
M12.4062 8.29688
L28.5156 8.29688
L28.5156 63.9219
L10.9844 60.4062
L10.9844 69.3906
L28.4219 72.9062
L38.2812 72.9062
L38.2812 8.29688
L54.3906 8.29688
L54.3906 0
L12.4062 0
z
" id="BitstreamVeraSans-Roman-31"/>
      </defs>
      <g transform="translate(66.5203125 326.5984375)scale(0.1 -0.1)">
       <use xlink:href="#BitstreamVeraSans-Roman-2212"/>
       <use x="83.7890625" xlink:href="#BitstreamVeraSans-Roman-31"/>
      </g>
     </g>
    </g>
    <g id="xtick_2">
     <g id="line2d_3">
      <g>
       <use style="stroke:#000000;stroke-width:0.5;" x="119.4" xlink:href="#mc7db9fdffb" y="315.0"/>
      </g>
     </g>
     <g id="line2d_4">
      <g>
       <use style="stroke:#000000;stroke-width:0.5;" x="119.4" xlink:href="#m5a7d422ac3" y="36.0"/>
      </g>
     </g>
     <g id="text_2">
      <!-- 0 -->
      <defs>
       <path d="
M31.7812 66.4062
Q24.1719 66.4062 20.3281 58.9062
Q16.5 51.4219 16.5 36.375
Q16.5 21.3906 20.3281 13.8906
Q24.1719 6.39062 31.7812 6.39062
Q39.4531 6.39062 43.2812 13.8906
Q47.125 21.3906 47.125 36.375
Q47.125 51.4219 43.2812 58.9062
Q39.4531 66.4062 31.7812 66.4062
M31.7812 74.2188
Q44.0469 74.2188 50.5156 64.5156
Q56.9844 54.8281 56.9844 36.375
Q56.9844 17.9688 50.5156 8.26562
Q44.0469 -1.42188 31.7812 -1.42188
Q19.5312 -1.42188 13.0625 8.26562
Q6.59375 17.9688 6.59375 36.375
Q6.59375 54.8281 13.0625 64.5156
Q19.5312 74.2188 31.7812 74.2188" id="BitstreamVeraSans-Roman-30"/>
      </defs>
      <g transform="translate(116.88046875 326.5984375)scale(0.1 -0.1)">
       <use xlink:href="#BitstreamVeraSans-Roman-30"/>
      </g>
     </g>
    </g>
    <g id="xtick_3">
     <g id="line2d_5">
      <g>
       <use style="stroke:#000000;stroke-width:0.5;" x="165.9" xlink:href="#mc7db9fdffb" y="315.0"/>
      </g>
     </g>
     <g id="line2d_6">
      <g>
       <use style="stroke:#000000;stroke-width:0.5;" x="165.9" xlink:href="#m5a7d422ac3" y="36.0"/>
      </g>
     </g>
     <g id="text_3">
      <!-- 1 -->
      <g transform="translate(163.7296875 326.5984375)scale(0.1 -0.1)">
       <use xlink:href="#BitstreamVeraSans-Roman-31"/>
      </g>
     </g>
    </g>
    <g id="xtick_4">
     <g id="line2d_7">
      <g>
       <use style="stroke:#000000;stroke-width:0.5;" x="212.4" xlink:href="#mc7db9fdffb" y="315.0"/>
      </g>
     </g>
     <g id="line2d_8">
      <g>
       <use style="stroke:#000000;stroke-width:0.5;" x="212.4" xlink:href="#m5a7d422ac3" y="36.0"/>
      </g>
     </g>
     <g id="text_4">
      <!-- 2 -->
      <defs>
       <path d="
M19.1875 8.29688
L53.6094 8.29688
L53.6094 0
L7.32812 0
L7.32812 8.29688
Q12.9375 14.1094 22.625 23.8906
Q32.3281 33.6875 34.8125 36.5312
Q39.5469 41.8438 41.4219 45.5312
Q43.3125 49.2188 43.3125 52.7812
Q43.3125 58.5938 39.2344 62.25
Q35.1562 65.9219 28.6094 65.9219
Q23.9688 65.9219 18.8125 64.3125
Q13.6719 62.7031 7.8125 59.4219
L7.8125 69.3906
Q13.7656 71.7812 18.9375 73
Q24.125 74.2188 28.4219 74.2188
Q39.75 74.2188 46.4844 68.5469
Q53.2188 62.8906 53.2188 53.4219
Q53.2188 48.9219 51.5312 44.8906
Q49.8594 40.875 45.4062 35.4062
Q44.1875 33.9844 37.6406 27.2188
Q31.1094 20.4531 19.1875 8.29688" id="BitstreamVeraSans-Roman-32"/>
      </defs>
      <g transform="translate(210.0859375 326.5984375)scale(0.1 -0.1)">
       <use xlink:href="#BitstreamVeraSans-Roman-32"/>
      </g>
     </g>
    </g>
    <g id="xtick_5">
     <g id="line2d_9">
      <g>
       <use style="stroke:#000000;stroke-width:0.5;" x="258.9" xlink:href="#mc7db9fdffb" y="315.0"/>
      </g>
     </g>
     <g id="line2d_10">
      <g>
       <use style="stroke:#000000;stroke-width:0.5;" x="258.9" xlink:href="#m5a7d422ac3" y="36.0"/>
      </g>
     </g>
     <g id="text_5">
      <!-- 3 -->
      <defs>
       <path d="
M40.5781 39.3125
Q47.6562 37.7969 51.625 33
Q55.6094 28.2188 55.6094 21.1875
Q55.6094 10.4062 48.1875 4.48438
Q40.7656 -1.42188 27.0938 -1.42188
Q22.5156 -1.42188 17.6562 -0.515625
Q12.7969 0.390625 7.625 2.20312
L7.625 11.7188
Q11.7188 9.32812 16.5938 8.10938
Q21.4844 6.89062 26.8125 6.89062
Q36.0781 6.89062 40.9375 10.5469
Q45.7969 14.2031 45.7969 21.1875
Q45.7969 27.6406 41.2812 31.2656
Q36.7656 34.9062 28.7188 34.9062
L20.2188 34.9062
L20.2188 43.0156
L29.1094 43.0156
Q36.375 43.0156 40.2344 45.9219
Q44.0938 48.8281 44.0938 54.2969
Q44.0938 59.9062 40.1094 62.9062
Q36.1406 65.9219 28.7188 65.9219
Q24.6562 65.9219 20.0156 65.0312
Q15.375 64.1562 9.8125 62.3125
L9.8125 71.0938
Q15.4375 72.6562 20.3438 73.4375
Q25.25 74.2188 29.5938 74.2188
Q40.8281 74.2188 47.3594 69.1094
Q53.9062 64.0156 53.9062 55.3281
Q53.9062 49.2656 50.4375 45.0938
Q46.9688 40.9219 40.5781 39.3125" id="BitstreamVeraSans-Roman-33"/>
      </defs>
      <g transform="translate(256.50078125 326.5984375)scale(0.1 -0.1)">
       <use xlink:href="#BitstreamVeraSans-Roman-33"/>
      </g>
     </g>
    </g>
    <g id="xtick_6">
     <g id="line2d_11">
      <g>
       <use style="stroke:#000000;stroke-width:0.5;" x="305.4" xlink:href="#mc7db9fdffb" y="315.0"/>
      </g>
     </g>
     <g id="line2d_12">
      <g>
       <use style="stroke:#000000;stroke-width:0.5;" x="305.4" xlink:href="#m5a7d422ac3" y="36.0"/>
      </g>
     </g>
     <g id="text_6">
      <!-- 4 -->
      <defs>
       <path d="
M37.7969 64.3125
L12.8906 25.3906
L37.7969 25.3906
z

M35.2031 72.9062
L47.6094 72.9062
L47.6094 25.3906
L58.0156 25.3906
L58.0156 17.1875
L47.6094 17.1875
L47.6094 0
L37.7969 0
L37.7969 17.1875
L4.89062 17.1875
L4.89062 26.7031
z
" id="BitstreamVeraSans-Roman-34"/>
      </defs>
      <g transform="translate(302.74375 326.5984375)scale(0.1 -0.1)">
       <use xlink:href="#BitstreamVeraSans-Roman-34"/>
      </g>
     </g>
    </g>
    <g id="text_7">
     <!-- $m$ -->
     <defs>
      <path d="
M7.71875 1.70312
Q7.71875 2.29688 7.8125 2.59375
L15.2812 32.4219
Q16.0156 35.2031 16.0156 37.3125
Q16.0156 41.6094 13.0938 41.6094
Q9.96875 41.6094 8.45312 37.8594
Q6.9375 34.125 5.51562 28.4219
Q5.51562 28.125 5.21875 27.9531
Q4.9375 27.7812 4.6875 27.7812
L3.51562 27.7812
Q3.17188 27.7812 2.92188 28.1406
Q2.6875 28.5156 2.6875 28.8125
Q3.76562 33.1562 4.76562 36.1719
Q5.76562 39.2031 7.89062 41.6875
Q10.0156 44.1875 13.1875 44.1875
Q16.9375 44.1875 19.8125 41.8125
Q22.7031 39.4531 22.7031 35.7969
Q25.6875 39.7031 29.6875 41.9375
Q33.6875 44.1875 38.1875 44.1875
Q42.9219 44.1875 46.3594 41.7656
Q49.8125 39.3594 49.8125 34.9062
Q52.875 39.2656 57 41.7188
Q61.1406 44.1875 66.0156 44.1875
Q71.1875 44.1875 74.3281 41.375
Q77.4844 38.5781 77.4844 33.4062
Q77.4844 29.2969 75.6562 23.4844
Q73.8281 17.6719 71.0938 10.5
Q69.6719 7.03125 69.6719 4.5
Q69.6719 1.51562 72.0156 1.51562
Q75.9219 1.51562 78.5156 5.70312
Q81.1094 9.90625 82.1719 14.7031
Q82.4688 15.2812 83.0156 15.2812
L84.1875 15.2812
Q84.5781 15.2812 84.8438 15.0156
Q85.1094 14.75 85.1094 14.4062
Q85.1094 14.3125 85.0156 14.1094
Q83.6406 8.45312 80.25 3.65625
Q76.8594 -1.125 71.7812 -1.125
Q68.2656 -1.125 65.7656 1.29688
Q63.2812 3.71875 63.2812 7.17188
Q63.2812 8.9375 64.1094 11.0781
Q66.9375 18.6094 68.8125 24.5156
Q70.7031 30.4219 70.7031 34.9062
Q70.7031 37.7031 69.5781 39.6562
Q68.4531 41.6094 65.8281 41.6094
Q60.3594 41.6094 56.3438 38.25
Q52.3438 34.9062 49.4219 29.3906
Q49.2188 28.4219 49.125 27.875
L42.6719 2.20312
Q42.3281 0.828125 41.125 -0.140625
Q39.9375 -1.125 38.4844 -1.125
Q37.3125 -1.125 36.4062 -0.34375
Q35.5 0.4375 35.5 1.70312
Q35.5 2.29688 35.5938 2.59375
L42 28.0781
Q43.0156 32.1719 43.0156 34.9062
Q43.0156 37.7031 41.8594 39.6562
Q40.7188 41.6094 37.9844 41.6094
Q34.3281 41.6094 31.25 39.9844
Q28.1719 38.375 25.875 35.7188
Q23.5781 33.0625 21.6875 29.3906
L14.8906 2.20312
Q14.5469 0.828125 13.3438 -0.140625
Q12.1562 -1.125 10.6875 -1.125
Q9.46875 -1.125 8.59375 -0.34375
Q7.71875 0.4375 7.71875 1.70312" id="Cmmi10-6d"/>
     </defs>
     <g transform="translate(173.5 352.67421875)scale(0.25 -0.25)">
      <use transform="translate(0.0 0.8125)" xlink:href="#Cmmi10-6d"/>
     </g>
    </g>
   </g>
   <g id="matplotlib.axis_2">
    <g id="ytick_1">
     <g id="line2d_13">
      <defs>
       <path d="
M0 0
L4 0" id="md7965d1ba0" style="stroke:#000000;stroke-width:0.5;"/>
      </defs>
      <g>
       <use style="stroke:#000000;stroke-width:0.5;" x="45.0" xlink:href="#md7965d1ba0" y="310.35"/>
      </g>
     </g>
     <g id="line2d_14">
      <defs>
       <path d="
M0 0
L-4 0" id="md9a1c1a7cd" style="stroke:#000000;stroke-width:0.5;"/>
      </defs>
      <g>
       <use style="stroke:#000000;stroke-width:0.5;" x="324.0" xlink:href="#md9a1c1a7cd" y="310.35"/>
      </g>
     </g>
     <g id="text_8">
      <!-- −6 -->
      <defs>
       <path d="
M33.0156 40.375
Q26.375 40.375 22.4844 35.8281
Q18.6094 31.2969 18.6094 23.3906
Q18.6094 15.5312 22.4844 10.9531
Q26.375 6.39062 33.0156 6.39062
Q39.6562 6.39062 43.5312 10.9531
Q47.4062 15.5312 47.4062 23.3906
Q47.4062 31.2969 43.5312 35.8281
Q39.6562 40.375 33.0156 40.375
M52.5938 71.2969
L52.5938 62.3125
Q48.875 64.0625 45.0938 64.9844
Q41.3125 65.9219 37.5938 65.9219
Q27.8281 65.9219 22.6719 59.3281
Q17.5312 52.7344 16.7969 39.4062
Q19.6719 43.6562 24.0156 45.9219
Q28.375 48.1875 33.5938 48.1875
Q44.5781 48.1875 50.9531 41.5156
Q57.3281 34.8594 57.3281 23.3906
Q57.3281 12.1562 50.6875 5.35938
Q44.0469 -1.42188 33.0156 -1.42188
Q20.3594 -1.42188 13.6719 8.26562
Q6.98438 17.9688 6.98438 36.375
Q6.98438 53.6562 15.1875 63.9375
Q23.3906 74.2188 37.2031 74.2188
Q40.9219 74.2188 44.7031 73.4844
Q48.4844 72.75 52.5938 71.2969" id="BitstreamVeraSans-Roman-36"/>
      </defs>
      <g transform="translate(27.946875 313.109375)scale(0.1 -0.1)">
       <use xlink:href="#BitstreamVeraSans-Roman-2212"/>
       <use x="83.7890625" xlink:href="#BitstreamVeraSans-Roman-36"/>
      </g>
     </g>
    </g>
    <g id="ytick_2">
     <g id="line2d_15">
      <g>
       <use style="stroke:#000000;stroke-width:0.5;" x="45.0" xlink:href="#md7965d1ba0" y="263.85"/>
      </g>
     </g>
     <g id="line2d_16">
      <g>
       <use style="stroke:#000000;stroke-width:0.5;" x="324.0" xlink:href="#md9a1c1a7cd" y="263.85"/>
      </g>
     </g>
     <g id="text_9">
      <!-- −5 -->
      <defs>
       <path d="
M10.7969 72.9062
L49.5156 72.9062
L49.5156 64.5938
L19.8281 64.5938
L19.8281 46.7344
Q21.9688 47.4688 24.1094 47.8281
Q26.2656 48.1875 28.4219 48.1875
Q40.625 48.1875 47.75 41.5
Q54.8906 34.8125 54.8906 23.3906
Q54.8906 11.625 47.5625 5.09375
Q40.2344 -1.42188 26.9062 -1.42188
Q22.3125 -1.42188 17.5469 -0.640625
Q12.7969 0.140625 7.71875 1.70312
L7.71875 11.625
Q12.1094 9.23438 16.7969 8.0625
Q21.4844 6.89062 26.7031 6.89062
Q35.1562 6.89062 40.0781 11.3281
Q45.0156 15.7656 45.0156 23.3906
Q45.0156 31 40.0781 35.4375
Q35.1562 39.8906 26.7031 39.8906
Q22.75 39.8906 18.8125 39.0156
Q14.8906 38.1406 10.7969 36.2812
z
" id="BitstreamVeraSans-Roman-35"/>
      </defs>
      <g transform="translate(28.190625 266.609375)scale(0.1 -0.1)">
       <use xlink:href="#BitstreamVeraSans-Roman-2212"/>
       <use x="83.7890625" xlink:href="#BitstreamVeraSans-Roman-35"/>
      </g>
     </g>
    </g>
    <g id="ytick_3">
     <g id="line2d_17">
      <g>
       <use style="stroke:#000000;stroke-width:0.5;" x="45.0" xlink:href="#md7965d1ba0" y="217.35"/>
      </g>
     </g>
     <g id="line2d_18">
      <g>
       <use style="stroke:#000000;stroke-width:0.5;" x="324.0" xlink:href="#md9a1c1a7cd" y="217.35"/>
      </g>
     </g>
     <g id="text_10">
      <!-- −4 -->
      <g transform="translate(27.878125 220.109375)scale(0.1 -0.1)">
       <use xlink:href="#BitstreamVeraSans-Roman-2212"/>
       <use x="83.7890625" xlink:href="#BitstreamVeraSans-Roman-34"/>
      </g>
     </g>
    </g>
    <g id="ytick_4">
     <g id="line2d_19">
      <g>
       <use style="stroke:#000000;stroke-width:0.5;" x="45.0" xlink:href="#md7965d1ba0" y="170.85"/>
      </g>
     </g>
     <g id="line2d_20">
      <g>
       <use style="stroke:#000000;stroke-width:0.5;" x="324.0" xlink:href="#md9a1c1a7cd" y="170.85"/>
      </g>
     </g>
     <g id="text_11">
      <!-- −3 -->
      <g transform="translate(28.11875 173.609375)scale(0.1 -0.1)">
       <use xlink:href="#BitstreamVeraSans-Roman-2212"/>
       <use x="83.7890625" xlink:href="#BitstreamVeraSans-Roman-33"/>
      </g>
     </g>
    </g>
    <g id="ytick_5">
     <g id="line2d_21">
      <g>
       <use style="stroke:#000000;stroke-width:0.5;" x="45.0" xlink:href="#md7965d1ba0" y="124.35"/>
      </g>
     </g>
     <g id="line2d_22">
      <g>
       <use style="stroke:#000000;stroke-width:0.5;" x="324.0" xlink:href="#md9a1c1a7cd" y="124.35"/>
      </g>
     </g>
     <g id="text_12">
      <!-- −2 -->
      <g transform="translate(28.31875 127.109375)scale(0.1 -0.1)">
       <use xlink:href="#BitstreamVeraSans-Roman-2212"/>
       <use x="83.7890625" xlink:href="#BitstreamVeraSans-Roman-32"/>
      </g>
     </g>
    </g>
    <g id="ytick_6">
     <g id="line2d_23">
      <g>
       <use style="stroke:#000000;stroke-width:0.5;" x="45.0" xlink:href="#md7965d1ba0" y="77.85"/>
      </g>
     </g>
     <g id="line2d_24">
      <g>
       <use style="stroke:#000000;stroke-width:0.5;" x="324.0" xlink:href="#md9a1c1a7cd" y="77.85"/>
      </g>
     </g>
     <g id="text_13">
      <!-- −1 -->
      <g transform="translate(28.240625 80.609375)scale(0.1 -0.1)">
       <use xlink:href="#BitstreamVeraSans-Roman-2212"/>
       <use x="83.7890625" xlink:href="#BitstreamVeraSans-Roman-31"/>
      </g>
     </g>
    </g>
    <g id="text_14">
     <!-- $c$ -->
     <defs>
      <path d="
M11.7188 11.9219
Q11.7188 7.5625 13.9375 4.53125
Q16.1562 1.51562 20.3125 1.51562
Q26.2656 1.51562 31.75 4.25
Q37.25 6.98438 40.7188 11.8125
Q41.0156 12.1094 41.5 12.1094
Q42 12.1094 42.5 11.5469
Q43.0156 10.9844 43.0156 10.5
Q43.0156 10.1094 42.8281 9.90625
Q39.1562 4.78125 32.9531 1.82812
Q26.7656 -1.125 20.125 -1.125
Q15.3281 -1.125 11.6719 1.14062
Q8.01562 3.42188 6 7.21875
Q4 11.0312 4 15.8281
Q4 22.5625 7.76562 29.2031
Q11.5312 35.8438 17.7812 40.0156
Q24.0312 44.1875 30.9062 44.1875
Q35.4062 44.1875 38.9844 42.0156
Q42.5781 39.8438 42.5781 35.5938
Q42.5781 32.8594 40.9844 30.9219
Q39.4062 29 36.7188 29
Q35.1094 29 34 30
Q32.9062 31 32.9062 32.625
Q32.9062 34.9688 34.6094 36.625
Q36.3281 38.2812 38.625 38.2812
L38.8125 38.2812
Q37.6406 39.9844 35.4219 40.7969
Q33.2031 41.6094 30.8125 41.6094
Q24.9531 41.6094 20.5469 36.5938
Q16.1562 31.5938 13.9375 24.625
Q11.7188 17.6719 11.7188 11.9219" id="Cmmi10-63"/>
     </defs>
     <g transform="translate(17.67890625 181.0)rotate(-90.0)scale(0.25 -0.25)">
      <use transform="translate(0.0 0.8125)" xlink:href="#Cmmi10-63"/>
     </g>
    </g>
   </g>
   <g id="text_15">
    <g clip-path="url(#pd0c2820aef)">
     <!-- 2.000 -->
     <defs>
      <path d="
M10.6875 12.4062
L21 12.4062
L21 0
L10.6875 0
z
" id="BitstreamVeraSans-Roman-2e"/>
     </defs>
     <g style="fill:#0000a4;" transform="translate(143.996516718 150.221545786)rotate(-287.50305956108605)scale(0.15 -0.15)">
      <use xlink:href="#BitstreamVeraSans-Roman-32"/>
      <use x="63.623046875" xlink:href="#BitstreamVeraSans-Roman-2e"/>
      <use x="95.41015625" xlink:href="#BitstreamVeraSans-Roman-30"/>
      <use x="159.033203125" xlink:href="#BitstreamVeraSans-Roman-30"/>
      <use x="222.65625" xlink:href="#BitstreamVeraSans-Roman-30"/>
     </g>
    </g>
   </g>
   <g id="text_16">
    <g clip-path="url(#pd0c2820aef)">
     <!-- 4.000 -->
     <g style="fill:#0000c8;" transform="translate(174.383926656 123.422301035)rotate(-330.5593700761428)scale(0.15 -0.15)">
      <use xlink:href="#BitstreamVeraSans-Roman-34"/>
      <use x="63.623046875" xlink:href="#BitstreamVeraSans-Roman-2e"/>
      <use x="95.41015625" xlink:href="#BitstreamVeraSans-Roman-30"/>
      <use x="159.033203125" xlink:href="#BitstreamVeraSans-Roman-30"/>
      <use x="222.65625" xlink:href="#BitstreamVeraSans-Roman-30"/>
     </g>
    </g>
   </g>
   <g id="text_17">
    <g clip-path="url(#pd0c2820aef)">
     <!-- 8.000 -->
     <defs>
      <path d="
M31.7812 34.625
Q24.75 34.625 20.7188 30.8594
Q16.7031 27.0938 16.7031 20.5156
Q16.7031 13.9219 20.7188 10.1562
Q24.75 6.39062 31.7812 6.39062
Q38.8125 6.39062 42.8594 10.1719
Q46.9219 13.9688 46.9219 20.5156
Q46.9219 27.0938 42.8906 30.8594
Q38.875 34.625 31.7812 34.625
M21.9219 38.8125
Q15.5781 40.375 12.0312 44.7188
Q8.5 49.0781 8.5 55.3281
Q8.5 64.0625 14.7188 69.1406
Q20.9531 74.2188 31.7812 74.2188
Q42.6719 74.2188 48.875 69.1406
Q55.0781 64.0625 55.0781 55.3281
Q55.0781 49.0781 51.5312 44.7188
Q48 40.375 41.7031 38.8125
Q48.8281 37.1562 52.7969 32.3125
Q56.7812 27.4844 56.7812 20.5156
Q56.7812 9.90625 50.3125 4.23438
Q43.8438 -1.42188 31.7812 -1.42188
Q19.7344 -1.42188 13.25 4.23438
Q6.78125 9.90625 6.78125 20.5156
Q6.78125 27.4844 10.7812 32.3125
Q14.7969 37.1562 21.9219 38.8125
M18.3125 54.3906
Q18.3125 48.7344 21.8438 45.5625
Q25.3906 42.3906 31.7812 42.3906
Q38.1406 42.3906 41.7188 45.5625
Q45.3125 48.7344 45.3125 54.3906
Q45.3125 60.0625 41.7188 63.2344
Q38.1406 66.4062 31.7812 66.4062
Q25.3906 66.4062 21.8438 63.2344
Q18.3125 60.0625 18.3125 54.3906" id="BitstreamVeraSans-Roman-38"/>
     </defs>
     <g style="fill:#0000ff;" transform="translate(236.954909631 240.773691723)rotate(-52.61545030234717)scale(0.15 -0.15)">
      <use xlink:href="#BitstreamVeraSans-Roman-38"/>
      <use x="63.623046875" xlink:href="#BitstreamVeraSans-Roman-2e"/>
      <use x="95.41015625" xlink:href="#BitstreamVeraSans-Roman-30"/>
      <use x="159.033203125" xlink:href="#BitstreamVeraSans-Roman-30"/>
      <use x="222.65625" xlink:href="#BitstreamVeraSans-Roman-30"/>
     </g>
    </g>
   </g>
   <g id="text_18">
    <g clip-path="url(#pd0c2820aef)">
     <!-- 16.000 -->
     <g style="fill:#0080ff;" transform="translate(129.079029005 233.450823642)rotate(-326.20162648126114)scale(0.15 -0.15)">
      <use xlink:href="#BitstreamVeraSans-Roman-31"/>
      <use x="63.623046875" xlink:href="#BitstreamVeraSans-Roman-36"/>
      <use x="127.24609375" xlink:href="#BitstreamVeraSans-Roman-2e"/>
      <use x="159.033203125" xlink:href="#BitstreamVeraSans-Roman-30"/>
      <use x="222.65625" xlink:href="#BitstreamVeraSans-Roman-30"/>
      <use x="286.279296875" xlink:href="#BitstreamVeraSans-Roman-30"/>
     </g>
    </g>
   </g>
   <g id="text_19">
    <g clip-path="url(#pd0c2820aef)">
     <!-- 32.000 -->
     <g style="fill:#7dff7a;" transform="translate(267.539951115 314.560191374)rotate(-29.670329725311348)scale(0.15 -0.15)">
      <use xlink:href="#BitstreamVeraSans-Roman-33"/>
      <use x="63.623046875" xlink:href="#BitstreamVeraSans-Roman-32"/>
      <use x="127.24609375" xlink:href="#BitstreamVeraSans-Roman-2e"/>
      <use x="159.033203125" xlink:href="#BitstreamVeraSans-Roman-30"/>
      <use x="222.65625" xlink:href="#BitstreamVeraSans-Roman-30"/>
      <use x="286.279296875" xlink:href="#BitstreamVeraSans-Roman-30"/>
     </g>
    </g>
   </g>
   <g id="text_20">
    <g clip-path="url(#pd0c2820aef)">
     <!-- 32.000 -->
     <g style="fill:#7dff7a;" transform="translate(280.832462746 112.884265886)rotate(-302.74487775573493)scale(0.15 -0.15)">
      <use xlink:href="#BitstreamVeraSans-Roman-33"/>
      <use x="63.623046875" xlink:href="#BitstreamVeraSans-Roman-32"/>
      <use x="127.24609375" xlink:href="#BitstreamVeraSans-Roman-2e"/>
      <use x="159.033203125" xlink:href="#BitstreamVeraSans-Roman-30"/>
      <use x="222.65625" xlink:href="#BitstreamVeraSans-Roman-30"/>
      <use x="286.279296875" xlink:href="#BitstreamVeraSans-Roman-30"/>
     </g>
    </g>
   </g>
   <g id="text_21">
    <g clip-path="url(#pd0c2820aef)">
     <!-- 64.000 -->
     <g style="fill:#800000;" transform="translate(54.754023772 271.594685058)rotate(-316.90956536232864)scale(0.15 -0.15)">
      <use xlink:href="#BitstreamVeraSans-Roman-36"/>
      <use x="63.623046875" xlink:href="#BitstreamVeraSans-Roman-34"/>
      <use x="127.24609375" xlink:href="#BitstreamVeraSans-Roman-2e"/>
      <use x="159.033203125" xlink:href="#BitstreamVeraSans-Roman-30"/>
      <use x="222.65625" xlink:href="#BitstreamVeraSans-Roman-30"/>
      <use x="286.279296875" xlink:href="#BitstreamVeraSans-Roman-30"/>
     </g>
    </g>
   </g>
  </g>
 </g>
 <defs>
  <clipPath id="pd0c2820aef">
   <rect height="279.0" width="279.0" x="45.0" y="36.0"/>
  </clipPath>
 </defs>
</svg>
