<?xml version="1.0" encoding="utf-8" standalone="no"?>
<!DOCTYPE svg PUBLIC "-//W3C//DTD SVG 1.1//EN"
  "http://www.w3.org/Graphics/SVG/1.1/DTD/svg11.dtd">
<!-- Created with matplotlib (http://matplotlib.org/) -->
<svg height="360pt" version="1.1" viewBox="0 0 720 360" width="720pt" xmlns="http://www.w3.org/2000/svg" xmlns:xlink="http://www.w3.org/1999/xlink">
 <defs>
  <style type="text/css">
*{stroke-linecap:butt;stroke-linejoin:round;}
  </style>
 </defs>
 <g id="figure_1">
  <g id="patch_1">
   <path d="
M0 360
L720 360
L720 0
L0 0
z
" style="fill:#ffffff;"/>
  </g>
  <g id="axes_1">
   <g id="patch_2">
    <path d="
M90 315
L343.636 315
L343.636 36
L90 36
z
" style="fill:#ffffff;"/>
   </g>
   <g id="LineCollection_1"/>
   <g id="LineCollection_2">
    <path clip-path="url(#p4bbcf401cb)" d="
M218.099 174.335
L217.048 174.091
L215.537 173.594
L212.975 171.584
L212.708 171.273
L211.244 168.455
L210.956 165.636
L212.975 163.158
L215.537 163.249
L218.099 164.753
L219.015 165.636
L220.661 168.023
L220.881 168.455
L221.262 171.273
L220.661 172.884
L219.03 174.091
L218.099 174.335" style="fill:none;stroke:#000089;"/>
   </g>
   <g id="LineCollection_3">
    <path clip-path="url(#p4bbcf401cb)" d="
M215.537 185.672
L214.912 185.364
L212.975 184.308
L210.413 182.627
L210.309 182.545
L207.851 180.407
L207.161 179.727
L205.289 177.656
L204.685 176.909
L202.727 174.149
L202.69 174.091
L201.2 171.273
L200.165 168.872
L200.002 168.455
L199.243 165.636
L198.835 162.818
L198.854 160
L199.396 157.182
L200.165 155.32
L200.708 154.364
L202.727 152.161
L203.627 151.545
L205.289 150.723
L207.851 150.106
L210.413 150.042
L212.975 150.428
L215.537 151.187
L216.365 151.545
L218.099 152.377
L220.661 153.916
L221.281 154.364
L223.223 155.924
L224.594 157.182
L225.785 158.411
L227.154 160
L228.347 161.582
L229.186 162.818
L230.82 165.636
L230.909 165.832
L231.989 168.455
L232.848 171.273
L233.346 174.091
L233.4 176.909
L232.902 179.727
L231.701 182.545
L230.909 183.665
L229.145 185.364
L228.347 185.903
L225.785 186.924
L223.223 187.3
L220.661 187.156
L218.099 186.589
L215.537 185.672" style="fill:none;stroke:#000092;"/>
   </g>
   <g id="LineCollection_4">
    <path clip-path="url(#p4bbcf401cb)" d="
M191.718 142.818
L192.479 142.006
L194.579 140.273
L195.041 139.962
L197.603 138.678
L200.165 137.841
L202.35 137.455
L202.727 137.397
L205.289 137.297
L207.679 137.455
L207.851 137.467
L210.413 137.917
L212.975 138.601
L215.537 139.495
L217.363 140.273
L218.099 140.606
L220.661 141.976
L222.513 143.091
L223.223 143.546
L225.785 145.381
L226.456 145.909
L228.347 147.497
L229.703 148.727
L230.909 149.901
L232.481 151.545
L233.471 152.661
L234.883 154.364
L236.033 155.866
L236.979 157.182
L238.595 159.635
L238.821 160
L240.383 162.818
L241.157 164.391
L241.735 165.636
L242.857 168.455
L243.719 171.042
L243.791 171.273
L244.46 174.091
L244.917 176.909
L245.137 179.727
L245.09 182.545
L244.742 185.364
L244.05 188.182
L243.719 189.071
L242.861 191
L241.157 193.723
L241.083 193.818
L238.595 196.302
L238.154 196.636
L236.033 197.95
L233.471 199.054
L231.983 199.455
L230.909 199.7
L228.347 199.973
L225.785 199.955
L223.223 199.678
L222.123 199.455
L220.661 199.139
L218.099 198.351
L215.537 197.362
L213.97 196.636
L212.975 196.147
L210.413 194.687
L209.054 193.818
L207.851 193
L205.289 191.081
L205.191 191
L204.447 190.346" style="fill:none;stroke:#0000a4;"/>
   </g>
   <g id="LineCollection_5">
    <path clip-path="url(#p4bbcf401cb)" d="
M217.349 212.951
L215.537 212.221
L212.975 211.068
L212.298 210.727
L210.413 209.741
L207.851 208.283
L207.248 207.909
L205.289 206.645
L203.03 205.091
L202.727 204.874
L200.165 202.904
L199.39 202.273
L197.603 200.753
L196.154 199.455
L195.041 198.411
L193.239 196.636
L192.479 195.852
L190.6 193.818
L189.917 193.042
L188.201 191
L187.355 189.94
L186.012 188.182
L184.793 186.497
L184.007 185.364
L182.231 182.652
L182.164 182.545
L180.518 179.727
L179.669 178.168
L179.01 176.909
L177.652 174.091
L177.107 172.846
L176.445 171.273
L175.382 168.455
L174.545 165.946
L174.446 165.636
L173.684 162.818
L173.055 160
L172.571 157.182
L172.241 154.364
L172.08 151.545
L172.101 148.727
L172.321 145.909
L172.756 143.091
L173.426 140.273
L174.355 137.455
L174.545 136.998
L175.659 134.636
L177.107 132.182
L177.353 131.818
L179.639 129
L179.669 128.968
L182.231 126.657
L182.866 126.182
L184.793 124.918
L187.355 123.575
L187.869 123.364
L189.917 122.612
L192.479 121.928
L195.041 121.482
L197.603 121.256
L200.165 121.232
L202.727 121.394
L205.289 121.729
L207.851 122.224
L210.413 122.867
L212.029 123.364
L212.975 123.667
L215.537 124.634
L218.099 125.727
L219.05 126.182
L220.661 126.984
L223.223 128.384
L224.258 129
L225.785 129.946
L228.347 131.648
L228.585 131.818
L230.909 133.55
L232.286 134.636
L233.471 135.613
L235.59 137.455
L236.033 137.858
L238.556 140.273
L238.595 140.311
L241.157 143.012
L241.228 143.091
L243.661 145.909
L243.719 145.98
L245.871 148.727
L246.281 149.281
L247.89 151.545
L248.843 152.968
L249.741 154.364
L251.405 157.115
L251.444 157.182
L252.953 160
L253.967 162.04
L254.339 162.818
L255.56 165.636
L256.529 168.106
L256.66 168.455
L257.587 171.273
L258.388 174.091
L259.054 176.909
L259.091 177.112
L259.544 179.727
L259.883 182.545
L260.062 185.364
L260.067 188.182
L259.884 191
L259.502 193.781" style="fill:none;stroke:#0000c8;"/>
   </g>
   <g id="LineCollection_6">
    <path clip-path="url(#p4bbcf401cb)" d="
M264.715 147.1
L267.415 151.545
L270.439 157.182
L271.901 160.202
L274.463 166.266
L276.237 171.273
L277.109 174.091
L278.524 179.727
L279.553 185.364
L279.896 188.182
L280.129 191
L280.249 193.818
L280.247 196.636
L280.119 199.455
L279.587 204.166
L279.445 205.091
L278.861 207.909
L278.106 210.727
L277.025 213.919
L275.985 216.364
L274.463 219.367
L271.901 223.272
L270.681 224.818
L268.052 227.636
L266.777 228.801
L264.215 230.833
L260.251 233.273
L259.091 233.868
L256.529 234.985
L253.323 236.091
L251.405 236.608
L248.843 237.138
L246.281 237.513
L243.719 237.741
L241.157 237.83
L238.595 237.788
L236.033 237.621
L233.471 237.337
L228.347 236.438
L225.785 235.822
L220.661 234.264
L217.91 233.273
L212.975 231.174
L210.413 229.942
L205.289 227.162
L200.165 223.951
L197.339 222
L192.479 218.289
L189.917 216.166
L184.793 211.48
L181.268 207.909
L177.107 203.274
L173.986 199.455
L171.842 196.636
L167.96 191
L166.186 188.182
L162.98 182.545
L161.524 179.727
L158.936 174.091
L156.612 168.064
L154.958 162.818
L154.05 159.356
L153.016 154.364
L152.24 148.727
L152.017 145.909
L151.912 143.091
L151.931 140.273
L152.082 137.455
L152.372 134.636
L152.81 131.818
L153.405 129
L154.173 126.182
L155.166 123.364
L156.612 120.035
L157.846 117.727
L159.63 114.909
L161.808 112.091
L164.524 109.273
L168.002 106.455
L169.421 105.494
L172.689 103.636
L174.545 102.774
L177.107 101.78
L180.302 100.818
L182.231 100.372
L184.793 99.9357
L187.355 99.648
L189.917 99.5014
L192.479 99.4882
L195.041 99.6014
L197.603 99.8346
L202.727 100.637
L205.289 101.212
L210.413 102.678
L213.2 103.636
L218.099 105.638
L220.661 106.824
L225.785 109.513
L226.336 109.838
L226.336 109.838" style="fill:none;stroke:#0000ff;"/>
   </g>
   <g id="LineCollection_7">
    <path clip-path="url(#p4bbcf401cb)" d="
M233.909 86.0851
L238.595 89.0649
L243.719 92.6257
L248.843 96.5241
L254.043 100.818
L259.091 105.377
L263.101 109.273
L266.777 113.083
L270.96 117.727
L274.463 121.897
L277.837 126.182
L282.149 132.098
L285.717 137.455
L289.167 143.091
L292.397 148.88
L295.167 154.364
L297.736 160
L300.083 165.779
L302.04 171.273
L303.779 176.909
L305.253 182.545
L306.426 188.182
L307.322 193.818
L307.913 199.455
L308.179 205.091
L308.107 210.727
L307.669 216.364
L306.81 222
L306.217 224.818
L305.207 228.671
L304.658 230.455
L303.665 233.273
L302.528 236.091
L300.083 241.023
L299.688 241.727
L297.521 245.184
L294.959 248.63
L292.397 251.562
L289.835 254.088
L287.273 256.287
L284.073 258.636
L282.149 259.869
L279.378 261.455
L277.025 262.611
L273.028 264.273
L271.901 264.681
L269.339 265.489
L266.777 266.173
L262.242 267.091
L259.091 267.525
L253.967 267.895
L248.843 267.894
L243.719 267.548
L238.595 266.874
L233.471 265.878
L228.347 264.596
L223.223 263.01
L218.099 261.15
L212.18 258.636
L207.851 256.561
L202.727 253.838
L197.603 250.824
L192.262 247.364
L187.355 243.874
L182.231 239.909
L177.107 235.596
L171.522 230.455
L166.86 225.774
L163.351 222
L158.485 216.364
L154.022 210.727
L149.945 205.091
L146.192 199.455
L142.774 193.818
L139.651 188.182
L136.818 182.545
L134.269 176.909
L131.998 171.273
L130.001 165.636
L128.271 160
L126.833 154.364
L125.665 148.727
L124.802 143.091
L124.235 137.455
L123.989 131.818
L124.087 126.182
L124.558 120.545
L125.434 114.909
L126.04 112.091
L126.781 109.273
L128.43 104.231
L128.651 103.636
L129.83 100.818
L131.167 98
L133.554 93.8117
L134.492 92.3636
L136.519 89.5455
L138.86 86.7273
L141.592 83.9091
L144.82 81.0909
L146.364 79.9025
L148.926 78.1173
L151.488 76.578
L154.05 75.2137
L156.612 74.045
L160.263 72.6364
L161.736 72.1468
L164.298 71.4141
L166.86 70.8006
L171.983 69.9117
L174.172 69.6738
L174.172 69.6738" style="fill:none;stroke:#0080ff;"/>
   </g>
   <g id="LineCollection_8">
    <path clip-path="url(#p4bbcf401cb)" d="
M343.636 252.001
L343.367 253
L342.524 255.818
L341.591 258.636
L341.074 260.062
L340.55 261.455
L339.394 264.273
L338.512 266.254
L338.125 267.091
L336.718 269.909
L335.95 271.339
L335.173 272.727
L333.48 275.545
L333.388 275.688
L331.6 278.364
L330.826 279.451
L329.535 281.182
L328.264 282.786
L327.254 284
L325.702 285.764
L324.724 286.818
L323.14 288.438
L321.902 289.636
L320.579 290.855
L318.736 292.455
L318.017 293.05
L315.455 295.045
L315.143 295.273
L312.893 296.848
L310.989 298.091
L310.331 298.503
L307.769 300
L306.09 300.909
L305.207 301.369
L302.645 302.603
L300.099 303.727
L300.083 303.734
L297.521 304.737
L294.959 305.646
L292.397 306.463
L292.111 306.545
L289.835 307.176
L287.273 307.803
L284.711 308.35
L282.149 308.818
L279.587 309.209
L278.348 309.364
L277.025 309.523
L274.463 309.763
L271.901 309.934
L269.339 310.039
L266.777 310.079
L264.215 310.056
L261.653 309.971
L259.091 309.827
L256.529 309.624
L253.967 309.364
L253.962 309.364
L251.405 309.042
L248.843 308.664
L246.281 308.233
L243.719 307.749
L241.157 307.214
L238.595 306.629
L238.261 306.545
L236.033 305.983
L233.471 305.287
L230.909 304.543
L228.347 303.754
L228.266 303.727
L225.785 302.902
L223.223 302.005
L220.661 301.065
L220.258 300.909
L218.099 300.064
L217.981 300.016" style="fill:none;stroke:#7dff7a;"/>
    <path clip-path="url(#p4bbcf401cb)" d="
M164.431 267.33
L164.298 267.22
L164.145 267.091
L161.736 265.027
L160.871 264.273
L159.174 262.771
L157.712 261.455
L156.612 260.449
L154.661 258.636
L154.05 258.059
L151.715 255.818
L151.488 255.597
L148.926 253.058
L148.868 253
L146.364 250.436
L146.119 250.182
L143.802 247.734
L143.457 247.364
L141.24 244.946
L140.878 244.545
L138.678 242.07
L138.378 241.727
L136.116 239.1
L135.954 238.909
L133.604 236.091
L133.554 236.03
L131.329 233.273
L130.992 232.848
L129.121 230.455
L128.43 229.553
L126.979 227.636
L125.868 226.14
L124.899 224.818
L123.306 222.602
L122.879 222
L120.92 219.182
L120.744 218.922
L119.027 216.364
L118.182 215.078
L117.188 213.545
L115.62 211.078
L115.4 210.727
L113.674 207.909
L113.058 206.879
L112.002 205.091
L110.496 202.483
L110.376 202.273
L108.813 199.455
L107.934 197.831
L107.295 196.636
L105.829 193.818
L105.372 192.914
L104.417 191
L103.048 188.182
L102.81 187.676
L101.737 185.364
L100.466 182.545
L100.248 182.045
L99.2528 179.727
L98.081 176.909
L97.686 175.922
L96.9625 174.091
L95.8905 171.273
L95.124 169.177
L94.8631 168.455
L93.8914 165.636
L92.9603 162.818
L92.562 161.55
L92.0813 160
L91.2527 157.182
L90.4673 154.364
L90 152.581" style="fill:none;stroke:#7dff7a;"/>
    <path clip-path="url(#p4bbcf401cb)" d="
M343.636 190.834
L343.027 188.182
L342.334 185.364
L341.595 182.545
L341.074 180.673
L340.808 179.727
L339.965 176.909
L339.081 174.091
L338.512 172.366
L338.148 171.273
L337.161 168.455
L336.135 165.636
L335.95 165.15
L335.052 162.818
L333.93 160.009" style="fill:none;stroke:#7dff7a;"/>
    <path clip-path="url(#p4bbcf401cb)" d="
M302.227 105.796
L300.523 103.636
L300.083 103.088
L298.233 100.818
L297.521 99.959
L295.873 98
L294.959 96.9317
L293.439 95.1818
L292.397 94.0013
L290.929 92.3636
L289.835 91.1633
L288.338 89.5455
L287.273 88.4132
L285.662 86.7273
L284.711 85.7468
L282.899 83.9091
L282.149 83.1602
L280.043 81.0909
L279.587 80.6498
L277.089 78.2727
L277.025 78.2122
L274.463 75.8535
L274.022 75.4545
L271.901 73.5641
L270.842 72.6364
L269.339 71.3395
L267.545 69.8182
L266.777 69.1767
L264.215 67.075
L264.121 67
L261.653 65.0461
L260.54 64.1818
L259.091 63.0724
L256.815 61.3636
L256.529 61.1515
L253.967 59.2978
L252.905 58.5455
L251.405 57.4981
L248.843 55.7459
L248.815 55.7273
L246.281 54.0629
L244.485 52.9091
L243.719 52.4236
L241.157 50.8423
L239.908 50.0909
L238.595 49.3122
L236.033 47.8327
L235.034 47.2727
L233.471 46.4078
L230.909 45.0308
L229.802 44.4545
L228.347 43.7071
L225.785 42.4331
L224.128 41.6364
L223.223 41.2069
L220.661 40.0364
L218.099 38.9058
L217.892 38.8182
L215.537 37.8375
L212.975 36.8124
L210.854 36" style="fill:none;stroke:#7dff7a;"/>
    <path clip-path="url(#p4bbcf401cb)" d="
M90 80.3867
L90.7229 78.2727
L91.7797 75.4545
L92.562 73.5402
L92.9462 72.6364
L94.2412 69.8182
L95.124 68.0394
L95.6618 67
L97.2272 64.1818
L97.686 63.4091
L98.9551 61.3636
L100.248 59.4128
L100.85 58.5455
L102.81 55.8911
L102.937 55.7273
L105.251 52.9091
L105.372 52.7692
L107.818 50.0909
L107.934 49.9711
L110.496 47.4497
L110.686 47.2727
L113.058 45.1725
L113.919 44.4545
L115.62 43.1018
L117.584 41.6364
L118.182 41.2102
L120.744 39.4957
L121.829 38.8182
L123.306 37.934
L125.868 36.5091
L126.855 36" style="fill:none;stroke:#7dff7a;"/>
   </g>
   <g id="LineCollection_9">
    <path clip-path="url(#p4bbcf401cb)" d="
M150.521 315
L148.926 313.734
L146.996 312.182
L146.364 311.668
L143.802 309.558
L143.569 309.364
L141.24 307.398
L140.242 306.545
L138.678 305.195
L136.999 303.727
L136.116 302.947
L133.837 300.909
L133.554 300.653
L130.992 298.307
L130.758 298.091
L128.43 295.91
L127.758 295.273
L125.868 293.462
L124.829 292.455
L123.306 290.962
L121.968 289.636
L120.744 288.41
L119.174 286.818
L118.182 285.802
L116.443 284
L115.62 283.137
L113.775 281.182
L113.058 280.414
L111.166 278.364
L110.496 277.629
L108.615 275.545
L107.934 274.781
L106.121 272.727
L105.372 271.869
L103.681 269.909
L102.81 268.888
L101.293 267.091
L100.248 265.837
L98.9569 264.273
L97.686 262.714
L96.6699 261.455
L95.124 259.515
L94.4308 258.636
L92.562 256.238
L92.2383 255.818
L90.0925 253
L90 252.877" style="fill:none;stroke:#800000;"/>
    <path clip-path="url(#p4bbcf401cb)" d="
M343.636 86.3968
L341.774 83.9091
L341.074 82.9869
L339.622 81.0909
L338.512 79.6607
L337.425 78.2727
L335.95 76.415
L335.18 75.4545
L333.388 73.2468
L332.888 72.6364
L330.826 70.1533
L330.545 69.8182
L328.264 67.1319
L328.151 67
L325.704 64.1818
L325.702 64.1799
L323.201 61.3636
L323.14 61.2962
L320.642 58.5455
L320.579 58.4759
L318.026 55.7273
L318.017 55.717
L315.455 53.0194
L315.349 52.9091
L312.893 50.3802
L312.608 50.0909
L310.331 47.7975
L309.803 47.2727
L307.769 45.2693
L306.931 44.4545
L305.207 42.7939
L303.99 41.6364
L302.645 40.3696
L300.977 38.8182
L300.083 37.9947
L297.89 36" style="fill:none;stroke:#800000;"/>
   </g>
   <g id="line2d_1">
    <defs>
     <path d="
M1.83697e-16 -3
L-0.673542 -0.927051
L-2.85317 -0.927051
L-1.08981 0.354102
L-1.76336 2.42705
L-2.10498e-16 1.1459
L1.76336 2.42705
L1.08981 0.354102
L2.85317 -0.927051
L0.673542 -0.927051
z
" id="m331e3516a5" style="stroke:#000000;stroke-linejoin:bevel;stroke-width:0.5;"/>
    </defs>
    <g clip-path="url(#p4bbcf401cb)">
     <use style="fill:#008000;stroke:#000000;stroke-linejoin:bevel;stroke-width:0.5;" x="156.850603452" xlink:href="#m331e3516a5" y="262.885006862"/>
    </g>
   </g>
   <g id="line2d_2">
    <g clip-path="url(#p4bbcf401cb)">
     <use style="fill:#008000;stroke:#000000;stroke-linejoin:bevel;stroke-width:0.5;" x="163.324404613" xlink:href="#m331e3516a5" y="258.875140143"/>
    </g>
   </g>
   <g id="line2d_3">
    <g clip-path="url(#p4bbcf401cb)">
     <use style="fill:#008000;stroke:#000000;stroke-linejoin:bevel;stroke-width:0.5;" x="162.529951888" xlink:href="#m331e3516a5" y="257.899471683"/>
    </g>
   </g>
   <g id="line2d_4">
    <g clip-path="url(#p4bbcf401cb)">
     <use style="fill:#008000;stroke:#000000;stroke-linejoin:bevel;stroke-width:0.5;" x="161.763494987" xlink:href="#m331e3516a5" y="256.958184933"/>
    </g>
   </g>
   <g id="line2d_5">
    <g clip-path="url(#p4bbcf401cb)">
     <use style="fill:#008000;stroke:#000000;stroke-linejoin:bevel;stroke-width:0.5;" x="162.236045915" xlink:href="#m331e3516a5" y="255.348114487"/>
    </g>
   </g>
   <g id="line2d_6">
    <g clip-path="url(#p4bbcf401cb)">
     <use style="fill:#008000;stroke:#000000;stroke-linejoin:bevel;stroke-width:0.5;" x="161.515062809" xlink:href="#m331e3516a5" y="254.462674166"/>
    </g>
   </g>
   <g id="line2d_7">
    <g clip-path="url(#p4bbcf401cb)">
     <use style="fill:#008000;stroke:#000000;stroke-linejoin:bevel;stroke-width:0.5;" x="161.973511379" xlink:href="#m331e3516a5" y="252.900653121"/>
    </g>
   </g>
   <g id="line2d_8">
    <g clip-path="url(#p4bbcf401cb)">
     <use style="fill:#008000;stroke:#000000;stroke-linejoin:bevel;stroke-width:0.5;" x="162.421858293" xlink:href="#m331e3516a5" y="251.373050327"/>
    </g>
   </g>
   <g id="line2d_9">
    <g clip-path="url(#p4bbcf401cb)">
     <use style="fill:#008000;stroke:#000000;stroke-linejoin:bevel;stroke-width:0.5;" x="168.231792973" xlink:href="#m331e3516a5" y="247.77438192"/>
    </g>
   </g>
   <g id="line2d_10">
    <g clip-path="url(#p4bbcf401cb)">
     <use style="fill:#008000;stroke:#000000;stroke-linejoin:bevel;stroke-width:0.5;" x="173.605608256" xlink:href="#m331e3516a5" y="244.445845481"/>
    </g>
   </g>
   <g id="line2d_11">
    <g clip-path="url(#p4bbcf401cb)">
     <use style="fill:#008000;stroke:#000000;stroke-linejoin:bevel;stroke-width:0.5;" x="178.576041193" xlink:href="#m331e3516a5" y="241.367163711"/>
    </g>
   </g>
   <g id="line2d_12">
    <g clip-path="url(#p4bbcf401cb)">
     <use style="fill:#008000;stroke:#000000;stroke-linejoin:bevel;stroke-width:0.5;" x="193.046585689" xlink:href="#m331e3516a5" y="227.168549552"/>
    </g>
   </g>
   <g id="line2d_13">
    <g clip-path="url(#p4bbcf401cb)">
     <use style="fill:#008000;stroke:#000000;stroke-linejoin:bevel;stroke-width:0.5;" x="204.881765643" xlink:href="#m331e3516a5" y="215.81240917"/>
    </g>
   </g>
   <g id="line2d_14">
    <g clip-path="url(#p4bbcf401cb)">
     <use style="fill:#008000;stroke:#000000;stroke-linejoin:bevel;stroke-width:0.5;" x="213.646697539" xlink:href="#m331e3516a5" y="206.610200272"/>
    </g>
   </g>
   <g id="line2d_15">
    <g clip-path="url(#p4bbcf401cb)">
     <use style="fill:#008000;stroke:#000000;stroke-linejoin:bevel;stroke-width:0.5;" x="214.768252476" xlink:href="#m331e3516a5" y="201.17769718"/>
    </g>
   </g>
   <g id="line2d_16">
    <g clip-path="url(#p4bbcf401cb)">
     <use style="fill:#008000;stroke:#000000;stroke-linejoin:bevel;stroke-width:0.5;" x="221.44033243" xlink:href="#m331e3516a5" y="197.027586265"/>
    </g>
   </g>
   <g id="line2d_17">
    <g clip-path="url(#p4bbcf401cb)">
     <use style="fill:#008000;stroke:#000000;stroke-linejoin:bevel;stroke-width:0.5;" x="224.862192187" xlink:href="#m331e3516a5" y="193.662613806"/>
    </g>
   </g>
   <g id="line2d_18">
    <g clip-path="url(#p4bbcf401cb)">
     <use style="fill:#008000;stroke:#000000;stroke-linejoin:bevel;stroke-width:0.5;" x="223.566687333" xlink:href="#m331e3516a5" y="189.815006917"/>
    </g>
   </g>
   <g id="line2d_19">
    <g clip-path="url(#p4bbcf401cb)">
     <use style="fill:#008000;stroke:#000000;stroke-linejoin:bevel;stroke-width:0.5;" x="223.434927378" xlink:href="#m331e3516a5" y="186.961658776"/>
    </g>
   </g>
   <g id="line2d_20">
    <g clip-path="url(#p4bbcf401cb)">
     <use style="fill:#008000;stroke:#000000;stroke-linejoin:bevel;stroke-width:0.5;" x="221.384230372" xlink:href="#m331e3516a5" y="183.902207127"/>
    </g>
   </g>
   <g id="line2d_21">
    <g clip-path="url(#p4bbcf401cb)">
     <use style="fill:#008000;stroke:#000000;stroke-linejoin:bevel;stroke-width:0.5;" x="217.255883386" xlink:href="#m331e3516a5" y="172.082645287"/>
    </g>
   </g>
   <g id="line2d_22">
    <g clip-path="url(#p4bbcf401cb)">
     <use style="fill:#008000;stroke:#000000;stroke-linejoin:bevel;stroke-width:0.5;" x="216.128488798" xlink:href="#m331e3516a5" y="168.463000134"/>
    </g>
   </g>
   <g id="line2d_23">
    <g clip-path="url(#p4bbcf401cb)">
     <use style="fill:#008000;stroke:#000000;stroke-linejoin:bevel;stroke-width:0.5;" x="217.19814395" xlink:href="#m331e3516a5" y="170.913129331"/>
    </g>
   </g>
   <g id="line2d_24">
    <g clip-path="url(#p4bbcf401cb)">
     <use style="fill:#008000;stroke:#000000;stroke-linejoin:bevel;stroke-width:0.5;" x="217.3982736" xlink:href="#m331e3516a5" y="172.924949018"/>
    </g>
   </g>
   <g id="line2d_25">
    <g clip-path="url(#p4bbcf401cb)">
     <use style="fill:#008000;stroke:#000000;stroke-linejoin:bevel;stroke-width:0.5;" x="215.222324763" xlink:href="#m331e3516a5" y="173.28366391"/>
    </g>
   </g>
   <g id="line2d_26">
    <g clip-path="url(#p4bbcf401cb)">
     <use style="fill:#008000;stroke:#000000;stroke-linejoin:bevel;stroke-width:0.5;" x="215.057254107" xlink:href="#m331e3516a5" y="171.499912756"/>
    </g>
   </g>
   <g id="line2d_27">
    <g clip-path="url(#p4bbcf401cb)">
     <use style="fill:#008000;stroke:#000000;stroke-linejoin:bevel;stroke-width:0.5;" x="216.517657603" xlink:href="#m331e3516a5" y="171.970115815"/>
    </g>
   </g>
   <g id="line2d_28">
    <g clip-path="url(#p4bbcf401cb)">
     <use style="fill:#008000;stroke:#000000;stroke-linejoin:bevel;stroke-width:0.5;" x="215.72600495" xlink:href="#m331e3516a5" y="171.674625534"/>
    </g>
   </g>
   <g id="line2d_29">
    <g clip-path="url(#p4bbcf401cb)">
     <use style="fill:#008000;stroke:#000000;stroke-linejoin:bevel;stroke-width:0.5;" x="216.041045512" xlink:href="#m331e3516a5" y="173.593708469"/>
    </g>
   </g>
   <g id="line2d_30">
    <g clip-path="url(#p4bbcf401cb)">
     <use style="fill:#008000;stroke:#000000;stroke-linejoin:bevel;stroke-width:0.5;" x="216.466317614" xlink:href="#m331e3516a5" y="170.249272378"/>
    </g>
   </g>
   <g id="line2d_31">
    <g clip-path="url(#p4bbcf401cb)">
     <use style="fill:#008000;stroke:#000000;stroke-linejoin:bevel;stroke-width:0.5;" x="216.314995676" xlink:href="#m331e3516a5" y="172.321182184"/>
    </g>
   </g>
   <g id="line2d_32">
    <g clip-path="url(#p4bbcf401cb)">
     <use style="fill:#008000;stroke:#000000;stroke-linejoin:bevel;stroke-width:0.5;" x="214.660235561" xlink:href="#m331e3516a5" y="171.366177856"/>
    </g>
   </g>
   <g id="patch_3">
    <path d="
M90 315
L90 36" style="fill:none;stroke:#000000;stroke-linecap:square;stroke-linejoin:miter;"/>
   </g>
   <g id="patch_4">
    <path d="
M90 36
L343.636 36" style="fill:none;stroke:#000000;stroke-linecap:square;stroke-linejoin:miter;"/>
   </g>
   <g id="patch_5">
    <path d="
M343.636 315
L343.636 36" style="fill:none;stroke:#000000;stroke-linecap:square;stroke-linejoin:miter;"/>
   </g>
   <g id="patch_6">
    <path d="
M90 315
L343.636 315" style="fill:none;stroke:#000000;stroke-linecap:square;stroke-linejoin:miter;"/>
   </g>
   <g id="matplotlib.axis_1">
    <g id="xtick_1">
     <g id="line2d_33">
      <defs>
       <path d="
M0 0
L0 -4" id="mc7db9fdffb" style="stroke:#000000;stroke-width:0.5;"/>
      </defs>
      <g>
       <use style="stroke:#000000;stroke-width:0.5;" x="115.363636364" xlink:href="#mc7db9fdffb" y="315.0"/>
      </g>
     </g>
     <g id="line2d_34">
      <defs>
       <path d="
M0 0
L0 4" id="m5a7d422ac3" style="stroke:#000000;stroke-width:0.5;"/>
      </defs>
      <g>
       <use style="stroke:#000000;stroke-width:0.5;" x="115.363636364" xlink:href="#m5a7d422ac3" y="36.0"/>
      </g>
     </g>
     <g id="text_1">
      <!-- −1 -->
      <defs>
       <path d="
M10.5938 35.5
L73.1875 35.5
L73.1875 27.2031
L10.5938 27.2031
z
" id="BitstreamVeraSans-Roman-2212"/>
       <path d="
M12.4062 8.29688
L28.5156 8.29688
L28.5156 63.9219
L10.9844 60.4062
L10.9844 69.3906
L28.4219 72.9062
L38.2812 72.9062
L38.2812 8.29688
L54.3906 8.29688
L54.3906 0
L12.4062 0
z
" id="BitstreamVeraSans-Roman-31"/>
      </defs>
      <g transform="translate(108.983948864 326.5984375)scale(0.1 -0.1)">
       <use xlink:href="#BitstreamVeraSans-Roman-2212"/>
       <use x="83.7890625" xlink:href="#BitstreamVeraSans-Roman-31"/>
      </g>
     </g>
    </g>
    <g id="xtick_2">
     <g id="line2d_35">
      <g>
       <use style="stroke:#000000;stroke-width:0.5;" x="157.636363636" xlink:href="#mc7db9fdffb" y="315.0"/>
      </g>
     </g>
     <g id="line2d_36">
      <g>
       <use style="stroke:#000000;stroke-width:0.5;" x="157.636363636" xlink:href="#m5a7d422ac3" y="36.0"/>
      </g>
     </g>
     <g id="text_2">
      <!-- 0 -->
      <defs>
       <path d="
M31.7812 66.4062
Q24.1719 66.4062 20.3281 58.9062
Q16.5 51.4219 16.5 36.375
Q16.5 21.3906 20.3281 13.8906
Q24.1719 6.39062 31.7812 6.39062
Q39.4531 6.39062 43.2812 13.8906
Q47.125 21.3906 47.125 36.375
Q47.125 51.4219 43.2812 58.9062
Q39.4531 66.4062 31.7812 66.4062
M31.7812 74.2188
Q44.0469 74.2188 50.5156 64.5156
Q56.9844 54.8281 56.9844 36.375
Q56.9844 17.9688 50.5156 8.26562
Q44.0469 -1.42188 31.7812 -1.42188
Q19.5312 -1.42188 13.0625 8.26562
Q6.59375 17.9688 6.59375 36.375
Q6.59375 54.8281 13.0625 64.5156
Q19.5312 74.2188 31.7812 74.2188" id="BitstreamVeraSans-Roman-30"/>
      </defs>
      <g transform="translate(155.116832386 326.5984375)scale(0.1 -0.1)">
       <use xlink:href="#BitstreamVeraSans-Roman-30"/>
      </g>
     </g>
    </g>
    <g id="xtick_3">
     <g id="line2d_37">
      <g>
       <use style="stroke:#000000;stroke-width:0.5;" x="199.909090909" xlink:href="#mc7db9fdffb" y="315.0"/>
      </g>
     </g>
     <g id="line2d_38">
      <g>
       <use style="stroke:#000000;stroke-width:0.5;" x="199.909090909" xlink:href="#m5a7d422ac3" y="36.0"/>
      </g>
     </g>
     <g id="text_3">
      <!-- 1 -->
      <g transform="translate(197.738778409 326.5984375)scale(0.1 -0.1)">
       <use xlink:href="#BitstreamVeraSans-Roman-31"/>
      </g>
     </g>
    </g>
    <g id="xtick_4">
     <g id="line2d_39">
      <g>
       <use style="stroke:#000000;stroke-width:0.5;" x="242.181818182" xlink:href="#mc7db9fdffb" y="315.0"/>
      </g>
     </g>
     <g id="line2d_40">
      <g>
       <use style="stroke:#000000;stroke-width:0.5;" x="242.181818182" xlink:href="#m5a7d422ac3" y="36.0"/>
      </g>
     </g>
     <g id="text_4">
      <!-- 2 -->
      <defs>
       <path d="
M19.1875 8.29688
L53.6094 8.29688
L53.6094 0
L7.32812 0
L7.32812 8.29688
Q12.9375 14.1094 22.625 23.8906
Q32.3281 33.6875 34.8125 36.5312
Q39.5469 41.8438 41.4219 45.5312
Q43.3125 49.2188 43.3125 52.7812
Q43.3125 58.5938 39.2344 62.25
Q35.1562 65.9219 28.6094 65.9219
Q23.9688 65.9219 18.8125 64.3125
Q13.6719 62.7031 7.8125 59.4219
L7.8125 69.3906
Q13.7656 71.7812 18.9375 73
Q24.125 74.2188 28.4219 74.2188
Q39.75 74.2188 46.4844 68.5469
Q53.2188 62.8906 53.2188 53.4219
Q53.2188 48.9219 51.5312 44.8906
Q49.8594 40.875 45.4062 35.4062
Q44.1875 33.9844 37.6406 27.2188
Q31.1094 20.4531 19.1875 8.29688" id="BitstreamVeraSans-Roman-32"/>
      </defs>
      <g transform="translate(239.867755682 326.5984375)scale(0.1 -0.1)">
       <use xlink:href="#BitstreamVeraSans-Roman-32"/>
      </g>
     </g>
    </g>
    <g id="xtick_5">
     <g id="line2d_41">
      <g>
       <use style="stroke:#000000;stroke-width:0.5;" x="284.454545455" xlink:href="#mc7db9fdffb" y="315.0"/>
      </g>
     </g>
     <g id="line2d_42">
      <g>
       <use style="stroke:#000000;stroke-width:0.5;" x="284.454545455" xlink:href="#m5a7d422ac3" y="36.0"/>
      </g>
     </g>
     <g id="text_5">
      <!-- 3 -->
      <defs>
       <path d="
M40.5781 39.3125
Q47.6562 37.7969 51.625 33
Q55.6094 28.2188 55.6094 21.1875
Q55.6094 10.4062 48.1875 4.48438
Q40.7656 -1.42188 27.0938 -1.42188
Q22.5156 -1.42188 17.6562 -0.515625
Q12.7969 0.390625 7.625 2.20312
L7.625 11.7188
Q11.7188 9.32812 16.5938 8.10938
Q21.4844 6.89062 26.8125 6.89062
Q36.0781 6.89062 40.9375 10.5469
Q45.7969 14.2031 45.7969 21.1875
Q45.7969 27.6406 41.2812 31.2656
Q36.7656 34.9062 28.7188 34.9062
L20.2188 34.9062
L20.2188 43.0156
L29.1094 43.0156
Q36.375 43.0156 40.2344 45.9219
Q44.0938 48.8281 44.0938 54.2969
Q44.0938 59.9062 40.1094 62.9062
Q36.1406 65.9219 28.7188 65.9219
Q24.6562 65.9219 20.0156 65.0312
Q15.375 64.1562 9.8125 62.3125
L9.8125 71.0938
Q15.4375 72.6562 20.3438 73.4375
Q25.25 74.2188 29.5938 74.2188
Q40.8281 74.2188 47.3594 69.1094
Q53.9062 64.0156 53.9062 55.3281
Q53.9062 49.2656 50.4375 45.0938
Q46.9688 40.9219 40.5781 39.3125" id="BitstreamVeraSans-Roman-33"/>
      </defs>
      <g transform="translate(282.055326705 326.5984375)scale(0.1 -0.1)">
       <use xlink:href="#BitstreamVeraSans-Roman-33"/>
      </g>
     </g>
    </g>
    <g id="xtick_6">
     <g id="line2d_43">
      <g>
       <use style="stroke:#000000;stroke-width:0.5;" x="326.727272727" xlink:href="#mc7db9fdffb" y="315.0"/>
      </g>
     </g>
     <g id="line2d_44">
      <g>
       <use style="stroke:#000000;stroke-width:0.5;" x="326.727272727" xlink:href="#m5a7d422ac3" y="36.0"/>
      </g>
     </g>
     <g id="text_6">
      <!-- 4 -->
      <defs>
       <path d="
M37.7969 64.3125
L12.8906 25.3906
L37.7969 25.3906
z

M35.2031 72.9062
L47.6094 72.9062
L47.6094 25.3906
L58.0156 25.3906
L58.0156 17.1875
L47.6094 17.1875
L47.6094 0
L37.7969 0
L37.7969 17.1875
L4.89062 17.1875
L4.89062 26.7031
z
" id="BitstreamVeraSans-Roman-34"/>
      </defs>
      <g transform="translate(324.071022727 326.5984375)scale(0.1 -0.1)">
       <use xlink:href="#BitstreamVeraSans-Roman-34"/>
      </g>
     </g>
    </g>
    <g id="text_7">
     <!-- $m$ -->
     <defs>
      <path d="
M7.71875 1.70312
Q7.71875 2.29688 7.8125 2.59375
L15.2812 32.4219
Q16.0156 35.2031 16.0156 37.3125
Q16.0156 41.6094 13.0938 41.6094
Q9.96875 41.6094 8.45312 37.8594
Q6.9375 34.125 5.51562 28.4219
Q5.51562 28.125 5.21875 27.9531
Q4.9375 27.7812 4.6875 27.7812
L3.51562 27.7812
Q3.17188 27.7812 2.92188 28.1406
Q2.6875 28.5156 2.6875 28.8125
Q3.76562 33.1562 4.76562 36.1719
Q5.76562 39.2031 7.89062 41.6875
Q10.0156 44.1875 13.1875 44.1875
Q16.9375 44.1875 19.8125 41.8125
Q22.7031 39.4531 22.7031 35.7969
Q25.6875 39.7031 29.6875 41.9375
Q33.6875 44.1875 38.1875 44.1875
Q42.9219 44.1875 46.3594 41.7656
Q49.8125 39.3594 49.8125 34.9062
Q52.875 39.2656 57 41.7188
Q61.1406 44.1875 66.0156 44.1875
Q71.1875 44.1875 74.3281 41.375
Q77.4844 38.5781 77.4844 33.4062
Q77.4844 29.2969 75.6562 23.4844
Q73.8281 17.6719 71.0938 10.5
Q69.6719 7.03125 69.6719 4.5
Q69.6719 1.51562 72.0156 1.51562
Q75.9219 1.51562 78.5156 5.70312
Q81.1094 9.90625 82.1719 14.7031
Q82.4688 15.2812 83.0156 15.2812
L84.1875 15.2812
Q84.5781 15.2812 84.8438 15.0156
Q85.1094 14.75 85.1094 14.4062
Q85.1094 14.3125 85.0156 14.1094
Q83.6406 8.45312 80.25 3.65625
Q76.8594 -1.125 71.7812 -1.125
Q68.2656 -1.125 65.7656 1.29688
Q63.2812 3.71875 63.2812 7.17188
Q63.2812 8.9375 64.1094 11.0781
Q66.9375 18.6094 68.8125 24.5156
Q70.7031 30.4219 70.7031 34.9062
Q70.7031 37.7031 69.5781 39.6562
Q68.4531 41.6094 65.8281 41.6094
Q60.3594 41.6094 56.3438 38.25
Q52.3438 34.9062 49.4219 29.3906
Q49.2188 28.4219 49.125 27.875
L42.6719 2.20312
Q42.3281 0.828125 41.125 -0.140625
Q39.9375 -1.125 38.4844 -1.125
Q37.3125 -1.125 36.4062 -0.34375
Q35.5 0.4375 35.5 1.70312
Q35.5 2.29688 35.5938 2.59375
L42 28.0781
Q43.0156 32.1719 43.0156 34.9062
Q43.0156 37.7031 41.8594 39.6562
Q40.7188 41.6094 37.9844 41.6094
Q34.3281 41.6094 31.25 39.9844
Q28.1719 38.375 25.875 35.7188
Q23.5781 33.0625 21.6875 29.3906
L14.8906 2.20312
Q14.5469 0.828125 13.3438 -0.140625
Q12.1562 -1.125 10.6875 -1.125
Q9.46875 -1.125 8.59375 -0.34375
Q7.71875 0.4375 7.71875 1.70312" id="Cmmi10-6d"/>
     </defs>
     <g transform="translate(208.018181818 348.875)scale(0.2 -0.2)">
      <use transform="translate(0.0 0.8125)" xlink:href="#Cmmi10-6d"/>
     </g>
    </g>
   </g>
   <g id="matplotlib.axis_2">
    <g id="ytick_1">
     <g id="line2d_45">
      <defs>
       <path d="
M0 0
L4 0" id="md7965d1ba0" style="stroke:#000000;stroke-width:0.5;"/>
      </defs>
      <g>
       <use style="stroke:#000000;stroke-width:0.5;" x="90.0" xlink:href="#md7965d1ba0" y="310.35"/>
      </g>
     </g>
     <g id="line2d_46">
      <defs>
       <path d="
M0 0
L-4 0" id="md9a1c1a7cd" style="stroke:#000000;stroke-width:0.5;"/>
      </defs>
      <g>
       <use style="stroke:#000000;stroke-width:0.5;" x="343.636363636" xlink:href="#md9a1c1a7cd" y="310.35"/>
      </g>
     </g>
     <g id="text_8">
      <!-- −6 -->
      <defs>
       <path d="
M33.0156 40.375
Q26.375 40.375 22.4844 35.8281
Q18.6094 31.2969 18.6094 23.3906
Q18.6094 15.5312 22.4844 10.9531
Q26.375 6.39062 33.0156 6.39062
Q39.6562 6.39062 43.5312 10.9531
Q47.4062 15.5312 47.4062 23.3906
Q47.4062 31.2969 43.5312 35.8281
Q39.6562 40.375 33.0156 40.375
M52.5938 71.2969
L52.5938 62.3125
Q48.875 64.0625 45.0938 64.9844
Q41.3125 65.9219 37.5938 65.9219
Q27.8281 65.9219 22.6719 59.3281
Q17.5312 52.7344 16.7969 39.4062
Q19.6719 43.6562 24.0156 45.9219
Q28.375 48.1875 33.5938 48.1875
Q44.5781 48.1875 50.9531 41.5156
Q57.3281 34.8594 57.3281 23.3906
Q57.3281 12.1562 50.6875 5.35938
Q44.0469 -1.42188 33.0156 -1.42188
Q20.3594 -1.42188 13.6719 8.26562
Q6.98438 17.9688 6.98438 36.375
Q6.98438 53.6562 15.1875 63.9375
Q23.3906 74.2188 37.2031 74.2188
Q40.9219 74.2188 44.7031 73.4844
Q48.4844 72.75 52.5938 71.2969" id="BitstreamVeraSans-Roman-36"/>
      </defs>
      <g transform="translate(72.946875 313.109375)scale(0.1 -0.1)">
       <use xlink:href="#BitstreamVeraSans-Roman-2212"/>
       <use x="83.7890625" xlink:href="#BitstreamVeraSans-Roman-36"/>
      </g>
     </g>
    </g>
    <g id="ytick_2">
     <g id="line2d_47">
      <g>
       <use style="stroke:#000000;stroke-width:0.5;" x="90.0" xlink:href="#md7965d1ba0" y="263.85"/>
      </g>
     </g>
     <g id="line2d_48">
      <g>
       <use style="stroke:#000000;stroke-width:0.5;" x="343.636363636" xlink:href="#md9a1c1a7cd" y="263.85"/>
      </g>
     </g>
     <g id="text_9">
      <!-- −5 -->
      <defs>
       <path d="
M10.7969 72.9062
L49.5156 72.9062
L49.5156 64.5938
L19.8281 64.5938
L19.8281 46.7344
Q21.9688 47.4688 24.1094 47.8281
Q26.2656 48.1875 28.4219 48.1875
Q40.625 48.1875 47.75 41.5
Q54.8906 34.8125 54.8906 23.3906
Q54.8906 11.625 47.5625 5.09375
Q40.2344 -1.42188 26.9062 -1.42188
Q22.3125 -1.42188 17.5469 -0.640625
Q12.7969 0.140625 7.71875 1.70312
L7.71875 11.625
Q12.1094 9.23438 16.7969 8.0625
Q21.4844 6.89062 26.7031 6.89062
Q35.1562 6.89062 40.0781 11.3281
Q45.0156 15.7656 45.0156 23.3906
Q45.0156 31 40.0781 35.4375
Q35.1562 39.8906 26.7031 39.8906
Q22.75 39.8906 18.8125 39.0156
Q14.8906 38.1406 10.7969 36.2812
z
" id="BitstreamVeraSans-Roman-35"/>
      </defs>
      <g transform="translate(73.190625 266.609375)scale(0.1 -0.1)">
       <use xlink:href="#BitstreamVeraSans-Roman-2212"/>
       <use x="83.7890625" xlink:href="#BitstreamVeraSans-Roman-35"/>
      </g>
     </g>
    </g>
    <g id="ytick_3">
     <g id="line2d_49">
      <g>
       <use style="stroke:#000000;stroke-width:0.5;" x="90.0" xlink:href="#md7965d1ba0" y="217.35"/>
      </g>
     </g>
     <g id="line2d_50">
      <g>
       <use style="stroke:#000000;stroke-width:0.5;" x="343.636363636" xlink:href="#md9a1c1a7cd" y="217.35"/>
      </g>
     </g>
     <g id="text_10">
      <!-- −4 -->
      <g transform="translate(72.878125 220.109375)scale(0.1 -0.1)">
       <use xlink:href="#BitstreamVeraSans-Roman-2212"/>
       <use x="83.7890625" xlink:href="#BitstreamVeraSans-Roman-34"/>
      </g>
     </g>
    </g>
    <g id="ytick_4">
     <g id="line2d_51">
      <g>
       <use style="stroke:#000000;stroke-width:0.5;" x="90.0" xlink:href="#md7965d1ba0" y="170.85"/>
      </g>
     </g>
     <g id="line2d_52">
      <g>
       <use style="stroke:#000000;stroke-width:0.5;" x="343.636363636" xlink:href="#md9a1c1a7cd" y="170.85"/>
      </g>
     </g>
     <g id="text_11">
      <!-- −3 -->
      <g transform="translate(73.11875 173.609375)scale(0.1 -0.1)">
       <use xlink:href="#BitstreamVeraSans-Roman-2212"/>
       <use x="83.7890625" xlink:href="#BitstreamVeraSans-Roman-33"/>
      </g>
     </g>
    </g>
    <g id="ytick_5">
     <g id="line2d_53">
      <g>
       <use style="stroke:#000000;stroke-width:0.5;" x="90.0" xlink:href="#md7965d1ba0" y="124.35"/>
      </g>
     </g>
     <g id="line2d_54">
      <g>
       <use style="stroke:#000000;stroke-width:0.5;" x="343.636363636" xlink:href="#md9a1c1a7cd" y="124.35"/>
      </g>
     </g>
     <g id="text_12">
      <!-- −2 -->
      <g transform="translate(73.31875 127.109375)scale(0.1 -0.1)">
       <use xlink:href="#BitstreamVeraSans-Roman-2212"/>
       <use x="83.7890625" xlink:href="#BitstreamVeraSans-Roman-32"/>
      </g>
     </g>
    </g>
    <g id="ytick_6">
     <g id="line2d_55">
      <g>
       <use style="stroke:#000000;stroke-width:0.5;" x="90.0" xlink:href="#md7965d1ba0" y="77.85"/>
      </g>
     </g>
     <g id="line2d_56">
      <g>
       <use style="stroke:#000000;stroke-width:0.5;" x="343.636363636" xlink:href="#md9a1c1a7cd" y="77.85"/>
      </g>
     </g>
     <g id="text_13">
      <!-- −1 -->
      <g transform="translate(73.240625 80.609375)scale(0.1 -0.1)">
       <use xlink:href="#BitstreamVeraSans-Roman-2212"/>
       <use x="83.7890625" xlink:href="#BitstreamVeraSans-Roman-31"/>
      </g>
     </g>
    </g>
    <g id="text_14">
     <!-- $c$ -->
     <defs>
      <path d="
M11.7188 11.9219
Q11.7188 7.5625 13.9375 4.53125
Q16.1562 1.51562 20.3125 1.51562
Q26.2656 1.51562 31.75 4.25
Q37.25 6.98438 40.7188 11.8125
Q41.0156 12.1094 41.5 12.1094
Q42 12.1094 42.5 11.5469
Q43.0156 10.9844 43.0156 10.5
Q43.0156 10.1094 42.8281 9.90625
Q39.1562 4.78125 32.9531 1.82812
Q26.7656 -1.125 20.125 -1.125
Q15.3281 -1.125 11.6719 1.14062
Q8.01562 3.42188 6 7.21875
Q4 11.0312 4 15.8281
Q4 22.5625 7.76562 29.2031
Q11.5312 35.8438 17.7812 40.0156
Q24.0312 44.1875 30.9062 44.1875
Q35.4062 44.1875 38.9844 42.0156
Q42.5781 39.8438 42.5781 35.5938
Q42.5781 32.8594 40.9844 30.9219
Q39.4062 29 36.7188 29
Q35.1094 29 34 30
Q32.9062 31 32.9062 32.625
Q32.9062 34.9688 34.6094 36.625
Q36.3281 38.2812 38.625 38.2812
L38.8125 38.2812
Q37.6406 39.9844 35.4219 40.7969
Q33.2031 41.6094 30.8125 41.6094
Q24.9531 41.6094 20.5469 36.5938
Q16.1562 31.5938 13.9375 24.625
Q11.7188 17.6719 11.7188 11.9219" id="Cmmi10-63"/>
     </defs>
     <g transform="translate(63.71875 179.9)rotate(-90.0)scale(0.2 -0.2)">
      <use transform="translate(0.0 0.8125)" xlink:href="#Cmmi10-63"/>
     </g>
    </g>
   </g>
   <g id="text_15">
    <g clip-path="url(#p4bbcf401cb)">
     <!-- 2.000 -->
     <defs>
      <path d="
M10.6875 12.4062
L21 12.4062
L21 0
L10.6875 0
z
" id="BitstreamVeraSans-Roman-2e"/>
     </defs>
     <g style="fill:#0000a4;" transform="translate(179.459309589 150.016509128)rotate(-286.31646724453)scale(0.15 -0.15)">
      <use xlink:href="#BitstreamVeraSans-Roman-32"/>
      <use x="63.623046875" xlink:href="#BitstreamVeraSans-Roman-2e"/>
      <use x="95.41015625" xlink:href="#BitstreamVeraSans-Roman-30"/>
      <use x="159.033203125" xlink:href="#BitstreamVeraSans-Roman-30"/>
      <use x="222.65625" xlink:href="#BitstreamVeraSans-Roman-30"/>
     </g>
    </g>
   </g>
   <g id="text_16">
    <g clip-path="url(#p4bbcf401cb)">
     <!-- 4.000 -->
     <g style="fill:#0000c8;" transform="translate(226.543117292 226.291817225)rotate(-23.83642465984161)scale(0.15 -0.15)">
      <use xlink:href="#BitstreamVeraSans-Roman-34"/>
      <use x="63.623046875" xlink:href="#BitstreamVeraSans-Roman-2e"/>
      <use x="95.41015625" xlink:href="#BitstreamVeraSans-Roman-30"/>
      <use x="159.033203125" xlink:href="#BitstreamVeraSans-Roman-30"/>
      <use x="222.65625" xlink:href="#BitstreamVeraSans-Roman-30"/>
     </g>
    </g>
   </g>
   <g id="text_17">
    <g clip-path="url(#p4bbcf401cb)">
     <!-- 8.000 -->
     <defs>
      <path d="
M31.7812 34.625
Q24.75 34.625 20.7188 30.8594
Q16.7031 27.0938 16.7031 20.5156
Q16.7031 13.9219 20.7188 10.1562
Q24.75 6.39062 31.7812 6.39062
Q38.8125 6.39062 42.8594 10.1719
Q46.9219 13.9688 46.9219 20.5156
Q46.9219 27.0938 42.8906 30.8594
Q38.875 34.625 31.7812 34.625
M21.9219 38.8125
Q15.5781 40.375 12.0312 44.7188
Q8.5 49.0781 8.5 55.3281
Q8.5 64.0625 14.7188 69.1406
Q20.9531 74.2188 31.7812 74.2188
Q42.6719 74.2188 48.875 69.1406
Q55.0781 64.0625 55.0781 55.3281
Q55.0781 49.0781 51.5312 44.7188
Q48 40.375 41.7031 38.8125
Q48.8281 37.1562 52.7969 32.3125
Q56.7812 27.4844 56.7812 20.5156
Q56.7812 9.90625 50.3125 4.23438
Q43.8438 -1.42188 31.7812 -1.42188
Q19.7344 -1.42188 13.25 4.23438
Q6.78125 9.90625 6.78125 20.5156
Q6.78125 27.4844 10.7812 32.3125
Q14.7969 37.1562 21.9219 38.8125
M18.3125 54.3906
Q18.3125 48.7344 21.8438 45.5625
Q25.3906 42.3906 31.7812 42.3906
Q38.1406 42.3906 41.7188 45.5625
Q45.3125 48.7344 45.3125 54.3906
Q45.3125 60.0625 41.7188 63.2344
Q38.1406 66.4062 31.7812 66.4062
Q25.3906 66.4062 21.8438 63.2344
Q18.3125 60.0625 18.3125 54.3906" id="BitstreamVeraSans-Roman-38"/>
     </defs>
     <g style="fill:#0000ff;" transform="translate(230.184057189 114.876795796)rotate(-315.78284031299904)scale(0.15 -0.15)">
      <use xlink:href="#BitstreamVeraSans-Roman-38"/>
      <use x="63.623046875" xlink:href="#BitstreamVeraSans-Roman-2e"/>
      <use x="95.41015625" xlink:href="#BitstreamVeraSans-Roman-30"/>
      <use x="159.033203125" xlink:href="#BitstreamVeraSans-Roman-30"/>
      <use x="222.65625" xlink:href="#BitstreamVeraSans-Roman-30"/>
     </g>
    </g>
   </g>
   <g id="text_18">
    <g clip-path="url(#p4bbcf401cb)">
     <!-- 16.000 -->
     <g style="fill:#0080ff;" transform="translate(180.175757753 70.397339943)rotate(-344.34449467309514)scale(0.15 -0.15)">
      <use xlink:href="#BitstreamVeraSans-Roman-31"/>
      <use x="63.623046875" xlink:href="#BitstreamVeraSans-Roman-36"/>
      <use x="127.24609375" xlink:href="#BitstreamVeraSans-Roman-2e"/>
      <use x="159.033203125" xlink:href="#BitstreamVeraSans-Roman-30"/>
      <use x="222.65625" xlink:href="#BitstreamVeraSans-Roman-30"/>
      <use x="286.279296875" xlink:href="#BitstreamVeraSans-Roman-30"/>
     </g>
    </g>
   </g>
   <g id="text_19">
    <g clip-path="url(#p4bbcf401cb)">
     <!-- 32.000 -->
     <g style="fill:#7dff7a;" transform="translate(166.285937861 276.183434306)rotate(-328.5310535288457)scale(0.15 -0.15)">
      <use xlink:href="#BitstreamVeraSans-Roman-33"/>
      <use x="63.623046875" xlink:href="#BitstreamVeraSans-Roman-32"/>
      <use x="127.24609375" xlink:href="#BitstreamVeraSans-Roman-2e"/>
      <use x="159.033203125" xlink:href="#BitstreamVeraSans-Roman-30"/>
      <use x="222.65625" xlink:href="#BitstreamVeraSans-Roman-30"/>
      <use x="286.279296875" xlink:href="#BitstreamVeraSans-Roman-30"/>
     </g>
    </g>
   </g>
   <g id="text_20">
    <g clip-path="url(#p4bbcf401cb)">
     <!-- 32.000 -->
     <g style="fill:#7dff7a;" transform="translate(303.649408991 112.182667707)rotate(-300.33699193473865)scale(0.15 -0.15)">
      <use xlink:href="#BitstreamVeraSans-Roman-33"/>
      <use x="63.623046875" xlink:href="#BitstreamVeraSans-Roman-32"/>
      <use x="127.24609375" xlink:href="#BitstreamVeraSans-Roman-2e"/>
      <use x="159.033203125" xlink:href="#BitstreamVeraSans-Roman-30"/>
      <use x="222.65625" xlink:href="#BitstreamVeraSans-Roman-30"/>
      <use x="286.279296875" xlink:href="#BitstreamVeraSans-Roman-30"/>
     </g>
    </g>
   </g>
   <g id="text_21">
    <!-- Iteration 1300 -->
    <defs>
     <path d="
M56.2031 29.5938
L56.2031 25.2031
L14.8906 25.2031
Q15.4844 15.9219 20.4844 11.0625
Q25.4844 6.20312 34.4219 6.20312
Q39.5938 6.20312 44.4531 7.46875
Q49.3125 8.73438 54.1094 11.2812
L54.1094 2.78125
Q49.2656 0.734375 44.1875 -0.34375
Q39.1094 -1.42188 33.8906 -1.42188
Q20.7969 -1.42188 13.1562 6.1875
Q5.51562 13.8125 5.51562 26.8125
Q5.51562 40.2344 12.7656 48.1094
Q20.0156 56 32.3281 56
Q43.3594 56 49.7812 48.8906
Q56.2031 41.7969 56.2031 29.5938
M47.2188 32.2344
Q47.125 39.5938 43.0938 43.9844
Q39.0625 48.3906 32.4219 48.3906
Q24.9062 48.3906 20.3906 44.1406
Q15.875 39.8906 15.1875 32.1719
z
" id="BitstreamVeraSans-Roman-65"/>
     <path d="
M41.1094 46.2969
Q39.5938 47.1719 37.8125 47.5781
Q36.0312 48 33.8906 48
Q26.2656 48 22.1875 43.0469
Q18.1094 38.0938 18.1094 28.8125
L18.1094 0
L9.07812 0
L9.07812 54.6875
L18.1094 54.6875
L18.1094 46.1875
Q20.9531 51.1719 25.4844 53.5781
Q30.0312 56 36.5312 56
Q37.4531 56 38.5781 55.875
Q39.7031 55.7656 41.0625 55.5156
z
" id="BitstreamVeraSans-Roman-72"/>
     <path d="
M18.3125 70.2188
L18.3125 54.6875
L36.8125 54.6875
L36.8125 47.7031
L18.3125 47.7031
L18.3125 18.0156
Q18.3125 11.3281 20.1406 9.42188
Q21.9688 7.51562 27.5938 7.51562
L36.8125 7.51562
L36.8125 0
L27.5938 0
Q17.1875 0 13.2344 3.875
Q9.28125 7.76562 9.28125 18.0156
L9.28125 47.7031
L2.6875 47.7031
L2.6875 54.6875
L9.28125 54.6875
L9.28125 70.2188
z
" id="BitstreamVeraSans-Roman-74"/>
     <path id="BitstreamVeraSans-Roman-20"/>
     <path d="
M34.2812 27.4844
Q23.3906 27.4844 19.1875 25
Q14.9844 22.5156 14.9844 16.5
Q14.9844 11.7188 18.1406 8.90625
Q21.2969 6.10938 26.7031 6.10938
Q34.1875 6.10938 38.7031 11.4062
Q43.2188 16.7031 43.2188 25.4844
L43.2188 27.4844
z

M52.2031 31.2031
L52.2031 0
L43.2188 0
L43.2188 8.29688
Q40.1406 3.32812 35.5469 0.953125
Q30.9531 -1.42188 24.3125 -1.42188
Q15.9219 -1.42188 10.9531 3.29688
Q6 8.01562 6 15.9219
Q6 25.1406 12.1719 29.8281
Q18.3594 34.5156 30.6094 34.5156
L43.2188 34.5156
L43.2188 35.4062
Q43.2188 41.6094 39.1406 45
Q35.0625 48.3906 27.6875 48.3906
Q23 48.3906 18.5469 47.2656
Q14.1094 46.1406 10.0156 43.8906
L10.0156 52.2031
Q14.9375 54.1094 19.5781 55.0469
Q24.2188 56 28.6094 56
Q40.4844 56 46.3438 49.8438
Q52.2031 43.7031 52.2031 31.2031" id="BitstreamVeraSans-Roman-61"/>
     <path d="
M9.8125 72.9062
L19.6719 72.9062
L19.6719 0
L9.8125 0
z
" id="BitstreamVeraSans-Roman-49"/>
     <path d="
M54.8906 33.0156
L54.8906 0
L45.9062 0
L45.9062 32.7188
Q45.9062 40.4844 42.875 44.3281
Q39.8438 48.1875 33.7969 48.1875
Q26.5156 48.1875 22.3125 43.5469
Q18.1094 38.9219 18.1094 30.9062
L18.1094 0
L9.07812 0
L9.07812 54.6875
L18.1094 54.6875
L18.1094 46.1875
Q21.3438 51.125 25.7031 53.5625
Q30.0781 56 35.7969 56
Q45.2188 56 50.0469 50.1719
Q54.8906 44.3438 54.8906 33.0156" id="BitstreamVeraSans-Roman-6e"/>
     <path d="
M9.42188 54.6875
L18.4062 54.6875
L18.4062 0
L9.42188 0
z

M9.42188 75.9844
L18.4062 75.9844
L18.4062 64.5938
L9.42188 64.5938
z
" id="BitstreamVeraSans-Roman-69"/>
     <path d="
M30.6094 48.3906
Q23.3906 48.3906 19.1875 42.75
Q14.9844 37.1094 14.9844 27.2969
Q14.9844 17.4844 19.1562 11.8438
Q23.3438 6.20312 30.6094 6.20312
Q37.7969 6.20312 41.9844 11.8594
Q46.1875 17.5312 46.1875 27.2969
Q46.1875 37.0156 41.9844 42.7031
Q37.7969 48.3906 30.6094 48.3906
M30.6094 56
Q42.3281 56 49.0156 48.375
Q55.7188 40.7656 55.7188 27.2969
Q55.7188 13.875 49.0156 6.21875
Q42.3281 -1.42188 30.6094 -1.42188
Q18.8438 -1.42188 12.1719 6.21875
Q5.51562 13.875 5.51562 27.2969
Q5.51562 40.7656 12.1719 48.375
Q18.8438 56 30.6094 56" id="BitstreamVeraSans-Roman-6f"/>
    </defs>
    <g transform="translate(146.436931818 31.0)scale(0.2 -0.2)">
     <use xlink:href="#BitstreamVeraSans-Roman-49"/>
     <use x="29.4921875" xlink:href="#BitstreamVeraSans-Roman-74"/>
     <use x="68.701171875" xlink:href="#BitstreamVeraSans-Roman-65"/>
     <use x="130.224609375" xlink:href="#BitstreamVeraSans-Roman-72"/>
     <use x="171.337890625" xlink:href="#BitstreamVeraSans-Roman-61"/>
     <use x="232.6171875" xlink:href="#BitstreamVeraSans-Roman-74"/>
     <use x="271.826171875" xlink:href="#BitstreamVeraSans-Roman-69"/>
     <use x="299.609375" xlink:href="#BitstreamVeraSans-Roman-6f"/>
     <use x="360.791015625" xlink:href="#BitstreamVeraSans-Roman-6e"/>
     <use x="424.169921875" xlink:href="#BitstreamVeraSans-Roman-20"/>
     <use x="455.95703125" xlink:href="#BitstreamVeraSans-Roman-31"/>
     <use x="519.580078125" xlink:href="#BitstreamVeraSans-Roman-33"/>
     <use x="583.203125" xlink:href="#BitstreamVeraSans-Roman-30"/>
     <use x="646.826171875" xlink:href="#BitstreamVeraSans-Roman-30"/>
    </g>
   </g>
  </g>
  <g id="axes_2">
   <g id="patch_7">
    <path d="
M394.364 315
L648 315
L648 36
L394.364 36
z
" style="fill:#ffffff;"/>
   </g>
   <g id="line2d_57">
    <defs>
     <path d="
M0 2.5
C0.663008 2.5 1.29895 2.23658 1.76777 1.76777
C2.23658 1.29895 2.5 0.663008 2.5 0
C2.5 -0.663008 2.23658 -1.29895 1.76777 -1.76777
C1.29895 -2.23658 0.663008 -2.5 0 -2.5
C-0.663008 -2.5 -1.29895 -2.23658 -1.76777 -1.76777
C-2.23658 -1.29895 -2.5 -0.663008 -2.5 0
C-2.5 0.663008 -2.23658 1.29895 -1.76777 1.76777
C-1.29895 2.23658 -0.663008 2.5 0 2.5
z
" id="mc4338e9fff" style="stroke:#ff0000;stroke-width:0.5;"/>
    </defs>
    <g clip-path="url(#p447f0539f8)">
     <use style="fill:#ff0000;stroke:#ff0000;stroke-width:0.5;" x="620.618202619" xlink:href="#mc4338e9fff" y="16.540792265"/>
     <use style="fill:#ff0000;stroke:#ff0000;stroke-width:0.5;" x="404.360001071" xlink:href="#mc4338e9fff" y="138.741152274"/>
     <use style="fill:#ff0000;stroke:#ff0000;stroke-width:0.5;" x="506.147652962" xlink:href="#mc4338e9fff" y="108.730921441"/>
     <use style="fill:#ff0000;stroke:#ff0000;stroke-width:0.5;" x="511.713302303" xlink:href="#mc4338e9fff" y="79.8503187099"/>
    </g>
   </g>
   <g id="line2d_58">
    <path clip-path="url(#p447f0539f8)" d="
M394.364 153.182
L648 12.0477" style="fill:none;stroke:#0000ff;stroke-linecap:square;stroke-width:3;"/>
   </g>
   <g id="patch_8">
    <path d="
M394.364 315
L394.364 36" style="fill:none;stroke:#000000;stroke-linecap:square;stroke-linejoin:miter;"/>
   </g>
   <g id="patch_9">
    <path d="
M394.364 36
L648 36" style="fill:none;stroke:#000000;stroke-linecap:square;stroke-linejoin:miter;"/>
   </g>
   <g id="patch_10">
    <path d="
M648 315
L648 36" style="fill:none;stroke:#000000;stroke-linecap:square;stroke-linejoin:miter;"/>
   </g>
   <g id="patch_11">
    <path d="
M394.364 315
L648 315" style="fill:none;stroke:#000000;stroke-linecap:square;stroke-linejoin:miter;"/>
   </g>
   <g id="matplotlib.axis_3">
    <g id="xtick_7">
     <g id="line2d_59">
      <g>
       <use style="stroke:#000000;stroke-width:0.5;" x="394.363636364" xlink:href="#mc7db9fdffb" y="315.0"/>
      </g>
     </g>
     <g id="line2d_60">
      <g>
       <use style="stroke:#000000;stroke-width:0.5;" x="394.363636364" xlink:href="#m5a7d422ac3" y="36.0"/>
      </g>
     </g>
     <g id="text_22">
      <!-- −1.0 -->
      <g transform="translate(383.083948864 326.5984375)scale(0.1 -0.1)">
       <use xlink:href="#BitstreamVeraSans-Roman-2212"/>
       <use x="83.7890625" xlink:href="#BitstreamVeraSans-Roman-31"/>
       <use x="147.412109375" xlink:href="#BitstreamVeraSans-Roman-2e"/>
       <use x="179.19921875" xlink:href="#BitstreamVeraSans-Roman-30"/>
      </g>
     </g>
    </g>
    <g id="xtick_8">
     <g id="line2d_61">
      <g>
       <use style="stroke:#000000;stroke-width:0.5;" x="436.636363636" xlink:href="#mc7db9fdffb" y="315.0"/>
      </g>
     </g>
     <g id="line2d_62">
      <g>
       <use style="stroke:#000000;stroke-width:0.5;" x="436.636363636" xlink:href="#m5a7d422ac3" y="36.0"/>
      </g>
     </g>
     <g id="text_23">
      <!-- −0.5 -->
      <g transform="translate(425.461363636 326.5984375)scale(0.1 -0.1)">
       <use xlink:href="#BitstreamVeraSans-Roman-2212"/>
       <use x="83.7890625" xlink:href="#BitstreamVeraSans-Roman-30"/>
       <use x="147.412109375" xlink:href="#BitstreamVeraSans-Roman-2e"/>
       <use x="179.19921875" xlink:href="#BitstreamVeraSans-Roman-35"/>
      </g>
     </g>
    </g>
    <g id="xtick_9">
     <g id="line2d_63">
      <g>
       <use style="stroke:#000000;stroke-width:0.5;" x="478.909090909" xlink:href="#mc7db9fdffb" y="315.0"/>
      </g>
     </g>
     <g id="line2d_64">
      <g>
       <use style="stroke:#000000;stroke-width:0.5;" x="478.909090909" xlink:href="#m5a7d422ac3" y="36.0"/>
      </g>
     </g>
     <g id="text_24">
      <!-- 0.0 -->
      <g transform="translate(471.619247159 326.5984375)scale(0.1 -0.1)">
       <use xlink:href="#BitstreamVeraSans-Roman-30"/>
       <use x="63.623046875" xlink:href="#BitstreamVeraSans-Roman-2e"/>
       <use x="95.41015625" xlink:href="#BitstreamVeraSans-Roman-30"/>
      </g>
     </g>
    </g>
    <g id="xtick_10">
     <g id="line2d_65">
      <g>
       <use style="stroke:#000000;stroke-width:0.5;" x="521.181818182" xlink:href="#mc7db9fdffb" y="315.0"/>
      </g>
     </g>
     <g id="line2d_66">
      <g>
       <use style="stroke:#000000;stroke-width:0.5;" x="521.181818182" xlink:href="#m5a7d422ac3" y="36.0"/>
      </g>
     </g>
     <g id="text_25">
      <!-- 0.5 -->
      <g transform="translate(513.996661932 326.5984375)scale(0.1 -0.1)">
       <use xlink:href="#BitstreamVeraSans-Roman-30"/>
       <use x="63.623046875" xlink:href="#BitstreamVeraSans-Roman-2e"/>
       <use x="95.41015625" xlink:href="#BitstreamVeraSans-Roman-35"/>
      </g>
     </g>
    </g>
    <g id="xtick_11">
     <g id="line2d_67">
      <g>
       <use style="stroke:#000000;stroke-width:0.5;" x="563.454545455" xlink:href="#mc7db9fdffb" y="315.0"/>
      </g>
     </g>
     <g id="line2d_68">
      <g>
       <use style="stroke:#000000;stroke-width:0.5;" x="563.454545455" xlink:href="#m5a7d422ac3" y="36.0"/>
      </g>
     </g>
     <g id="text_26">
      <!-- 1.0 -->
      <g transform="translate(556.384232955 326.5984375)scale(0.1 -0.1)">
       <use xlink:href="#BitstreamVeraSans-Roman-31"/>
       <use x="63.623046875" xlink:href="#BitstreamVeraSans-Roman-2e"/>
       <use x="95.41015625" xlink:href="#BitstreamVeraSans-Roman-30"/>
      </g>
     </g>
    </g>
    <g id="xtick_12">
     <g id="line2d_69">
      <g>
       <use style="stroke:#000000;stroke-width:0.5;" x="605.727272727" xlink:href="#mc7db9fdffb" y="315.0"/>
      </g>
     </g>
     <g id="line2d_70">
      <g>
       <use style="stroke:#000000;stroke-width:0.5;" x="605.727272727" xlink:href="#m5a7d422ac3" y="36.0"/>
      </g>
     </g>
     <g id="text_27">
      <!-- 1.5 -->
      <g transform="translate(598.761647727 326.5984375)scale(0.1 -0.1)">
       <use xlink:href="#BitstreamVeraSans-Roman-31"/>
       <use x="63.623046875" xlink:href="#BitstreamVeraSans-Roman-2e"/>
       <use x="95.41015625" xlink:href="#BitstreamVeraSans-Roman-35"/>
      </g>
     </g>
    </g>
    <g id="xtick_13">
     <g id="line2d_71">
      <g>
       <use style="stroke:#000000;stroke-width:0.5;" x="648.0" xlink:href="#mc7db9fdffb" y="315.0"/>
      </g>
     </g>
     <g id="line2d_72">
      <g>
       <use style="stroke:#000000;stroke-width:0.5;" x="648.0" xlink:href="#m5a7d422ac3" y="36.0"/>
      </g>
     </g>
     <g id="text_28">
      <!-- 2.0 -->
      <g transform="translate(640.746875 326.5984375)scale(0.1 -0.1)">
       <use xlink:href="#BitstreamVeraSans-Roman-32"/>
       <use x="63.623046875" xlink:href="#BitstreamVeraSans-Roman-2e"/>
       <use x="95.41015625" xlink:href="#BitstreamVeraSans-Roman-30"/>
      </g>
     </g>
    </g>
    <g id="text_29">
     <!-- $x$ -->
     <defs>
      <path d="
M7.8125 2.875
Q9.57812 1.51562 12.7969 1.51562
Q15.9219 1.51562 18.3125 4.51562
Q20.7031 7.51562 21.5781 11.0781
L26.125 28.8125
Q27.2031 33.6406 27.2031 35.4062
Q27.2031 37.8906 25.8125 39.75
Q24.4219 41.6094 21.9219 41.6094
Q18.75 41.6094 15.9688 39.625
Q13.1875 37.6406 11.2812 34.5938
Q9.375 31.5469 8.59375 28.4219
Q8.40625 27.7812 7.8125 27.7812
L6.59375 27.7812
Q5.8125 27.7812 5.8125 28.7188
L5.8125 29
Q6.78125 32.7188 9.125 36.25
Q11.4688 39.7969 14.8594 41.9844
Q18.2656 44.1875 22.125 44.1875
Q25.7812 44.1875 28.7344 42.2344
Q31.6875 40.2812 32.9062 36.9219
Q34.625 39.9844 37.2812 42.0781
Q39.9375 44.1875 43.1094 44.1875
Q45.2656 44.1875 47.5 43.4219
Q49.75 42.6719 51.1719 41.1094
Q52.5938 39.5469 52.5938 37.2031
Q52.5938 34.6719 50.9531 32.8281
Q49.3125 31 46.7812 31
Q45.1719 31 44.0938 32.0312
Q43.0156 33.0625 43.0156 34.625
Q43.0156 36.7188 44.4531 38.2969
Q45.9062 39.8906 47.9062 40.1875
Q46.0938 41.6094 42.9219 41.6094
Q39.7031 41.6094 37.3281 38.625
Q34.9688 35.6406 33.9844 31.9844
L29.5938 14.3125
Q28.5156 10.2969 28.5156 7.71875
Q28.5156 5.17188 29.9531 3.34375
Q31.3906 1.51562 33.7969 1.51562
Q38.4844 1.51562 42.1562 5.64062
Q45.8438 9.76562 47.0156 14.7031
Q47.2188 15.2812 47.7969 15.2812
L49.0312 15.2812
Q49.4219 15.2812 49.6562 15.0156
Q49.9062 14.75 49.9062 14.4062
Q49.9062 14.3125 49.8125 14.1094
Q48.3906 8.15625 43.8438 3.51562
Q39.3125 -1.125 33.5938 -1.125
Q29.9375 -1.125 26.9844 0.84375
Q24.0312 2.82812 22.7969 6.20312
Q21.2344 3.26562 18.4688 1.0625
Q15.7188 -1.125 12.5938 -1.125
Q10.4531 -1.125 8.17188 -0.359375
Q5.90625 0.390625 4.48438 1.95312
Q3.07812 3.51562 3.07812 5.90625
Q3.07812 8.25 4.70312 10.1719
Q6.34375 12.1094 8.79688 12.1094
Q10.4531 12.1094 11.5781 11.1094
Q12.7031 10.1094 12.7031 8.5
Q12.7031 6.39062 11.2969 4.82812
Q9.90625 3.26562 7.8125 2.875" id="Cmmi10-78"/>
     </defs>
     <g transform="translate(515.381818182 348.875)scale(0.2 -0.2)">
      <use transform="translate(0.0 0.8125)" xlink:href="#Cmmi10-78"/>
     </g>
    </g>
   </g>
   <g id="matplotlib.axis_4">
    <g id="ytick_7">
     <g id="line2d_73">
      <g>
       <use style="stroke:#000000;stroke-width:0.5;" x="394.363636364" xlink:href="#md7965d1ba0" y="315.0"/>
      </g>
     </g>
     <g id="line2d_74">
      <g>
       <use style="stroke:#000000;stroke-width:0.5;" x="648.0" xlink:href="#md9a1c1a7cd" y="315.0"/>
      </g>
     </g>
     <g id="text_30">
      <!-- −9 -->
      <defs>
       <path d="
M10.9844 1.51562
L10.9844 10.5
Q14.7031 8.73438 18.5 7.8125
Q22.3125 6.89062 25.9844 6.89062
Q35.75 6.89062 40.8906 13.4531
Q46.0469 20.0156 46.7812 33.4062
Q43.9531 29.2031 39.5938 26.9531
Q35.25 24.7031 29.9844 24.7031
Q19.0469 24.7031 12.6719 31.3125
Q6.29688 37.9375 6.29688 49.4219
Q6.29688 60.6406 12.9375 67.4219
Q19.5781 74.2188 30.6094 74.2188
Q43.2656 74.2188 49.9219 64.5156
Q56.5938 54.8281 56.5938 36.375
Q56.5938 19.1406 48.4062 8.85938
Q40.2344 -1.42188 26.4219 -1.42188
Q22.7031 -1.42188 18.8906 -0.6875
Q15.0938 0.046875 10.9844 1.51562
M30.6094 32.4219
Q37.25 32.4219 41.125 36.9531
Q45.0156 41.5 45.0156 49.4219
Q45.0156 57.2812 41.125 61.8438
Q37.25 66.4062 30.6094 66.4062
Q23.9688 66.4062 20.0938 61.8438
Q16.2188 57.2812 16.2188 49.4219
Q16.2188 41.5 20.0938 36.9531
Q23.9688 32.4219 30.6094 32.4219" id="BitstreamVeraSans-Roman-39"/>
      </defs>
      <g transform="translate(377.383948864 317.759375)scale(0.1 -0.1)">
       <use xlink:href="#BitstreamVeraSans-Roman-2212"/>
       <use x="83.7890625" xlink:href="#BitstreamVeraSans-Roman-39"/>
      </g>
     </g>
    </g>
    <g id="ytick_8">
     <g id="line2d_75">
      <g>
       <use style="stroke:#000000;stroke-width:0.5;" x="394.363636364" xlink:href="#md7965d1ba0" y="280.125"/>
      </g>
     </g>
     <g id="line2d_76">
      <g>
       <use style="stroke:#000000;stroke-width:0.5;" x="648.0" xlink:href="#md9a1c1a7cd" y="280.125"/>
      </g>
     </g>
     <g id="text_31">
      <!-- −8 -->
      <g transform="translate(377.365198864 282.884375)scale(0.1 -0.1)">
       <use xlink:href="#BitstreamVeraSans-Roman-2212"/>
       <use x="83.7890625" xlink:href="#BitstreamVeraSans-Roman-38"/>
      </g>
     </g>
    </g>
    <g id="ytick_9">
     <g id="line2d_77">
      <g>
       <use style="stroke:#000000;stroke-width:0.5;" x="394.363636364" xlink:href="#md7965d1ba0" y="245.25"/>
      </g>
     </g>
     <g id="line2d_78">
      <g>
       <use style="stroke:#000000;stroke-width:0.5;" x="648.0" xlink:href="#md9a1c1a7cd" y="245.25"/>
      </g>
     </g>
     <g id="text_32">
      <!-- −7 -->
      <defs>
       <path d="
M8.20312 72.9062
L55.0781 72.9062
L55.0781 68.7031
L28.6094 0
L18.3125 0
L43.2188 64.5938
L8.20312 64.5938
z
" id="BitstreamVeraSans-Roman-37"/>
      </defs>
      <g transform="translate(377.535511364 248.009375)scale(0.1 -0.1)">
       <use xlink:href="#BitstreamVeraSans-Roman-2212"/>
       <use x="83.7890625" xlink:href="#BitstreamVeraSans-Roman-37"/>
      </g>
     </g>
    </g>
    <g id="ytick_10">
     <g id="line2d_79">
      <g>
       <use style="stroke:#000000;stroke-width:0.5;" x="394.363636364" xlink:href="#md7965d1ba0" y="210.375"/>
      </g>
     </g>
     <g id="line2d_80">
      <g>
       <use style="stroke:#000000;stroke-width:0.5;" x="648.0" xlink:href="#md9a1c1a7cd" y="210.375"/>
      </g>
     </g>
     <g id="text_33">
      <!-- −6 -->
      <g transform="translate(377.310511364 213.134375)scale(0.1 -0.1)">
       <use xlink:href="#BitstreamVeraSans-Roman-2212"/>
       <use x="83.7890625" xlink:href="#BitstreamVeraSans-Roman-36"/>
      </g>
     </g>
    </g>
    <g id="ytick_11">
     <g id="line2d_81">
      <g>
       <use style="stroke:#000000;stroke-width:0.5;" x="394.363636364" xlink:href="#md7965d1ba0" y="175.5"/>
      </g>
     </g>
     <g id="line2d_82">
      <g>
       <use style="stroke:#000000;stroke-width:0.5;" x="648.0" xlink:href="#md9a1c1a7cd" y="175.5"/>
      </g>
     </g>
     <g id="text_34">
      <!-- −5 -->
      <g transform="translate(377.554261364 178.259375)scale(0.1 -0.1)">
       <use xlink:href="#BitstreamVeraSans-Roman-2212"/>
       <use x="83.7890625" xlink:href="#BitstreamVeraSans-Roman-35"/>
      </g>
     </g>
    </g>
    <g id="ytick_12">
     <g id="line2d_83">
      <g>
       <use style="stroke:#000000;stroke-width:0.5;" x="394.363636364" xlink:href="#md7965d1ba0" y="140.625"/>
      </g>
     </g>
     <g id="line2d_84">
      <g>
       <use style="stroke:#000000;stroke-width:0.5;" x="648.0" xlink:href="#md9a1c1a7cd" y="140.625"/>
      </g>
     </g>
     <g id="text_35">
      <!-- −4 -->
      <g transform="translate(377.241761364 143.384375)scale(0.1 -0.1)">
       <use xlink:href="#BitstreamVeraSans-Roman-2212"/>
       <use x="83.7890625" xlink:href="#BitstreamVeraSans-Roman-34"/>
      </g>
     </g>
    </g>
    <g id="ytick_13">
     <g id="line2d_85">
      <g>
       <use style="stroke:#000000;stroke-width:0.5;" x="394.363636364" xlink:href="#md7965d1ba0" y="105.75"/>
      </g>
     </g>
     <g id="line2d_86">
      <g>
       <use style="stroke:#000000;stroke-width:0.5;" x="648.0" xlink:href="#md9a1c1a7cd" y="105.75"/>
      </g>
     </g>
     <g id="text_36">
      <!-- −3 -->
      <g transform="translate(377.482386364 108.509375)scale(0.1 -0.1)">
       <use xlink:href="#BitstreamVeraSans-Roman-2212"/>
       <use x="83.7890625" xlink:href="#BitstreamVeraSans-Roman-33"/>
      </g>
     </g>
    </g>
    <g id="ytick_14">
     <g id="line2d_87">
      <g>
       <use style="stroke:#000000;stroke-width:0.5;" x="394.363636364" xlink:href="#md7965d1ba0" y="70.875"/>
      </g>
     </g>
     <g id="line2d_88">
      <g>
       <use style="stroke:#000000;stroke-width:0.5;" x="648.0" xlink:href="#md9a1c1a7cd" y="70.875"/>
      </g>
     </g>
     <g id="text_37">
      <!-- −2 -->
      <g transform="translate(377.682386364 73.634375)scale(0.1 -0.1)">
       <use xlink:href="#BitstreamVeraSans-Roman-2212"/>
       <use x="83.7890625" xlink:href="#BitstreamVeraSans-Roman-32"/>
      </g>
     </g>
    </g>
    <g id="ytick_15">
     <g id="line2d_89">
      <g>
       <use style="stroke:#000000;stroke-width:0.5;" x="394.363636364" xlink:href="#md7965d1ba0" y="36.0"/>
      </g>
     </g>
     <g id="line2d_90">
      <g>
       <use style="stroke:#000000;stroke-width:0.5;" x="648.0" xlink:href="#md9a1c1a7cd" y="36.0"/>
      </g>
     </g>
     <g id="text_38">
      <!-- −1 -->
      <g transform="translate(377.604261364 38.759375)scale(0.1 -0.1)">
       <use xlink:href="#BitstreamVeraSans-Roman-2212"/>
       <use x="83.7890625" xlink:href="#BitstreamVeraSans-Roman-31"/>
      </g>
     </g>
    </g>
    <g id="text_39">
     <!-- $y$ -->
     <defs>
      <path d="
M8.40625 -14.3125
Q10.5 -17.9219 15.7188 -17.9219
Q20.4531 -17.9219 23.9219 -14.5938
Q27.3906 -11.2812 29.5156 -6.5625
Q31.6406 -1.85938 32.8125 3.07812
Q28.375 -1.125 23.1875 -1.125
Q19.2344 -1.125 16.4531 0.234375
Q13.6719 1.60938 12.125 4.3125
Q10.5938 7.03125 10.5938 10.8906
Q10.5938 14.1562 11.4688 17.5938
Q12.3594 21.0469 13.9375 25.2656
Q15.5312 29.5 16.7031 32.625
Q18.0156 36.2812 18.0156 38.625
Q18.0156 41.6094 15.8281 41.6094
Q11.8594 41.6094 9.29688 37.5312
Q6.73438 33.4531 5.51562 28.4219
Q5.32812 27.7812 4.6875 27.7812
L3.51562 27.7812
Q2.6875 27.7812 2.6875 28.7188
L2.6875 29
Q4.29688 34.9688 7.60938 39.5781
Q10.9375 44.1875 16.0156 44.1875
Q19.5781 44.1875 22.0469 41.8438
Q24.5156 39.5 24.5156 35.8906
Q24.5156 34.0312 23.6875 31.9844
Q23.25 30.7656 21.6875 26.6562
Q20.125 22.5625 19.2812 19.875
Q18.4531 17.1875 17.9219 14.5938
Q17.3906 12.0156 17.3906 9.42188
Q17.3906 6.10938 18.7969 3.8125
Q20.2188 1.51562 23.2969 1.51562
Q29.5 1.51562 34.4219 9.07812
L42 39.8906
Q42.3281 41.2188 43.5469 42.1562
Q44.7812 43.1094 46.1875 43.1094
Q47.4062 43.1094 48.3125 42.3281
Q49.2188 41.5469 49.2188 40.2812
Q49.2188 39.7031 49.125 39.5
L39.2031 -0.296875
Q37.8906 -5.42188 34.375 -10.1094
Q30.8594 -14.7969 25.9062 -17.6562
Q20.9531 -20.5156 15.5781 -20.5156
Q12.9844 -20.5156 10.4375 -19.5
Q7.90625 -18.5 6.34375 -16.5
Q4.78125 -14.5 4.78125 -11.8125
Q4.78125 -9.07812 6.39062 -7.07812
Q8.01562 -5.07812 10.6875 -5.07812
Q12.3125 -5.07812 13.4062 -6.07812
Q14.5 -7.07812 14.5 -8.6875
Q14.5 -10.9844 12.7812 -12.6875
Q11.0781 -14.4062 8.79688 -14.4062
Q8.6875 -14.3594 8.59375 -14.3281
Q8.5 -14.3125 8.40625 -14.3125" id="Cmmi10-79"/>
     </defs>
     <g transform="translate(368.041761364 180.5)rotate(-90.0)scale(0.2 -0.2)">
      <use transform="translate(0.0 0.8125)" xlink:href="#Cmmi10-79"/>
     </g>
    </g>
   </g>
   <g id="text_40">
    <!-- Best Fit -->
    <defs>
     <path d="
M9.8125 72.9062
L51.7031 72.9062
L51.7031 64.5938
L19.6719 64.5938
L19.6719 43.1094
L48.5781 43.1094
L48.5781 34.8125
L19.6719 34.8125
L19.6719 0
L9.8125 0
z
" id="BitstreamVeraSans-Roman-46"/>
     <path d="
M44.2812 53.0781
L44.2812 44.5781
Q40.4844 46.5312 36.375 47.5
Q32.2812 48.4844 27.875 48.4844
Q21.1875 48.4844 17.8438 46.4375
Q14.5 44.3906 14.5 40.2812
Q14.5 37.1562 16.8906 35.375
Q19.2812 33.5938 26.5156 31.9844
L29.5938 31.2969
Q39.1562 29.25 43.1875 25.5156
Q47.2188 21.7812 47.2188 15.0938
Q47.2188 7.46875 41.1875 3.01562
Q35.1562 -1.42188 24.6094 -1.42188
Q20.2188 -1.42188 15.4531 -0.5625
Q10.6875 0.296875 5.42188 2
L5.42188 11.2812
Q10.4062 8.6875 15.2344 7.39062
Q20.0625 6.10938 24.8125 6.10938
Q31.1562 6.10938 34.5625 8.28125
Q37.9844 10.4531 37.9844 14.4062
Q37.9844 18.0625 35.5156 20.0156
Q33.0625 21.9688 24.7031 23.7812
L21.5781 24.5156
Q13.2344 26.2656 9.51562 29.9062
Q5.8125 33.5469 5.8125 39.8906
Q5.8125 47.6094 11.2812 51.7969
Q16.75 56 26.8125 56
Q31.7812 56 36.1719 55.2656
Q40.5781 54.5469 44.2812 53.0781" id="BitstreamVeraSans-Roman-73"/>
     <path d="
M19.6719 34.8125
L19.6719 8.10938
L35.5 8.10938
Q43.4531 8.10938 47.2812 11.4062
Q51.125 14.7031 51.125 21.4844
Q51.125 28.3281 47.2812 31.5625
Q43.4531 34.8125 35.5 34.8125
z

M19.6719 64.7969
L19.6719 42.8281
L34.2812 42.8281
Q41.5 42.8281 45.0312 45.5312
Q48.5781 48.25 48.5781 53.8125
Q48.5781 59.3281 45.0312 62.0625
Q41.5 64.7969 34.2812 64.7969
z

M9.8125 72.9062
L35.0156 72.9062
Q46.2969 72.9062 52.3906 68.2188
Q58.5 63.5312 58.5 54.8906
Q58.5 48.1875 55.375 44.2344
Q52.25 40.2812 46.1875 39.3125
Q53.4688 37.75 57.5 32.7812
Q61.5312 27.8281 61.5312 20.4062
Q61.5312 10.6406 54.8906 5.3125
Q48.25 0 35.9844 0
L9.8125 0
z
" id="BitstreamVeraSans-Roman-42"/>
    </defs>
    <g transform="translate(484.374005682 31.0)scale(0.2 -0.2)">
     <use xlink:href="#BitstreamVeraSans-Roman-42"/>
     <use x="68.603515625" xlink:href="#BitstreamVeraSans-Roman-65"/>
     <use x="130.126953125" xlink:href="#BitstreamVeraSans-Roman-73"/>
     <use x="182.2265625" xlink:href="#BitstreamVeraSans-Roman-74"/>
     <use x="221.435546875" xlink:href="#BitstreamVeraSans-Roman-20"/>
     <use x="253.22265625" xlink:href="#BitstreamVeraSans-Roman-46"/>
     <use x="303.4921875" xlink:href="#BitstreamVeraSans-Roman-69"/>
     <use x="331.275390625" xlink:href="#BitstreamVeraSans-Roman-74"/>
    </g>
   </g>
  </g>
 </g>
 <defs>
  <clipPath id="p447f0539f8">
   <rect height="279.0" width="253.636363636" x="394.363636364" y="36.0"/>
  </clipPath>
  <clipPath id="p4bbcf401cb">
   <rect height="279.0" width="253.636363636" x="90.0" y="36.0"/>
  </clipPath>
 </defs>
</svg>
