<?xml version="1.0" encoding="utf-8" standalone="no"?>
<!DOCTYPE svg PUBLIC "-//W3C//DTD SVG 1.1//EN"
  "http://www.w3.org/Graphics/SVG/1.1/DTD/svg11.dtd">
<!-- Created with matplotlib (http://matplotlib.org/) -->
<svg height="360pt" version="1.1" viewBox="0 0 360 360" width="360pt" xmlns="http://www.w3.org/2000/svg" xmlns:xlink="http://www.w3.org/1999/xlink">
 <defs>
  <style type="text/css">
*{stroke-linecap:butt;stroke-linejoin:round;}
  </style>
 </defs>
 <g id="figure_1">
  <g id="patch_1">
   <path d="
M0 360
L360 360
L360 0
L0 0
z
" style="fill:#ffffff;"/>
  </g>
  <g id="axes_1">
   <g id="patch_2">
    <path d="
M45 315
L324 315
L324 36
L45 36
z
" style="fill:#ffffff;"/>
   </g>
   <g id="line2d_1">
    <path clip-path="url(#pd0c2820aef)" d="
M45 105.75
L47.8182 105.75
L50.6364 105.75
L53.4545 105.75
L56.2727 105.75
L59.0909 105.75
L61.9091 105.75
L64.7273 105.75
L67.5455 105.75
L70.3636 105.75
L73.1818 105.75
L76 105.75
L78.8182 105.75
L81.6364 105.75
L84.4545 105.75
L87.2727 105.75
L90.0909 105.75
L92.9091 105.75
L95.7273 105.75
L98.5455 105.75
L101.364 105.75
L104.182 105.75
L107 105.75
L109.818 105.75
L112.636 105.75
L115.455 105.75
L118.273 105.75
L121.091 105.75
L123.909 105.75
L126.727 105.75
L129.545 105.75
L132.364 105.75
L135.182 105.75
L138 105.75
L140.818 105.75
L143.636 105.75
L146.455 105.75
L149.273 105.75
L152.091 105.75
L154.909 105.75
L157.727 105.75
L160.545 105.75
L163.364 105.75
L166.182 105.75
L169 105.75
L171.818 105.75
L174.636 105.75
L177.455 105.75
L180.273 105.75
L183.091 105.75
L185.909 105.75
L188.727 105.75
L191.545 105.75
L194.364 105.75
L197.182 105.75
L200 105.75
L202.818 105.75
L205.636 105.75
L208.455 105.75
L211.273 105.75
L214.091 105.75
L216.909 105.75
L219.727 105.75
L222.545 105.75
L225.364 105.75
L228.182 105.75
L231 105.75
L233.818 105.75
L236.636 105.75
L239.455 105.75
L242.273 105.75
L245.091 105.75
L247.909 105.75
L250.727 105.75
L253.545 105.75
L256.364 105.75
L259.182 105.75
L262 105.75
L264.818 105.75
L267.636 105.75
L270.455 105.75
L273.273 105.75
L276.091 105.75
L278.909 105.75
L281.727 105.75
L284.545 105.75
L287.364 105.75
L290.182 105.75
L293 105.75
L295.818 105.75
L298.636 105.75
L301.455 105.75
L304.273 105.75
L307.091 105.75
L309.909 105.75
L312.727 105.75
L315.545 105.75
L318.364 105.75
L321.182 105.75
L324 105.75" style="fill:none;stroke:#ff0000;stroke-linecap:square;stroke-width:3;"/>
   </g>
   <g id="line2d_2">
    <path clip-path="url(#pd0c2820aef)" d="
M45 266.175
L47.8182 264.343
L50.6364 262.511
L53.4545 260.68
L56.2727 258.848
L59.0909 257.016
L61.9091 255.184
L64.7273 253.352
L67.5455 251.52
L70.3636 249.689
L73.1818 247.857
L76 246.025
L78.8182 244.193
L81.6364 242.361
L84.4545 240.53
L87.2727 238.698
L90.0909 236.866
L92.9091 235.034
L95.7273 233.202
L98.5455 231.37
L101.364 229.539
L104.182 227.707
L107 225.875
L109.818 224.043
L112.636 222.211
L115.455 220.38
L118.273 218.548
L121.091 216.716
L123.909 214.884
L126.727 213.052
L129.545 211.22
L132.364 209.389
L135.182 207.557
L138 205.725
L140.818 203.893
L143.636 202.061
L146.455 200.23
L149.273 198.398
L152.091 196.566
L154.909 194.734
L157.727 192.902
L160.545 191.07
L163.364 189.239
L166.182 187.407
L169 185.575
L171.818 183.743
L174.636 181.911
L177.455 180.08
L180.273 178.248
L183.091 176.416
L185.909 174.584
L188.727 172.752
L191.545 170.92
L194.364 169.089
L197.182 167.257
L200 165.425
L202.818 163.593
L205.636 161.761
L208.455 159.93
L211.273 158.098
L214.091 156.266
L216.909 154.434
L219.727 152.602
L222.545 150.77
L225.364 148.939
L228.182 147.107
L231 145.275
L233.818 143.443
L236.636 141.611
L239.455 139.78
L242.273 137.948
L245.091 136.116
L247.909 134.284
L250.727 132.452
L253.545 130.62
L256.364 128.789
L259.182 126.957
L262 125.125
L264.818 123.293
L267.636 121.461
L270.455 119.63
L273.273 117.798
L276.091 115.966
L278.909 114.134
L281.727 112.302
L284.545 110.47
L287.364 108.639
L290.182 106.807
L293 104.975
L295.818 103.143
L298.636 101.311
L301.455 99.4795
L304.273 97.6477
L307.091 95.8159
L309.909 93.9841
L312.727 92.1523
L315.545 90.3205
L318.364 88.4886
L321.182 86.6568
L324 84.825" style="fill:none;stroke:#ff00ff;stroke-linecap:square;stroke-width:3;"/>
   </g>
   <g id="line2d_3">
    <path clip-path="url(#pd0c2820aef)" d="
M45 57.6225
L47.8182 62.3371
L50.6364 66.9555
L53.4545 71.4777
L56.2727 75.9037
L59.0909 80.2334
L61.9091 84.467
L64.7273 88.6043
L67.5455 92.6454
L70.3636 96.5903
L73.1818 100.439
L76 104.191
L78.8182 107.848
L81.6364 111.408
L84.4545 114.871
L87.2727 118.239
L90.0909 121.51
L92.9091 124.686
L95.7273 127.764
L98.5455 130.747
L101.364 133.634
L104.182 136.424
L107 139.118
L109.818 141.716
L112.636 144.218
L115.455 146.623
L118.273 148.932
L121.091 151.145
L123.909 153.262
L126.727 155.282
L129.545 157.207
L132.364 159.035
L135.182 160.767
L138 162.403
L140.818 163.942
L143.636 165.385
L146.455 166.732
L149.273 167.983
L152.091 169.138
L154.909 170.196
L157.727 171.158
L160.545 172.024
L163.364 172.794
L166.182 173.467
L169 174.045
L171.818 174.526
L174.636 174.911
L177.455 175.199
L180.273 175.392
L183.091 175.488
L185.909 175.488
L188.727 175.392
L191.545 175.199
L194.364 174.911
L197.182 174.526
L200 174.045
L202.818 173.467
L205.636 172.794
L208.455 172.024
L211.273 171.158
L214.091 170.196
L216.909 169.138
L219.727 167.983
L222.545 166.732
L225.364 165.385
L228.182 163.942
L231 162.403
L233.818 160.767
L236.636 159.035
L239.455 157.207
L242.273 155.282
L245.091 153.262
L247.909 151.145
L250.727 148.932
L253.545 146.623
L256.364 144.218
L259.182 141.716
L262 139.118
L264.818 136.424
L267.636 133.634
L270.455 130.747
L273.273 127.764
L276.091 124.686
L278.909 121.51
L281.727 118.239
L284.545 114.871
L287.364 111.408
L290.182 107.848
L293 104.191
L295.818 100.439
L298.636 96.5903
L301.455 92.6454
L304.273 88.6043
L307.091 84.467
L309.909 80.2334
L312.727 75.9037
L315.545 71.4777
L318.364 66.9555
L321.182 62.3371
L324 57.6225" style="fill:none;stroke:#0000ff;stroke-linecap:square;stroke-width:3;"/>
   </g>
   <g id="patch_3">
    <path d="
M45 315
L45 36" style="fill:none;stroke:#000000;stroke-linecap:square;stroke-linejoin:miter;"/>
   </g>
   <g id="patch_4">
    <path d="
M45 36
L324 36" style="fill:none;stroke:#000000;stroke-linecap:square;stroke-linejoin:miter;"/>
   </g>
   <g id="patch_5">
    <path d="
M324 315
L324 36" style="fill:none;stroke:#000000;stroke-linecap:square;stroke-linejoin:miter;"/>
   </g>
   <g id="patch_6">
    <path d="
M45 315
L324 315" style="fill:none;stroke:#000000;stroke-linecap:square;stroke-linejoin:miter;"/>
   </g>
   <g id="matplotlib.axis_1">
    <g id="xtick_1">
     <g id="line2d_4">
      <defs>
       <path d="
M0 0
L0 -4" id="mc7db9fdffb" style="stroke:#000000;stroke-width:0.5;"/>
      </defs>
      <g>
       <use style="stroke:#000000;stroke-width:0.5;" x="77.1923076923" xlink:href="#mc7db9fdffb" y="315.0"/>
      </g>
     </g>
     <g id="line2d_5">
      <defs>
       <path d="
M0 0
L0 4" id="m5a7d422ac3" style="stroke:#000000;stroke-width:0.5;"/>
      </defs>
      <g>
       <use style="stroke:#000000;stroke-width:0.5;" x="77.1923076923" xlink:href="#m5a7d422ac3" y="36.0"/>
      </g>
     </g>
     <g id="text_1">
      <!-- −1 -->
      <defs>
       <path d="
M10.5938 35.5
L73.1875 35.5
L73.1875 27.2031
L10.5938 27.2031
z
" id="BitstreamVeraSans-Roman-2212"/>
       <path d="
M12.4062 8.29688
L28.5156 8.29688
L28.5156 63.9219
L10.9844 60.4062
L10.9844 69.3906
L28.4219 72.9062
L38.2812 72.9062
L38.2812 8.29688
L54.3906 8.29688
L54.3906 0
L12.4062 0
z
" id="BitstreamVeraSans-Roman-31"/>
      </defs>
      <g transform="translate(70.8126201923 326.5984375)scale(0.1 -0.1)">
       <use xlink:href="#BitstreamVeraSans-Roman-2212"/>
       <use x="83.7890625" xlink:href="#BitstreamVeraSans-Roman-31"/>
      </g>
     </g>
    </g>
    <g id="xtick_2">
     <g id="line2d_6">
      <g>
       <use style="stroke:#000000;stroke-width:0.5;" x="184.5" xlink:href="#mc7db9fdffb" y="315.0"/>
      </g>
     </g>
     <g id="line2d_7">
      <g>
       <use style="stroke:#000000;stroke-width:0.5;" x="184.5" xlink:href="#m5a7d422ac3" y="36.0"/>
      </g>
     </g>
     <g id="text_2">
      <!-- 0 -->
      <defs>
       <path d="
M31.7812 66.4062
Q24.1719 66.4062 20.3281 58.9062
Q16.5 51.4219 16.5 36.375
Q16.5 21.3906 20.3281 13.8906
Q24.1719 6.39062 31.7812 6.39062
Q39.4531 6.39062 43.2812 13.8906
Q47.125 21.3906 47.125 36.375
Q47.125 51.4219 43.2812 58.9062
Q39.4531 66.4062 31.7812 66.4062
M31.7812 74.2188
Q44.0469 74.2188 50.5156 64.5156
Q56.9844 54.8281 56.9844 36.375
Q56.9844 17.9688 50.5156 8.26562
Q44.0469 -1.42188 31.7812 -1.42188
Q19.5312 -1.42188 13.0625 8.26562
Q6.59375 17.9688 6.59375 36.375
Q6.59375 54.8281 13.0625 64.5156
Q19.5312 74.2188 31.7812 74.2188" id="BitstreamVeraSans-Roman-30"/>
      </defs>
      <g transform="translate(181.98046875 326.5984375)scale(0.1 -0.1)">
       <use xlink:href="#BitstreamVeraSans-Roman-30"/>
      </g>
     </g>
    </g>
    <g id="xtick_3">
     <g id="line2d_8">
      <g>
       <use style="stroke:#000000;stroke-width:0.5;" x="291.807692308" xlink:href="#mc7db9fdffb" y="315.0"/>
      </g>
     </g>
     <g id="line2d_9">
      <g>
       <use style="stroke:#000000;stroke-width:0.5;" x="291.807692308" xlink:href="#m5a7d422ac3" y="36.0"/>
      </g>
     </g>
     <g id="text_3">
      <!-- 1 -->
      <g transform="translate(289.637379808 326.5984375)scale(0.1 -0.1)">
       <use xlink:href="#BitstreamVeraSans-Roman-31"/>
      </g>
     </g>
    </g>
    <g id="text_4">
     <!-- $x$ -->
     <defs>
      <path d="
M7.8125 2.875
Q9.57812 1.51562 12.7969 1.51562
Q15.9219 1.51562 18.3125 4.51562
Q20.7031 7.51562 21.5781 11.0781
L26.125 28.8125
Q27.2031 33.6406 27.2031 35.4062
Q27.2031 37.8906 25.8125 39.75
Q24.4219 41.6094 21.9219 41.6094
Q18.75 41.6094 15.9688 39.625
Q13.1875 37.6406 11.2812 34.5938
Q9.375 31.5469 8.59375 28.4219
Q8.40625 27.7812 7.8125 27.7812
L6.59375 27.7812
Q5.8125 27.7812 5.8125 28.7188
L5.8125 29
Q6.78125 32.7188 9.125 36.25
Q11.4688 39.7969 14.8594 41.9844
Q18.2656 44.1875 22.125 44.1875
Q25.7812 44.1875 28.7344 42.2344
Q31.6875 40.2812 32.9062 36.9219
Q34.625 39.9844 37.2812 42.0781
Q39.9375 44.1875 43.1094 44.1875
Q45.2656 44.1875 47.5 43.4219
Q49.75 42.6719 51.1719 41.1094
Q52.5938 39.5469 52.5938 37.2031
Q52.5938 34.6719 50.9531 32.8281
Q49.3125 31 46.7812 31
Q45.1719 31 44.0938 32.0312
Q43.0156 33.0625 43.0156 34.625
Q43.0156 36.7188 44.4531 38.2969
Q45.9062 39.8906 47.9062 40.1875
Q46.0938 41.6094 42.9219 41.6094
Q39.7031 41.6094 37.3281 38.625
Q34.9688 35.6406 33.9844 31.9844
L29.5938 14.3125
Q28.5156 10.2969 28.5156 7.71875
Q28.5156 5.17188 29.9531 3.34375
Q31.3906 1.51562 33.7969 1.51562
Q38.4844 1.51562 42.1562 5.64062
Q45.8438 9.76562 47.0156 14.7031
Q47.2188 15.2812 47.7969 15.2812
L49.0312 15.2812
Q49.4219 15.2812 49.6562 15.0156
Q49.9062 14.75 49.9062 14.4062
Q49.9062 14.3125 49.8125 14.1094
Q48.3906 8.15625 43.8438 3.51562
Q39.3125 -1.125 33.5938 -1.125
Q29.9375 -1.125 26.9844 0.84375
Q24.0312 2.82812 22.7969 6.20312
Q21.2344 3.26562 18.4688 1.0625
Q15.7188 -1.125 12.5938 -1.125
Q10.4531 -1.125 8.17188 -0.359375
Q5.90625 0.390625 4.48438 1.95312
Q3.07812 3.51562 3.07812 5.90625
Q3.07812 8.25 4.70312 10.1719
Q6.34375 12.1094 8.79688 12.1094
Q10.4531 12.1094 11.5781 11.1094
Q12.7031 10.1094 12.7031 8.5
Q12.7031 6.39062 11.2969 4.82812
Q9.90625 3.26562 7.8125 2.875" id="Cmmi10-78"/>
     </defs>
     <g transform="translate(178.7 348.875)scale(0.2 -0.2)">
      <use transform="translate(0.0 0.8125)" xlink:href="#Cmmi10-78"/>
     </g>
    </g>
   </g>
   <g id="matplotlib.axis_2">
    <g id="ytick_1">
     <g id="line2d_10">
      <defs>
       <path d="
M0 0
L4 0" id="md7965d1ba0" style="stroke:#000000;stroke-width:0.5;"/>
      </defs>
      <g>
       <use style="stroke:#000000;stroke-width:0.5;" x="45.0" xlink:href="#md7965d1ba0" y="315.0"/>
      </g>
     </g>
     <g id="line2d_11">
      <defs>
       <path d="
M0 0
L-4 0" id="md9a1c1a7cd" style="stroke:#000000;stroke-width:0.5;"/>
      </defs>
      <g>
       <use style="stroke:#000000;stroke-width:0.5;" x="324.0" xlink:href="#md9a1c1a7cd" y="315.0"/>
      </g>
     </g>
     <g id="text_5">
      <!-- −2 -->
      <defs>
       <path d="
M19.1875 8.29688
L53.6094 8.29688
L53.6094 0
L7.32812 0
L7.32812 8.29688
Q12.9375 14.1094 22.625 23.8906
Q32.3281 33.6875 34.8125 36.5312
Q39.5469 41.8438 41.4219 45.5312
Q43.3125 49.2188 43.3125 52.7812
Q43.3125 58.5938 39.2344 62.25
Q35.1562 65.9219 28.6094 65.9219
Q23.9688 65.9219 18.8125 64.3125
Q13.6719 62.7031 7.8125 59.4219
L7.8125 69.3906
Q13.7656 71.7812 18.9375 73
Q24.125 74.2188 28.4219 74.2188
Q39.75 74.2188 46.4844 68.5469
Q53.2188 62.8906 53.2188 53.4219
Q53.2188 48.9219 51.5312 44.8906
Q49.8594 40.875 45.4062 35.4062
Q44.1875 33.9844 37.6406 27.2188
Q31.1094 20.4531 19.1875 8.29688" id="BitstreamVeraSans-Roman-32"/>
      </defs>
      <g transform="translate(28.31875 317.759375)scale(0.1 -0.1)">
       <use xlink:href="#BitstreamVeraSans-Roman-2212"/>
       <use x="83.7890625" xlink:href="#BitstreamVeraSans-Roman-32"/>
      </g>
     </g>
    </g>
    <g id="ytick_2">
     <g id="line2d_12">
      <g>
       <use style="stroke:#000000;stroke-width:0.5;" x="45.0" xlink:href="#md7965d1ba0" y="245.25"/>
      </g>
     </g>
     <g id="line2d_13">
      <g>
       <use style="stroke:#000000;stroke-width:0.5;" x="324.0" xlink:href="#md9a1c1a7cd" y="245.25"/>
      </g>
     </g>
     <g id="text_6">
      <!-- −1 -->
      <g transform="translate(28.240625 248.009375)scale(0.1 -0.1)">
       <use xlink:href="#BitstreamVeraSans-Roman-2212"/>
       <use x="83.7890625" xlink:href="#BitstreamVeraSans-Roman-31"/>
      </g>
     </g>
    </g>
    <g id="ytick_3">
     <g id="line2d_14">
      <g>
       <use style="stroke:#000000;stroke-width:0.5;" x="45.0" xlink:href="#md7965d1ba0" y="175.5"/>
      </g>
     </g>
     <g id="line2d_15">
      <g>
       <use style="stroke:#000000;stroke-width:0.5;" x="324.0" xlink:href="#md9a1c1a7cd" y="175.5"/>
      </g>
     </g>
     <g id="text_7">
      <!-- 0 -->
      <g transform="translate(35.9609375 178.259375)scale(0.1 -0.1)">
       <use xlink:href="#BitstreamVeraSans-Roman-30"/>
      </g>
     </g>
    </g>
    <g id="ytick_4">
     <g id="line2d_16">
      <g>
       <use style="stroke:#000000;stroke-width:0.5;" x="45.0" xlink:href="#md7965d1ba0" y="105.75"/>
      </g>
     </g>
     <g id="line2d_17">
      <g>
       <use style="stroke:#000000;stroke-width:0.5;" x="324.0" xlink:href="#md9a1c1a7cd" y="105.75"/>
      </g>
     </g>
     <g id="text_8">
      <!-- 1 -->
      <g transform="translate(36.659375 108.509375)scale(0.1 -0.1)">
       <use xlink:href="#BitstreamVeraSans-Roman-31"/>
      </g>
     </g>
    </g>
    <g id="ytick_5">
     <g id="line2d_18">
      <g>
       <use style="stroke:#000000;stroke-width:0.5;" x="45.0" xlink:href="#md7965d1ba0" y="36.0"/>
      </g>
     </g>
     <g id="line2d_19">
      <g>
       <use style="stroke:#000000;stroke-width:0.5;" x="324.0" xlink:href="#md9a1c1a7cd" y="36.0"/>
      </g>
     </g>
     <g id="text_9">
      <!-- 2 -->
      <g transform="translate(36.371875 38.759375)scale(0.1 -0.1)">
       <use xlink:href="#BitstreamVeraSans-Roman-32"/>
      </g>
     </g>
    </g>
    <g id="text_10">
     <!-- $\phi(x)$ -->
     <defs>
      <path d="
M19.3906 -19.4844
L23.875 -1.42188
Q18.7969 -1.42188 14.4062 0.953125
Q10.0156 3.32812 7.34375 7.5625
Q4.6875 11.8125 4.6875 16.7969
Q4.6875 22.2188 7.375 27.1406
Q10.0625 32.0781 14.7188 36.1094
Q19.3906 40.1406 24.75 42.3125
Q30.125 44.4844 35.4062 44.4844
L41.4062 68.7969
Q41.6094 69.3906 42.1875 69.3906
L43.4062 69.3906
Q43.7969 69.3906 44.0312 69.0469
Q44.2812 68.7031 44.2812 68.4062
L38.2812 44.4844
Q42.0469 44.4844 45.5625 43.1094
Q49.0781 41.75 51.7812 39.2812
Q54.5 36.8125 56 33.4688
Q57.5156 30.125 57.5156 26.3125
Q57.5156 20.9062 54.8281 15.9688
Q52.1562 11.0312 47.6094 7.07812
Q43.0625 3.125 37.4688 0.84375
Q31.8906 -1.42188 26.8125 -1.42188
L22.2188 -19.9219
Q22.0156 -20.5156 21.3906 -20.5156
L20.2188 -20.5156
Q19.8281 -20.5156 19.6094 -20.1406
Q19.3906 -19.7812 19.3906 -19.4844
M24.5156 1.21875
L34.7188 41.8906
Q32.1719 41.8906 29.3906 40.8594
Q26.6094 39.8438 24.1406 38.2812
Q21.6875 36.7188 19.6719 34.7188
Q17.2344 32.2812 15.375 28.9531
Q13.5312 25.6406 12.5781 21.9531
Q11.625 18.2656 11.625 14.7031
Q11.625 10.9375 13.2344 7.85938
Q14.8438 4.78125 17.7656 3
Q20.7031 1.21875 24.5156 1.21875
M27.4844 1.21875
Q31.25 1.21875 35.5 3.35938
Q39.75 5.51562 42.4844 8.40625
Q46.2344 12.1094 48.4062 17.5
Q50.5938 22.9062 50.5938 28.4219
Q50.5938 32.125 48.9688 35.2188
Q47.3594 38.3281 44.4219 40.1094
Q41.5 41.8906 37.7031 41.8906
z
" id="Cmmi10-c1"/>
      <path d="
M6.5 -25
Q5.60938 -25 5.60938 -24.125
Q5.60938 -23.6875 5.8125 -23.4844
Q22.9062 -6.78125 22.9062 25
Q22.9062 56.7812 6 73.2969
Q5.60938 73.5312 5.60938 74.125
Q5.60938 74.4688 5.875 74.7344
Q6.15625 75 6.5 75
L7.42188 75
Q7.71875 75 7.90625 74.8125
Q15.0938 69.1406 19.875 61.0312
Q24.6562 52.9375 26.875 43.75
Q29.1094 34.5781 29.1094 25
Q29.1094 17.9219 27.9062 11.0625
Q26.7031 4.20312 24.0938 -2.45312
Q21.4844 -9.125 17.4844 -14.7656
Q13.4844 -20.4062 7.90625 -24.8125
Q7.71875 -25 7.42188 -25
z
" id="Cmr10-29"/>
      <path d="
M31 -24.8125
Q25.4375 -20.4062 21.4062 -14.7188
Q17.3906 -9.03125 14.8125 -2.57812
Q12.25 3.85938 10.9844 10.8906
Q9.71875 17.9219 9.71875 25
Q9.71875 32.1719 10.9844 39.2031
Q12.25 46.2344 14.8594 52.7344
Q17.4844 59.2344 21.5312 64.8906
Q25.5938 70.5625 31 74.8125
Q31 75 31.5 75
L32.4219 75
Q32.7188 75 32.9531 74.7344
Q33.2031 74.4688 33.2031 74.125
Q33.2031 73.6875 33.0156 73.4844
Q28.125 68.7031 24.875 63.2344
Q21.625 57.7656 19.6406 51.5781
Q17.6719 45.4062 16.7969 38.7812
Q15.9219 32.1719 15.9219 25
Q15.9219 -6.78125 32.9062 -23.2969
Q33.2031 -23.5781 33.2031 -24.125
Q33.2031 -24.3594 32.9375 -24.6719
Q32.6719 -25 32.4219 -25
L31.5 -25
Q31 -25 31 -24.8125" id="Cmr10-28"/>
     </defs>
     <g transform="translate(18.240625 195.0)rotate(-90.0)scale(0.2 -0.2)">
      <use xlink:href="#Cmmi10-c1"/>
      <use transform="translate(59.521484375 0.0)" xlink:href="#Cmr10-28"/>
      <use transform="translate(98.33984375 0.0)" xlink:href="#Cmmi10-78"/>
      <use transform="translate(155.419921875 0.0)" xlink:href="#Cmr10-29"/>
     </g>
    </g>
   </g>
   <g id="text_11">
    <!-- $\phi(x) = 1$ -->
    <defs>
     <path d="
M7.51562 13.2812
Q6.6875 13.2812 6.14062 13.9062
Q5.60938 14.5469 5.60938 15.2812
Q5.60938 16.1094 6.14062 16.6875
Q6.6875 17.2812 7.51562 17.2812
L70.3125 17.2812
Q71.0469 17.2812 71.5781 16.6875
Q72.125 16.1094 72.125 15.2812
Q72.125 14.5469 71.5781 13.9062
Q71.0469 13.2812 70.3125 13.2812
z

M7.51562 32.7188
Q6.6875 32.7188 6.14062 33.2969
Q5.60938 33.8906 5.60938 34.7188
Q5.60938 35.4531 6.14062 36.0781
Q6.6875 36.7188 7.51562 36.7188
L70.3125 36.7188
Q71.0469 36.7188 71.5781 36.0781
Q72.125 35.4531 72.125 34.7188
Q72.125 33.8906 71.5781 33.2969
Q71.0469 32.7188 70.3125 32.7188
z
" id="Cmr10-3d"/>
     <path d="
M9.28125 0
L9.28125 3.51562
Q21.7812 3.51562 21.7812 6.6875
L21.7812 59.1875
Q16.6094 56.6875 8.6875 56.6875
L8.6875 60.2031
Q20.9531 60.2031 27.2031 66.6094
L28.6094 66.6094
Q28.9531 66.6094 29.2656 66.3281
Q29.5938 66.0625 29.5938 65.7188
L29.5938 6.6875
Q29.5938 3.51562 42.0938 3.51562
L42.0938 0
z
" id="Cmr10-31"/>
    </defs>
    <g transform="translate(149.9 77.85)scale(0.2 -0.2)">
     <use xlink:href="#Cmmi10-c1"/>
     <use transform="translate(59.521484375 0.0)" xlink:href="#Cmr10-28"/>
     <use transform="translate(98.33984375 0.0)" xlink:href="#Cmmi10-78"/>
     <use transform="translate(155.419921875 0.0)" xlink:href="#Cmr10-29"/>
     <use transform="translate(211.796875 0.0)" xlink:href="#Cmr10-3d"/>
     <use transform="translate(295.85546875 0.0)" xlink:href="#Cmr10-31"/>
    </g>
   </g>
   <g id="text_12">
    <!-- $\phi(x) = x$ -->
    <g transform="translate(149.2 224.325)scale(0.2 -0.2)">
     <use xlink:href="#Cmmi10-c1"/>
     <use transform="translate(59.521484375 0.0)" xlink:href="#Cmr10-28"/>
     <use transform="translate(98.33984375 0.0)" xlink:href="#Cmmi10-78"/>
     <use transform="translate(155.419921875 0.0)" xlink:href="#Cmr10-29"/>
     <use transform="translate(211.796875 0.0)" xlink:href="#Cmr10-3d"/>
     <use transform="translate(295.85546875 0.0)" xlink:href="#Cmmi10-78"/>
    </g>
   </g>
   <g id="text_13">
    <!-- $\phi(x) = x^2$ -->
    <defs>
     <path d="
M4.98438 0
L4.98438 2.6875
Q4.98438 2.9375 5.17188 3.21875
L20.7031 20.4062
Q24.2188 24.2188 26.4062 26.7969
Q28.6094 29.3906 30.75 32.7656
Q32.9062 36.1406 34.1562 39.625
Q35.4062 43.1094 35.4062 47.0156
Q35.4062 51.125 33.8906 54.8594
Q32.375 58.5938 29.375 60.8438
Q26.375 63.0938 22.125 63.0938
Q17.7812 63.0938 14.3125 60.4688
Q10.8438 57.8594 9.42188 53.7188
Q9.8125 53.8125 10.5 53.8125
Q12.75 53.8125 14.3281 52.2969
Q15.9219 50.7812 15.9219 48.3906
Q15.9219 46.0938 14.3281 44.5
Q12.75 42.9219 10.5 42.9219
Q8.15625 42.9219 6.5625 44.5469
Q4.98438 46.1875 4.98438 48.3906
Q4.98438 52.1562 6.39062 55.4375
Q7.8125 58.7344 10.4688 61.2969
Q13.1406 63.875 16.4844 65.2344
Q19.8281 66.6094 23.5781 66.6094
Q29.2969 66.6094 34.2188 64.1875
Q39.1562 61.7656 42.0312 57.3438
Q44.9219 52.9375 44.9219 47.0156
Q44.9219 42.6719 43.0156 38.7656
Q41.1094 34.8594 38.125 31.6562
Q35.1562 28.4688 30.5156 24.4062
Q25.875 20.3594 24.4219 19
L13.0938 8.10938
L22.7031 8.10938
Q29.7812 8.10938 34.5469 8.21875
Q39.3125 8.34375 39.5938 8.59375
Q40.7656 9.85938 42 17.8281
L44.9219 17.8281
L42.0938 0
z
" id="Cmr10-32"/>
    </defs>
    <g transform="translate(222.980769231 189.45)scale(0.2 -0.2)">
     <use transform="translate(0.0 0.8578124999999943)" xlink:href="#Cmmi10-c1"/>
     <use transform="translate(59.521484375 0.8578124999999943)" xlink:href="#Cmr10-28"/>
     <use transform="translate(98.33984375 0.8578124999999943)" xlink:href="#Cmmi10-78"/>
     <use transform="translate(155.419921875 0.8578124999999943)" xlink:href="#Cmr10-29"/>
     <use transform="translate(211.796875 0.8578124999999943)" xlink:href="#Cmr10-3d"/>
     <use transform="translate(295.85546875 0.8578124999999943)" xlink:href="#Cmmi10-78"/>
     <use transform="translate(352.935546875 43.373437499999994)scale(0.7)" xlink:href="#Cmr10-32"/>
    </g>
   </g>
  </g>
 </g>
 <defs>
  <clipPath id="pd0c2820aef">
   <rect height="279.0" width="279.0" x="45.0" y="36.0"/>
  </clipPath>
 </defs>
</svg>
