<?xml version="1.0" encoding="utf-8" standalone="no"?>
<!DOCTYPE svg PUBLIC "-//W3C//DTD SVG 1.1//EN"
  "http://www.w3.org/Graphics/SVG/1.1/DTD/svg11.dtd">
<!-- Created with matplotlib (http://matplotlib.org/) -->
<svg height="360pt" version="1.1" viewBox="0 0 360 360" width="360pt" xmlns="http://www.w3.org/2000/svg" xmlns:xlink="http://www.w3.org/1999/xlink">
 <defs>
  <style type="text/css">
*{stroke-linecap:butt;stroke-linejoin:round;}
  </style>
 </defs>
 <g id="figure_1">
  <g id="patch_1">
   <path d="
M0 360
L360 360
L360 0
L0 0
z
" style="fill:#ffffff;"/>
  </g>
  <g id="axes_1">
   <g id="patch_2">
    <path d="
M45 315
L324 315
L324 36
L45 36
z
" style="fill:#ffffff;"/>
   </g>
   <g id="line2d_1">
    <path clip-path="url(#pd0c2820aef)" d="
M63.6 -48.0637
M77.7597 -1
L78.2545 0.566455
L80.697 8.1478
L83.1394 15.5795
L85.5818 22.8616
L88.0242 29.9941
L90.4667 36.9769
L92.9091 43.8101
L95.3515 50.4937
L97.7939 57.0277
L100.236 63.4121
L102.679 69.6468
L105.121 75.7319
L107.564 81.6674
L110.006 87.4532
L112.448 93.0895
L114.891 98.5761
L117.333 103.913
L119.776 109.1
L122.218 114.138
L124.661 119.026
L127.103 123.765
L129.545 128.354
L131.988 132.793
L134.43 137.082
L136.873 141.222
L139.315 145.213
L141.758 149.054
L144.2 152.745
L146.642 156.286
L149.085 159.678
L151.527 162.92
L153.97 166.013
L156.412 168.956
L158.855 171.749
L161.297 174.393
L163.739 176.887
L166.182 179.232
L168.624 181.426
L171.067 183.472
L173.509 185.367
L175.952 187.113
L178.394 188.71
L180.836 190.156
L183.279 191.454
L185.721 192.601
L188.164 193.599
L190.606 194.447
L193.048 195.146
L195.491 195.695
L197.933 196.094
L200.376 196.344
L202.818 196.444
L205.261 196.395
L207.703 196.196
L210.145 195.847
L212.588 195.348
L215.03 194.7
L217.473 193.903
L219.915 192.956
L222.358 191.859
L224.8 190.612
L227.242 189.216
L229.685 187.67
L232.127 185.975
L234.57 184.13
L237.012 182.135
L239.455 179.991
L241.897 177.697
L244.339 175.254
L246.782 172.661
L249.224 169.918
L251.667 167.026
L254.109 163.984
L256.552 160.792
L258.994 157.451
L261.436 153.96
L263.879 150.32
L266.321 146.53
L268.764 142.59
L271.206 138.5
L273.648 134.261
L276.091 129.873
L278.533 125.335
L280.976 120.647
L283.418 115.809
L285.861 110.822
L288.303 105.686
L290.745 100.399
L293.188 94.9633
L295.63 89.3777
L298.073 83.6425
L300.515 77.7576
L302.958 71.7232
L305.4 65.5391" style="fill:none;stroke:#0000ff;stroke-linecap:square;stroke-width:3;"/>
   </g>
   <g id="line2d_2">
    <path clip-path="url(#pd0c2820aef)" d="
M63.6 115.714
L66.0424 115.714
L68.4848 115.714
L70.9273 115.714
L73.3697 115.714
L75.8121 115.714
L78.2545 115.714
L80.697 115.714
L83.1394 115.714
L85.5818 115.714
L88.0242 115.714
L90.4667 115.714
L92.9091 115.714
L95.3515 115.714
L97.7939 115.714
L100.236 115.714
L102.679 115.714
L105.121 115.714
L107.564 115.714
L110.006 115.714
L112.448 115.714
L114.891 115.714
L117.333 115.714
L119.776 115.714
L122.218 115.714
L124.661 115.714
L127.103 115.714
L129.545 115.714
L131.988 115.714
L134.43 115.714
L136.873 115.714
L139.315 115.714
L141.758 115.714
L144.2 115.714
L146.642 115.714
L149.085 115.714
L151.527 115.714
L153.97 115.714
L156.412 115.714
L158.855 115.714
L161.297 115.714
L163.739 115.714
L166.182 115.714
L168.624 115.714
L171.067 115.714
L173.509 115.714
L175.952 115.714
L178.394 115.714
L180.836 115.714
L183.279 115.714
L185.721 115.714
L188.164 115.714
L190.606 115.714
L193.048 115.714
L195.491 115.714
L197.933 115.714
L200.376 115.714
L202.818 115.714
L205.261 115.714
L207.703 115.714
L210.145 115.714
L212.588 115.714
L215.03 115.714
L217.473 115.714
L219.915 115.714
L222.358 115.714
L224.8 115.714
L227.242 115.714
L229.685 115.714
L232.127 115.714
L234.57 115.714
L237.012 115.714
L239.455 115.714
L241.897 115.714
L244.339 115.714
L246.782 115.714
L249.224 115.714
L251.667 115.714
L254.109 115.714
L256.552 115.714
L258.994 115.714
L261.436 115.714
L263.879 115.714
L266.321 115.714
L268.764 115.714
L271.206 115.714
L273.648 115.714
L276.091 115.714
L278.533 115.714
L280.976 115.714
L283.418 115.714
L285.861 115.714
L288.303 115.714
L290.745 115.714
L293.188 115.714
L295.63 115.714
L298.073 115.714
L300.515 115.714
L302.958 115.714
L305.4 115.714" style="fill:none;stroke:#ff0000;stroke-linecap:square;"/>
   </g>
   <g id="line2d_3">
    <path clip-path="url(#pd0c2820aef)" d="
M63.6 207.386
L66.0424 206.339
L68.4848 205.292
L70.9273 204.245
L73.3697 203.199
L75.8121 202.152
L78.2545 201.105
L80.697 200.058
L83.1394 199.012
L85.5818 197.965
L88.0242 196.918
L90.4667 195.871
L92.9091 194.825
L95.3515 193.778
L97.7939 192.731
L100.236 191.684
L102.679 190.638
L105.121 189.591
L107.564 188.544
L110.006 187.497
L112.448 186.451
L114.891 185.404
L117.333 184.357
L119.776 183.31
L122.218 182.264
L124.661 181.217
L127.103 180.17
L129.545 179.123
L131.988 178.077
L134.43 177.03
L136.873 175.983
L139.315 174.936
L141.758 173.89
L144.2 172.843
L146.642 171.796
L149.085 170.749
L151.527 169.703
L153.97 168.656
L156.412 167.609
L158.855 166.562
L161.297 165.516
L163.739 164.469
L166.182 163.422
L168.624 162.375
L171.067 161.329
L173.509 160.282
L175.952 159.235
L178.394 158.188
L180.836 157.142
L183.279 156.095
L185.721 155.048
L188.164 154.001
L190.606 152.955
L193.048 151.908
L195.491 150.861
L197.933 149.814
L200.376 148.768
L202.818 147.721
L205.261 146.674
L207.703 145.627
L210.145 144.581
L212.588 143.534
L215.03 142.487
L217.473 141.44
L219.915 140.394
L222.358 139.347
L224.8 138.3
L227.242 137.253
L229.685 136.206
L232.127 135.16
L234.57 134.113
L237.012 133.066
L239.455 132.019
L241.897 130.973
L244.339 129.926
L246.782 128.879
L249.224 127.832
L251.667 126.786
L254.109 125.739
L256.552 124.692
L258.994 123.645
L261.436 122.599
L263.879 121.552
L266.321 120.505
L268.764 119.458
L271.206 118.412
L273.648 117.365
L276.091 116.318
L278.533 115.271
L280.976 114.225
L283.418 113.178
L285.861 112.131
L288.303 111.084
L290.745 110.038
L293.188 108.991
L295.63 107.944
L298.073 106.897
L300.515 105.851
L302.958 104.804
L305.4 103.757" style="fill:none;stroke:#ff00ff;stroke-linecap:square;"/>
   </g>
   <g id="line2d_4">
    <path clip-path="url(#pd0c2820aef)" d="
M63.6 88.2129
L66.0424 90.9069
L68.4848 93.546
L70.9273 96.1301
L73.3697 98.6592
L75.8121 101.133
L78.2545 103.553
L80.697 105.917
L83.1394 108.226
L85.5818 110.48
L88.0242 112.679
L90.4667 114.824
L92.9091 116.913
L95.3515 118.947
L97.7939 120.927
L100.236 122.851
L102.679 124.72
L105.121 126.535
L107.564 128.294
L110.006 129.998
L112.448 131.648
L114.891 133.242
L117.333 134.782
L119.776 136.266
L122.218 137.696
L124.661 139.07
L127.103 140.39
L129.545 141.654
L131.988 142.864
L134.43 144.019
L136.873 145.118
L139.315 146.163
L141.758 147.152
L144.2 148.087
L146.642 148.967
L149.085 149.792
L151.527 150.561
L153.97 151.276
L156.412 151.936
L158.855 152.541
L161.297 153.09
L163.739 153.585
L166.182 154.025
L168.624 154.41
L171.067 154.74
L173.509 155.015
L175.952 155.235
L178.394 155.4
L180.836 155.51
L183.279 155.565
L185.721 155.565
L188.164 155.51
L190.606 155.4
L193.048 155.235
L195.491 155.015
L197.933 154.74
L200.376 154.41
L202.818 154.025
L205.261 153.585
L207.703 153.09
L210.145 152.541
L212.588 151.936
L215.03 151.276
L217.473 150.561
L219.915 149.792
L222.358 148.967
L224.8 148.087
L227.242 147.152
L229.685 146.163
L232.127 145.118
L234.57 144.019
L237.012 142.864
L239.455 141.654
L241.897 140.39
L244.339 139.07
L246.782 137.696
L249.224 136.266
L251.667 134.782
L254.109 133.242
L256.552 131.648
L258.994 129.998
L261.436 128.294
L263.879 126.535
L266.321 124.72
L268.764 122.851
L271.206 120.927
L273.648 118.947
L276.091 116.913
L278.533 114.824
L280.976 112.679
L283.418 110.48
L285.861 108.226
L288.303 105.917
L290.745 103.553
L293.188 101.133
L295.63 98.6592
L298.073 96.1301
L300.515 93.546
L302.958 90.9069
L305.4 88.2129" style="fill:none;stroke:#0000ff;stroke-linecap:square;"/>
   </g>
   <g id="patch_3">
    <path d="
M45 36
L324 36" style="fill:none;stroke:#000000;stroke-linecap:square;stroke-linejoin:miter;"/>
   </g>
   <g id="patch_4">
    <path d="
M324 315
L324 36" style="fill:none;stroke:#000000;stroke-linecap:square;stroke-linejoin:miter;"/>
   </g>
   <g id="patch_5">
    <path d="
M45 315
L324 315" style="fill:none;stroke:#000000;stroke-linecap:square;stroke-linejoin:miter;"/>
   </g>
   <g id="patch_6">
    <path d="
M45 315
L45 36" style="fill:none;stroke:#000000;stroke-linecap:square;stroke-linejoin:miter;"/>
   </g>
   <g id="matplotlib.axis_1">
    <g id="xtick_1">
     <g id="line2d_5">
      <defs>
       <path d="
M0 0
L0 -4" id="mc7db9fdffb" style="stroke:#000000;stroke-width:0.5;"/>
      </defs>
      <g>
       <use style="stroke:#000000;stroke-width:0.5;" x="91.5" xlink:href="#mc7db9fdffb" y="315.0"/>
      </g>
     </g>
     <g id="line2d_6">
      <defs>
       <path d="
M0 0
L0 4" id="m5a7d422ac3" style="stroke:#000000;stroke-width:0.5;"/>
      </defs>
      <g>
       <use style="stroke:#000000;stroke-width:0.5;" x="91.5" xlink:href="#m5a7d422ac3" y="36.0"/>
      </g>
     </g>
     <g id="text_1">
      <!-- −1 -->
      <defs>
       <path d="
M10.5938 35.5
L73.1875 35.5
L73.1875 27.2031
L10.5938 27.2031
z
" id="BitstreamVeraSans-Roman-2212"/>
       <path d="
M12.4062 8.29688
L28.5156 8.29688
L28.5156 63.9219
L10.9844 60.4062
L10.9844 69.3906
L28.4219 72.9062
L38.2812 72.9062
L38.2812 8.29688
L54.3906 8.29688
L54.3906 0
L12.4062 0
z
" id="BitstreamVeraSans-Roman-31"/>
      </defs>
      <g transform="translate(85.1203125 326.5984375)scale(0.1 -0.1)">
       <use xlink:href="#BitstreamVeraSans-Roman-2212"/>
       <use x="83.7890625" xlink:href="#BitstreamVeraSans-Roman-31"/>
      </g>
     </g>
    </g>
    <g id="xtick_2">
     <g id="line2d_7">
      <g>
       <use style="stroke:#000000;stroke-width:0.5;" x="184.5" xlink:href="#mc7db9fdffb" y="315.0"/>
      </g>
     </g>
     <g id="line2d_8">
      <g>
       <use style="stroke:#000000;stroke-width:0.5;" x="184.5" xlink:href="#m5a7d422ac3" y="36.0"/>
      </g>
     </g>
     <g id="text_2">
      <!-- 0 -->
      <defs>
       <path d="
M31.7812 66.4062
Q24.1719 66.4062 20.3281 58.9062
Q16.5 51.4219 16.5 36.375
Q16.5 21.3906 20.3281 13.8906
Q24.1719 6.39062 31.7812 6.39062
Q39.4531 6.39062 43.2812 13.8906
Q47.125 21.3906 47.125 36.375
Q47.125 51.4219 43.2812 58.9062
Q39.4531 66.4062 31.7812 66.4062
M31.7812 74.2188
Q44.0469 74.2188 50.5156 64.5156
Q56.9844 54.8281 56.9844 36.375
Q56.9844 17.9688 50.5156 8.26562
Q44.0469 -1.42188 31.7812 -1.42188
Q19.5312 -1.42188 13.0625 8.26562
Q6.59375 17.9688 6.59375 36.375
Q6.59375 54.8281 13.0625 64.5156
Q19.5312 74.2188 31.7812 74.2188" id="BitstreamVeraSans-Roman-30"/>
      </defs>
      <g transform="translate(181.98046875 326.5984375)scale(0.1 -0.1)">
       <use xlink:href="#BitstreamVeraSans-Roman-30"/>
      </g>
     </g>
    </g>
    <g id="xtick_3">
     <g id="line2d_9">
      <g>
       <use style="stroke:#000000;stroke-width:0.5;" x="277.5" xlink:href="#mc7db9fdffb" y="315.0"/>
      </g>
     </g>
     <g id="line2d_10">
      <g>
       <use style="stroke:#000000;stroke-width:0.5;" x="277.5" xlink:href="#m5a7d422ac3" y="36.0"/>
      </g>
     </g>
     <g id="text_3">
      <!-- 1 -->
      <g transform="translate(275.3296875 326.5984375)scale(0.1 -0.1)">
       <use xlink:href="#BitstreamVeraSans-Roman-31"/>
      </g>
     </g>
    </g>
    <g id="text_4">
     <!-- $x$ -->
     <defs>
      <path d="
M7.8125 2.875
Q9.57812 1.51562 12.7969 1.51562
Q15.9219 1.51562 18.3125 4.51562
Q20.7031 7.51562 21.5781 11.0781
L26.125 28.8125
Q27.2031 33.6406 27.2031 35.4062
Q27.2031 37.8906 25.8125 39.75
Q24.4219 41.6094 21.9219 41.6094
Q18.75 41.6094 15.9688 39.625
Q13.1875 37.6406 11.2812 34.5938
Q9.375 31.5469 8.59375 28.4219
Q8.40625 27.7812 7.8125 27.7812
L6.59375 27.7812
Q5.8125 27.7812 5.8125 28.7188
L5.8125 29
Q6.78125 32.7188 9.125 36.25
Q11.4688 39.7969 14.8594 41.9844
Q18.2656 44.1875 22.125 44.1875
Q25.7812 44.1875 28.7344 42.2344
Q31.6875 40.2812 32.9062 36.9219
Q34.625 39.9844 37.2812 42.0781
Q39.9375 44.1875 43.1094 44.1875
Q45.2656 44.1875 47.5 43.4219
Q49.75 42.6719 51.1719 41.1094
Q52.5938 39.5469 52.5938 37.2031
Q52.5938 34.6719 50.9531 32.8281
Q49.3125 31 46.7812 31
Q45.1719 31 44.0938 32.0312
Q43.0156 33.0625 43.0156 34.625
Q43.0156 36.7188 44.4531 38.2969
Q45.9062 39.8906 47.9062 40.1875
Q46.0938 41.6094 42.9219 41.6094
Q39.7031 41.6094 37.3281 38.625
Q34.9688 35.6406 33.9844 31.9844
L29.5938 14.3125
Q28.5156 10.2969 28.5156 7.71875
Q28.5156 5.17188 29.9531 3.34375
Q31.3906 1.51562 33.7969 1.51562
Q38.4844 1.51562 42.1562 5.64062
Q45.8438 9.76562 47.0156 14.7031
Q47.2188 15.2812 47.7969 15.2812
L49.0312 15.2812
Q49.4219 15.2812 49.6562 15.0156
Q49.9062 14.75 49.9062 14.4062
Q49.9062 14.3125 49.8125 14.1094
Q48.3906 8.15625 43.8438 3.51562
Q39.3125 -1.125 33.5938 -1.125
Q29.9375 -1.125 26.9844 0.84375
Q24.0312 2.82812 22.7969 6.20312
Q21.2344 3.26562 18.4688 1.0625
Q15.7188 -1.125 12.5938 -1.125
Q10.4531 -1.125 8.17188 -0.359375
Q5.90625 0.390625 4.48438 1.95312
Q3.07812 3.51562 3.07812 5.90625
Q3.07812 8.25 4.70312 10.1719
Q6.34375 12.1094 8.79688 12.1094
Q10.4531 12.1094 11.5781 11.1094
Q12.7031 10.1094 12.7031 8.5
Q12.7031 6.39062 11.2969 4.82812
Q9.90625 3.26562 7.8125 2.875" id="Cmmi10-78"/>
     </defs>
     <g transform="translate(178.7 348.875)scale(0.2 -0.2)">
      <use transform="translate(0.0 0.8125)" xlink:href="#Cmmi10-78"/>
     </g>
    </g>
   </g>
   <g id="matplotlib.axis_2">
    <g id="ytick_1">
     <g id="line2d_11">
      <defs>
       <path d="
M0 0
L4 0" id="md7965d1ba0" style="stroke:#000000;stroke-width:0.5;"/>
      </defs>
      <g>
       <use style="stroke:#000000;stroke-width:0.5;" x="45.0" xlink:href="#md7965d1ba0" y="315.0"/>
      </g>
     </g>
     <g id="line2d_12">
      <defs>
       <path d="
M0 0
L-4 0" id="md9a1c1a7cd" style="stroke:#000000;stroke-width:0.5;"/>
      </defs>
      <g>
       <use style="stroke:#000000;stroke-width:0.5;" x="324.0" xlink:href="#md9a1c1a7cd" y="315.0"/>
      </g>
     </g>
     <g id="text_5">
      <!-- −4 -->
      <defs>
       <path d="
M37.7969 64.3125
L12.8906 25.3906
L37.7969 25.3906
z

M35.2031 72.9062
L47.6094 72.9062
L47.6094 25.3906
L58.0156 25.3906
L58.0156 17.1875
L47.6094 17.1875
L47.6094 0
L37.7969 0
L37.7969 17.1875
L4.89062 17.1875
L4.89062 26.7031
z
" id="BitstreamVeraSans-Roman-34"/>
      </defs>
      <g transform="translate(27.878125 317.759375)scale(0.1 -0.1)">
       <use xlink:href="#BitstreamVeraSans-Roman-2212"/>
       <use x="83.7890625" xlink:href="#BitstreamVeraSans-Roman-34"/>
      </g>
     </g>
    </g>
    <g id="ytick_2">
     <g id="line2d_13">
      <g>
       <use style="stroke:#000000;stroke-width:0.5;" x="45.0" xlink:href="#md7965d1ba0" y="275.142857143"/>
      </g>
     </g>
     <g id="line2d_14">
      <g>
       <use style="stroke:#000000;stroke-width:0.5;" x="324.0" xlink:href="#md9a1c1a7cd" y="275.142857143"/>
      </g>
     </g>
     <g id="text_6">
      <!-- −3 -->
      <defs>
       <path d="
M40.5781 39.3125
Q47.6562 37.7969 51.625 33
Q55.6094 28.2188 55.6094 21.1875
Q55.6094 10.4062 48.1875 4.48438
Q40.7656 -1.42188 27.0938 -1.42188
Q22.5156 -1.42188 17.6562 -0.515625
Q12.7969 0.390625 7.625 2.20312
L7.625 11.7188
Q11.7188 9.32812 16.5938 8.10938
Q21.4844 6.89062 26.8125 6.89062
Q36.0781 6.89062 40.9375 10.5469
Q45.7969 14.2031 45.7969 21.1875
Q45.7969 27.6406 41.2812 31.2656
Q36.7656 34.9062 28.7188 34.9062
L20.2188 34.9062
L20.2188 43.0156
L29.1094 43.0156
Q36.375 43.0156 40.2344 45.9219
Q44.0938 48.8281 44.0938 54.2969
Q44.0938 59.9062 40.1094 62.9062
Q36.1406 65.9219 28.7188 65.9219
Q24.6562 65.9219 20.0156 65.0312
Q15.375 64.1562 9.8125 62.3125
L9.8125 71.0938
Q15.4375 72.6562 20.3438 73.4375
Q25.25 74.2188 29.5938 74.2188
Q40.8281 74.2188 47.3594 69.1094
Q53.9062 64.0156 53.9062 55.3281
Q53.9062 49.2656 50.4375 45.0938
Q46.9688 40.9219 40.5781 39.3125" id="BitstreamVeraSans-Roman-33"/>
      </defs>
      <g transform="translate(28.11875 277.902232143)scale(0.1 -0.1)">
       <use xlink:href="#BitstreamVeraSans-Roman-2212"/>
       <use x="83.7890625" xlink:href="#BitstreamVeraSans-Roman-33"/>
      </g>
     </g>
    </g>
    <g id="ytick_3">
     <g id="line2d_15">
      <g>
       <use style="stroke:#000000;stroke-width:0.5;" x="45.0" xlink:href="#md7965d1ba0" y="235.285714286"/>
      </g>
     </g>
     <g id="line2d_16">
      <g>
       <use style="stroke:#000000;stroke-width:0.5;" x="324.0" xlink:href="#md9a1c1a7cd" y="235.285714286"/>
      </g>
     </g>
     <g id="text_7">
      <!-- −2 -->
      <defs>
       <path d="
M19.1875 8.29688
L53.6094 8.29688
L53.6094 0
L7.32812 0
L7.32812 8.29688
Q12.9375 14.1094 22.625 23.8906
Q32.3281 33.6875 34.8125 36.5312
Q39.5469 41.8438 41.4219 45.5312
Q43.3125 49.2188 43.3125 52.7812
Q43.3125 58.5938 39.2344 62.25
Q35.1562 65.9219 28.6094 65.9219
Q23.9688 65.9219 18.8125 64.3125
Q13.6719 62.7031 7.8125 59.4219
L7.8125 69.3906
Q13.7656 71.7812 18.9375 73
Q24.125 74.2188 28.4219 74.2188
Q39.75 74.2188 46.4844 68.5469
Q53.2188 62.8906 53.2188 53.4219
Q53.2188 48.9219 51.5312 44.8906
Q49.8594 40.875 45.4062 35.4062
Q44.1875 33.9844 37.6406 27.2188
Q31.1094 20.4531 19.1875 8.29688" id="BitstreamVeraSans-Roman-32"/>
      </defs>
      <g transform="translate(28.31875 238.045089286)scale(0.1 -0.1)">
       <use xlink:href="#BitstreamVeraSans-Roman-2212"/>
       <use x="83.7890625" xlink:href="#BitstreamVeraSans-Roman-32"/>
      </g>
     </g>
    </g>
    <g id="ytick_4">
     <g id="line2d_17">
      <g>
       <use style="stroke:#000000;stroke-width:0.5;" x="45.0" xlink:href="#md7965d1ba0" y="195.428571429"/>
      </g>
     </g>
     <g id="line2d_18">
      <g>
       <use style="stroke:#000000;stroke-width:0.5;" x="324.0" xlink:href="#md9a1c1a7cd" y="195.428571429"/>
      </g>
     </g>
     <g id="text_8">
      <!-- −1 -->
      <g transform="translate(28.240625 198.187946429)scale(0.1 -0.1)">
       <use xlink:href="#BitstreamVeraSans-Roman-2212"/>
       <use x="83.7890625" xlink:href="#BitstreamVeraSans-Roman-31"/>
      </g>
     </g>
    </g>
    <g id="ytick_5">
     <g id="line2d_19">
      <g>
       <use style="stroke:#000000;stroke-width:0.5;" x="45.0" xlink:href="#md7965d1ba0" y="155.571428571"/>
      </g>
     </g>
     <g id="line2d_20">
      <g>
       <use style="stroke:#000000;stroke-width:0.5;" x="324.0" xlink:href="#md9a1c1a7cd" y="155.571428571"/>
      </g>
     </g>
     <g id="text_9">
      <!-- 0 -->
      <g transform="translate(35.9609375 158.330803571)scale(0.1 -0.1)">
       <use xlink:href="#BitstreamVeraSans-Roman-30"/>
      </g>
     </g>
    </g>
    <g id="ytick_6">
     <g id="line2d_21">
      <g>
       <use style="stroke:#000000;stroke-width:0.5;" x="45.0" xlink:href="#md7965d1ba0" y="115.714285714"/>
      </g>
     </g>
     <g id="line2d_22">
      <g>
       <use style="stroke:#000000;stroke-width:0.5;" x="324.0" xlink:href="#md9a1c1a7cd" y="115.714285714"/>
      </g>
     </g>
     <g id="text_10">
      <!-- 1 -->
      <g transform="translate(36.659375 118.473660714)scale(0.1 -0.1)">
       <use xlink:href="#BitstreamVeraSans-Roman-31"/>
      </g>
     </g>
    </g>
    <g id="ytick_7">
     <g id="line2d_23">
      <g>
       <use style="stroke:#000000;stroke-width:0.5;" x="45.0" xlink:href="#md7965d1ba0" y="75.8571428571"/>
      </g>
     </g>
     <g id="line2d_24">
      <g>
       <use style="stroke:#000000;stroke-width:0.5;" x="324.0" xlink:href="#md9a1c1a7cd" y="75.8571428571"/>
      </g>
     </g>
     <g id="text_11">
      <!-- 2 -->
      <g transform="translate(36.371875 78.6165178571)scale(0.1 -0.1)">
       <use xlink:href="#BitstreamVeraSans-Roman-32"/>
      </g>
     </g>
    </g>
    <g id="ytick_8">
     <g id="line2d_25">
      <g>
       <use style="stroke:#000000;stroke-width:0.5;" x="45.0" xlink:href="#md7965d1ba0" y="36.0"/>
      </g>
     </g>
     <g id="line2d_26">
      <g>
       <use style="stroke:#000000;stroke-width:0.5;" x="324.0" xlink:href="#md9a1c1a7cd" y="36.0"/>
      </g>
     </g>
     <g id="text_12">
      <!-- 3 -->
      <g transform="translate(36.2015625 38.759375)scale(0.1 -0.1)">
       <use xlink:href="#BitstreamVeraSans-Roman-33"/>
      </g>
     </g>
    </g>
    <g id="text_13">
     <!-- $f(x)$ -->
     <defs>
      <path d="
M9.71875 -16.5
Q11.5781 -17.9219 14.2031 -17.9219
Q17.7812 -17.9219 20.0156 -10.0156
Q20.9531 -6.20312 25.0938 15.0938
L29.6875 39.5938
L21.0938 39.5938
Q20.125 39.5938 20.125 40.9219
Q20.5156 43.1094 21.3906 43.1094
L30.3281 43.1094
L31.5 49.6094
Q32.0781 52.6406 32.5625 54.8125
Q33.0625 56.9844 33.625 58.8281
Q34.1875 60.6875 35.2969 62.9844
Q37.0156 66.2656 39.9219 68.3906
Q42.8281 70.5156 46.1875 70.5156
Q48.3906 70.5156 50.4688 69.7031
Q52.5469 68.8906 53.8594 67.2812
Q55.1719 65.6719 55.1719 63.4844
Q55.1719 60.9375 53.4844 59.0469
Q51.8125 57.1719 49.4219 57.1719
Q47.7969 57.1719 46.6562 58.1719
Q45.5156 59.1875 45.5156 60.7969
Q45.5156 62.9844 47 64.625
Q48.4844 66.2656 50.6875 66.5
Q48.8281 67.9219 46.0938 67.9219
Q44.5781 67.9219 43.2344 66.5
Q41.8906 65.0938 41.5 63.4844
Q40.875 60.9375 38.7188 49.7031
L37.5 43.1094
L47.7969 43.1094
Q48.7812 43.1094 48.7812 41.7969
Q48.7344 41.5469 48.5781 40.9375
Q48.4375 40.3281 48.1719 39.9531
Q47.9062 39.5938 47.5156 39.5938
L36.8125 39.5938
L32.1719 15.1875
Q31.2969 9.85938 30.1406 4.35938
Q29 -1.125 26.9219 -6.90625
Q24.8594 -12.7031 21.625 -16.6094
Q18.4062 -20.5156 14.0156 -20.5156
Q10.6406 -20.5156 7.98438 -18.5781
Q5.32812 -16.6562 5.32812 -13.4844
Q5.32812 -10.9375 6.95312 -9.04688
Q8.59375 -7.17188 11.0781 -7.17188
Q12.75 -7.17188 13.8594 -8.17188
Q14.9844 -9.1875 14.9844 -10.7969
Q14.9844 -12.9375 13.3906 -14.7188
Q11.8125 -16.5 9.71875 -16.5" id="Cmmi10-66"/>
      <path d="
M31 -24.8125
Q25.4375 -20.4062 21.4062 -14.7188
Q17.3906 -9.03125 14.8125 -2.57812
Q12.25 3.85938 10.9844 10.8906
Q9.71875 17.9219 9.71875 25
Q9.71875 32.1719 10.9844 39.2031
Q12.25 46.2344 14.8594 52.7344
Q17.4844 59.2344 21.5312 64.8906
Q25.5938 70.5625 31 74.8125
Q31 75 31.5 75
L32.4219 75
Q32.7188 75 32.9531 74.7344
Q33.2031 74.4688 33.2031 74.125
Q33.2031 73.6875 33.0156 73.4844
Q28.125 68.7031 24.875 63.2344
Q21.625 57.7656 19.6406 51.5781
Q17.6719 45.4062 16.7969 38.7812
Q15.9219 32.1719 15.9219 25
Q15.9219 -6.78125 32.9062 -23.2969
Q33.2031 -23.5781 33.2031 -24.125
Q33.2031 -24.3594 32.9375 -24.6719
Q32.6719 -25 32.4219 -25
L31.5 -25
Q31 -25 31 -24.8125" id="Cmr10-28"/>
      <path d="
M6.5 -25
Q5.60938 -25 5.60938 -24.125
Q5.60938 -23.6875 5.8125 -23.4844
Q22.9062 -6.78125 22.9062 25
Q22.9062 56.7812 6 73.2969
Q5.60938 73.5312 5.60938 74.125
Q5.60938 74.4688 5.875 74.7344
Q6.15625 75 6.5 75
L7.42188 75
Q7.71875 75 7.90625 74.8125
Q15.0938 69.1406 19.875 61.0312
Q24.6562 52.9375 26.875 43.75
Q29.1094 34.5781 29.1094 25
Q29.1094 17.9219 27.9062 11.0625
Q26.7031 4.20312 24.0938 -2.45312
Q21.4844 -9.125 17.4844 -14.7656
Q13.4844 -20.4062 7.90625 -24.8125
Q7.71875 -25 7.42188 -25
z
" id="Cmr10-29"/>
     </defs>
     <g transform="translate(17.878125 193.9)rotate(-90.0)scale(0.2 -0.2)">
      <use xlink:href="#Cmmi10-66"/>
      <use transform="translate(48.876953125 0.0)" xlink:href="#Cmr10-28"/>
      <use transform="translate(87.6953125 0.0)" xlink:href="#Cmmi10-78"/>
      <use transform="translate(144.775390625 0.0)" xlink:href="#Cmr10-29"/>
     </g>
    </g>
   </g>
   <g id="text_14">
    <!-- $w_0 = [-0.91513302]$ -->
    <defs>
     <path d="
M4.98438 0
L4.98438 2.6875
Q4.98438 2.9375 5.17188 3.21875
L20.7031 20.4062
Q24.2188 24.2188 26.4062 26.7969
Q28.6094 29.3906 30.75 32.7656
Q32.9062 36.1406 34.1562 39.625
Q35.4062 43.1094 35.4062 47.0156
Q35.4062 51.125 33.8906 54.8594
Q32.375 58.5938 29.375 60.8438
Q26.375 63.0938 22.125 63.0938
Q17.7812 63.0938 14.3125 60.4688
Q10.8438 57.8594 9.42188 53.7188
Q9.8125 53.8125 10.5 53.8125
Q12.75 53.8125 14.3281 52.2969
Q15.9219 50.7812 15.9219 48.3906
Q15.9219 46.0938 14.3281 44.5
Q12.75 42.9219 10.5 42.9219
Q8.15625 42.9219 6.5625 44.5469
Q4.98438 46.1875 4.98438 48.3906
Q4.98438 52.1562 6.39062 55.4375
Q7.8125 58.7344 10.4688 61.2969
Q13.1406 63.875 16.4844 65.2344
Q19.8281 66.6094 23.5781 66.6094
Q29.2969 66.6094 34.2188 64.1875
Q39.1562 61.7656 42.0312 57.3438
Q44.9219 52.9375 44.9219 47.0156
Q44.9219 42.6719 43.0156 38.7656
Q41.1094 34.8594 38.125 31.6562
Q35.1562 28.4688 30.5156 24.4062
Q25.875 20.3594 24.4219 19
L13.0938 8.10938
L22.7031 8.10938
Q29.7812 8.10938 34.5469 8.21875
Q39.3125 8.34375 39.5938 8.59375
Q40.7656 9.85938 42 17.8281
L44.9219 17.8281
L42.0938 0
z
" id="Cmr10-32"/>
     <path d="
M10.2031 23
Q9.375 23 8.82812 23.625
Q8.29688 24.2656 8.29688 25
Q8.29688 25.7344 8.82812 26.3594
Q9.375 27 10.2031 27
L67.5781 27
Q68.3594 27 68.875 26.3594
Q69.3906 25.7344 69.3906 25
Q69.3906 24.2656 68.875 23.625
Q68.3594 23 67.5781 23
z
" id="Cmsy10-a1"/>
     <path d="
M8.6875 11.375
Q9.71875 8.45312 11.8438 6.04688
Q13.9688 3.65625 16.875 2.3125
Q19.7812 0.984375 22.9062 0.984375
Q30.125 0.984375 32.8594 6.59375
Q35.5938 12.2031 35.5938 20.2188
Q35.5938 23.6875 35.4688 26.0469
Q35.3594 28.4219 34.8125 30.6094
Q33.8906 34.125 31.5625 36.7656
Q29.25 39.4062 25.875 39.4062
Q22.5156 39.4062 20.0938 38.375
Q17.6719 37.3594 16.1562 35.9844
Q14.6562 34.625 13.4844 33.1094
Q12.3125 31.5938 12.0156 31.5
L10.8906 31.5
Q10.6406 31.5 10.2656 31.8125
Q9.90625 32.125 9.90625 32.4219
L9.90625 65.8281
Q9.90625 66.0625 10.2188 66.3281
Q10.5469 66.6094 10.8906 66.6094
L11.1875 66.6094
Q17.9219 63.375 25.4844 63.375
Q32.9062 63.375 39.7969 66.6094
L40.0938 66.6094
Q40.4375 66.6094 40.7188 66.3594
Q41.0156 66.1094 41.0156 65.8281
L41.0156 64.8906
Q41.0156 64.4062 40.8281 64.4062
Q37.4062 59.8594 32.25 57.3125
Q27.0938 54.7812 21.5781 54.7812
Q17.5781 54.7812 13.375 55.9062
L13.375 37.0156
Q16.7031 39.7031 19.3125 40.8438
Q21.9219 42 25.9844 42
Q31.5 42 35.8594 38.8125
Q40.2344 35.6406 42.5781 30.5312
Q44.9219 25.4375 44.9219 20.125
Q44.9219 14.1094 41.9688 8.98438
Q39.0156 3.85938 33.9375 0.828125
Q28.8594 -2.20312 22.9062 -2.20312
Q17.9688 -2.20312 13.8438 0.328125
Q9.71875 2.875 7.34375 7.17188
Q4.98438 11.4688 4.98438 16.3125
Q4.98438 18.5625 6.4375 19.9688
Q7.90625 21.3906 10.1094 21.3906
Q12.3125 21.3906 13.7969 19.9375
Q15.2812 18.5 15.2812 16.3125
Q15.2812 14.1562 13.7969 12.6719
Q12.3125 11.1875 10.1094 11.1875
Q9.76562 11.1875 9.32812 11.25
Q8.89062 11.3281 8.6875 11.375" id="Cmr10-35"/>
     <path d="
M7.51562 13.2812
Q6.6875 13.2812 6.14062 13.9062
Q5.60938 14.5469 5.60938 15.2812
Q5.60938 16.1094 6.14062 16.6875
Q6.6875 17.2812 7.51562 17.2812
L70.3125 17.2812
Q71.0469 17.2812 71.5781 16.6875
Q72.125 16.1094 72.125 15.2812
Q72.125 14.5469 71.5781 13.9062
Q71.0469 13.2812 70.3125 13.2812
z

M7.51562 32.7188
Q6.6875 32.7188 6.14062 33.2969
Q5.60938 33.8906 5.60938 34.7188
Q5.60938 35.4531 6.14062 36.0781
Q6.6875 36.7188 7.51562 36.7188
L70.3125 36.7188
Q71.0469 36.7188 71.5781 36.0781
Q72.125 35.4531 72.125 34.7188
Q72.125 33.8906 71.5781 33.2969
Q71.0469 32.7188 70.3125 32.7188
z
" id="Cmr10-3d"/>
     <path d="
M9.51562 7.71875
Q11.8594 4.29688 15.8125 2.64062
Q19.7812 0.984375 24.3125 0.984375
Q30.125 0.984375 32.5625 5.9375
Q35.0156 10.8906 35.0156 17.1875
Q35.0156 20.0156 34.5 22.8438
Q33.9844 25.6875 32.7656 28.125
Q31.5469 30.5625 29.4219 32.0312
Q27.2969 33.5 24.2188 33.5
L17.5781 33.5
Q16.7031 33.5 16.7031 34.4219
L16.7031 35.2969
Q16.7031 36.0781 17.5781 36.0781
L23.0938 36.5312
Q26.6094 36.5312 28.9219 39.1562
Q31.25 41.7969 32.3281 45.5781
Q33.4062 49.3594 33.4062 52.7812
Q33.4062 57.5625 31.1562 60.6406
Q28.9062 63.7188 24.3125 63.7188
Q20.5156 63.7188 17.0469 62.2812
Q13.5781 60.8438 11.5312 57.9062
Q11.7188 57.9531 11.8594 57.9844
Q12.0156 58.0156 12.2031 58.0156
Q14.4531 58.0156 15.9688 56.4531
Q17.4844 54.8906 17.4844 52.6875
Q17.4844 50.5312 15.9688 48.9688
Q14.4531 47.4062 12.2031 47.4062
Q10.0156 47.4062 8.45312 48.9688
Q6.89062 50.5312 6.89062 52.6875
Q6.89062 56.9844 9.46875 60.1562
Q12.0625 63.3281 16.1406 64.9688
Q20.2188 66.6094 24.3125 66.6094
Q27.3438 66.6094 30.7031 65.7031
Q34.0781 64.7969 36.8125 63.1094
Q39.5469 61.4219 41.2812 58.7812
Q43.0156 56.1562 43.0156 52.7812
Q43.0156 48.5781 41.1406 45.0156
Q39.2656 41.4531 35.9844 38.8594
Q32.7188 36.2812 28.8125 35.0156
Q33.1562 34.1875 37.0625 31.7344
Q40.9688 29.2969 43.3281 25.4844
Q45.7031 21.6875 45.7031 17.2812
Q45.7031 11.7656 42.6719 7.29688
Q39.6562 2.82812 34.7188 0.3125
Q29.7812 -2.20312 24.3125 -2.20312
Q19.625 -2.20312 14.9062 -0.40625
Q10.2031 1.375 7.20312 4.9375
Q4.20312 8.5 4.20312 13.4844
Q4.20312 15.9688 5.85938 17.625
Q7.51562 19.2812 10.0156 19.2812
Q11.625 19.2812 12.9688 18.5312
Q14.3125 17.7812 15.0625 16.4062
Q15.8281 15.0469 15.8281 13.4844
Q15.8281 11.0312 14.1094 9.375
Q12.4062 7.71875 10.0156 7.71875
z
" id="Cmr10-33"/>
     <path d="
M11.2812 4.20312
Q14.0156 0.984375 20.7969 0.984375
Q24.6094 0.984375 27.9062 3.5625
Q31.2031 6.15625 33.0156 9.90625
Q35.1094 14.1562 35.6875 18.9688
Q36.2812 23.7812 36.2812 30.9062
Q34.5781 26.8594 31.375 24.2656
Q28.1719 21.6875 24.0312 21.6875
Q18.2188 21.6875 13.6406 24.8281
Q9.07812 27.9844 6.64062 33.125
Q4.20312 38.2812 4.20312 44.0938
Q4.20312 50.0938 6.9375 55.2969
Q9.67188 60.5 14.5 63.5469
Q19.3438 66.6094 25.4844 66.6094
Q31.5469 66.6094 35.625 63.3125
Q39.7031 60.0156 41.8438 54.8125
Q44 49.6094 44.8438 43.7969
Q45.7031 37.9844 45.7031 32.3281
Q45.7031 24.6094 42.875 16.5781
Q40.0469 8.54688 34.4062 3.17188
Q28.7656 -2.20312 20.7969 -2.20312
Q14.8906 -2.20312 10.7812 0.578125
Q6.6875 3.375 6.6875 8.98438
Q6.6875 11.0312 8.07812 12.4219
Q9.46875 13.8125 11.5312 13.8125
Q13.5312 13.8125 14.9219 12.4219
Q16.3125 11.0312 16.3125 8.98438
Q16.3125 7.03125 14.8906 5.60938
Q13.4844 4.20312 11.5312 4.20312
z

M24.4219 24.3125
Q28.5156 24.3125 31.125 27.0625
Q33.7344 29.8281 34.9062 33.9219
Q36.0781 38.0312 36.0781 42.0938
L36.0781 44
L36.0781 44.3906
Q36.0781 51.9062 33.875 57.8125
Q31.6875 63.7188 25.4844 63.7188
Q21.5312 63.7188 19.0625 61.9844
Q16.6094 60.25 15.4375 57.375
Q14.2656 54.5 13.9375 51.2188
Q13.625 47.9531 13.625 44.0938
Q13.625 38.4219 14.1562 34.4219
Q14.7031 30.4219 17.0938 27.3594
Q19.4844 24.3125 24.4219 24.3125" id="Cmr10-39"/>
     <path d="
M10.7969 11.625
Q10.7969 13.7188 11.3594 16.4531
Q11.9219 19.1875 12.5938 21.3125
Q13.2812 23.4375 14.9062 27.8281
Q16.5469 32.2344 16.7031 32.625
Q18.0156 36.2812 18.0156 38.625
Q18.0156 41.6094 15.8281 41.6094
Q11.8594 41.6094 9.29688 37.5312
Q6.73438 33.4531 5.51562 28.4219
Q5.32812 27.7812 4.6875 27.7812
L3.51562 27.7812
Q2.6875 27.7812 2.6875 28.7188
L2.6875 29
Q4.29688 34.9688 7.60938 39.5781
Q10.9375 44.1875 16.0156 44.1875
Q19.5781 44.1875 22.0469 41.8438
Q24.5156 39.5 24.5156 35.8906
Q24.5156 34.0312 23.6875 31.9844
Q22.5156 28.9531 20.9219 24.7031
Q19.3438 20.4531 18.4531 16.9844
Q17.5781 13.5312 17.5781 10.2969
Q17.5781 6.39062 19.625 3.95312
Q21.6875 1.51562 25.5938 1.51562
Q30.9062 1.51562 34.4219 9.625
Q34.2812 10.2031 34.2812 11.2812
Q34.2812 13.9688 35.1094 17.3906
L40.7188 39.8906
Q41.0625 41.2188 42.2812 42.1562
Q43.5 43.1094 44.9219 43.1094
Q46.0938 43.1094 47 42.3281
Q47.9062 41.5469 47.9062 40.2812
Q47.9062 39.7031 47.7969 39.5
L42.1875 17.1875
Q41.2188 13.1875 41.2188 10.0156
Q41.2188 6.25 42.9375 3.875
Q44.6719 1.51562 48.3906 1.51562
Q54.8281 1.51562 58.9844 10.0156
Q60.5469 13.0312 62.4688 18.9375
Q64.4062 24.8594 64.4062 27.9844
Q64.4062 30.8594 63.4688 32.5469
Q62.5469 34.2344 60.9062 36.1875
Q59.2812 38.1406 59.2812 39.1094
Q59.2812 41.0156 60.9062 42.6406
Q62.5469 44.2812 64.5 44.2812
Q66.8906 44.2812 67.9375 42.0781
Q69 39.8906 69 37.1094
Q69 33.7344 67.875 28.5312
Q66.75 23.3438 65.0312 18.0938
Q63.3281 12.8438 61.8125 9.71875
Q56.3438 -1.125 48.1875 -1.125
Q44 -1.125 40.5312 0.484375
Q37.0625 2.09375 35.4062 5.60938
Q33.7969 2.73438 31.1719 0.796875
Q28.5625 -1.125 25.3906 -1.125
Q18.7969 -1.125 14.7969 2.01562
Q10.7969 5.17188 10.7969 11.625" id="Cmmi10-77"/>
     <path d="
M2.20312 -25
L2.20312 -21
L11.9219 -21
L11.9219 71
L2.20312 71
L2.20312 75
L15.9219 75
L15.9219 -25
z
" id="Cmr10-5d"/>
     <path d="
M25 -2.20312
Q12.75 -2.20312 8.32812 7.875
Q3.90625 17.9688 3.90625 31.8906
Q3.90625 40.5781 5.48438 48.2344
Q7.07812 55.9062 11.7812 61.25
Q16.5 66.6094 25 66.6094
Q31.5938 66.6094 35.7812 63.375
Q39.9844 60.1562 42.1875 55.0469
Q44.3906 49.9531 45.1875 44.1094
Q46 38.2812 46 31.8906
Q46 23.2969 44.4062 15.7969
Q42.8281 8.29688 38.1875 3.04688
Q33.5469 -2.20312 25 -2.20312
M25 0.390625
Q30.5625 0.390625 33.2969 6.09375
Q36.0312 11.8125 36.6719 18.75
Q37.3125 25.6875 37.3125 33.5
Q37.3125 41.0156 36.6719 47.3594
Q36.0312 53.7188 33.3125 58.8594
Q30.6094 64.0156 25 64.0156
Q19.3438 64.0156 16.6094 58.8281
Q13.875 53.6562 13.2344 47.3281
Q12.5938 41.0156 12.5938 33.5
Q12.5938 27.9375 12.8594 23
Q13.1406 18.0625 14.3125 12.8125
Q15.4844 7.5625 18.0938 3.96875
Q20.7031 0.390625 25 0.390625" id="Cmr10-30"/>
     <path d="
M11.8125 -25
L11.8125 75
L25.4844 75
L25.4844 71
L15.8281 71
L15.8281 -21
L25.4844 -21
L25.4844 -25
z
" id="Cmr10-5b"/>
     <path d="
M9.28125 0
L9.28125 3.51562
Q21.7812 3.51562 21.7812 6.6875
L21.7812 59.1875
Q16.6094 56.6875 8.6875 56.6875
L8.6875 60.2031
Q20.9531 60.2031 27.2031 66.6094
L28.6094 66.6094
Q28.9531 66.6094 29.2656 66.3281
Q29.5938 66.0625 29.5938 65.7188
L29.5938 6.6875
Q29.5938 3.51562 42.0938 3.51562
L42.0938 0
z
" id="Cmr10-31"/>
     <path d="
M8.40625 5.51562
Q8.40625 7.76562 10.0625 9.375
Q11.7188 10.9844 13.9219 10.9844
Q15.2812 10.9844 16.5938 10.25
Q17.9219 9.51562 18.6562 8.20312
Q19.3906 6.89062 19.3906 5.51562
Q19.3906 3.32812 17.7656 1.65625
Q16.1562 0 13.9219 0
Q11.7188 0 10.0625 1.65625
Q8.40625 3.32812 8.40625 5.51562" id="Cmmi10-3a"/>
    </defs>
    <g transform="translate(101.0 99.7714285714)scale(0.2 -0.2)">
     <use xlink:href="#Cmmi10-77"/>
     <use transform="translate(71.484375 -25.509375000000006)scale(0.7)" xlink:href="#Cmr10-30"/>
     <use transform="translate(139.04296875 0.0)" xlink:href="#Cmr10-3d"/>
     <use transform="translate(223.1015625 0.0)" xlink:href="#Cmr10-5b"/>
     <use transform="translate(250.787109375 0.0)" xlink:href="#Cmsy10-a1"/>
     <use transform="translate(328.47265625 0.0)" xlink:href="#Cmr10-30"/>
     <use transform="translate(378.47265625 0.0)" xlink:href="#Cmmi10-3a"/>
     <use transform="translate(407.015625 0.0)" xlink:href="#Cmr10-39"/>
     <use transform="translate(457.015625 0.0)" xlink:href="#Cmr10-31"/>
     <use transform="translate(507.015625 0.0)" xlink:href="#Cmr10-35"/>
     <use transform="translate(557.015625 0.0)" xlink:href="#Cmr10-31"/>
     <use transform="translate(607.015625 0.0)" xlink:href="#Cmr10-33"/>
     <use transform="translate(657.015625 0.0)" xlink:href="#Cmr10-33"/>
     <use transform="translate(707.015625 0.0)" xlink:href="#Cmr10-30"/>
     <use transform="translate(757.015625 0.0)" xlink:href="#Cmr10-32"/>
     <use transform="translate(807.015625 0.0)" xlink:href="#Cmr10-5d"/>
    </g>
   </g>
   <g id="text_15">
    <!-- $w_1 = [-1.09624995]$ -->
    <defs>
     <path d="
M25 -2.20312
Q18.7969 -2.20312 14.6406 1.09375
Q10.5 4.39062 8.21875 9.64062
Q5.95312 14.8906 5.07812 20.6562
Q4.20312 26.4219 4.20312 32.3281
Q4.20312 40.2344 7.28125 48.1875
Q10.3594 56.1562 16.3281 61.375
Q22.3125 66.6094 30.5156 66.6094
Q33.9375 66.6094 36.8906 65.3125
Q39.8438 64.0156 41.5312 61.5
Q43.2188 58.9844 43.2188 55.4219
Q43.2188 53.375 41.8281 51.9844
Q40.4375 50.5938 38.375 50.5938
Q36.4219 50.5938 35 52
Q33.5938 53.4219 33.5938 55.4219
Q33.5938 57.375 35 58.7812
Q36.4219 60.2031 38.375 60.2031
L38.9219 60.2031
Q37.6406 62.0156 35.3281 62.8594
Q33.0156 63.7188 30.5156 63.7188
Q27.4844 63.7188 24.9219 62.3906
Q22.3594 61.0781 20.3125 58.8281
Q18.2656 56.5938 16.8906 53.875
Q15.5312 51.1719 14.7656 47.7031
Q14.0156 44.2344 13.8125 41.2031
Q13.625 38.1875 13.625 33.5938
Q15.375 37.7031 18.5938 40.3125
Q21.8281 42.9219 25.875 42.9219
Q30.3281 42.9219 33.9844 41.1094
Q37.6406 39.3125 40.2812 36.1094
Q42.9219 32.9062 44.3125 28.7969
Q45.7031 24.7031 45.7031 20.5156
Q45.7031 14.6562 43.0938 9.34375
Q40.4844 4.04688 35.7344 0.921875
Q31 -2.20312 25 -2.20312
M25 0.984375
Q28.8594 0.984375 31.2031 2.73438
Q33.5469 4.5 34.6406 7.39062
Q35.75 10.2969 36.0156 13.25
Q36.2812 16.2188 36.2812 20.5156
Q36.2812 26.1719 35.7344 30.1719
Q35.2031 34.1875 32.8125 37.2344
Q30.4219 40.2812 25.4844 40.2812
Q21.4375 40.2812 18.8281 37.5469
Q16.2188 34.8125 15.0156 30.6406
Q13.8125 26.4688 13.8125 22.6094
Q13.8125 21.2969 13.9219 20.6094
Q13.9219 20.4531 13.8906 20.3594
Q13.875 20.2656 13.8125 20.125
Q13.8125 15.8281 14.6875 11.4219
Q15.5781 7.03125 18.0625 4
Q20.5625 0.984375 25 0.984375" id="Cmr10-36"/>
     <path d="
M2.78125 16.5
L2.78125 20.0156
L33.6875 66.1094
Q34.0312 66.6094 34.7188 66.6094
L36.1875 66.6094
Q37.3125 66.6094 37.3125 65.4844
L37.3125 20.0156
L47.125 20.0156
L47.125 16.5
L37.3125 16.5
L37.3125 6.6875
Q37.3125 4.64062 40.2344 4.07812
Q43.1719 3.51562 47.0156 3.51562
L47.0156 0
L19.4844 0
L19.4844 3.51562
Q23.3438 3.51562 26.2656 4.07812
Q29.2031 4.64062 29.2031 6.6875
L29.2031 16.5
z

M6.10938 20.0156
L29.7812 20.0156
L29.7812 55.4219
z
" id="Cmr10-34"/>
    </defs>
    <g transform="translate(101.0 183.471428571)scale(0.2 -0.2)">
     <use xlink:href="#Cmmi10-77"/>
     <use transform="translate(71.484375 -25.509375000000006)scale(0.7)" xlink:href="#Cmr10-31"/>
     <use transform="translate(139.04296875 0.0)" xlink:href="#Cmr10-3d"/>
     <use transform="translate(223.1015625 0.0)" xlink:href="#Cmr10-5b"/>
     <use transform="translate(250.787109375 0.0)" xlink:href="#Cmsy10-a1"/>
     <use transform="translate(328.47265625 0.0)" xlink:href="#Cmr10-31"/>
     <use transform="translate(378.47265625 0.0)" xlink:href="#Cmmi10-3a"/>
     <use transform="translate(407.015625 0.0)" xlink:href="#Cmr10-30"/>
     <use transform="translate(457.015625 0.0)" xlink:href="#Cmr10-39"/>
     <use transform="translate(507.015625 0.0)" xlink:href="#Cmr10-36"/>
     <use transform="translate(557.015625 0.0)" xlink:href="#Cmr10-32"/>
     <use transform="translate(607.015625 0.0)" xlink:href="#Cmr10-34"/>
     <use transform="translate(657.015625 0.0)" xlink:href="#Cmr10-39"/>
     <use transform="translate(707.015625 0.0)" xlink:href="#Cmr10-39"/>
     <use transform="translate(757.015625 0.0)" xlink:href="#Cmr10-35"/>
     <use transform="translate(807.015625 0.0)" xlink:href="#Cmr10-5d"/>
    </g>
   </g>
   <g id="text_16">
    <!-- $w_2 = [ 2.72138072]$ -->
    <defs>
     <path d="
M17.3906 2.59375
Q17.3906 8.15625 18.3594 13.4688
Q19.3438 18.7969 21.2188 24
Q23.0938 29.2031 25.75 34.2031
Q28.4219 39.2031 31.5938 43.6094
L40.7188 56.2969
L29.2969 56.2969
Q11.5312 56.2969 10.9844 55.8125
Q9.67188 54.2031 8.5 46.5781
L5.60938 46.5781
L8.89062 67.5781
L11.8125 67.5781
L11.8125 67.2812
Q11.8125 65.4844 17.9219 64.9375
Q24.0312 64.4062 29.8906 64.4062
L48.4844 64.4062
L48.4844 61.8125
Q48.4844 61.7188 48.4531 61.6719
Q48.4375 61.625 48.3906 61.5312
L34.625 42.1875
Q29.5469 34.6719 28.2656 25.4844
Q27 16.3125 27 2.59375
Q27 0.640625 25.5781 -0.78125
Q24.1719 -2.20312 22.2188 -2.20312
Q20.2188 -2.20312 18.7969 -0.78125
Q17.3906 0.640625 17.3906 2.59375" id="Cmr10-37"/>
     <path d="
M4.20312 15.1875
Q4.20312 21.1875 8.15625 25.7969
Q12.1094 30.4219 18.3125 33.5
L14.5938 35.8906
Q11.1875 38.1406 9.03125 41.875
Q6.89062 45.6094 6.89062 49.7031
Q6.89062 54.5 9.40625 58.3438
Q11.9219 62.2031 16.0938 64.4062
Q20.2656 66.6094 25 66.6094
Q29.4375 66.6094 33.5625 64.7969
Q37.7031 62.9844 40.3594 59.6094
Q43.0156 56.25 43.0156 51.6094
Q43.0156 48.25 41.4219 45.3594
Q39.8438 42.4844 37.0781 40.1875
Q34.3281 37.8906 31.2031 36.2812
L36.9219 32.625
Q40.875 30.0312 43.2812 25.8281
Q45.7031 21.625 45.7031 17
Q45.7031 11.5781 42.7969 7.125
Q39.8906 2.6875 35.1094 0.234375
Q30.3281 -2.20312 25 -2.20312
Q19.8281 -2.20312 15.0156 -0.09375
Q10.2031 2 7.20312 5.98438
Q4.20312 9.96875 4.20312 15.1875
M9.625 15.1875
Q9.625 11.2344 11.7969 7.95312
Q13.9688 4.6875 17.5312 2.82812
Q21.0938 0.984375 25 0.984375
Q30.8125 0.984375 35.5469 4.375
Q40.2812 7.76562 40.2812 13.375
Q40.2812 15.2812 39.5156 17.1562
Q38.7656 19.0469 37.4219 20.5781
Q36.0781 22.125 34.4219 23.0938
L21 31.7812
Q17.875 30.125 15.25 27.5781
Q12.6406 25.0469 11.125 21.875
Q9.625 18.7031 9.625 15.1875
M16.5 45.7031
L28.6094 37.8906
Q32.8125 40.3281 35.5 43.7969
Q38.1875 47.2656 38.1875 51.6094
Q38.1875 54.9844 36.2969 57.7812
Q34.4219 60.5938 31.3906 62.1562
Q28.375 63.7188 24.9062 63.7188
Q21.875 63.7188 18.7969 62.5469
Q15.7188 61.375 13.7188 59.0469
Q11.7188 56.7344 11.7188 53.6094
Q11.7188 48.9219 16.5 45.7031" id="Cmr10-38"/>
    </defs>
    <g transform="translate(178.45 163.542857143)scale(0.2 -0.2)">
     <use xlink:href="#Cmmi10-77"/>
     <use transform="translate(71.484375 -25.509375000000006)scale(0.7)" xlink:href="#Cmr10-32"/>
     <use transform="translate(139.04296875 0.0)" xlink:href="#Cmr10-3d"/>
     <use transform="translate(223.1015625 0.0)" xlink:href="#Cmr10-5b"/>
     <use transform="translate(250.787109375 0.0)" xlink:href="#Cmr10-32"/>
     <use transform="translate(300.787109375 0.0)" xlink:href="#Cmmi10-3a"/>
     <use transform="translate(329.330078125 0.0)" xlink:href="#Cmr10-37"/>
     <use transform="translate(379.330078125 0.0)" xlink:href="#Cmr10-32"/>
     <use transform="translate(429.330078125 0.0)" xlink:href="#Cmr10-31"/>
     <use transform="translate(479.330078125 0.0)" xlink:href="#Cmr10-33"/>
     <use transform="translate(529.330078125 0.0)" xlink:href="#Cmr10-38"/>
     <use transform="translate(579.330078125 0.0)" xlink:href="#Cmr10-30"/>
     <use transform="translate(629.330078125 0.0)" xlink:href="#Cmr10-37"/>
     <use transform="translate(679.330078125 0.0)" xlink:href="#Cmr10-32"/>
     <use transform="translate(729.330078125 0.0)" xlink:href="#Cmr10-5d"/>
    </g>
   </g>
  </g>
 </g>
 <defs>
  <clipPath id="pd0c2820aef">
   <rect height="279.0" width="279.0" x="45.0" y="36.0"/>
  </clipPath>
 </defs>
</svg>
