<?xml version="1.0" encoding="utf-8" standalone="no"?>
<!DOCTYPE svg PUBLIC "-//W3C//DTD SVG 1.1//EN"
  "http://www.w3.org/Graphics/SVG/1.1/DTD/svg11.dtd">
<!-- Created with matplotlib (http://matplotlib.org/) -->
<svg height="360pt" version="1.1" viewBox="0 0 720 360" width="720pt" xmlns="http://www.w3.org/2000/svg" xmlns:xlink="http://www.w3.org/1999/xlink">
 <defs>
  <style type="text/css">
*{stroke-linecap:butt;stroke-linejoin:round;}
  </style>
 </defs>
 <g id="figure_1">
  <g id="patch_1">
   <path d="
M0 360
L720 360
L720 0
L0 0
z
" style="fill:#ffffff;"/>
  </g>
  <g id="axes_1">
   <g id="patch_2">
    <path d="
M90 315
L343.636 315
L343.636 36
L90 36
z
" style="fill:#ffffff;"/>
   </g>
   <g id="LineCollection_1"/>
   <g id="LineCollection_2">
    <path clip-path="url(#p4bbcf401cb)" d="
M202.727 188.669
L201.182 188.182
L200.165 187.581
L198.541 185.364
L198.136 182.545
L198.616 179.727
L199.592 176.909
L200.165 175.744
L201.001 174.091
L202.701 171.273
L202.727 171.237
L204.796 168.455
L205.289 167.859
L207.179 165.636
L207.851 164.919
L209.873 162.818
L210.413 162.305
L212.905 160
L212.975 159.94
L215.537 157.895
L216.464 157.182
L218.099 156.026
L220.534 154.364
L220.661 154.284
L223.223 152.864
L225.73 151.545
L225.785 151.519
L228.347 150.534
L230.909 149.746
L233.471 149.25
L236.033 149.221
L238.595 150.006
L240.398 151.545
L241.157 153.507
L241.352 154.364
L241.172 157.182
L241.157 157.233
L240.308 160
L239.072 162.818
L238.595 163.654
L237.434 165.636
L236.033 167.703
L235.51 168.455
L233.471 171.032
L233.275 171.273
L230.909 173.871
L230.703 174.091
L228.347 176.361
L227.762 176.909
L225.785 178.596
L224.419 179.727
L223.223 180.637
L220.661 182.523
L220.627 182.545
L218.099 184.082
L215.902 185.364
L215.537 185.56
L212.975 186.721
L210.413 187.738
L208.9 188.182
L207.851 188.462
L205.289 188.796
L202.727 188.669" style="fill:none;stroke:#000089;"/>
   </g>
   <g id="LineCollection_3">
    <path clip-path="url(#p4bbcf401cb)" d="
M211.443 195.294
L210.413 195.79
L208.493 196.636
L207.851 196.904
L205.289 197.803
L202.727 198.561
L200.165 199.134
L197.65 199.455
L197.603 199.46
L196.254 199.455
L195.041 199.448
L192.479 198.947
L189.917 197.712
L188.659 196.636
L187.355 194.584
L187.026 193.818
L186.571 191
L186.717 188.182
L187.279 185.364
L187.355 185.134
L188.238 182.545
L189.436 179.727
L189.917 178.793
L190.905 176.909
L192.479 174.222
L192.557 174.091
L194.47 171.273
L195.041 170.499
L196.576 168.455
L197.603 167.184
L198.877 165.636
L200.165 164.174
L201.381 162.818
L202.727 161.412
L204.102 160
L205.289 158.853
L207.05 157.182
L207.851 156.463
L210.237 154.364
L210.413 154.217
L212.975 152.168
L213.774 151.545
L215.537 150.247
L217.645 148.727
L218.099 148.417
L220.661 146.765
L222.043 145.909
L223.223 145.217
L225.785 143.806
L227.18 143.091
L228.347 142.525
L230.909 141.409
L233.471 140.392
L233.845 140.273
L236.033 139.615
L238.595 139.022
L241.157 138.648
L243.719 138.567
L246.281 138.892
L248.843 139.8
L249.602 140.273
L251.405 142.13
L252.002 143.091
L252.803 145.909
L252.866 148.727
L252.433 151.545
L251.653 154.364
L251.405 154.992
L250.525 157.182
L249.856 158.581" style="fill:none;stroke:#000092;"/>
   </g>
   <g id="LineCollection_4">
    <path clip-path="url(#p4bbcf401cb)" d="
M264.49 152.564
L264.215 153.157
L263.648 154.364
L262.166 157.182
L261.653 158.068
L260.521 160
L259.091 162.283
L258.751 162.818
L256.828 165.636
L256.529 166.047
L254.754 168.455
L253.967 169.468
L252.55 171.273
L251.405 172.66
L250.21 174.091
L248.843 175.653
L247.731 176.909
L246.281 178.474
L245.106 179.727
L243.719 181.145
L242.331 182.545
L241.157 183.683
L239.401 185.364
L238.595 186.105
L236.308 188.182
L236.033 188.422
L233.471 190.614
L233.011 191
L230.909 192.696
L229.498 193.818
L228.347 194.701
L225.786 196.636
L225.785 196.637
L223.223 198.427
L221.729 199.455
L220.661 200.163
L218.099 201.812
L217.353 202.273
L215.537 203.353
L212.975 204.838
L212.511 205.091
L210.413 206.192
L207.851 207.488
L206.955 207.909
L205.289 208.663
L202.727 209.742
L200.221 210.727
L200.165 210.748
L197.603 211.582
L195.041 212.313
L192.479 212.922
L189.917 213.384
L188.406 213.545
L187.355 213.652
L184.793 213.702
L182.72 213.545
L182.231 213.5
L179.669 212.912
L177.107 211.845
L175.376 210.727
L174.545 209.976
L172.907 207.909
L171.983 205.96
L171.662 205.091
L171.146 202.273
L171.083 199.455
L171.368 196.636
L171.925 193.818
L171.983 193.621
L172.763 191
L173.788 188.182
L174.545 186.403
L174.994 185.364
L176.383 182.545
L177.107 181.215
L177.928 179.727
L179.602 176.909
L179.669 176.806
L181.458 174.091
L182.231 172.983
L183.44 171.273
L184.793 169.459
L185.552 168.455
L187.355 166.189
L187.8 165.636
L189.917 163.135
L190.188 162.818
L192.479 160.267
L192.722 160
L195.041 157.561
L195.407 157.182
L197.603 154.997
L198.248 154.364
L200.165 152.557
L201.252 151.545
L202.727 150.226
L204.425 148.727
L205.289 147.993
L207.773 145.909
L207.851 145.846
L210.413 143.84
L211.386 143.091
L212.975 141.911
L215.215 140.273
L215.537 140.046
L218.099 138.308
L219.387 137.455
L220.661 136.64
L223.223 135.051
L223.924 134.636
L225.785 133.575
L228.347 132.159
L229.004 131.818
L230.909 130.867
L233.471 129.649
L234.934 129
L236.033 128.531
L238.311 127.649" style="fill:none;stroke:#0000a4;"/>
   </g>
   <g id="LineCollection_5">
    <path clip-path="url(#p4bbcf401cb)" d="
M167.534 172.235
L170.36 168.455
L174.898 162.818
L179.829 157.182
L185.171 151.545
L190.947 145.909
L197.18 140.273
L202.727 135.635
L207.851 131.606
L212.975 127.862
L218.099 124.351
L223.223 121.079
L228.934 117.727
L234.217 114.909
L240.117 112.091
L243.719 110.557
L248.843 108.612
L253.967 106.997
L256.529 106.315
L261.653 105.301
L264.215 104.958
L266.777 104.746
L269.339 104.685
L271.901 104.8
L274.463 105.123
L277.025 105.69
L279.587 106.562
L282.149 107.942
L283.981 109.273
L284.711 109.948
L286.545 112.091
L287.273 113.262
L288.12 114.909
L289.084 117.727
L289.619 120.545
L289.807 123.364
L289.712 126.182
L289.381 129
L288.851 131.818
L288.154 134.636
L287.273 137.566
L285.166 143.091
L282.53 148.727
L279.449 154.364
L275.934 160
L271.901 165.839
L267.758 171.273
L263.093 176.909
L258.037 182.545
L252.57 188.182
L246.67 193.818
L241.157 198.693
L236.033 202.94
L230.909 206.914
L225.682 210.727
L220.661 214.119
L215.537 217.344
L210.413 220.328
L205.289 223.061
L200.165 225.536
L195.041 227.745
L189.917 229.624
L187.355 230.47
L182.231 231.827
L177.107 232.813
L174.545 233.131
L171.983 233.307
L168.597 233.273
L166.86 233.152
L164.298 232.752
L161.736 232.082
L159.174 231.085
L157.971 230.455
L156.612 229.576
L154.05 227.319
L152.235 224.818
L150.919 222
L150.867 221.81
L150.867 221.81" style="fill:none;stroke:#0000c8;"/>
   </g>
   <g id="LineCollection_6">
    <path clip-path="url(#p4bbcf401cb)" d="
M200.8 117.194
L207.851 111.917
L215.673 106.455
L223.223 101.574
L229.139 98
L236.033 94.1369
L241.157 91.4697
L246.281 88.9841
L251.405 86.6844
L259.091 83.6345
L264.215 81.8792
L269.339 80.3552
L274.463 79.0955
L279.587 78.1169
L284.711 77.4967
L289.835 77.2612
L292.397 77.3141
L294.959 77.4981
L297.521 77.8288
L300.083 78.3279
L302.645 79.063
L305.207 80.0316
L307.769 81.2863
L310.331 82.9938
L311.469 83.9091
L312.893 85.2718
L314.185 86.7273
L316.112 89.5455
L317.491 92.3636
L318.462 95.1818
L319.102 98
L319.484 100.818
L319.643 103.636
L319.606 106.455
L319.397 109.273
L319.036 112.091
L318.017 117.284
L317.918 117.727
L316.307 123.364
L315.358 126.182
L312.893 132.412
L310.331 137.994
L307.724 143.091
L304.533 148.727
L301.06 154.364
L297.317 160
L292.397 166.827
L288.995 171.273
L284.441 176.909
L279.587 182.575
L274.463 188.226
L269.105 193.818
L263.402 199.455
L256.529 205.865
L251.027 210.727
L243.719 216.818
L237.106 222
L230.909 226.582
L225.398 230.455
L218.099 235.257
L212.174 238.909
L205.289 242.851
L200.165 245.583
L195.041 248.134
L189.917 250.501
L183.941 253
L179.669 254.608
L174.545 256.345
L169.421 257.83
L164.298 259.057
L159.174 259.971
L154.05 260.554
L151.488 260.699
L148.926 260.733
L146.364 260.643
L143.802 260.414
L141.24 260.029
L138.678 259.468
L135.923 258.636
L133.554 257.641
L130.282 255.818
L128.43 254.429
L126.843 253
L125.868 251.944
L124.475 250.182
L122.777 247.364
L121.574 244.545
L120.72 241.727
L120.193 238.909
L119.905 236.091
L119.825 233.273
L119.93 230.455
L120.196 227.636
L120.744 224.117
L121.162 222
L122.629 216.364
L123.519 213.545
L125.868 207.287
L128.43 201.496
L130.992 196.344
L133.929 191
L137.319 185.364
L141.24 179.344
L144.924 174.091
L149.125 168.455
L154.05 162.282
L159.174 156.249
L161.273 153.876
L161.273 153.876" style="fill:none;stroke:#0000ff;"/>
   </g>
   <g id="LineCollection_7">
    <path clip-path="url(#p4bbcf401cb)" d="
M90 215.289
L92.562 210.06
L95.1672 205.091
L98.3376 199.455
L102.81 192.052
L105.372 188.031
L110.996 179.727
L115.62 173.321
L121.482 165.636
L126.001 160
L130.992 154.045
L138.154 145.909
L143.802 139.802
L151.54 131.818
L159.174 124.361
L166.283 117.727
L172.593 112.091
L179.669 106.028
L187.355 99.744
L195.041 93.7503
L202.727 88.0407
L210.413 82.6091
L218.099 77.4495
L225.785 72.556
L235.111 67
L241.157 63.6112
L248.843 59.5584
L256.649 55.7273
L264.215 52.326
L271.901 49.1825
L279.587 46.3749
L284.364 44.8088
L284.364 44.8088" style="fill:none;stroke:#0080ff;"/>
    <path clip-path="url(#p4bbcf401cb)" d="
M343.636 134.12
L343.355 134.636
L341.763 137.455
L341.074 138.64
L340.122 140.273
L338.512 142.967
L338.438 143.091
L336.691 145.909
L335.95 147.077
L334.899 148.727
L333.388 151.049
L333.064 151.545
L331.176 154.364
L330.826 154.873
L329.236 157.182
L328.264 158.564
L327.252 160
L325.702 162.154
L325.223 162.818
L323.149 165.636
L323.14 165.648
L321.018 168.455
L320.579 169.026
L318.843 171.273
L318.017 172.323
L316.621 174.091
L315.455 175.544
L314.354 176.909
L312.893 178.691
L312.039 179.727
L310.331 181.768
L309.677 182.545
L307.769 184.779
L307.267 185.364
L305.207 187.728
L304.809 188.182
L302.645 190.616
L302.301 191
L300.083 193.447
L299.744 193.818
L297.521 196.223
L297.137 196.636
L294.959 198.947
L294.478 199.455
L292.397 201.621
L291.768 202.273
L289.835 204.247
L289.005 205.091
L287.273 206.828
L286.19 207.909
L284.711 209.365
L283.321 210.727
L282.149 211.86
L280.398 213.545
L279.587 214.315
L277.42 216.364
L277.025 216.732
L274.463 219.109
L274.383 219.182
L271.901 221.437
L271.278 222
L269.339 223.731
L268.114 224.818
L266.777 225.991
L264.891 227.636
L264.215 228.218
L261.653 230.414
L261.605 230.455
L259.091 232.561
L258.237 233.273
L256.529 234.679
L254.805 236.091
L253.967 236.768
L251.405 238.829
L251.304 238.909
L251.186 239.002" style="fill:none;stroke:#0080ff;"/>
    <path clip-path="url(#p4bbcf401cb)" d="
M198.922 274.047
L197.603 274.77
L196.168 275.545
L195.041 276.146
L192.479 277.488
L190.78 278.364
L189.917 278.802
L187.355 280.077
L185.102 281.182
L184.793 281.331
L182.231 282.535
L179.669 283.722
L179.05 284
L177.107 284.861
L174.545 285.972
L172.546 286.818
L171.983 287.053
L169.421 288.084
L166.86 289.09
L165.418 289.636
L164.298 290.055
L161.736 290.975
L159.174 291.864
L157.399 292.455
L156.612 292.713
L154.05 293.508
L151.488 294.268
L148.926 294.989
L147.846 295.273
L146.364 295.656
L143.802 296.27
L141.24 296.839
L138.678 297.36
L136.116 297.828
L134.474 298.091
L133.554 298.236
L130.992 298.576
L128.43 298.855
L125.868 299.068
L123.306 299.21
L120.744 299.276
L118.182 299.26
L115.62 299.155
L113.058 298.955
L110.496 298.652
L107.934 298.237
L107.222 298.091
L105.372 297.68
L102.81 296.973
L100.248 296.11
L98.1624 295.273
L97.686 295.063
L95.124 293.76
L92.9292 292.455
L92.562 292.212
L90 290.288" style="fill:none;stroke:#0080ff;"/>
   </g>
   <g id="LineCollection_8">
    <path clip-path="url(#p4bbcf401cb)" d="
M195.402 315
L197.603 313.741
L200.165 312.267
L200.311 312.182
L202.727 310.759
L205.085 309.364
L205.289 309.242
L207.851 307.691
L209.733 306.545
L210.413 306.128
L212.975 304.538
L214.271 303.727
L215.537 302.929
L218.099 301.301
L218.71 300.909
L220.661 299.646
L223.052 298.091
L223.223 297.979
L225.785 296.279
L227.294 295.273
L228.347 294.565
L230.909 292.83
L231.458 292.455
L233.471 291.067
L235.54 289.636
L236.033 289.292
L238.595 287.488
L239.541 286.818
L241.157 285.664
L243.477 284
L243.719 283.825
L246.281 281.954
L247.333 281.182
L248.843 280.064
L251.133 278.364
L251.405 278.159
L253.967 276.224
L254.86 275.545
L256.529 274.267
L258.532 272.727
L259.091 272.294
L261.653 270.294
L262.143 269.909
L264.215 268.268
L265.696 267.091
L266.777 266.224
L269.201 264.273
L269.339 264.16
L271.901 262.064
L272.643 261.455
L274.463 259.946
L276.038 258.636
L277.025 257.808
L279.388 255.818
L279.587 255.649
L282.149 253.458
L282.682 253
L284.711 251.242
L285.93 250.182
L287.273 249.004
L289.136 247.364
L289.835 246.742
L292.299 244.545
L292.397 244.457
L294.959 242.138
L295.411 241.727
L297.521 239.793
L298.482 238.909
L300.083 237.422
L301.512 236.091
L302.645 235.025
L304.502 233.273
L305.207 232.601
L307.453 230.455
L307.561 230.351" style="fill:none;stroke:#7dff7a;"/>
    <path clip-path="url(#p4bbcf401cb)" d="
M90 152.51
L90.8056 151.545
L92.562 149.466
L93.1877 148.727
L95.124 146.467
L95.6036 145.909
L97.686 143.513
L98.0537 143.091
L100.248 140.601
L100.538 140.273
L102.81 137.731
L103.058 137.455
L105.372 134.901
L105.612 134.636
L107.934 132.109
L108.202 131.818
L110.496 129.355
L110.827 129
L113.058 126.637
L113.489 126.182
L115.62 123.954
L116.186 123.364
L118.182 121.305
L118.921 120.545
L120.744 118.69
L121.692 117.727
L123.306 116.106
L124.501 114.909
L125.868 113.553
L127.347 112.091
L128.43 111.031
L130.231 109.273
L130.992 108.537
L133.153 106.455
L133.554 106.073
L136.114 103.636
L136.116 103.635
L138.678 101.234
L139.123 100.818
L141.24 98.8596
L142.172 98
L143.802 96.5107
L145.261 95.1818
L146.364 94.1868
L148.391 92.3636
L148.926 91.8871
L151.488 89.6125
L151.564 89.5455
L154.05 87.3722
L154.79 86.7273
L156.612 85.1544
L158.059 83.9091
L159.174 82.9585
L161.371 81.0909
L161.736 80.784
L164.298 78.6382
L164.736 78.2727
L166.86 76.5198
L168.154 75.4545
L169.421 74.4211
L171.618 72.6364
L171.983 72.3417
L174.545 70.2913
L175.14 69.8182
L177.107 68.2658
L178.717 67
L179.669 66.2582
L182.231 64.2698
L182.346 64.1818
L184.793 62.3149
L186.045 61.3636
L187.355 60.3764
L189.794 58.5455
L189.917 58.454
L192.201 56.7701" style="fill:none;stroke:#7dff7a;"/>
   </g>
   <g id="LineCollection_9">
    <path clip-path="url(#p4bbcf401cb)" d="
M275.746 315
L277.025 314.004
L279.357 312.182
L279.587 312.001
L282.149 309.977
L282.922 309.364
L284.711 307.936
L286.131 306.801" style="fill:none;stroke:#800000;"/>
    <path clip-path="url(#p4bbcf401cb)" d="
M333.77 265.598
L335.193 264.273
L335.95 263.562
L338.193 261.455
L338.512 261.152
L341.074 258.721
L341.164 258.636
L343.636 256.266" style="fill:none;stroke:#800000;"/>
    <path clip-path="url(#p4bbcf401cb)" d="
M90 87.3967
L90.6827 86.7273
L92.562 84.8976
L93.5795 83.9091
L95.124 82.419
L96.5034 81.0909
L97.686 79.9603
L99.4548 78.2727
L100.248 77.5212
L102.434 75.4545
L102.81 75.1013
L105.372 72.7012
L105.441 72.6364
L107.934 70.3257
L108.482 69.8182
L110.496 67.9684
L111.552 67
L113.058 65.6289
L114.651 64.1818
L115.62 63.307
L117.778 61.3636
L118.182 61.0022
L120.744 58.717
L120.937 58.5455
L123.306 56.4543
L124.131 55.7273
L125.868 54.208
L127.356 52.9091
L128.43 51.9776
L130.61 50.0909
L130.992 49.7629
L133.554 47.5682
L133.9 47.2727
L136.116 45.3939
L137.226 44.4545
L138.678 43.2345
L140.584 41.6364
L141.24 41.0897
L143.802 38.9615
L143.975 38.8182
L146.364 36.856
L147.408 36" style="fill:none;stroke:#800000;"/>
   </g>
   <g id="line2d_1">
    <defs>
     <path d="
M1.83697e-16 -3
L-0.673542 -0.927051
L-2.85317 -0.927051
L-1.08981 0.354102
L-1.76336 2.42705
L-2.10498e-16 1.1459
L1.76336 2.42705
L1.08981 0.354102
L2.85317 -0.927051
L0.673542 -0.927051
z
" id="m331e3516a5" style="stroke:#000000;stroke-linejoin:bevel;stroke-width:0.5;"/>
    </defs>
    <g clip-path="url(#p4bbcf401cb)">
     <use style="fill:#008000;stroke:#000000;stroke-linejoin:bevel;stroke-width:0.5;" x="157.047920032" xlink:href="#m331e3516a5" y="259.470302766"/>
    </g>
   </g>
   <g id="line2d_2">
    <g clip-path="url(#p4bbcf401cb)">
     <use style="fill:#008000;stroke:#000000;stroke-linejoin:bevel;stroke-width:0.5;" x="156.679288902" xlink:href="#m331e3516a5" y="255.471384054"/>
    </g>
   </g>
   <g id="line2d_3">
    <g clip-path="url(#p4bbcf401cb)">
     <use style="fill:#008000;stroke:#000000;stroke-linejoin:bevel;stroke-width:0.5;" x="156.501958166" xlink:href="#m331e3516a5" y="251.81142467"/>
    </g>
   </g>
   <g id="line2d_4">
    <g clip-path="url(#p4bbcf401cb)">
     <use style="fill:#008000;stroke:#000000;stroke-linejoin:bevel;stroke-width:0.5;" x="156.490790752" xlink:href="#m331e3516a5" y="248.453424071"/>
    </g>
   </g>
   <g id="line2d_5">
    <g clip-path="url(#p4bbcf401cb)">
     <use style="fill:#008000;stroke:#000000;stroke-linejoin:bevel;stroke-width:0.5;" x="156.623630712" xlink:href="#m331e3516a5" y="245.3646405"/>
    </g>
   </g>
   <g id="line2d_6">
    <g clip-path="url(#p4bbcf401cb)">
     <use style="fill:#008000;stroke:#000000;stroke-linejoin:bevel;stroke-width:0.5;" x="156.880955198" xlink:href="#m331e3516a5" y="242.516096257"/>
    </g>
   </g>
   <g id="line2d_7">
    <g clip-path="url(#p4bbcf401cb)">
     <use style="fill:#008000;stroke:#000000;stroke-linejoin:bevel;stroke-width:0.5;" x="157.245566957" xlink:href="#m331e3516a5" y="239.882140532"/>
    </g>
   </g>
   <g id="line2d_8">
    <g clip-path="url(#p4bbcf401cb)">
     <use style="fill:#008000;stroke:#000000;stroke-linejoin:bevel;stroke-width:0.5;" x="157.702322642" xlink:href="#m331e3516a5" y="237.4400631"/>
    </g>
   </g>
   <g id="line2d_9">
    <g clip-path="url(#p4bbcf401cb)">
     <use style="fill:#008000;stroke:#000000;stroke-linejoin:bevel;stroke-width:0.5;" x="158.237892758" xlink:href="#m331e3516a5" y="235.169752956"/>
    </g>
   </g>
   <g id="line2d_10">
    <g clip-path="url(#p4bbcf401cb)">
     <use style="fill:#008000;stroke:#000000;stroke-linejoin:bevel;stroke-width:0.5;" x="158.840549569" xlink:href="#m331e3516a5" y="233.053396661"/>
    </g>
   </g>
   <g id="line2d_11">
    <g clip-path="url(#p4bbcf401cb)">
     <use style="fill:#008000;stroke:#000000;stroke-linejoin:bevel;stroke-width:0.5;" x="159.499979701" xlink:href="#m331e3516a5" y="231.075211783"/>
    </g>
   </g>
   <g id="line2d_12">
    <g clip-path="url(#p4bbcf401cb)">
     <use style="fill:#008000;stroke:#000000;stroke-linejoin:bevel;stroke-width:0.5;" x="167.678625619" xlink:href="#m331e3516a5" y="216.473609609"/>
    </g>
   </g>
   <g id="line2d_13">
    <g clip-path="url(#p4bbcf401cb)">
     <use style="fill:#008000;stroke:#000000;stroke-linejoin:bevel;stroke-width:0.5;" x="176.192859469" xlink:href="#m331e3516a5" y="207.004285417"/>
    </g>
   </g>
   <g id="line2d_14">
    <g clip-path="url(#p4bbcf401cb)">
     <use style="fill:#008000;stroke:#000000;stroke-linejoin:bevel;stroke-width:0.5;" x="183.713889206" xlink:href="#m331e3516a5" y="199.95339405"/>
    </g>
   </g>
   <g id="line2d_15">
    <g clip-path="url(#p4bbcf401cb)">
     <use style="fill:#008000;stroke:#000000;stroke-linejoin:bevel;stroke-width:0.5;" x="190.049818027" xlink:href="#m331e3516a5" y="194.368450343"/>
    </g>
   </g>
   <g id="line2d_16">
    <g clip-path="url(#p4bbcf401cb)">
     <use style="fill:#008000;stroke:#000000;stroke-linejoin:bevel;stroke-width:0.5;" x="195.304243864" xlink:href="#m331e3516a5" y="189.837362169"/>
    </g>
   </g>
   <g id="line2d_17">
    <g clip-path="url(#p4bbcf401cb)">
     <use style="fill:#008000;stroke:#000000;stroke-linejoin:bevel;stroke-width:0.5;" x="199.6382211" xlink:href="#m331e3516a5" y="186.128942382"/>
    </g>
   </g>
   <g id="line2d_18">
    <g clip-path="url(#p4bbcf401cb)">
     <use style="fill:#008000;stroke:#000000;stroke-linejoin:bevel;stroke-width:0.5;" x="203.206213119" xlink:href="#m331e3516a5" y="183.084317348"/>
    </g>
   </g>
   <g id="line2d_19">
    <g clip-path="url(#p4bbcf401cb)">
     <use style="fill:#008000;stroke:#000000;stroke-linejoin:bevel;stroke-width:0.5;" x="206.141639102" xlink:href="#m331e3516a5" y="180.581897368"/>
    </g>
   </g>
   <g id="line2d_20">
    <g clip-path="url(#p4bbcf401cb)">
     <use style="fill:#008000;stroke:#000000;stroke-linejoin:bevel;stroke-width:0.5;" x="208.556077756" xlink:href="#m331e3516a5" y="178.52431741"/>
    </g>
   </g>
   <g id="line2d_21">
    <g clip-path="url(#p4bbcf401cb)">
     <use style="fill:#008000;stroke:#000000;stroke-linejoin:bevel;stroke-width:0.5;" x="218.155307608" xlink:href="#m331e3516a5" y="170.345240563"/>
    </g>
   </g>
   <g id="line2d_22">
    <g clip-path="url(#p4bbcf401cb)">
     <use style="fill:#008000;stroke:#000000;stroke-linejoin:bevel;stroke-width:0.5;" x="219.514036688" xlink:href="#m331e3516a5" y="169.187550137"/>
    </g>
   </g>
   <g id="line2d_23">
    <g clip-path="url(#p4bbcf401cb)">
     <use style="fill:#008000;stroke:#000000;stroke-linejoin:bevel;stroke-width:0.5;" x="219.706357475" xlink:href="#m331e3516a5" y="169.023685289"/>
    </g>
   </g>
   <g id="line2d_24">
    <g clip-path="url(#p4bbcf401cb)">
     <use style="fill:#008000;stroke:#000000;stroke-linejoin:bevel;stroke-width:0.5;" x="219.733579447" xlink:href="#m331e3516a5" y="169.000491102"/>
    </g>
   </g>
   <g id="line2d_25">
    <g clip-path="url(#p4bbcf401cb)">
     <use style="fill:#008000;stroke:#000000;stroke-linejoin:bevel;stroke-width:0.5;" x="219.737432571" xlink:href="#m331e3516a5" y="168.99720809"/>
    </g>
   </g>
   <g id="patch_3">
    <path d="
M90 315
L343.636 315" style="fill:none;stroke:#000000;stroke-linecap:square;stroke-linejoin:miter;"/>
   </g>
   <g id="patch_4">
    <path d="
M343.636 315
L343.636 36" style="fill:none;stroke:#000000;stroke-linecap:square;stroke-linejoin:miter;"/>
   </g>
   <g id="patch_5">
    <path d="
M90 315
L90 36" style="fill:none;stroke:#000000;stroke-linecap:square;stroke-linejoin:miter;"/>
   </g>
   <g id="patch_6">
    <path d="
M90 36
L343.636 36" style="fill:none;stroke:#000000;stroke-linecap:square;stroke-linejoin:miter;"/>
   </g>
   <g id="matplotlib.axis_1">
    <g id="xtick_1">
     <g id="line2d_26">
      <defs>
       <path d="
M0 0
L0 -4" id="mc7db9fdffb" style="stroke:#000000;stroke-width:0.5;"/>
      </defs>
      <g>
       <use style="stroke:#000000;stroke-width:0.5;" x="115.363636364" xlink:href="#mc7db9fdffb" y="315.0"/>
      </g>
     </g>
     <g id="line2d_27">
      <defs>
       <path d="
M0 0
L0 4" id="m5a7d422ac3" style="stroke:#000000;stroke-width:0.5;"/>
      </defs>
      <g>
       <use style="stroke:#000000;stroke-width:0.5;" x="115.363636364" xlink:href="#m5a7d422ac3" y="36.0"/>
      </g>
     </g>
     <g id="text_1">
      <!-- −1 -->
      <defs>
       <path d="
M12.4062 8.29688
L28.5156 8.29688
L28.5156 63.9219
L10.9844 60.4062
L10.9844 69.3906
L28.4219 72.9062
L38.2812 72.9062
L38.2812 8.29688
L54.3906 8.29688
L54.3906 0
L12.4062 0
z
" id="BitstreamVeraSans-Roman-31"/>
       <path d="
M10.5938 35.5
L73.1875 35.5
L73.1875 27.2031
L10.5938 27.2031
z
" id="BitstreamVeraSans-Roman-2212"/>
      </defs>
      <g transform="translate(108.983948864 326.5984375)scale(0.1 -0.1)">
       <use xlink:href="#BitstreamVeraSans-Roman-2212"/>
       <use x="83.7890625" xlink:href="#BitstreamVeraSans-Roman-31"/>
      </g>
     </g>
    </g>
    <g id="xtick_2">
     <g id="line2d_28">
      <g>
       <use style="stroke:#000000;stroke-width:0.5;" x="157.636363636" xlink:href="#mc7db9fdffb" y="315.0"/>
      </g>
     </g>
     <g id="line2d_29">
      <g>
       <use style="stroke:#000000;stroke-width:0.5;" x="157.636363636" xlink:href="#m5a7d422ac3" y="36.0"/>
      </g>
     </g>
     <g id="text_2">
      <!-- 0 -->
      <defs>
       <path d="
M31.7812 66.4062
Q24.1719 66.4062 20.3281 58.9062
Q16.5 51.4219 16.5 36.375
Q16.5 21.3906 20.3281 13.8906
Q24.1719 6.39062 31.7812 6.39062
Q39.4531 6.39062 43.2812 13.8906
Q47.125 21.3906 47.125 36.375
Q47.125 51.4219 43.2812 58.9062
Q39.4531 66.4062 31.7812 66.4062
M31.7812 74.2188
Q44.0469 74.2188 50.5156 64.5156
Q56.9844 54.8281 56.9844 36.375
Q56.9844 17.9688 50.5156 8.26562
Q44.0469 -1.42188 31.7812 -1.42188
Q19.5312 -1.42188 13.0625 8.26562
Q6.59375 17.9688 6.59375 36.375
Q6.59375 54.8281 13.0625 64.5156
Q19.5312 74.2188 31.7812 74.2188" id="BitstreamVeraSans-Roman-30"/>
      </defs>
      <g transform="translate(155.116832386 326.5984375)scale(0.1 -0.1)">
       <use xlink:href="#BitstreamVeraSans-Roman-30"/>
      </g>
     </g>
    </g>
    <g id="xtick_3">
     <g id="line2d_30">
      <g>
       <use style="stroke:#000000;stroke-width:0.5;" x="199.909090909" xlink:href="#mc7db9fdffb" y="315.0"/>
      </g>
     </g>
     <g id="line2d_31">
      <g>
       <use style="stroke:#000000;stroke-width:0.5;" x="199.909090909" xlink:href="#m5a7d422ac3" y="36.0"/>
      </g>
     </g>
     <g id="text_3">
      <!-- 1 -->
      <g transform="translate(197.738778409 326.5984375)scale(0.1 -0.1)">
       <use xlink:href="#BitstreamVeraSans-Roman-31"/>
      </g>
     </g>
    </g>
    <g id="xtick_4">
     <g id="line2d_32">
      <g>
       <use style="stroke:#000000;stroke-width:0.5;" x="242.181818182" xlink:href="#mc7db9fdffb" y="315.0"/>
      </g>
     </g>
     <g id="line2d_33">
      <g>
       <use style="stroke:#000000;stroke-width:0.5;" x="242.181818182" xlink:href="#m5a7d422ac3" y="36.0"/>
      </g>
     </g>
     <g id="text_4">
      <!-- 2 -->
      <defs>
       <path d="
M19.1875 8.29688
L53.6094 8.29688
L53.6094 0
L7.32812 0
L7.32812 8.29688
Q12.9375 14.1094 22.625 23.8906
Q32.3281 33.6875 34.8125 36.5312
Q39.5469 41.8438 41.4219 45.5312
Q43.3125 49.2188 43.3125 52.7812
Q43.3125 58.5938 39.2344 62.25
Q35.1562 65.9219 28.6094 65.9219
Q23.9688 65.9219 18.8125 64.3125
Q13.6719 62.7031 7.8125 59.4219
L7.8125 69.3906
Q13.7656 71.7812 18.9375 73
Q24.125 74.2188 28.4219 74.2188
Q39.75 74.2188 46.4844 68.5469
Q53.2188 62.8906 53.2188 53.4219
Q53.2188 48.9219 51.5312 44.8906
Q49.8594 40.875 45.4062 35.4062
Q44.1875 33.9844 37.6406 27.2188
Q31.1094 20.4531 19.1875 8.29688" id="BitstreamVeraSans-Roman-32"/>
      </defs>
      <g transform="translate(239.867755682 326.5984375)scale(0.1 -0.1)">
       <use xlink:href="#BitstreamVeraSans-Roman-32"/>
      </g>
     </g>
    </g>
    <g id="xtick_5">
     <g id="line2d_34">
      <g>
       <use style="stroke:#000000;stroke-width:0.5;" x="284.454545455" xlink:href="#mc7db9fdffb" y="315.0"/>
      </g>
     </g>
     <g id="line2d_35">
      <g>
       <use style="stroke:#000000;stroke-width:0.5;" x="284.454545455" xlink:href="#m5a7d422ac3" y="36.0"/>
      </g>
     </g>
     <g id="text_5">
      <!-- 3 -->
      <defs>
       <path d="
M40.5781 39.3125
Q47.6562 37.7969 51.625 33
Q55.6094 28.2188 55.6094 21.1875
Q55.6094 10.4062 48.1875 4.48438
Q40.7656 -1.42188 27.0938 -1.42188
Q22.5156 -1.42188 17.6562 -0.515625
Q12.7969 0.390625 7.625 2.20312
L7.625 11.7188
Q11.7188 9.32812 16.5938 8.10938
Q21.4844 6.89062 26.8125 6.89062
Q36.0781 6.89062 40.9375 10.5469
Q45.7969 14.2031 45.7969 21.1875
Q45.7969 27.6406 41.2812 31.2656
Q36.7656 34.9062 28.7188 34.9062
L20.2188 34.9062
L20.2188 43.0156
L29.1094 43.0156
Q36.375 43.0156 40.2344 45.9219
Q44.0938 48.8281 44.0938 54.2969
Q44.0938 59.9062 40.1094 62.9062
Q36.1406 65.9219 28.7188 65.9219
Q24.6562 65.9219 20.0156 65.0312
Q15.375 64.1562 9.8125 62.3125
L9.8125 71.0938
Q15.4375 72.6562 20.3438 73.4375
Q25.25 74.2188 29.5938 74.2188
Q40.8281 74.2188 47.3594 69.1094
Q53.9062 64.0156 53.9062 55.3281
Q53.9062 49.2656 50.4375 45.0938
Q46.9688 40.9219 40.5781 39.3125" id="BitstreamVeraSans-Roman-33"/>
      </defs>
      <g transform="translate(282.055326705 326.5984375)scale(0.1 -0.1)">
       <use xlink:href="#BitstreamVeraSans-Roman-33"/>
      </g>
     </g>
    </g>
    <g id="xtick_6">
     <g id="line2d_36">
      <g>
       <use style="stroke:#000000;stroke-width:0.5;" x="326.727272727" xlink:href="#mc7db9fdffb" y="315.0"/>
      </g>
     </g>
     <g id="line2d_37">
      <g>
       <use style="stroke:#000000;stroke-width:0.5;" x="326.727272727" xlink:href="#m5a7d422ac3" y="36.0"/>
      </g>
     </g>
     <g id="text_6">
      <!-- 4 -->
      <defs>
       <path d="
M37.7969 64.3125
L12.8906 25.3906
L37.7969 25.3906
z

M35.2031 72.9062
L47.6094 72.9062
L47.6094 25.3906
L58.0156 25.3906
L58.0156 17.1875
L47.6094 17.1875
L47.6094 0
L37.7969 0
L37.7969 17.1875
L4.89062 17.1875
L4.89062 26.7031
z
" id="BitstreamVeraSans-Roman-34"/>
      </defs>
      <g transform="translate(324.071022727 326.5984375)scale(0.1 -0.1)">
       <use xlink:href="#BitstreamVeraSans-Roman-34"/>
      </g>
     </g>
    </g>
    <g id="text_7">
     <!-- $m$ -->
     <defs>
      <path d="
M7.71875 1.70312
Q7.71875 2.29688 7.8125 2.59375
L15.2812 32.4219
Q16.0156 35.2031 16.0156 37.3125
Q16.0156 41.6094 13.0938 41.6094
Q9.96875 41.6094 8.45312 37.8594
Q6.9375 34.125 5.51562 28.4219
Q5.51562 28.125 5.21875 27.9531
Q4.9375 27.7812 4.6875 27.7812
L3.51562 27.7812
Q3.17188 27.7812 2.92188 28.1406
Q2.6875 28.5156 2.6875 28.8125
Q3.76562 33.1562 4.76562 36.1719
Q5.76562 39.2031 7.89062 41.6875
Q10.0156 44.1875 13.1875 44.1875
Q16.9375 44.1875 19.8125 41.8125
Q22.7031 39.4531 22.7031 35.7969
Q25.6875 39.7031 29.6875 41.9375
Q33.6875 44.1875 38.1875 44.1875
Q42.9219 44.1875 46.3594 41.7656
Q49.8125 39.3594 49.8125 34.9062
Q52.875 39.2656 57 41.7188
Q61.1406 44.1875 66.0156 44.1875
Q71.1875 44.1875 74.3281 41.375
Q77.4844 38.5781 77.4844 33.4062
Q77.4844 29.2969 75.6562 23.4844
Q73.8281 17.6719 71.0938 10.5
Q69.6719 7.03125 69.6719 4.5
Q69.6719 1.51562 72.0156 1.51562
Q75.9219 1.51562 78.5156 5.70312
Q81.1094 9.90625 82.1719 14.7031
Q82.4688 15.2812 83.0156 15.2812
L84.1875 15.2812
Q84.5781 15.2812 84.8438 15.0156
Q85.1094 14.75 85.1094 14.4062
Q85.1094 14.3125 85.0156 14.1094
Q83.6406 8.45312 80.25 3.65625
Q76.8594 -1.125 71.7812 -1.125
Q68.2656 -1.125 65.7656 1.29688
Q63.2812 3.71875 63.2812 7.17188
Q63.2812 8.9375 64.1094 11.0781
Q66.9375 18.6094 68.8125 24.5156
Q70.7031 30.4219 70.7031 34.9062
Q70.7031 37.7031 69.5781 39.6562
Q68.4531 41.6094 65.8281 41.6094
Q60.3594 41.6094 56.3438 38.25
Q52.3438 34.9062 49.4219 29.3906
Q49.2188 28.4219 49.125 27.875
L42.6719 2.20312
Q42.3281 0.828125 41.125 -0.140625
Q39.9375 -1.125 38.4844 -1.125
Q37.3125 -1.125 36.4062 -0.34375
Q35.5 0.4375 35.5 1.70312
Q35.5 2.29688 35.5938 2.59375
L42 28.0781
Q43.0156 32.1719 43.0156 34.9062
Q43.0156 37.7031 41.8594 39.6562
Q40.7188 41.6094 37.9844 41.6094
Q34.3281 41.6094 31.25 39.9844
Q28.1719 38.375 25.875 35.7188
Q23.5781 33.0625 21.6875 29.3906
L14.8906 2.20312
Q14.5469 0.828125 13.3438 -0.140625
Q12.1562 -1.125 10.6875 -1.125
Q9.46875 -1.125 8.59375 -0.34375
Q7.71875 0.4375 7.71875 1.70312" id="Cmmi10-6d"/>
     </defs>
     <g transform="translate(208.018181818 348.875)scale(0.2 -0.2)">
      <use transform="translate(0.0 0.8125)" xlink:href="#Cmmi10-6d"/>
     </g>
    </g>
   </g>
   <g id="matplotlib.axis_2">
    <g id="ytick_1">
     <g id="line2d_38">
      <defs>
       <path d="
M0 0
L4 0" id="md7965d1ba0" style="stroke:#000000;stroke-width:0.5;"/>
      </defs>
      <g>
       <use style="stroke:#000000;stroke-width:0.5;" x="90.0" xlink:href="#md7965d1ba0" y="310.35"/>
      </g>
     </g>
     <g id="line2d_39">
      <defs>
       <path d="
M0 0
L-4 0" id="md9a1c1a7cd" style="stroke:#000000;stroke-width:0.5;"/>
      </defs>
      <g>
       <use style="stroke:#000000;stroke-width:0.5;" x="343.636363636" xlink:href="#md9a1c1a7cd" y="310.35"/>
      </g>
     </g>
     <g id="text_8">
      <!-- −6 -->
      <defs>
       <path d="
M33.0156 40.375
Q26.375 40.375 22.4844 35.8281
Q18.6094 31.2969 18.6094 23.3906
Q18.6094 15.5312 22.4844 10.9531
Q26.375 6.39062 33.0156 6.39062
Q39.6562 6.39062 43.5312 10.9531
Q47.4062 15.5312 47.4062 23.3906
Q47.4062 31.2969 43.5312 35.8281
Q39.6562 40.375 33.0156 40.375
M52.5938 71.2969
L52.5938 62.3125
Q48.875 64.0625 45.0938 64.9844
Q41.3125 65.9219 37.5938 65.9219
Q27.8281 65.9219 22.6719 59.3281
Q17.5312 52.7344 16.7969 39.4062
Q19.6719 43.6562 24.0156 45.9219
Q28.375 48.1875 33.5938 48.1875
Q44.5781 48.1875 50.9531 41.5156
Q57.3281 34.8594 57.3281 23.3906
Q57.3281 12.1562 50.6875 5.35938
Q44.0469 -1.42188 33.0156 -1.42188
Q20.3594 -1.42188 13.6719 8.26562
Q6.98438 17.9688 6.98438 36.375
Q6.98438 53.6562 15.1875 63.9375
Q23.3906 74.2188 37.2031 74.2188
Q40.9219 74.2188 44.7031 73.4844
Q48.4844 72.75 52.5938 71.2969" id="BitstreamVeraSans-Roman-36"/>
      </defs>
      <g transform="translate(72.946875 313.109375)scale(0.1 -0.1)">
       <use xlink:href="#BitstreamVeraSans-Roman-2212"/>
       <use x="83.7890625" xlink:href="#BitstreamVeraSans-Roman-36"/>
      </g>
     </g>
    </g>
    <g id="ytick_2">
     <g id="line2d_40">
      <g>
       <use style="stroke:#000000;stroke-width:0.5;" x="90.0" xlink:href="#md7965d1ba0" y="263.85"/>
      </g>
     </g>
     <g id="line2d_41">
      <g>
       <use style="stroke:#000000;stroke-width:0.5;" x="343.636363636" xlink:href="#md9a1c1a7cd" y="263.85"/>
      </g>
     </g>
     <g id="text_9">
      <!-- −5 -->
      <defs>
       <path d="
M10.7969 72.9062
L49.5156 72.9062
L49.5156 64.5938
L19.8281 64.5938
L19.8281 46.7344
Q21.9688 47.4688 24.1094 47.8281
Q26.2656 48.1875 28.4219 48.1875
Q40.625 48.1875 47.75 41.5
Q54.8906 34.8125 54.8906 23.3906
Q54.8906 11.625 47.5625 5.09375
Q40.2344 -1.42188 26.9062 -1.42188
Q22.3125 -1.42188 17.5469 -0.640625
Q12.7969 0.140625 7.71875 1.70312
L7.71875 11.625
Q12.1094 9.23438 16.7969 8.0625
Q21.4844 6.89062 26.7031 6.89062
Q35.1562 6.89062 40.0781 11.3281
Q45.0156 15.7656 45.0156 23.3906
Q45.0156 31 40.0781 35.4375
Q35.1562 39.8906 26.7031 39.8906
Q22.75 39.8906 18.8125 39.0156
Q14.8906 38.1406 10.7969 36.2812
z
" id="BitstreamVeraSans-Roman-35"/>
      </defs>
      <g transform="translate(73.190625 266.609375)scale(0.1 -0.1)">
       <use xlink:href="#BitstreamVeraSans-Roman-2212"/>
       <use x="83.7890625" xlink:href="#BitstreamVeraSans-Roman-35"/>
      </g>
     </g>
    </g>
    <g id="ytick_3">
     <g id="line2d_42">
      <g>
       <use style="stroke:#000000;stroke-width:0.5;" x="90.0" xlink:href="#md7965d1ba0" y="217.35"/>
      </g>
     </g>
     <g id="line2d_43">
      <g>
       <use style="stroke:#000000;stroke-width:0.5;" x="343.636363636" xlink:href="#md9a1c1a7cd" y="217.35"/>
      </g>
     </g>
     <g id="text_10">
      <!-- −4 -->
      <g transform="translate(72.878125 220.109375)scale(0.1 -0.1)">
       <use xlink:href="#BitstreamVeraSans-Roman-2212"/>
       <use x="83.7890625" xlink:href="#BitstreamVeraSans-Roman-34"/>
      </g>
     </g>
    </g>
    <g id="ytick_4">
     <g id="line2d_44">
      <g>
       <use style="stroke:#000000;stroke-width:0.5;" x="90.0" xlink:href="#md7965d1ba0" y="170.85"/>
      </g>
     </g>
     <g id="line2d_45">
      <g>
       <use style="stroke:#000000;stroke-width:0.5;" x="343.636363636" xlink:href="#md9a1c1a7cd" y="170.85"/>
      </g>
     </g>
     <g id="text_11">
      <!-- −3 -->
      <g transform="translate(73.11875 173.609375)scale(0.1 -0.1)">
       <use xlink:href="#BitstreamVeraSans-Roman-2212"/>
       <use x="83.7890625" xlink:href="#BitstreamVeraSans-Roman-33"/>
      </g>
     </g>
    </g>
    <g id="ytick_5">
     <g id="line2d_46">
      <g>
       <use style="stroke:#000000;stroke-width:0.5;" x="90.0" xlink:href="#md7965d1ba0" y="124.35"/>
      </g>
     </g>
     <g id="line2d_47">
      <g>
       <use style="stroke:#000000;stroke-width:0.5;" x="343.636363636" xlink:href="#md9a1c1a7cd" y="124.35"/>
      </g>
     </g>
     <g id="text_12">
      <!-- −2 -->
      <g transform="translate(73.31875 127.109375)scale(0.1 -0.1)">
       <use xlink:href="#BitstreamVeraSans-Roman-2212"/>
       <use x="83.7890625" xlink:href="#BitstreamVeraSans-Roman-32"/>
      </g>
     </g>
    </g>
    <g id="ytick_6">
     <g id="line2d_48">
      <g>
       <use style="stroke:#000000;stroke-width:0.5;" x="90.0" xlink:href="#md7965d1ba0" y="77.85"/>
      </g>
     </g>
     <g id="line2d_49">
      <g>
       <use style="stroke:#000000;stroke-width:0.5;" x="343.636363636" xlink:href="#md9a1c1a7cd" y="77.85"/>
      </g>
     </g>
     <g id="text_13">
      <!-- −1 -->
      <g transform="translate(73.240625 80.609375)scale(0.1 -0.1)">
       <use xlink:href="#BitstreamVeraSans-Roman-2212"/>
       <use x="83.7890625" xlink:href="#BitstreamVeraSans-Roman-31"/>
      </g>
     </g>
    </g>
    <g id="text_14">
     <!-- $c$ -->
     <defs>
      <path d="
M11.7188 11.9219
Q11.7188 7.5625 13.9375 4.53125
Q16.1562 1.51562 20.3125 1.51562
Q26.2656 1.51562 31.75 4.25
Q37.25 6.98438 40.7188 11.8125
Q41.0156 12.1094 41.5 12.1094
Q42 12.1094 42.5 11.5469
Q43.0156 10.9844 43.0156 10.5
Q43.0156 10.1094 42.8281 9.90625
Q39.1562 4.78125 32.9531 1.82812
Q26.7656 -1.125 20.125 -1.125
Q15.3281 -1.125 11.6719 1.14062
Q8.01562 3.42188 6 7.21875
Q4 11.0312 4 15.8281
Q4 22.5625 7.76562 29.2031
Q11.5312 35.8438 17.7812 40.0156
Q24.0312 44.1875 30.9062 44.1875
Q35.4062 44.1875 38.9844 42.0156
Q42.5781 39.8438 42.5781 35.5938
Q42.5781 32.8594 40.9844 30.9219
Q39.4062 29 36.7188 29
Q35.1094 29 34 30
Q32.9062 31 32.9062 32.625
Q32.9062 34.9688 34.6094 36.625
Q36.3281 38.2812 38.625 38.2812
L38.8125 38.2812
Q37.6406 39.9844 35.4219 40.7969
Q33.2031 41.6094 30.8125 41.6094
Q24.9531 41.6094 20.5469 36.5938
Q16.1562 31.5938 13.9375 24.625
Q11.7188 17.6719 11.7188 11.9219" id="Cmmi10-63"/>
     </defs>
     <g transform="translate(63.71875 179.9)rotate(-90.0)scale(0.2 -0.2)">
      <use transform="translate(0.0 0.8125)" xlink:href="#Cmmi10-63"/>
     </g>
    </g>
   </g>
   <g id="text_15">
    <g clip-path="url(#p4bbcf401cb)">
     <!-- 1.000 -->
     <defs>
      <path d="
M10.6875 12.4062
L21 12.4062
L21 0
L10.6875 0
z
" id="BitstreamVeraSans-Roman-2e"/>
     </defs>
     <g style="fill:#000092;" transform="translate(221.723566822 196.747268532)rotate(-43.56475658302355)scale(0.15 -0.15)">
      <use xlink:href="#BitstreamVeraSans-Roman-31"/>
      <use x="63.623046875" xlink:href="#BitstreamVeraSans-Roman-2e"/>
      <use x="95.41015625" xlink:href="#BitstreamVeraSans-Roman-30"/>
      <use x="159.033203125" xlink:href="#BitstreamVeraSans-Roman-30"/>
      <use x="222.65625" xlink:href="#BitstreamVeraSans-Roman-30"/>
     </g>
    </g>
   </g>
   <g id="text_16">
    <g clip-path="url(#p4bbcf401cb)">
     <!-- 2.000 -->
     <g style="fill:#0000a4;" transform="translate(246.495869221 116.419774654)rotate(-316.78734668872187)scale(0.15 -0.15)">
      <use xlink:href="#BitstreamVeraSans-Roman-32"/>
      <use x="63.623046875" xlink:href="#BitstreamVeraSans-Roman-2e"/>
      <use x="95.41015625" xlink:href="#BitstreamVeraSans-Roman-30"/>
      <use x="159.033203125" xlink:href="#BitstreamVeraSans-Roman-30"/>
      <use x="222.65625" xlink:href="#BitstreamVeraSans-Roman-30"/>
     </g>
    </g>
   </g>
   <g id="text_17">
    <g clip-path="url(#p4bbcf401cb)">
     <!-- 4.000 -->
     <g style="fill:#0000c8;" transform="translate(150.927828608 216.339990957)rotate(-70.10076251712185)scale(0.15 -0.15)">
      <use xlink:href="#BitstreamVeraSans-Roman-34"/>
      <use x="63.623046875" xlink:href="#BitstreamVeraSans-Roman-2e"/>
      <use x="95.41015625" xlink:href="#BitstreamVeraSans-Roman-30"/>
      <use x="159.033203125" xlink:href="#BitstreamVeraSans-Roman-30"/>
      <use x="222.65625" xlink:href="#BitstreamVeraSans-Roman-30"/>
     </g>
    </g>
   </g>
   <g id="text_18">
    <g clip-path="url(#p4bbcf401cb)">
     <!-- 8.000 -->
     <defs>
      <path d="
M31.7812 34.625
Q24.75 34.625 20.7188 30.8594
Q16.7031 27.0938 16.7031 20.5156
Q16.7031 13.9219 20.7188 10.1562
Q24.75 6.39062 31.7812 6.39062
Q38.8125 6.39062 42.8594 10.1719
Q46.9219 13.9688 46.9219 20.5156
Q46.9219 27.0938 42.8906 30.8594
Q38.875 34.625 31.7812 34.625
M21.9219 38.8125
Q15.5781 40.375 12.0312 44.7188
Q8.5 49.0781 8.5 55.3281
Q8.5 64.0625 14.7188 69.1406
Q20.9531 74.2188 31.7812 74.2188
Q42.6719 74.2188 48.875 69.1406
Q55.0781 64.0625 55.0781 55.3281
Q55.0781 49.0781 51.5312 44.7188
Q48 40.375 41.7031 38.8125
Q48.8281 37.1562 52.7969 32.3125
Q56.7812 27.4844 56.7812 20.5156
Q56.7812 9.90625 50.3125 4.23438
Q43.8438 -1.42188 31.7812 -1.42188
Q19.7344 -1.42188 13.25 4.23438
Q6.78125 9.90625 6.78125 20.5156
Q6.78125 27.4844 10.7812 32.3125
Q14.7969 37.1562 21.9219 38.8125
M18.3125 54.3906
Q18.3125 48.7344 21.8438 45.5625
Q25.3906 42.3906 31.7812 42.3906
Q38.1406 42.3906 41.7188 45.5625
Q45.3125 48.7344 45.3125 54.3906
Q45.3125 60.0625 41.7188 63.2344
Q38.1406 66.4062 31.7812 66.4062
Q25.3906 66.4062 21.8438 63.2344
Q18.3125 60.0625 18.3125 54.3906" id="BitstreamVeraSans-Roman-38"/>
     </defs>
     <g style="fill:#0000ff;" transform="translate(168.013993552 151.588530132)rotate(-42.850823686858796)scale(0.15 -0.15)">
      <use xlink:href="#BitstreamVeraSans-Roman-38"/>
      <use x="63.623046875" xlink:href="#BitstreamVeraSans-Roman-2e"/>
      <use x="95.41015625" xlink:href="#BitstreamVeraSans-Roman-30"/>
      <use x="159.033203125" xlink:href="#BitstreamVeraSans-Roman-30"/>
      <use x="222.65625" xlink:href="#BitstreamVeraSans-Roman-30"/>
     </g>
    </g>
   </g>
   <g id="text_19">
    <g clip-path="url(#p4bbcf401cb)">
     <!-- 16.000 -->
     <g style="fill:#0080ff;" transform="translate(290.338623321 43.2567472177)rotate(-0.689288671385763)scale(0.15 -0.15)">
      <use xlink:href="#BitstreamVeraSans-Roman-31"/>
      <use x="63.623046875" xlink:href="#BitstreamVeraSans-Roman-36"/>
      <use x="127.24609375" xlink:href="#BitstreamVeraSans-Roman-2e"/>
      <use x="159.033203125" xlink:href="#BitstreamVeraSans-Roman-30"/>
      <use x="222.65625" xlink:href="#BitstreamVeraSans-Roman-30"/>
      <use x="286.279296875" xlink:href="#BitstreamVeraSans-Roman-30"/>
     </g>
    </g>
   </g>
   <g id="text_20">
    <g clip-path="url(#p4bbcf401cb)">
     <!-- 16.000 -->
     <g style="fill:#0080ff;" transform="translate(207.402991118 274.946798455)rotate(-33.880625653028176)scale(0.15 -0.15)">
      <use xlink:href="#BitstreamVeraSans-Roman-31"/>
      <use x="63.623046875" xlink:href="#BitstreamVeraSans-Roman-36"/>
      <use x="127.24609375" xlink:href="#BitstreamVeraSans-Roman-2e"/>
      <use x="159.033203125" xlink:href="#BitstreamVeraSans-Roman-30"/>
      <use x="222.65625" xlink:href="#BitstreamVeraSans-Roman-30"/>
      <use x="286.279296875" xlink:href="#BitstreamVeraSans-Roman-30"/>
     </g>
    </g>
   </g>
   <g id="text_21">
    <g clip-path="url(#p4bbcf401cb)">
     <!-- 32.000 -->
     <g style="fill:#7dff7a;" transform="translate(315.411266941 229.070170561)rotate(-46.70875257738737)scale(0.15 -0.15)">
      <use xlink:href="#BitstreamVeraSans-Roman-33"/>
      <use x="63.623046875" xlink:href="#BitstreamVeraSans-Roman-32"/>
      <use x="127.24609375" xlink:href="#BitstreamVeraSans-Roman-2e"/>
      <use x="159.033203125" xlink:href="#BitstreamVeraSans-Roman-30"/>
      <use x="222.65625" xlink:href="#BitstreamVeraSans-Roman-30"/>
      <use x="286.279296875" xlink:href="#BitstreamVeraSans-Roman-30"/>
     </g>
    </g>
   </g>
   <g id="text_22">
    <g clip-path="url(#p4bbcf401cb)">
     <!-- 32.000 -->
     <g style="fill:#7dff7a;" transform="translate(199.596387344 56.4013714378)rotate(-34.23253984803916)scale(0.15 -0.15)">
      <use xlink:href="#BitstreamVeraSans-Roman-33"/>
      <use x="63.623046875" xlink:href="#BitstreamVeraSans-Roman-32"/>
      <use x="127.24609375" xlink:href="#BitstreamVeraSans-Roman-2e"/>
      <use x="159.033203125" xlink:href="#BitstreamVeraSans-Roman-30"/>
      <use x="222.65625" xlink:href="#BitstreamVeraSans-Roman-30"/>
      <use x="286.279296875" xlink:href="#BitstreamVeraSans-Roman-30"/>
     </g>
    </g>
   </g>
   <g id="text_23">
    <g clip-path="url(#p4bbcf401cb)">
     <!-- 64.000 -->
     <g style="fill:#800000;" transform="translate(293.963172544 306.269372793)rotate(-40.85924307952403)scale(0.15 -0.15)">
      <use xlink:href="#BitstreamVeraSans-Roman-36"/>
      <use x="63.623046875" xlink:href="#BitstreamVeraSans-Roman-34"/>
      <use x="127.24609375" xlink:href="#BitstreamVeraSans-Roman-2e"/>
      <use x="159.033203125" xlink:href="#BitstreamVeraSans-Roman-30"/>
      <use x="222.65625" xlink:href="#BitstreamVeraSans-Roman-30"/>
      <use x="286.279296875" xlink:href="#BitstreamVeraSans-Roman-30"/>
     </g>
    </g>
   </g>
   <g id="text_24">
    <!-- Iteration 600 -->
    <defs>
     <path d="
M9.8125 72.9062
L19.6719 72.9062
L19.6719 0
L9.8125 0
z
" id="BitstreamVeraSans-Roman-49"/>
     <path d="
M34.2812 27.4844
Q23.3906 27.4844 19.1875 25
Q14.9844 22.5156 14.9844 16.5
Q14.9844 11.7188 18.1406 8.90625
Q21.2969 6.10938 26.7031 6.10938
Q34.1875 6.10938 38.7031 11.4062
Q43.2188 16.7031 43.2188 25.4844
L43.2188 27.4844
z

M52.2031 31.2031
L52.2031 0
L43.2188 0
L43.2188 8.29688
Q40.1406 3.32812 35.5469 0.953125
Q30.9531 -1.42188 24.3125 -1.42188
Q15.9219 -1.42188 10.9531 3.29688
Q6 8.01562 6 15.9219
Q6 25.1406 12.1719 29.8281
Q18.3594 34.5156 30.6094 34.5156
L43.2188 34.5156
L43.2188 35.4062
Q43.2188 41.6094 39.1406 45
Q35.0625 48.3906 27.6875 48.3906
Q23 48.3906 18.5469 47.2656
Q14.1094 46.1406 10.0156 43.8906
L10.0156 52.2031
Q14.9375 54.1094 19.5781 55.0469
Q24.2188 56 28.6094 56
Q40.4844 56 46.3438 49.8438
Q52.2031 43.7031 52.2031 31.2031" id="BitstreamVeraSans-Roman-61"/>
     <path d="
M56.2031 29.5938
L56.2031 25.2031
L14.8906 25.2031
Q15.4844 15.9219 20.4844 11.0625
Q25.4844 6.20312 34.4219 6.20312
Q39.5938 6.20312 44.4531 7.46875
Q49.3125 8.73438 54.1094 11.2812
L54.1094 2.78125
Q49.2656 0.734375 44.1875 -0.34375
Q39.1094 -1.42188 33.8906 -1.42188
Q20.7969 -1.42188 13.1562 6.1875
Q5.51562 13.8125 5.51562 26.8125
Q5.51562 40.2344 12.7656 48.1094
Q20.0156 56 32.3281 56
Q43.3594 56 49.7812 48.8906
Q56.2031 41.7969 56.2031 29.5938
M47.2188 32.2344
Q47.125 39.5938 43.0938 43.9844
Q39.0625 48.3906 32.4219 48.3906
Q24.9062 48.3906 20.3906 44.1406
Q15.875 39.8906 15.1875 32.1719
z
" id="BitstreamVeraSans-Roman-65"/>
     <path d="
M30.6094 48.3906
Q23.3906 48.3906 19.1875 42.75
Q14.9844 37.1094 14.9844 27.2969
Q14.9844 17.4844 19.1562 11.8438
Q23.3438 6.20312 30.6094 6.20312
Q37.7969 6.20312 41.9844 11.8594
Q46.1875 17.5312 46.1875 27.2969
Q46.1875 37.0156 41.9844 42.7031
Q37.7969 48.3906 30.6094 48.3906
M30.6094 56
Q42.3281 56 49.0156 48.375
Q55.7188 40.7656 55.7188 27.2969
Q55.7188 13.875 49.0156 6.21875
Q42.3281 -1.42188 30.6094 -1.42188
Q18.8438 -1.42188 12.1719 6.21875
Q5.51562 13.875 5.51562 27.2969
Q5.51562 40.7656 12.1719 48.375
Q18.8438 56 30.6094 56" id="BitstreamVeraSans-Roman-6f"/>
     <path d="
M18.3125 70.2188
L18.3125 54.6875
L36.8125 54.6875
L36.8125 47.7031
L18.3125 47.7031
L18.3125 18.0156
Q18.3125 11.3281 20.1406 9.42188
Q21.9688 7.51562 27.5938 7.51562
L36.8125 7.51562
L36.8125 0
L27.5938 0
Q17.1875 0 13.2344 3.875
Q9.28125 7.76562 9.28125 18.0156
L9.28125 47.7031
L2.6875 47.7031
L2.6875 54.6875
L9.28125 54.6875
L9.28125 70.2188
z
" id="BitstreamVeraSans-Roman-74"/>
     <path id="BitstreamVeraSans-Roman-20"/>
     <path d="
M9.42188 54.6875
L18.4062 54.6875
L18.4062 0
L9.42188 0
z

M9.42188 75.9844
L18.4062 75.9844
L18.4062 64.5938
L9.42188 64.5938
z
" id="BitstreamVeraSans-Roman-69"/>
     <path d="
M41.1094 46.2969
Q39.5938 47.1719 37.8125 47.5781
Q36.0312 48 33.8906 48
Q26.2656 48 22.1875 43.0469
Q18.1094 38.0938 18.1094 28.8125
L18.1094 0
L9.07812 0
L9.07812 54.6875
L18.1094 54.6875
L18.1094 46.1875
Q20.9531 51.1719 25.4844 53.5781
Q30.0312 56 36.5312 56
Q37.4531 56 38.5781 55.875
Q39.7031 55.7656 41.0625 55.5156
z
" id="BitstreamVeraSans-Roman-72"/>
     <path d="
M54.8906 33.0156
L54.8906 0
L45.9062 0
L45.9062 32.7188
Q45.9062 40.4844 42.875 44.3281
Q39.8438 48.1875 33.7969 48.1875
Q26.5156 48.1875 22.3125 43.5469
Q18.1094 38.9219 18.1094 30.9062
L18.1094 0
L9.07812 0
L9.07812 54.6875
L18.1094 54.6875
L18.1094 46.1875
Q21.3438 51.125 25.7031 53.5625
Q30.0781 56 35.7969 56
Q45.2188 56 50.0469 50.1719
Q54.8906 44.3438 54.8906 33.0156" id="BitstreamVeraSans-Roman-6e"/>
    </defs>
    <g transform="translate(152.799431818 31.0)scale(0.2 -0.2)">
     <use xlink:href="#BitstreamVeraSans-Roman-49"/>
     <use x="29.4921875" xlink:href="#BitstreamVeraSans-Roman-74"/>
     <use x="68.701171875" xlink:href="#BitstreamVeraSans-Roman-65"/>
     <use x="130.224609375" xlink:href="#BitstreamVeraSans-Roman-72"/>
     <use x="171.337890625" xlink:href="#BitstreamVeraSans-Roman-61"/>
     <use x="232.6171875" xlink:href="#BitstreamVeraSans-Roman-74"/>
     <use x="271.826171875" xlink:href="#BitstreamVeraSans-Roman-69"/>
     <use x="299.609375" xlink:href="#BitstreamVeraSans-Roman-6f"/>
     <use x="360.791015625" xlink:href="#BitstreamVeraSans-Roman-6e"/>
     <use x="424.169921875" xlink:href="#BitstreamVeraSans-Roman-20"/>
     <use x="455.95703125" xlink:href="#BitstreamVeraSans-Roman-36"/>
     <use x="519.580078125" xlink:href="#BitstreamVeraSans-Roman-30"/>
     <use x="583.203125" xlink:href="#BitstreamVeraSans-Roman-30"/>
    </g>
   </g>
  </g>
  <g id="axes_2">
   <g id="patch_7">
    <path d="
M394.364 315
L648 315
L648 36
L394.364 36
z
" style="fill:#ffffff;"/>
   </g>
   <g id="line2d_50">
    <defs>
     <path d="
M0 2.5
C0.663008 2.5 1.29895 2.23658 1.76777 1.76777
C2.23658 1.29895 2.5 0.663008 2.5 0
C2.5 -0.663008 2.23658 -1.29895 1.76777 -1.76777
C1.29895 -2.23658 0.663008 -2.5 0 -2.5
C-0.663008 -2.5 -1.29895 -2.23658 -1.76777 -1.76777
C-2.23658 -1.29895 -2.5 -0.663008 -2.5 0
C-2.5 0.663008 -2.23658 1.29895 -1.76777 1.76777
C-1.29895 2.23658 -0.663008 2.5 0 2.5
z
" id="mc4338e9fff" style="stroke:#ff0000;stroke-width:0.5;"/>
    </defs>
    <g clip-path="url(#p447f0539f8)">
     <use style="fill:#ff0000;stroke:#ff0000;stroke-width:0.5;" x="499.660523206" xlink:href="#mc4338e9fff" y="140.265973832"/>
     <use style="fill:#ff0000;stroke:#ff0000;stroke-width:0.5;" x="582.905586896" xlink:href="#mc4338e9fff" y="126.57713654"/>
     <use style="fill:#ff0000;stroke:#ff0000;stroke-width:0.5;" x="422.376760287" xlink:href="#mc4338e9fff" y="178.802651946"/>
     <use style="fill:#ff0000;stroke:#ff0000;stroke-width:0.5;" x="643.408913194" xlink:href="#mc4338e9fff" y="92.1155914099"/>
    </g>
   </g>
   <g id="line2d_51">
    <path clip-path="url(#p447f0539f8)" d="
M394.364 186.334
L648 94.1137" style="fill:none;stroke:#0000ff;stroke-linecap:square;stroke-width:3;"/>
   </g>
   <g id="patch_8">
    <path d="
M394.364 315
L648 315" style="fill:none;stroke:#000000;stroke-linecap:square;stroke-linejoin:miter;"/>
   </g>
   <g id="patch_9">
    <path d="
M648 315
L648 36" style="fill:none;stroke:#000000;stroke-linecap:square;stroke-linejoin:miter;"/>
   </g>
   <g id="patch_10">
    <path d="
M394.364 315
L394.364 36" style="fill:none;stroke:#000000;stroke-linecap:square;stroke-linejoin:miter;"/>
   </g>
   <g id="patch_11">
    <path d="
M394.364 36
L648 36" style="fill:none;stroke:#000000;stroke-linecap:square;stroke-linejoin:miter;"/>
   </g>
   <g id="matplotlib.axis_3">
    <g id="xtick_7">
     <g id="line2d_52">
      <g>
       <use style="stroke:#000000;stroke-width:0.5;" x="394.363636364" xlink:href="#mc7db9fdffb" y="315.0"/>
      </g>
     </g>
     <g id="line2d_53">
      <g>
       <use style="stroke:#000000;stroke-width:0.5;" x="394.363636364" xlink:href="#m5a7d422ac3" y="36.0"/>
      </g>
     </g>
     <g id="text_25">
      <!-- −1.6 -->
      <g transform="translate(383.066761364 326.5984375)scale(0.1 -0.1)">
       <use xlink:href="#BitstreamVeraSans-Roman-2212"/>
       <use x="83.7890625" xlink:href="#BitstreamVeraSans-Roman-31"/>
       <use x="147.412109375" xlink:href="#BitstreamVeraSans-Roman-2e"/>
       <use x="179.19921875" xlink:href="#BitstreamVeraSans-Roman-36"/>
      </g>
     </g>
    </g>
    <g id="xtick_8">
     <g id="line2d_54">
      <g>
       <use style="stroke:#000000;stroke-width:0.5;" x="422.545454545" xlink:href="#mc7db9fdffb" y="315.0"/>
      </g>
     </g>
     <g id="line2d_55">
      <g>
       <use style="stroke:#000000;stroke-width:0.5;" x="422.545454545" xlink:href="#m5a7d422ac3" y="36.0"/>
      </g>
     </g>
     <g id="text_26">
      <!-- −1.4 -->
      <g transform="translate(411.214204545 326.5984375)scale(0.1 -0.1)">
       <use xlink:href="#BitstreamVeraSans-Roman-2212"/>
       <use x="83.7890625" xlink:href="#BitstreamVeraSans-Roman-31"/>
       <use x="147.412109375" xlink:href="#BitstreamVeraSans-Roman-2e"/>
       <use x="179.19921875" xlink:href="#BitstreamVeraSans-Roman-34"/>
      </g>
     </g>
    </g>
    <g id="xtick_9">
     <g id="line2d_56">
      <g>
       <use style="stroke:#000000;stroke-width:0.5;" x="450.727272727" xlink:href="#mc7db9fdffb" y="315.0"/>
      </g>
     </g>
     <g id="line2d_57">
      <g>
       <use style="stroke:#000000;stroke-width:0.5;" x="450.727272727" xlink:href="#m5a7d422ac3" y="36.0"/>
      </g>
     </g>
     <g id="text_27">
      <!-- −1.2 -->
      <g transform="translate(439.616335227 326.5984375)scale(0.1 -0.1)">
       <use xlink:href="#BitstreamVeraSans-Roman-2212"/>
       <use x="83.7890625" xlink:href="#BitstreamVeraSans-Roman-31"/>
       <use x="147.412109375" xlink:href="#BitstreamVeraSans-Roman-2e"/>
       <use x="179.19921875" xlink:href="#BitstreamVeraSans-Roman-32"/>
      </g>
     </g>
    </g>
    <g id="xtick_10">
     <g id="line2d_58">
      <g>
       <use style="stroke:#000000;stroke-width:0.5;" x="478.909090909" xlink:href="#mc7db9fdffb" y="315.0"/>
      </g>
     </g>
     <g id="line2d_59">
      <g>
       <use style="stroke:#000000;stroke-width:0.5;" x="478.909090909" xlink:href="#m5a7d422ac3" y="36.0"/>
      </g>
     </g>
     <g id="text_28">
      <!-- −1.0 -->
      <g transform="translate(467.629403409 326.5984375)scale(0.1 -0.1)">
       <use xlink:href="#BitstreamVeraSans-Roman-2212"/>
       <use x="83.7890625" xlink:href="#BitstreamVeraSans-Roman-31"/>
       <use x="147.412109375" xlink:href="#BitstreamVeraSans-Roman-2e"/>
       <use x="179.19921875" xlink:href="#BitstreamVeraSans-Roman-30"/>
      </g>
     </g>
    </g>
    <g id="xtick_11">
     <g id="line2d_60">
      <g>
       <use style="stroke:#000000;stroke-width:0.5;" x="507.090909091" xlink:href="#mc7db9fdffb" y="315.0"/>
      </g>
     </g>
     <g id="line2d_61">
      <g>
       <use style="stroke:#000000;stroke-width:0.5;" x="507.090909091" xlink:href="#m5a7d422ac3" y="36.0"/>
      </g>
     </g>
     <g id="text_29">
      <!-- −0.8 -->
      <g transform="translate(495.821377841 326.5984375)scale(0.1 -0.1)">
       <use xlink:href="#BitstreamVeraSans-Roman-2212"/>
       <use x="83.7890625" xlink:href="#BitstreamVeraSans-Roman-30"/>
       <use x="147.412109375" xlink:href="#BitstreamVeraSans-Roman-2e"/>
       <use x="179.19921875" xlink:href="#BitstreamVeraSans-Roman-38"/>
      </g>
     </g>
    </g>
    <g id="xtick_12">
     <g id="line2d_62">
      <g>
       <use style="stroke:#000000;stroke-width:0.5;" x="535.272727273" xlink:href="#mc7db9fdffb" y="315.0"/>
      </g>
     </g>
     <g id="line2d_63">
      <g>
       <use style="stroke:#000000;stroke-width:0.5;" x="535.272727273" xlink:href="#m5a7d422ac3" y="36.0"/>
      </g>
     </g>
     <g id="text_30">
      <!-- −0.6 -->
      <g transform="translate(523.975852273 326.5984375)scale(0.1 -0.1)">
       <use xlink:href="#BitstreamVeraSans-Roman-2212"/>
       <use x="83.7890625" xlink:href="#BitstreamVeraSans-Roman-30"/>
       <use x="147.412109375" xlink:href="#BitstreamVeraSans-Roman-2e"/>
       <use x="179.19921875" xlink:href="#BitstreamVeraSans-Roman-36"/>
      </g>
     </g>
    </g>
    <g id="xtick_13">
     <g id="line2d_64">
      <g>
       <use style="stroke:#000000;stroke-width:0.5;" x="563.454545455" xlink:href="#mc7db9fdffb" y="315.0"/>
      </g>
     </g>
     <g id="line2d_65">
      <g>
       <use style="stroke:#000000;stroke-width:0.5;" x="563.454545455" xlink:href="#m5a7d422ac3" y="36.0"/>
      </g>
     </g>
     <g id="text_31">
      <!-- −0.4 -->
      <g transform="translate(552.123295455 326.5984375)scale(0.1 -0.1)">
       <use xlink:href="#BitstreamVeraSans-Roman-2212"/>
       <use x="83.7890625" xlink:href="#BitstreamVeraSans-Roman-30"/>
       <use x="147.412109375" xlink:href="#BitstreamVeraSans-Roman-2e"/>
       <use x="179.19921875" xlink:href="#BitstreamVeraSans-Roman-34"/>
      </g>
     </g>
    </g>
    <g id="xtick_14">
     <g id="line2d_66">
      <g>
       <use style="stroke:#000000;stroke-width:0.5;" x="591.636363636" xlink:href="#mc7db9fdffb" y="315.0"/>
      </g>
     </g>
     <g id="line2d_67">
      <g>
       <use style="stroke:#000000;stroke-width:0.5;" x="591.636363636" xlink:href="#m5a7d422ac3" y="36.0"/>
      </g>
     </g>
     <g id="text_32">
      <!-- −0.2 -->
      <g transform="translate(580.525426136 326.5984375)scale(0.1 -0.1)">
       <use xlink:href="#BitstreamVeraSans-Roman-2212"/>
       <use x="83.7890625" xlink:href="#BitstreamVeraSans-Roman-30"/>
       <use x="147.412109375" xlink:href="#BitstreamVeraSans-Roman-2e"/>
       <use x="179.19921875" xlink:href="#BitstreamVeraSans-Roman-32"/>
      </g>
     </g>
    </g>
    <g id="xtick_15">
     <g id="line2d_68">
      <g>
       <use style="stroke:#000000;stroke-width:0.5;" x="619.818181818" xlink:href="#mc7db9fdffb" y="315.0"/>
      </g>
     </g>
     <g id="line2d_69">
      <g>
       <use style="stroke:#000000;stroke-width:0.5;" x="619.818181818" xlink:href="#m5a7d422ac3" y="36.0"/>
      </g>
     </g>
     <g id="text_33">
      <!-- 0.0 -->
      <g transform="translate(612.528338068 326.5984375)scale(0.1 -0.1)">
       <use xlink:href="#BitstreamVeraSans-Roman-30"/>
       <use x="63.623046875" xlink:href="#BitstreamVeraSans-Roman-2e"/>
       <use x="95.41015625" xlink:href="#BitstreamVeraSans-Roman-30"/>
      </g>
     </g>
    </g>
    <g id="xtick_16">
     <g id="line2d_70">
      <g>
       <use style="stroke:#000000;stroke-width:0.5;" x="648.0" xlink:href="#mc7db9fdffb" y="315.0"/>
      </g>
     </g>
     <g id="line2d_71">
      <g>
       <use style="stroke:#000000;stroke-width:0.5;" x="648.0" xlink:href="#m5a7d422ac3" y="36.0"/>
      </g>
     </g>
     <g id="text_34">
      <!-- 0.2 -->
      <g transform="translate(640.87890625 326.5984375)scale(0.1 -0.1)">
       <use xlink:href="#BitstreamVeraSans-Roman-30"/>
       <use x="63.623046875" xlink:href="#BitstreamVeraSans-Roman-2e"/>
       <use x="95.41015625" xlink:href="#BitstreamVeraSans-Roman-32"/>
      </g>
     </g>
    </g>
    <g id="text_35">
     <!-- $x$ -->
     <defs>
      <path d="
M7.8125 2.875
Q9.57812 1.51562 12.7969 1.51562
Q15.9219 1.51562 18.3125 4.51562
Q20.7031 7.51562 21.5781 11.0781
L26.125 28.8125
Q27.2031 33.6406 27.2031 35.4062
Q27.2031 37.8906 25.8125 39.75
Q24.4219 41.6094 21.9219 41.6094
Q18.75 41.6094 15.9688 39.625
Q13.1875 37.6406 11.2812 34.5938
Q9.375 31.5469 8.59375 28.4219
Q8.40625 27.7812 7.8125 27.7812
L6.59375 27.7812
Q5.8125 27.7812 5.8125 28.7188
L5.8125 29
Q6.78125 32.7188 9.125 36.25
Q11.4688 39.7969 14.8594 41.9844
Q18.2656 44.1875 22.125 44.1875
Q25.7812 44.1875 28.7344 42.2344
Q31.6875 40.2812 32.9062 36.9219
Q34.625 39.9844 37.2812 42.0781
Q39.9375 44.1875 43.1094 44.1875
Q45.2656 44.1875 47.5 43.4219
Q49.75 42.6719 51.1719 41.1094
Q52.5938 39.5469 52.5938 37.2031
Q52.5938 34.6719 50.9531 32.8281
Q49.3125 31 46.7812 31
Q45.1719 31 44.0938 32.0312
Q43.0156 33.0625 43.0156 34.625
Q43.0156 36.7188 44.4531 38.2969
Q45.9062 39.8906 47.9062 40.1875
Q46.0938 41.6094 42.9219 41.6094
Q39.7031 41.6094 37.3281 38.625
Q34.9688 35.6406 33.9844 31.9844
L29.5938 14.3125
Q28.5156 10.2969 28.5156 7.71875
Q28.5156 5.17188 29.9531 3.34375
Q31.3906 1.51562 33.7969 1.51562
Q38.4844 1.51562 42.1562 5.64062
Q45.8438 9.76562 47.0156 14.7031
Q47.2188 15.2812 47.7969 15.2812
L49.0312 15.2812
Q49.4219 15.2812 49.6562 15.0156
Q49.9062 14.75 49.9062 14.4062
Q49.9062 14.3125 49.8125 14.1094
Q48.3906 8.15625 43.8438 3.51562
Q39.3125 -1.125 33.5938 -1.125
Q29.9375 -1.125 26.9844 0.84375
Q24.0312 2.82812 22.7969 6.20312
Q21.2344 3.26562 18.4688 1.0625
Q15.7188 -1.125 12.5938 -1.125
Q10.4531 -1.125 8.17188 -0.359375
Q5.90625 0.390625 4.48438 1.95312
Q3.07812 3.51562 3.07812 5.90625
Q3.07812 8.25 4.70312 10.1719
Q6.34375 12.1094 8.79688 12.1094
Q10.4531 12.1094 11.5781 11.1094
Q12.7031 10.1094 12.7031 8.5
Q12.7031 6.39062 11.2969 4.82812
Q9.90625 3.26562 7.8125 2.875" id="Cmmi10-78"/>
     </defs>
     <g transform="translate(515.381818182 348.875)scale(0.2 -0.2)">
      <use transform="translate(0.0 0.8125)" xlink:href="#Cmmi10-78"/>
     </g>
    </g>
   </g>
   <g id="matplotlib.axis_4">
    <g id="ytick_7">
     <g id="line2d_72">
      <g>
       <use style="stroke:#000000;stroke-width:0.5;" x="394.363636364" xlink:href="#md7965d1ba0" y="315.0"/>
      </g>
     </g>
     <g id="line2d_73">
      <g>
       <use style="stroke:#000000;stroke-width:0.5;" x="648.0" xlink:href="#md9a1c1a7cd" y="315.0"/>
      </g>
     </g>
     <g id="text_36">
      <!-- −9 -->
      <defs>
       <path d="
M10.9844 1.51562
L10.9844 10.5
Q14.7031 8.73438 18.5 7.8125
Q22.3125 6.89062 25.9844 6.89062
Q35.75 6.89062 40.8906 13.4531
Q46.0469 20.0156 46.7812 33.4062
Q43.9531 29.2031 39.5938 26.9531
Q35.25 24.7031 29.9844 24.7031
Q19.0469 24.7031 12.6719 31.3125
Q6.29688 37.9375 6.29688 49.4219
Q6.29688 60.6406 12.9375 67.4219
Q19.5781 74.2188 30.6094 74.2188
Q43.2656 74.2188 49.9219 64.5156
Q56.5938 54.8281 56.5938 36.375
Q56.5938 19.1406 48.4062 8.85938
Q40.2344 -1.42188 26.4219 -1.42188
Q22.7031 -1.42188 18.8906 -0.6875
Q15.0938 0.046875 10.9844 1.51562
M30.6094 32.4219
Q37.25 32.4219 41.125 36.9531
Q45.0156 41.5 45.0156 49.4219
Q45.0156 57.2812 41.125 61.8438
Q37.25 66.4062 30.6094 66.4062
Q23.9688 66.4062 20.0938 61.8438
Q16.2188 57.2812 16.2188 49.4219
Q16.2188 41.5 20.0938 36.9531
Q23.9688 32.4219 30.6094 32.4219" id="BitstreamVeraSans-Roman-39"/>
      </defs>
      <g transform="translate(377.383948864 317.759375)scale(0.1 -0.1)">
       <use xlink:href="#BitstreamVeraSans-Roman-2212"/>
       <use x="83.7890625" xlink:href="#BitstreamVeraSans-Roman-39"/>
      </g>
     </g>
    </g>
    <g id="ytick_8">
     <g id="line2d_74">
      <g>
       <use style="stroke:#000000;stroke-width:0.5;" x="394.363636364" xlink:href="#md7965d1ba0" y="280.125"/>
      </g>
     </g>
     <g id="line2d_75">
      <g>
       <use style="stroke:#000000;stroke-width:0.5;" x="648.0" xlink:href="#md9a1c1a7cd" y="280.125"/>
      </g>
     </g>
     <g id="text_37">
      <!-- −8 -->
      <g transform="translate(377.365198864 282.884375)scale(0.1 -0.1)">
       <use xlink:href="#BitstreamVeraSans-Roman-2212"/>
       <use x="83.7890625" xlink:href="#BitstreamVeraSans-Roman-38"/>
      </g>
     </g>
    </g>
    <g id="ytick_9">
     <g id="line2d_76">
      <g>
       <use style="stroke:#000000;stroke-width:0.5;" x="394.363636364" xlink:href="#md7965d1ba0" y="245.25"/>
      </g>
     </g>
     <g id="line2d_77">
      <g>
       <use style="stroke:#000000;stroke-width:0.5;" x="648.0" xlink:href="#md9a1c1a7cd" y="245.25"/>
      </g>
     </g>
     <g id="text_38">
      <!-- −7 -->
      <defs>
       <path d="
M8.20312 72.9062
L55.0781 72.9062
L55.0781 68.7031
L28.6094 0
L18.3125 0
L43.2188 64.5938
L8.20312 64.5938
z
" id="BitstreamVeraSans-Roman-37"/>
      </defs>
      <g transform="translate(377.535511364 248.009375)scale(0.1 -0.1)">
       <use xlink:href="#BitstreamVeraSans-Roman-2212"/>
       <use x="83.7890625" xlink:href="#BitstreamVeraSans-Roman-37"/>
      </g>
     </g>
    </g>
    <g id="ytick_10">
     <g id="line2d_78">
      <g>
       <use style="stroke:#000000;stroke-width:0.5;" x="394.363636364" xlink:href="#md7965d1ba0" y="210.375"/>
      </g>
     </g>
     <g id="line2d_79">
      <g>
       <use style="stroke:#000000;stroke-width:0.5;" x="648.0" xlink:href="#md9a1c1a7cd" y="210.375"/>
      </g>
     </g>
     <g id="text_39">
      <!-- −6 -->
      <g transform="translate(377.310511364 213.134375)scale(0.1 -0.1)">
       <use xlink:href="#BitstreamVeraSans-Roman-2212"/>
       <use x="83.7890625" xlink:href="#BitstreamVeraSans-Roman-36"/>
      </g>
     </g>
    </g>
    <g id="ytick_11">
     <g id="line2d_80">
      <g>
       <use style="stroke:#000000;stroke-width:0.5;" x="394.363636364" xlink:href="#md7965d1ba0" y="175.5"/>
      </g>
     </g>
     <g id="line2d_81">
      <g>
       <use style="stroke:#000000;stroke-width:0.5;" x="648.0" xlink:href="#md9a1c1a7cd" y="175.5"/>
      </g>
     </g>
     <g id="text_40">
      <!-- −5 -->
      <g transform="translate(377.554261364 178.259375)scale(0.1 -0.1)">
       <use xlink:href="#BitstreamVeraSans-Roman-2212"/>
       <use x="83.7890625" xlink:href="#BitstreamVeraSans-Roman-35"/>
      </g>
     </g>
    </g>
    <g id="ytick_12">
     <g id="line2d_82">
      <g>
       <use style="stroke:#000000;stroke-width:0.5;" x="394.363636364" xlink:href="#md7965d1ba0" y="140.625"/>
      </g>
     </g>
     <g id="line2d_83">
      <g>
       <use style="stroke:#000000;stroke-width:0.5;" x="648.0" xlink:href="#md9a1c1a7cd" y="140.625"/>
      </g>
     </g>
     <g id="text_41">
      <!-- −4 -->
      <g transform="translate(377.241761364 143.384375)scale(0.1 -0.1)">
       <use xlink:href="#BitstreamVeraSans-Roman-2212"/>
       <use x="83.7890625" xlink:href="#BitstreamVeraSans-Roman-34"/>
      </g>
     </g>
    </g>
    <g id="ytick_13">
     <g id="line2d_84">
      <g>
       <use style="stroke:#000000;stroke-width:0.5;" x="394.363636364" xlink:href="#md7965d1ba0" y="105.75"/>
      </g>
     </g>
     <g id="line2d_85">
      <g>
       <use style="stroke:#000000;stroke-width:0.5;" x="648.0" xlink:href="#md9a1c1a7cd" y="105.75"/>
      </g>
     </g>
     <g id="text_42">
      <!-- −3 -->
      <g transform="translate(377.482386364 108.509375)scale(0.1 -0.1)">
       <use xlink:href="#BitstreamVeraSans-Roman-2212"/>
       <use x="83.7890625" xlink:href="#BitstreamVeraSans-Roman-33"/>
      </g>
     </g>
    </g>
    <g id="ytick_14">
     <g id="line2d_86">
      <g>
       <use style="stroke:#000000;stroke-width:0.5;" x="394.363636364" xlink:href="#md7965d1ba0" y="70.875"/>
      </g>
     </g>
     <g id="line2d_87">
      <g>
       <use style="stroke:#000000;stroke-width:0.5;" x="648.0" xlink:href="#md9a1c1a7cd" y="70.875"/>
      </g>
     </g>
     <g id="text_43">
      <!-- −2 -->
      <g transform="translate(377.682386364 73.634375)scale(0.1 -0.1)">
       <use xlink:href="#BitstreamVeraSans-Roman-2212"/>
       <use x="83.7890625" xlink:href="#BitstreamVeraSans-Roman-32"/>
      </g>
     </g>
    </g>
    <g id="ytick_15">
     <g id="line2d_88">
      <g>
       <use style="stroke:#000000;stroke-width:0.5;" x="394.363636364" xlink:href="#md7965d1ba0" y="36.0"/>
      </g>
     </g>
     <g id="line2d_89">
      <g>
       <use style="stroke:#000000;stroke-width:0.5;" x="648.0" xlink:href="#md9a1c1a7cd" y="36.0"/>
      </g>
     </g>
     <g id="text_44">
      <!-- −1 -->
      <g transform="translate(377.604261364 38.759375)scale(0.1 -0.1)">
       <use xlink:href="#BitstreamVeraSans-Roman-2212"/>
       <use x="83.7890625" xlink:href="#BitstreamVeraSans-Roman-31"/>
      </g>
     </g>
    </g>
    <g id="text_45">
     <!-- $y$ -->
     <defs>
      <path d="
M8.40625 -14.3125
Q10.5 -17.9219 15.7188 -17.9219
Q20.4531 -17.9219 23.9219 -14.5938
Q27.3906 -11.2812 29.5156 -6.5625
Q31.6406 -1.85938 32.8125 3.07812
Q28.375 -1.125 23.1875 -1.125
Q19.2344 -1.125 16.4531 0.234375
Q13.6719 1.60938 12.125 4.3125
Q10.5938 7.03125 10.5938 10.8906
Q10.5938 14.1562 11.4688 17.5938
Q12.3594 21.0469 13.9375 25.2656
Q15.5312 29.5 16.7031 32.625
Q18.0156 36.2812 18.0156 38.625
Q18.0156 41.6094 15.8281 41.6094
Q11.8594 41.6094 9.29688 37.5312
Q6.73438 33.4531 5.51562 28.4219
Q5.32812 27.7812 4.6875 27.7812
L3.51562 27.7812
Q2.6875 27.7812 2.6875 28.7188
L2.6875 29
Q4.29688 34.9688 7.60938 39.5781
Q10.9375 44.1875 16.0156 44.1875
Q19.5781 44.1875 22.0469 41.8438
Q24.5156 39.5 24.5156 35.8906
Q24.5156 34.0312 23.6875 31.9844
Q23.25 30.7656 21.6875 26.6562
Q20.125 22.5625 19.2812 19.875
Q18.4531 17.1875 17.9219 14.5938
Q17.3906 12.0156 17.3906 9.42188
Q17.3906 6.10938 18.7969 3.8125
Q20.2188 1.51562 23.2969 1.51562
Q29.5 1.51562 34.4219 9.07812
L42 39.8906
Q42.3281 41.2188 43.5469 42.1562
Q44.7812 43.1094 46.1875 43.1094
Q47.4062 43.1094 48.3125 42.3281
Q49.2188 41.5469 49.2188 40.2812
Q49.2188 39.7031 49.125 39.5
L39.2031 -0.296875
Q37.8906 -5.42188 34.375 -10.1094
Q30.8594 -14.7969 25.9062 -17.6562
Q20.9531 -20.5156 15.5781 -20.5156
Q12.9844 -20.5156 10.4375 -19.5
Q7.90625 -18.5 6.34375 -16.5
Q4.78125 -14.5 4.78125 -11.8125
Q4.78125 -9.07812 6.39062 -7.07812
Q8.01562 -5.07812 10.6875 -5.07812
Q12.3125 -5.07812 13.4062 -6.07812
Q14.5 -7.07812 14.5 -8.6875
Q14.5 -10.9844 12.7812 -12.6875
Q11.0781 -14.4062 8.79688 -14.4062
Q8.6875 -14.3594 8.59375 -14.3281
Q8.5 -14.3125 8.40625 -14.3125" id="Cmmi10-79"/>
     </defs>
     <g transform="translate(368.041761364 180.5)rotate(-90.0)scale(0.2 -0.2)">
      <use transform="translate(0.0 0.8125)" xlink:href="#Cmmi10-79"/>
     </g>
    </g>
   </g>
   <g id="text_46">
    <!-- Best Fit -->
    <defs>
     <path d="
M9.8125 72.9062
L51.7031 72.9062
L51.7031 64.5938
L19.6719 64.5938
L19.6719 43.1094
L48.5781 43.1094
L48.5781 34.8125
L19.6719 34.8125
L19.6719 0
L9.8125 0
z
" id="BitstreamVeraSans-Roman-46"/>
     <path d="
M19.6719 34.8125
L19.6719 8.10938
L35.5 8.10938
Q43.4531 8.10938 47.2812 11.4062
Q51.125 14.7031 51.125 21.4844
Q51.125 28.3281 47.2812 31.5625
Q43.4531 34.8125 35.5 34.8125
z

M19.6719 64.7969
L19.6719 42.8281
L34.2812 42.8281
Q41.5 42.8281 45.0312 45.5312
Q48.5781 48.25 48.5781 53.8125
Q48.5781 59.3281 45.0312 62.0625
Q41.5 64.7969 34.2812 64.7969
z

M9.8125 72.9062
L35.0156 72.9062
Q46.2969 72.9062 52.3906 68.2188
Q58.5 63.5312 58.5 54.8906
Q58.5 48.1875 55.375 44.2344
Q52.25 40.2812 46.1875 39.3125
Q53.4688 37.75 57.5 32.7812
Q61.5312 27.8281 61.5312 20.4062
Q61.5312 10.6406 54.8906 5.3125
Q48.25 0 35.9844 0
L9.8125 0
z
" id="BitstreamVeraSans-Roman-42"/>
     <path d="
M44.2812 53.0781
L44.2812 44.5781
Q40.4844 46.5312 36.375 47.5
Q32.2812 48.4844 27.875 48.4844
Q21.1875 48.4844 17.8438 46.4375
Q14.5 44.3906 14.5 40.2812
Q14.5 37.1562 16.8906 35.375
Q19.2812 33.5938 26.5156 31.9844
L29.5938 31.2969
Q39.1562 29.25 43.1875 25.5156
Q47.2188 21.7812 47.2188 15.0938
Q47.2188 7.46875 41.1875 3.01562
Q35.1562 -1.42188 24.6094 -1.42188
Q20.2188 -1.42188 15.4531 -0.5625
Q10.6875 0.296875 5.42188 2
L5.42188 11.2812
Q10.4062 8.6875 15.2344 7.39062
Q20.0625 6.10938 24.8125 6.10938
Q31.1562 6.10938 34.5625 8.28125
Q37.9844 10.4531 37.9844 14.4062
Q37.9844 18.0625 35.5156 20.0156
Q33.0625 21.9688 24.7031 23.7812
L21.5781 24.5156
Q13.2344 26.2656 9.51562 29.9062
Q5.8125 33.5469 5.8125 39.8906
Q5.8125 47.6094 11.2812 51.7969
Q16.75 56 26.8125 56
Q31.7812 56 36.1719 55.2656
Q40.5781 54.5469 44.2812 53.0781" id="BitstreamVeraSans-Roman-73"/>
    </defs>
    <g transform="translate(484.374005682 31.0)scale(0.2 -0.2)">
     <use xlink:href="#BitstreamVeraSans-Roman-42"/>
     <use x="68.603515625" xlink:href="#BitstreamVeraSans-Roman-65"/>
     <use x="130.126953125" xlink:href="#BitstreamVeraSans-Roman-73"/>
     <use x="182.2265625" xlink:href="#BitstreamVeraSans-Roman-74"/>
     <use x="221.435546875" xlink:href="#BitstreamVeraSans-Roman-20"/>
     <use x="253.22265625" xlink:href="#BitstreamVeraSans-Roman-46"/>
     <use x="303.4921875" xlink:href="#BitstreamVeraSans-Roman-69"/>
     <use x="331.275390625" xlink:href="#BitstreamVeraSans-Roman-74"/>
    </g>
   </g>
  </g>
 </g>
 <defs>
  <clipPath id="p447f0539f8">
   <rect height="279.0" width="253.636363636" x="394.363636364" y="36.0"/>
  </clipPath>
  <clipPath id="p4bbcf401cb">
   <rect height="279.0" width="253.636363636" x="90.0" y="36.0"/>
  </clipPath>
 </defs>
</svg>
